ISO-10303-21;
HEADER;
/*Generated by software containing ST-Developer
 * from STEP Tools, Inc. (www.steptools.com) 
 */
/*OPTION: using custom renumber hook */
/*description */
/*implementation_level */
FILE_DESCRIPTION(('STEP AP242 Edition 2','STEP AP242 Edition 2''CAx-IF Rec.Pracs.---Representation and Presentation of Product Manufa
cturing Information (PMI)---4.0---2014-10-13','STEP AP242 Edition 2''CAx-IF Rec.Pracs.---Representation and Presentation of Product Manufa
cturing Information (PMI)---4.0---2014-10-13''CAx-IF Rec.Pracs.---3D Tessellated Geometry---0.4---2014-09-14','STEP AP242 Edition 2''CAx-IF Rec.Pracs.---Representation and Presentation of Product Manufa
cturing Information (PMI)---4.0---2014-10-13''CAx-IF Rec.Pracs.---3D Tessellated Geometry---0.4---2014-09-14''2;1','STEP AP242 Edition 2''CAx-IF Rec.Pracs.---Representation and Presentation of Product Manufa
cturing Information (PMI)---4.0---2014-10-13''CAx-IF Rec.Pracs.---3D Tessellated Geometry---0.4---2014-09-14''2;1''CAx-IF Rec.Pracs.---User Defined Attributes---1.5---2016-08-15'),'2;1');
/*name */
/*time_stamp */
/*author */
/*organization */
/*preprocessor_version */
/*originating_system */
/*authorisation */
FILE_NAME('/vol/tmp/translate-15977737023270067282/0_bins - bin_third_left.step','2026-03-19T22:04:53',(''),(''),'ST-DEVELOPER v20','ONSHAPE BY PTC INC, 1.212','  ');
FILE_SCHEMA(('AP242_MANAGED_MODEL_BASED_3D_ENGINEERING_MIM_LF { 1 0 10303 442 3 1 4 }'));
ENDSEC;
DATA;
#10=SHAPE_REPRESENTATION_RELATIONSHIP('','',#755,#11);
#11=ADVANCED_BREP_SHAPE_REPRESENTATION('',(#753),#1211);
#12=CONICAL_SURFACE('',#799,0.187641533150917,0.523598775598299);
#13=CYLINDRICAL_SURFACE('',#798,0.191562720281946);
#14=B_SPLINE_CURVE_WITH_KNOTS('',3,(#1131,#1132,#1133,#1134),.UNSPECIFIED.,.F.,.F.,(4,4),(0.00307835051198561,0.0817103283275443),.UNSPECIFIED.);
#15=B_SPLINE_CURVE_WITH_KNOTS('',3,(#1176,#1177,#1178,#1179),.UNSPECIFIED.,.F.,.F.,(4,4),(0.00466240558808418,0.0832264701941889),.UNSPECIFIED.);
#16=B_SPLINE_CURVE_WITH_KNOTS('',3,(#1195,#1196,#1197,#1198),.UNSPECIFIED.,.F.,.F.,(4,4),(0.00297500128810331,0.0798003070694982),.UNSPECIFIED.);
#17=B_SPLINE_CURVE_WITH_KNOTS('',3,(#1200,#1201,#1202,#1203),.UNSPECIFIED.,.F.,.F.,(4,4),(0.00519806582343981,0.0819621304295314),.UNSPECIFIED.);
#18=B_SPLINE_CURVE_WITH_KNOTS('',3,(#1205,#1206,#1207,#1208),.UNSPECIFIED.,.F.,.F.,(4,4),(0.00657555282009336,0.00850791441925775),.UNSPECIFIED.);
#19=CIRCLE('',#763,0.191562720281946);
#20=CIRCLE('',#766,0.191562720281946);
#21=CIRCLE('',#794,0.191562720281946);
#22=LINE('',#987,#116);
#23=LINE('',#989,#117);
#24=LINE('',#991,#118);
#25=LINE('',#993,#119);
#26=LINE('',#996,#120);
#27=LINE('',#998,#121);
#28=LINE('',#1000,#122);
#29=LINE('',#1002,#123);
#30=LINE('',#1004,#124);
#31=LINE('',#1006,#125);
#32=LINE('',#1008,#126);
#33=LINE('',#1010,#127);
#34=LINE('',#1012,#128);
#35=LINE('',#1014,#129);
#36=LINE('',#1016,#130);
#37=LINE('',#1023,#131);
#38=LINE('',#1025,#132);
#39=LINE('',#1027,#133);
#40=LINE('',#1029,#134);
#41=LINE('',#1031,#135);
#42=LINE('',#1033,#136);
#43=LINE('',#1035,#137);
#44=LINE('',#1037,#138);
#45=LINE('',#1039,#139);
#46=LINE('',#1041,#140);
#47=LINE('',#1043,#141);
#48=LINE('',#1045,#142);
#49=LINE('',#1047,#143);
#50=LINE('',#1049,#144);
#51=LINE('',#1051,#145);
#52=LINE('',#1053,#146);
#53=LINE('',#1055,#147);
#54=LINE('',#1057,#148);
#55=LINE('',#1059,#149);
#56=LINE('',#1061,#150);
#57=LINE('',#1063,#151);
#58=LINE('',#1065,#152);
#59=LINE('',#1067,#153);
#60=LINE('',#1068,#154);
#61=LINE('',#1073,#155);
#62=LINE('',#1074,#156);
#63=LINE('',#1076,#157);
#64=LINE('',#1078,#158);
#65=LINE('',#1080,#159);
#66=LINE('',#1082,#160);
#67=LINE('',#1085,#161);
#68=LINE('',#1086,#162);
#69=LINE('',#1088,#163);
#70=LINE('',#1089,#164);
#71=LINE('',#1091,#165);
#72=LINE('',#1093,#166);
#73=LINE('',#1095,#167);
#74=LINE('',#1097,#168);
#75=LINE('',#1099,#169);
#76=LINE('',#1101,#170);
#77=LINE('',#1103,#171);
#78=LINE('',#1105,#172);
#79=LINE('',#1107,#173);
#80=LINE('',#1109,#174);
#81=LINE('',#1111,#175);
#82=LINE('',#1113,#176);
#83=LINE('',#1115,#177);
#84=LINE('',#1117,#178);
#85=LINE('',#1119,#179);
#86=LINE('',#1121,#180);
#87=LINE('',#1123,#181);
#88=LINE('',#1125,#182);
#89=LINE('',#1127,#183);
#90=LINE('',#1129,#184);
#91=LINE('',#1135,#185);
#92=LINE('',#1137,#186);
#93=LINE('',#1138,#187);
#94=LINE('',#1140,#188);
#95=LINE('',#1141,#189);
#96=LINE('',#1143,#190);
#97=LINE('',#1144,#191);
#98=LINE('',#1146,#192);
#99=LINE('',#1147,#193);
#100=LINE('',#1149,#194);
#101=LINE('',#1150,#195);
#102=LINE('',#1152,#196);
#103=LINE('',#1153,#197);
#104=LINE('',#1155,#198);
#105=LINE('',#1156,#199);
#106=LINE('',#1158,#200);
#107=LINE('',#1159,#201);
#108=LINE('',#1161,#202);
#109=LINE('',#1162,#203);
#110=LINE('',#1164,#204);
#111=LINE('',#1184,#205);
#112=LINE('',#1186,#206);
#113=LINE('',#1188,#207);
#114=LINE('',#1192,#208);
#115=LINE('',#1193,#209);
#116=VECTOR('',#806,1.);
#117=VECTOR('',#807,1.);
#118=VECTOR('',#808,1.);
#119=VECTOR('',#811,1.);
#120=VECTOR('',#812,1.);
#121=VECTOR('',#813,1.);
#122=VECTOR('',#814,1.);
#123=VECTOR('',#817,1.);
#124=VECTOR('',#818,1.);
#125=VECTOR('',#819,1.);
#126=VECTOR('',#820,1.);
#127=VECTOR('',#821,1.);
#128=VECTOR('',#822,1.);
#129=VECTOR('',#823,1.);
#130=VECTOR('',#826,1.);
#131=VECTOR('',#831,1.);
#132=VECTOR('',#832,1.);
#133=VECTOR('',#833,1.);
#134=VECTOR('',#834,1.);
#135=VECTOR('',#835,1.);
#136=VECTOR('',#836,1.);
#137=VECTOR('',#837,1.);
#138=VECTOR('',#838,1.);
#139=VECTOR('',#839,1.);
#140=VECTOR('',#840,1.);
#141=VECTOR('',#841,1.);
#142=VECTOR('',#842,1.);
#143=VECTOR('',#843,1.);
#144=VECTOR('',#844,1.);
#145=VECTOR('',#845,1.);
#146=VECTOR('',#846,1.);
#147=VECTOR('',#847,1.);
#148=VECTOR('',#848,1.);
#149=VECTOR('',#849,1.);
#150=VECTOR('',#850,1.);
#151=VECTOR('',#851,1.);
#152=VECTOR('',#852,1.);
#153=VECTOR('',#855,1.);
#154=VECTOR('',#856,1.);
#155=VECTOR('',#861,1.);
#156=VECTOR('',#862,1.);
#157=VECTOR('',#865,1.);
#158=VECTOR('',#866,1.);
#159=VECTOR('',#867,1.);
#160=VECTOR('',#870,1.);
#161=VECTOR('',#871,1.);
#162=VECTOR('',#872,1.);
#163=VECTOR('',#875,1.);
#164=VECTOR('',#876,1.);
#165=VECTOR('',#877,1.);
#166=VECTOR('',#878,1.);
#167=VECTOR('',#879,1.);
#168=VECTOR('',#880,1.);
#169=VECTOR('',#881,1.);
#170=VECTOR('',#882,1.);
#171=VECTOR('',#883,1.);
#172=VECTOR('',#884,1.);
#173=VECTOR('',#885,1.);
#174=VECTOR('',#886,1.);
#175=VECTOR('',#887,1.);
#176=VECTOR('',#888,1.);
#177=VECTOR('',#889,1.);
#178=VECTOR('',#890,1.);
#179=VECTOR('',#891,1.);
#180=VECTOR('',#892,1.);
#181=VECTOR('',#893,1.);
#182=VECTOR('',#894,1.);
#183=VECTOR('',#895,1.);
#184=VECTOR('',#896,1.);
#185=VECTOR('',#899,1.);
#186=VECTOR('',#902,1.);
#187=VECTOR('',#903,1.);
#188=VECTOR('',#906,1.);
#189=VECTOR('',#907,1.);
#190=VECTOR('',#910,1.);
#191=VECTOR('',#911,1.);
#192=VECTOR('',#914,1.);
#193=VECTOR('',#915,1.);
#194=VECTOR('',#918,1.);
#195=VECTOR('',#919,1.);
#196=VECTOR('',#922,1.);
#197=VECTOR('',#923,1.);
#198=VECTOR('',#926,1.);
#199=VECTOR('',#927,1.);
#200=VECTOR('',#930,1.);
#201=VECTOR('',#931,1.);
#202=VECTOR('',#934,1.);
#203=VECTOR('',#935,1.);
#204=VECTOR('',#938,1.);
#205=VECTOR('',#965,1.);
#206=VECTOR('',#966,1.);
#207=VECTOR('',#967,1.);
#208=VECTOR('',#972,1.);
#209=VECTOR('',#973,1.);
#210=ORIENTED_EDGE('',*,*,#420,.F.);
#211=ORIENTED_EDGE('',*,*,#421,.T.);
#212=ORIENTED_EDGE('',*,*,#422,.F.);
#213=ORIENTED_EDGE('',*,*,#423,.F.);
#214=ORIENTED_EDGE('',*,*,#424,.T.);
#215=ORIENTED_EDGE('',*,*,#425,.T.);
#216=ORIENTED_EDGE('',*,*,#426,.F.);
#217=ORIENTED_EDGE('',*,*,#427,.F.);
#218=ORIENTED_EDGE('',*,*,#426,.T.);
#219=ORIENTED_EDGE('',*,*,#428,.T.);
#220=ORIENTED_EDGE('',*,*,#429,.F.);
#221=ORIENTED_EDGE('',*,*,#430,.T.);
#222=ORIENTED_EDGE('',*,*,#431,.T.);
#223=ORIENTED_EDGE('',*,*,#432,.F.);
#224=ORIENTED_EDGE('',*,*,#433,.T.);
#225=ORIENTED_EDGE('',*,*,#434,.F.);
#226=ORIENTED_EDGE('',*,*,#435,.T.);
#227=ORIENTED_EDGE('',*,*,#436,.T.);
#228=ORIENTED_EDGE('',*,*,#437,.T.);
#229=ORIENTED_EDGE('',*,*,#438,.F.);
#230=ORIENTED_EDGE('',*,*,#439,.T.);
#231=ORIENTED_EDGE('',*,*,#440,.T.);
#232=ORIENTED_EDGE('',*,*,#441,.T.);
#233=ORIENTED_EDGE('',*,*,#442,.T.);
#234=ORIENTED_EDGE('',*,*,#443,.T.);
#235=ORIENTED_EDGE('',*,*,#444,.T.);
#236=ORIENTED_EDGE('',*,*,#445,.T.);
#237=ORIENTED_EDGE('',*,*,#446,.T.);
#238=ORIENTED_EDGE('',*,*,#447,.T.);
#239=ORIENTED_EDGE('',*,*,#448,.T.);
#240=ORIENTED_EDGE('',*,*,#449,.T.);
#241=ORIENTED_EDGE('',*,*,#450,.T.);
#242=ORIENTED_EDGE('',*,*,#451,.T.);
#243=ORIENTED_EDGE('',*,*,#452,.T.);
#244=ORIENTED_EDGE('',*,*,#453,.T.);
#245=ORIENTED_EDGE('',*,*,#454,.T.);
#246=ORIENTED_EDGE('',*,*,#455,.T.);
#247=ORIENTED_EDGE('',*,*,#456,.T.);
#248=ORIENTED_EDGE('',*,*,#457,.T.);
#249=ORIENTED_EDGE('',*,*,#458,.T.);
#250=ORIENTED_EDGE('',*,*,#459,.T.);
#251=ORIENTED_EDGE('',*,*,#431,.F.);
#252=ORIENTED_EDGE('',*,*,#460,.T.);
#253=ORIENTED_EDGE('',*,*,#422,.T.);
#254=ORIENTED_EDGE('',*,*,#461,.F.);
#255=ORIENTED_EDGE('',*,*,#462,.F.);
#256=ORIENTED_EDGE('',*,*,#463,.F.);
#257=ORIENTED_EDGE('',*,*,#424,.F.);
#258=ORIENTED_EDGE('',*,*,#464,.T.);
#259=ORIENTED_EDGE('',*,*,#439,.F.);
#260=ORIENTED_EDGE('',*,*,#465,.T.);
#261=ORIENTED_EDGE('',*,*,#466,.F.);
#262=ORIENTED_EDGE('',*,*,#467,.T.);
#263=ORIENTED_EDGE('',*,*,#468,.T.);
#264=ORIENTED_EDGE('',*,*,#469,.T.);
#265=ORIENTED_EDGE('',*,*,#433,.F.);
#266=ORIENTED_EDGE('',*,*,#470,.F.);
#267=ORIENTED_EDGE('',*,*,#471,.F.);
#268=ORIENTED_EDGE('',*,*,#468,.F.);
#269=ORIENTED_EDGE('',*,*,#472,.F.);
#270=ORIENTED_EDGE('',*,*,#473,.T.);
#271=ORIENTED_EDGE('',*,*,#474,.T.);
#272=ORIENTED_EDGE('',*,*,#475,.F.);
#273=ORIENTED_EDGE('',*,*,#476,.T.);
#274=ORIENTED_EDGE('',*,*,#477,.T.);
#275=ORIENTED_EDGE('',*,*,#478,.T.);
#276=ORIENTED_EDGE('',*,*,#479,.F.);
#277=ORIENTED_EDGE('',*,*,#480,.T.);
#278=ORIENTED_EDGE('',*,*,#481,.T.);
#279=ORIENTED_EDGE('',*,*,#482,.T.);
#280=ORIENTED_EDGE('',*,*,#483,.F.);
#281=ORIENTED_EDGE('',*,*,#484,.T.);
#282=ORIENTED_EDGE('',*,*,#485,.T.);
#283=ORIENTED_EDGE('',*,*,#486,.T.);
#284=ORIENTED_EDGE('',*,*,#487,.F.);
#285=ORIENTED_EDGE('',*,*,#488,.T.);
#286=ORIENTED_EDGE('',*,*,#489,.T.);
#287=ORIENTED_EDGE('',*,*,#490,.T.);
#288=ORIENTED_EDGE('',*,*,#491,.F.);
#289=ORIENTED_EDGE('',*,*,#492,.T.);
#290=ORIENTED_EDGE('',*,*,#466,.T.);
#291=ORIENTED_EDGE('',*,*,#493,.F.);
#292=ORIENTED_EDGE('',*,*,#435,.F.);
#293=ORIENTED_EDGE('',*,*,#494,.F.);
#294=ORIENTED_EDGE('',*,*,#472,.T.);
#295=ORIENTED_EDGE('',*,*,#470,.T.);
#296=ORIENTED_EDGE('',*,*,#432,.T.);
#297=ORIENTED_EDGE('',*,*,#461,.T.);
#298=ORIENTED_EDGE('',*,*,#421,.F.);
#299=ORIENTED_EDGE('',*,*,#491,.T.);
#300=ORIENTED_EDGE('',*,*,#495,.T.);
#301=ORIENTED_EDGE('',*,*,#441,.F.);
#302=ORIENTED_EDGE('',*,*,#496,.F.);
#303=ORIENTED_EDGE('',*,*,#487,.T.);
#304=ORIENTED_EDGE('',*,*,#497,.T.);
#305=ORIENTED_EDGE('',*,*,#445,.F.);
#306=ORIENTED_EDGE('',*,*,#498,.F.);
#307=ORIENTED_EDGE('',*,*,#483,.T.);
#308=ORIENTED_EDGE('',*,*,#499,.T.);
#309=ORIENTED_EDGE('',*,*,#449,.F.);
#310=ORIENTED_EDGE('',*,*,#500,.F.);
#311=ORIENTED_EDGE('',*,*,#479,.T.);
#312=ORIENTED_EDGE('',*,*,#501,.T.);
#313=ORIENTED_EDGE('',*,*,#453,.F.);
#314=ORIENTED_EDGE('',*,*,#502,.F.);
#315=ORIENTED_EDGE('',*,*,#475,.T.);
#316=ORIENTED_EDGE('',*,*,#503,.T.);
#317=ORIENTED_EDGE('',*,*,#457,.F.);
#318=ORIENTED_EDGE('',*,*,#504,.F.);
#319=ORIENTED_EDGE('',*,*,#485,.F.);
#320=ORIENTED_EDGE('',*,*,#505,.T.);
#321=ORIENTED_EDGE('',*,*,#447,.F.);
#322=ORIENTED_EDGE('',*,*,#506,.F.);
#323=ORIENTED_EDGE('',*,*,#477,.F.);
#324=ORIENTED_EDGE('',*,*,#507,.T.);
#325=ORIENTED_EDGE('',*,*,#455,.F.);
#326=ORIENTED_EDGE('',*,*,#508,.F.);
#327=ORIENTED_EDGE('',*,*,#481,.F.);
#328=ORIENTED_EDGE('',*,*,#509,.T.);
#329=ORIENTED_EDGE('',*,*,#451,.F.);
#330=ORIENTED_EDGE('',*,*,#510,.F.);
#331=ORIENTED_EDGE('',*,*,#489,.F.);
#332=ORIENTED_EDGE('',*,*,#511,.T.);
#333=ORIENTED_EDGE('',*,*,#443,.F.);
#334=ORIENTED_EDGE('',*,*,#512,.F.);
#335=ORIENTED_EDGE('',*,*,#473,.F.);
#336=ORIENTED_EDGE('',*,*,#494,.T.);
#337=ORIENTED_EDGE('',*,*,#459,.F.);
#338=ORIENTED_EDGE('',*,*,#513,.F.);
#339=ORIENTED_EDGE('',*,*,#497,.F.);
#340=ORIENTED_EDGE('',*,*,#486,.F.);
#341=ORIENTED_EDGE('',*,*,#506,.T.);
#342=ORIENTED_EDGE('',*,*,#446,.F.);
#343=ORIENTED_EDGE('',*,*,#511,.F.);
#344=ORIENTED_EDGE('',*,*,#488,.F.);
#345=ORIENTED_EDGE('',*,*,#498,.T.);
#346=ORIENTED_EDGE('',*,*,#444,.F.);
#347=ORIENTED_EDGE('',*,*,#495,.F.);
#348=ORIENTED_EDGE('',*,*,#490,.F.);
#349=ORIENTED_EDGE('',*,*,#512,.T.);
#350=ORIENTED_EDGE('',*,*,#442,.F.);
#351=ORIENTED_EDGE('',*,*,#467,.F.);
#352=ORIENTED_EDGE('',*,*,#492,.F.);
#353=ORIENTED_EDGE('',*,*,#496,.T.);
#354=ORIENTED_EDGE('',*,*,#440,.F.);
#355=ORIENTED_EDGE('',*,*,#501,.F.);
#356=ORIENTED_EDGE('',*,*,#478,.F.);
#357=ORIENTED_EDGE('',*,*,#508,.T.);
#358=ORIENTED_EDGE('',*,*,#454,.F.);
#359=ORIENTED_EDGE('',*,*,#509,.F.);
#360=ORIENTED_EDGE('',*,*,#480,.F.);
#361=ORIENTED_EDGE('',*,*,#502,.T.);
#362=ORIENTED_EDGE('',*,*,#452,.F.);
#363=ORIENTED_EDGE('',*,*,#503,.F.);
#364=ORIENTED_EDGE('',*,*,#474,.F.);
#365=ORIENTED_EDGE('',*,*,#513,.T.);
#366=ORIENTED_EDGE('',*,*,#458,.F.);
#367=ORIENTED_EDGE('',*,*,#507,.F.);
#368=ORIENTED_EDGE('',*,*,#476,.F.);
#369=ORIENTED_EDGE('',*,*,#504,.T.);
#370=ORIENTED_EDGE('',*,*,#456,.F.);
#371=ORIENTED_EDGE('',*,*,#499,.F.);
#372=ORIENTED_EDGE('',*,*,#482,.F.);
#373=ORIENTED_EDGE('',*,*,#510,.T.);
#374=ORIENTED_EDGE('',*,*,#450,.F.);
#375=ORIENTED_EDGE('',*,*,#505,.F.);
#376=ORIENTED_EDGE('',*,*,#484,.F.);
#377=ORIENTED_EDGE('',*,*,#500,.T.);
#378=ORIENTED_EDGE('',*,*,#448,.F.);
#379=ORIENTED_EDGE('',*,*,#514,.F.);
#380=ORIENTED_EDGE('',*,*,#464,.F.);
#381=ORIENTED_EDGE('',*,*,#427,.T.);
#382=ORIENTED_EDGE('',*,*,#434,.T.);
#383=ORIENTED_EDGE('',*,*,#469,.F.);
#384=ORIENTED_EDGE('',*,*,#471,.T.);
#385=ORIENTED_EDGE('',*,*,#465,.F.);
#386=ORIENTED_EDGE('',*,*,#438,.T.);
#387=ORIENTED_EDGE('',*,*,#515,.F.);
#388=ORIENTED_EDGE('',*,*,#516,.F.);
#389=ORIENTED_EDGE('',*,*,#517,.T.);
#390=ORIENTED_EDGE('',*,*,#518,.T.);
#391=ORIENTED_EDGE('',*,*,#519,.F.);
#392=ORIENTED_EDGE('',*,*,#520,.T.);
#393=ORIENTED_EDGE('',*,*,#429,.T.);
#394=ORIENTED_EDGE('',*,*,#521,.F.);
#395=ORIENTED_EDGE('',*,*,#517,.F.);
#396=ORIENTED_EDGE('',*,*,#516,.T.);
#397=ORIENTED_EDGE('',*,*,#522,.T.);
#398=ORIENTED_EDGE('',*,*,#423,.T.);
#399=ORIENTED_EDGE('',*,*,#460,.F.);
#400=ORIENTED_EDGE('',*,*,#430,.F.);
#401=ORIENTED_EDGE('',*,*,#520,.F.);
#402=ORIENTED_EDGE('',*,*,#463,.T.);
#403=ORIENTED_EDGE('',*,*,#523,.T.);
#404=ORIENTED_EDGE('',*,*,#518,.F.);
#405=ORIENTED_EDGE('',*,*,#521,.T.);
#406=ORIENTED_EDGE('',*,*,#428,.F.);
#407=ORIENTED_EDGE('',*,*,#425,.F.);
#408=ORIENTED_EDGE('',*,*,#437,.F.);
#409=ORIENTED_EDGE('',*,*,#524,.T.);
#410=ORIENTED_EDGE('',*,*,#519,.T.);
#411=ORIENTED_EDGE('',*,*,#523,.F.);
#412=ORIENTED_EDGE('',*,*,#462,.T.);
#413=ORIENTED_EDGE('',*,*,#514,.T.);
#414=ORIENTED_EDGE('',*,*,#420,.T.);
#415=ORIENTED_EDGE('',*,*,#522,.F.);
#416=ORIENTED_EDGE('',*,*,#515,.T.);
#417=ORIENTED_EDGE('',*,*,#524,.F.);
#418=ORIENTED_EDGE('',*,*,#436,.F.);
#419=ORIENTED_EDGE('',*,*,#493,.T.);
#420=EDGE_CURVE('',#525,#526,#595,.T.);
#421=EDGE_CURVE('',#525,#527,#22,.T.);
#422=EDGE_CURVE('',#528,#527,#23,.T.);
#423=EDGE_CURVE('',#526,#528,#24,.T.);
#424=EDGE_CURVE('',#529,#530,#25,.T.);
#425=EDGE_CURVE('',#530,#531,#26,.T.);
#426=EDGE_CURVE('',#532,#531,#27,.T.);
#427=EDGE_CURVE('',#529,#532,#28,.T.);
#428=EDGE_CURVE('',#531,#533,#29,.T.);
#429=EDGE_CURVE('',#534,#533,#30,.T.);
#430=EDGE_CURVE('',#534,#535,#31,.T.);
#431=EDGE_CURVE('',#535,#536,#32,.T.);
#432=EDGE_CURVE('',#537,#536,#33,.T.);
#433=EDGE_CURVE('',#537,#538,#34,.T.);
#434=EDGE_CURVE('',#532,#538,#35,.T.);
#435=EDGE_CURVE('',#539,#540,#36,.T.);
#436=EDGE_CURVE('',#540,#541,#596,.T.);
#437=EDGE_CURVE('',#541,#542,#19,.T.);
#438=EDGE_CURVE('',#543,#542,#37,.T.);
#439=EDGE_CURVE('',#543,#544,#38,.T.);
#440=EDGE_CURVE('',#544,#545,#39,.T.);
#441=EDGE_CURVE('',#545,#546,#40,.T.);
#442=EDGE_CURVE('',#546,#547,#41,.T.);
#443=EDGE_CURVE('',#547,#548,#42,.T.);
#444=EDGE_CURVE('',#548,#549,#43,.T.);
#445=EDGE_CURVE('',#549,#550,#44,.T.);
#446=EDGE_CURVE('',#550,#551,#45,.T.);
#447=EDGE_CURVE('',#551,#552,#46,.T.);
#448=EDGE_CURVE('',#552,#553,#47,.T.);
#449=EDGE_CURVE('',#553,#554,#48,.T.);
#450=EDGE_CURVE('',#554,#555,#49,.T.);
#451=EDGE_CURVE('',#555,#556,#50,.T.);
#452=EDGE_CURVE('',#556,#557,#51,.T.);
#453=EDGE_CURVE('',#557,#558,#52,.T.);
#454=EDGE_CURVE('',#558,#559,#53,.T.);
#455=EDGE_CURVE('',#559,#560,#54,.T.);
#456=EDGE_CURVE('',#560,#561,#55,.T.);
#457=EDGE_CURVE('',#561,#562,#56,.T.);
#458=EDGE_CURVE('',#562,#563,#57,.T.);
#459=EDGE_CURVE('',#563,#539,#58,.T.);
#460=EDGE_CURVE('',#535,#528,#59,.T.);
#461=EDGE_CURVE('',#536,#527,#60,.T.);
#462=EDGE_CURVE('',#564,#565,#20,.T.);
#463=EDGE_CURVE('',#530,#564,#61,.T.);
#464=EDGE_CURVE('',#529,#565,#62,.T.);
#465=EDGE_CURVE('',#543,#566,#63,.T.);
#466=EDGE_CURVE('',#567,#566,#64,.T.);
#467=EDGE_CURVE('',#567,#544,#65,.T.);
#468=EDGE_CURVE('',#568,#569,#66,.T.);
#469=EDGE_CURVE('',#569,#538,#67,.T.);
#470=EDGE_CURVE('',#568,#537,#68,.T.);
#471=EDGE_CURVE('',#569,#566,#69,.T.);
#472=EDGE_CURVE('',#570,#568,#70,.T.);
#473=EDGE_CURVE('',#570,#571,#71,.T.);
#474=EDGE_CURVE('',#571,#572,#72,.T.);
#475=EDGE_CURVE('',#573,#572,#73,.T.);
#476=EDGE_CURVE('',#573,#574,#74,.T.);
#477=EDGE_CURVE('',#574,#575,#75,.T.);
#478=EDGE_CURVE('',#575,#576,#76,.T.);
#479=EDGE_CURVE('',#577,#576,#77,.T.);
#480=EDGE_CURVE('',#577,#578,#78,.T.);
#481=EDGE_CURVE('',#578,#579,#79,.T.);
#482=EDGE_CURVE('',#579,#580,#80,.T.);
#483=EDGE_CURVE('',#581,#580,#81,.T.);
#484=EDGE_CURVE('',#581,#582,#82,.T.);
#485=EDGE_CURVE('',#582,#583,#83,.T.);
#486=EDGE_CURVE('',#583,#584,#84,.T.);
#487=EDGE_CURVE('',#585,#584,#85,.T.);
#488=EDGE_CURVE('',#585,#586,#86,.T.);
#489=EDGE_CURVE('',#586,#587,#87,.T.);
#490=EDGE_CURVE('',#587,#588,#88,.T.);
#491=EDGE_CURVE('',#589,#588,#89,.T.);
#492=EDGE_CURVE('',#589,#567,#90,.T.);
#493=EDGE_CURVE('',#540,#525,#14,.T.);
#494=EDGE_CURVE('',#570,#539,#91,.T.);
#495=EDGE_CURVE('',#588,#546,#92,.T.);
#496=EDGE_CURVE('',#589,#545,#93,.T.);
#497=EDGE_CURVE('',#584,#550,#94,.T.);
#498=EDGE_CURVE('',#585,#549,#95,.T.);
#499=EDGE_CURVE('',#580,#554,#96,.T.);
#500=EDGE_CURVE('',#581,#553,#97,.T.);
#501=EDGE_CURVE('',#576,#558,#98,.T.);
#502=EDGE_CURVE('',#577,#557,#99,.T.);
#503=EDGE_CURVE('',#572,#562,#100,.T.);
#504=EDGE_CURVE('',#573,#561,#101,.T.);
#505=EDGE_CURVE('',#582,#552,#102,.T.);
#506=EDGE_CURVE('',#583,#551,#103,.T.);
#507=EDGE_CURVE('',#574,#560,#104,.T.);
#508=EDGE_CURVE('',#575,#559,#105,.T.);
#509=EDGE_CURVE('',#578,#556,#106,.T.);
#510=EDGE_CURVE('',#579,#555,#107,.T.);
#511=EDGE_CURVE('',#586,#548,#108,.T.);
#512=EDGE_CURVE('',#587,#547,#109,.T.);
#513=EDGE_CURVE('',#571,#563,#110,.T.);
#514=EDGE_CURVE('',#565,#542,#15,.T.);
#515=EDGE_CURVE('',#590,#591,#597,.T.);
#516=EDGE_CURVE('',#592,#590,#111,.T.);
#517=EDGE_CURVE('',#592,#593,#112,.T.);
#518=EDGE_CURVE('',#593,#594,#113,.T.);
#519=EDGE_CURVE('',#591,#594,#21,.T.);
#520=EDGE_CURVE('',#592,#534,#114,.T.);
#521=EDGE_CURVE('',#593,#533,#115,.T.);
#522=EDGE_CURVE('',#590,#526,#16,.T.);
#523=EDGE_CURVE('',#564,#594,#17,.T.);
#524=EDGE_CURVE('',#541,#591,#18,.T.);
#525=VERTEX_POINT('',#985);
#526=VERTEX_POINT('',#986);
#527=VERTEX_POINT('',#988);
#528=VERTEX_POINT('',#990);
#529=VERTEX_POINT('',#994);
#530=VERTEX_POINT('',#995);
#531=VERTEX_POINT('',#997);
#532=VERTEX_POINT('',#999);
#533=VERTEX_POINT('',#1003);
#534=VERTEX_POINT('',#1005);
#535=VERTEX_POINT('',#1007);
#536=VERTEX_POINT('',#1009);
#537=VERTEX_POINT('',#1011);
#538=VERTEX_POINT('',#1013);
#539=VERTEX_POINT('',#1017);
#540=VERTEX_POINT('',#1018);
#541=VERTEX_POINT('',#1020);
#542=VERTEX_POINT('',#1022);
#543=VERTEX_POINT('',#1024);
#544=VERTEX_POINT('',#1026);
#545=VERTEX_POINT('',#1028);
#546=VERTEX_POINT('',#1030);
#547=VERTEX_POINT('',#1032);
#548=VERTEX_POINT('',#1034);
#549=VERTEX_POINT('',#1036);
#550=VERTEX_POINT('',#1038);
#551=VERTEX_POINT('',#1040);
#552=VERTEX_POINT('',#1042);
#553=VERTEX_POINT('',#1044);
#554=VERTEX_POINT('',#1046);
#555=VERTEX_POINT('',#1048);
#556=VERTEX_POINT('',#1050);
#557=VERTEX_POINT('',#1052);
#558=VERTEX_POINT('',#1054);
#559=VERTEX_POINT('',#1056);
#560=VERTEX_POINT('',#1058);
#561=VERTEX_POINT('',#1060);
#562=VERTEX_POINT('',#1062);
#563=VERTEX_POINT('',#1064);
#564=VERTEX_POINT('',#1071);
#565=VERTEX_POINT('',#1072);
#566=VERTEX_POINT('',#1077);
#567=VERTEX_POINT('',#1079);
#568=VERTEX_POINT('',#1083);
#569=VERTEX_POINT('',#1084);
#570=VERTEX_POINT('',#1090);
#571=VERTEX_POINT('',#1092);
#572=VERTEX_POINT('',#1094);
#573=VERTEX_POINT('',#1096);
#574=VERTEX_POINT('',#1098);
#575=VERTEX_POINT('',#1100);
#576=VERTEX_POINT('',#1102);
#577=VERTEX_POINT('',#1104);
#578=VERTEX_POINT('',#1106);
#579=VERTEX_POINT('',#1108);
#580=VERTEX_POINT('',#1110);
#581=VERTEX_POINT('',#1112);
#582=VERTEX_POINT('',#1114);
#583=VERTEX_POINT('',#1116);
#584=VERTEX_POINT('',#1118);
#585=VERTEX_POINT('',#1120);
#586=VERTEX_POINT('',#1122);
#587=VERTEX_POINT('',#1124);
#588=VERTEX_POINT('',#1126);
#589=VERTEX_POINT('',#1128);
#590=VERTEX_POINT('',#1182);
#591=VERTEX_POINT('',#1183);
#592=VERTEX_POINT('',#1185);
#593=VERTEX_POINT('',#1187);
#594=VERTEX_POINT('',#1189);
#595=ELLIPSE('',#758,0.406962057935412,0.332283128871575);
#596=ELLIPSE('',#762,0.338923582162477,0.276729946031441);
#597=ELLIPSE('',#793,0.340482427889289,0.278002738237577);
#598=EDGE_LOOP('',(#210,#211,#212,#213));
#599=EDGE_LOOP('',(#214,#215,#216,#217));
#600=EDGE_LOOP('',(#218,#219,#220,#221,#222,#223,#224,#225));
#601=EDGE_LOOP('',(#226,#227,#228,#229,#230,#231,#232,#233,#234,#235,#236,#237,#238,#239,#240,#241,#242,#243,#244,#245,#246,#247,#248,#249,#250));
#602=EDGE_LOOP('',(#251,#252,#253,#254));
#603=EDGE_LOOP('',(#255,#256,#257,#258));
#604=EDGE_LOOP('',(#259,#260,#261,#262));
#605=EDGE_LOOP('',(#263,#264,#265,#266));
#606=EDGE_LOOP('',(#267,#268,#269,#270,#271,#272,#273,#274,#275,#276,#277,#278,#279,#280,#281,#282,#283,#284,#285,#286,#287,#288,#289,#290));
#607=EDGE_LOOP('',(#291,#292,#293,#294,#295,#296,#297,#298));
#608=EDGE_LOOP('',(#299,#300,#301,#302));
#609=EDGE_LOOP('',(#303,#304,#305,#306));
#610=EDGE_LOOP('',(#307,#308,#309,#310));
#611=EDGE_LOOP('',(#311,#312,#313,#314));
#612=EDGE_LOOP('',(#315,#316,#317,#318));
#613=EDGE_LOOP('',(#319,#320,#321,#322));
#614=EDGE_LOOP('',(#323,#324,#325,#326));
#615=EDGE_LOOP('',(#327,#328,#329,#330));
#616=EDGE_LOOP('',(#331,#332,#333,#334));
#617=EDGE_LOOP('',(#335,#336,#337,#338));
#618=EDGE_LOOP('',(#339,#340,#341,#342));
#619=EDGE_LOOP('',(#343,#344,#345,#346));
#620=EDGE_LOOP('',(#347,#348,#349,#350));
#621=EDGE_LOOP('',(#351,#352,#353,#354));
#622=EDGE_LOOP('',(#355,#356,#357,#358));
#623=EDGE_LOOP('',(#359,#360,#361,#362));
#624=EDGE_LOOP('',(#363,#364,#365,#366));
#625=EDGE_LOOP('',(#367,#368,#369,#370));
#626=EDGE_LOOP('',(#371,#372,#373,#374));
#627=EDGE_LOOP('',(#375,#376,#377,#378));
#628=EDGE_LOOP('',(#379,#380,#381,#382,#383,#384,#385,#386));
#629=EDGE_LOOP('',(#387,#388,#389,#390,#391));
#630=EDGE_LOOP('',(#392,#393,#394,#395));
#631=EDGE_LOOP('',(#396,#397,#398,#399,#400,#401));
#632=EDGE_LOOP('',(#402,#403,#404,#405,#406,#407));
#633=EDGE_LOOP('',(#408,#409,#410,#411,#412,#413));
#634=EDGE_LOOP('',(#414,#415,#416,#417,#418,#419));
#635=FACE_BOUND('',#598,.T.);
#636=FACE_BOUND('',#599,.T.);
#637=FACE_BOUND('',#600,.T.);
#638=FACE_BOUND('',#601,.T.);
#639=FACE_BOUND('',#602,.T.);
#640=FACE_BOUND('',#603,.T.);
#641=FACE_BOUND('',#604,.T.);
#642=FACE_BOUND('',#605,.T.);
#643=FACE_BOUND('',#606,.T.);
#644=FACE_BOUND('',#607,.T.);
#645=FACE_BOUND('',#608,.T.);
#646=FACE_BOUND('',#609,.T.);
#647=FACE_BOUND('',#610,.T.);
#648=FACE_BOUND('',#611,.T.);
#649=FACE_BOUND('',#612,.T.);
#650=FACE_BOUND('',#613,.T.);
#651=FACE_BOUND('',#614,.T.);
#652=FACE_BOUND('',#615,.T.);
#653=FACE_BOUND('',#616,.T.);
#654=FACE_BOUND('',#617,.T.);
#655=FACE_BOUND('',#618,.T.);
#656=FACE_BOUND('',#619,.T.);
#657=FACE_BOUND('',#620,.T.);
#658=FACE_BOUND('',#621,.T.);
#659=FACE_BOUND('',#622,.T.);
#660=FACE_BOUND('',#623,.T.);
#661=FACE_BOUND('',#624,.T.);
#662=FACE_BOUND('',#625,.T.);
#663=FACE_BOUND('',#626,.T.);
#664=FACE_BOUND('',#627,.T.);
#665=FACE_BOUND('',#628,.T.);
#666=FACE_BOUND('',#629,.T.);
#667=FACE_BOUND('',#630,.T.);
#668=FACE_BOUND('',#631,.T.);
#669=FACE_BOUND('',#632,.T.);
#670=FACE_BOUND('',#633,.T.);
#671=FACE_BOUND('',#634,.T.);
#672=PLANE('',#757);
#673=PLANE('',#759);
#674=PLANE('',#760);
#675=PLANE('',#761);
#676=PLANE('',#764);
#677=PLANE('',#765);
#678=PLANE('',#767);
#679=PLANE('',#768);
#680=PLANE('',#769);
#681=PLANE('',#770);
#682=PLANE('',#771);
#683=PLANE('',#772);
#684=PLANE('',#773);
#685=PLANE('',#774);
#686=PLANE('',#775);
#687=PLANE('',#776);
#688=PLANE('',#777);
#689=PLANE('',#778);
#690=PLANE('',#779);
#691=PLANE('',#780);
#692=PLANE('',#781);
#693=PLANE('',#782);
#694=PLANE('',#783);
#695=PLANE('',#784);
#696=PLANE('',#785);
#697=PLANE('',#786);
#698=PLANE('',#787);
#699=PLANE('',#788);
#700=PLANE('',#789);
#701=PLANE('',#790);
#702=PLANE('',#791);
#703=PLANE('',#792);
#704=PLANE('',#795);
#705=PLANE('',#796);
#706=PLANE('',#797);
#707=ADVANCED_FACE('',(#635),#672,.T.);
#708=ADVANCED_FACE('',(#636),#673,.F.);
#709=ADVANCED_FACE('',(#637),#674,.F.);
#710=ADVANCED_FACE('',(#638),#675,.F.);
#711=ADVANCED_FACE('',(#639),#676,.F.);
#712=ADVANCED_FACE('',(#640),#677,.T.);
#713=ADVANCED_FACE('',(#641),#678,.T.);
#714=ADVANCED_FACE('',(#642),#679,.T.);
#715=ADVANCED_FACE('',(#643),#680,.F.);
#716=ADVANCED_FACE('',(#644),#681,.T.);
#717=ADVANCED_FACE('',(#645),#682,.T.);
#718=ADVANCED_FACE('',(#646),#683,.T.);
#719=ADVANCED_FACE('',(#647),#684,.T.);
#720=ADVANCED_FACE('',(#648),#685,.T.);
#721=ADVANCED_FACE('',(#649),#686,.T.);
#722=ADVANCED_FACE('',(#650),#687,.T.);
#723=ADVANCED_FACE('',(#651),#688,.T.);
#724=ADVANCED_FACE('',(#652),#689,.T.);
#725=ADVANCED_FACE('',(#653),#690,.T.);
#726=ADVANCED_FACE('',(#654),#691,.T.);
#727=ADVANCED_FACE('',(#655),#692,.F.);
#728=ADVANCED_FACE('',(#656),#693,.F.);
#729=ADVANCED_FACE('',(#657),#694,.F.);
#730=ADVANCED_FACE('',(#658),#695,.F.);
#731=ADVANCED_FACE('',(#659),#696,.F.);
#732=ADVANCED_FACE('',(#660),#697,.F.);
#733=ADVANCED_FACE('',(#661),#698,.F.);
#734=ADVANCED_FACE('',(#662),#699,.F.);
#735=ADVANCED_FACE('',(#663),#700,.F.);
#736=ADVANCED_FACE('',(#664),#701,.F.);
#737=ADVANCED_FACE('',(#665),#702,.T.);
#738=ADVANCED_FACE('',(#666),#703,.T.);
#739=ADVANCED_FACE('',(#667),#704,.F.);
#740=ADVANCED_FACE('',(#668),#705,.F.);
#741=ADVANCED_FACE('',(#669),#706,.F.);
#742=ADVANCED_FACE('',(#670),#13,.F.);
#743=ADVANCED_FACE('',(#671),#12,.F.);
#744=CLOSED_SHELL('',(#707,#708,#709,#710,#711,#712,#713,#714,#715,#716,#717,#718,#719,#720,#721,#722,#723,#724,#725,#726,#727,#728,#729,#730,#731,#732,#733,#734,#735,#736,#737,#738,#739,#740,#741,#742,#743));
#745=STYLED_ITEM('',(#746),#753);
#746=PRESENTATION_STYLE_ASSIGNMENT((#747));
#747=SURFACE_STYLE_USAGE(.BOTH.,#748);
#748=SURFACE_SIDE_STYLE('',(#749));
#749=SURFACE_STYLE_FILL_AREA(#750);
#750=FILL_AREA_STYLE('',(#751));
#751=FILL_AREA_STYLE_COLOUR('',#752);
#752=COLOUR_RGB('',0.647058823529412,0.647058823529412,0.647058823529412);
#753=MANIFOLD_SOLID_BREP('bin_third_left',#744);
#754=SHAPE_DEFINITION_REPRESENTATION(#1216,#755);
#755=SHAPE_REPRESENTATION('bin_third_left',(#756),#1211);
#756=AXIS2_PLACEMENT_3D('',#982,#800,#801);
#757=AXIS2_PLACEMENT_3D('',#983,#802,#803);
#758=AXIS2_PLACEMENT_3D('',#984,#804,#805);
#759=AXIS2_PLACEMENT_3D('',#992,#809,#810);
#760=AXIS2_PLACEMENT_3D('',#1001,#815,#816);
#761=AXIS2_PLACEMENT_3D('',#1015,#824,#825);
#762=AXIS2_PLACEMENT_3D('',#1019,#827,#828);
#763=AXIS2_PLACEMENT_3D('',#1021,#829,#830);
#764=AXIS2_PLACEMENT_3D('',#1066,#853,#854);
#765=AXIS2_PLACEMENT_3D('',#1069,#857,#858);
#766=AXIS2_PLACEMENT_3D('',#1070,#859,#860);
#767=AXIS2_PLACEMENT_3D('',#1075,#863,#864);
#768=AXIS2_PLACEMENT_3D('',#1081,#868,#869);
#769=AXIS2_PLACEMENT_3D('',#1087,#873,#874);
#770=AXIS2_PLACEMENT_3D('',#1130,#897,#898);
#771=AXIS2_PLACEMENT_3D('',#1136,#900,#901);
#772=AXIS2_PLACEMENT_3D('',#1139,#904,#905);
#773=AXIS2_PLACEMENT_3D('',#1142,#908,#909);
#774=AXIS2_PLACEMENT_3D('',#1145,#912,#913);
#775=AXIS2_PLACEMENT_3D('',#1148,#916,#917);
#776=AXIS2_PLACEMENT_3D('',#1151,#920,#921);
#777=AXIS2_PLACEMENT_3D('',#1154,#924,#925);
#778=AXIS2_PLACEMENT_3D('',#1157,#928,#929);
#779=AXIS2_PLACEMENT_3D('',#1160,#932,#933);
#780=AXIS2_PLACEMENT_3D('',#1163,#936,#937);
#781=AXIS2_PLACEMENT_3D('',#1165,#939,#940);
#782=AXIS2_PLACEMENT_3D('',#1166,#941,#942);
#783=AXIS2_PLACEMENT_3D('',#1167,#943,#944);
#784=AXIS2_PLACEMENT_3D('',#1168,#945,#946);
#785=AXIS2_PLACEMENT_3D('',#1169,#947,#948);
#786=AXIS2_PLACEMENT_3D('',#1170,#949,#950);
#787=AXIS2_PLACEMENT_3D('',#1171,#951,#952);
#788=AXIS2_PLACEMENT_3D('',#1172,#953,#954);
#789=AXIS2_PLACEMENT_3D('',#1173,#955,#956);
#790=AXIS2_PLACEMENT_3D('',#1174,#957,#958);
#791=AXIS2_PLACEMENT_3D('',#1175,#959,#960);
#792=AXIS2_PLACEMENT_3D('',#1180,#961,#962);
#793=AXIS2_PLACEMENT_3D('',#1181,#963,#964);
#794=AXIS2_PLACEMENT_3D('',#1190,#968,#969);
#795=AXIS2_PLACEMENT_3D('',#1191,#970,#971);
#796=AXIS2_PLACEMENT_3D('',#1194,#974,#975);
#797=AXIS2_PLACEMENT_3D('',#1199,#976,#977);
#798=AXIS2_PLACEMENT_3D('',#1204,#978,#979);
#799=AXIS2_PLACEMENT_3D('',#1209,#980,#981);
#800=DIRECTION('',(0.,0.,1.));
#801=DIRECTION('',(1.,0.,0.));
#802=DIRECTION('',(0.5,0.,0.866025403784439));
#803=DIRECTION('',(0.866025403784439,0.,-0.5));
#804=DIRECTION('',(0.5,0.,0.866025403784439));
#805=DIRECTION('',(-0.866025403784439,0.,0.5));
#806=DIRECTION('',(0.796459724421261,-0.392686316500096,-0.459836236293309));
#807=DIRECTION('',(0.,-1.,0.));
#808=DIRECTION('',(0.796459724421261,-0.392686316500096,-0.459836236293309));
#809=DIRECTION('',(0.,0.,-1.));
#810=DIRECTION('',(-1.,0.,0.));
#811=DIRECTION('',(0.,-1.,0.));
#812=DIRECTION('',(0.993349528987574,-0.115137801178265,0.));
#813=DIRECTION('',(0.,-1.,0.));
#814=DIRECTION('',(0.993349528987574,-0.115137801178265,0.));
#815=DIRECTION('',(-0.5,0.,-0.866025403784439));
#816=DIRECTION('',(-0.866025403784439,0.,0.5));
#817=DIRECTION('',(0.858371231107697,-0.132659110035998,-0.495580861344659));
#818=DIRECTION('',(0.,1.,0.));
#819=DIRECTION('',(-0.796459724421261,0.392686316500096,0.45983623629331));
#820=DIRECTION('',(0.,-1.,0.));
#821=DIRECTION('',(-0.796459724421261,0.392686316500096,0.45983623629331));
#822=DIRECTION('',(0.,1.,0.));
#823=DIRECTION('',(0.858371231107697,-0.132659110035998,-0.495580861344659));
#824=DIRECTION('',(0.5,0.,0.86602540378444));
#825=DIRECTION('',(0.86602540378444,0.,-0.5));
#826=DIRECTION('',(-0.796459724421261,0.392686316500096,0.459836236293308));
#827=DIRECTION('',(0.5,0.,0.86602540378444));
#828=DIRECTION('',(-0.86602540378444,0.,0.5));
#829=DIRECTION('',(0.5,0.,0.866025403784438));
#830=DIRECTION('',(0.866025403784438,0.,-0.5));
#831=DIRECTION('',(-0.858371231107698,0.132659110035998,0.495580861344658));
#832=DIRECTION('',(0.,-1.,0.));
#833=DIRECTION('',(-0.612372435695795,-0.707106781186548,0.353553390593273));
#834=DIRECTION('',(3.55445226721631E-17,-1.,-2.052163973299E-17));
#835=DIRECTION('',(0.612372435695795,-0.707106781186548,-0.353553390593273));
#836=DIRECTION('',(0.,-1.,0.));
#837=DIRECTION('',(-0.612372435695795,-0.707106781186548,0.353553390593273));
#838=DIRECTION('',(3.55445226721631E-17,-1.,-2.052163973299E-17));
#839=DIRECTION('',(0.612372435695795,-0.707106781186548,-0.353553390593273));
#840=DIRECTION('',(0.,-1.,0.));
#841=DIRECTION('',(-0.612372435695795,-0.707106781186548,0.353553390593273));
#842=DIRECTION('',(3.55445226721631E-17,-1.,-2.052163973299E-17));
#843=DIRECTION('',(0.612372435695795,-0.707106781186548,-0.353553390593273));
#844=DIRECTION('',(0.,-1.,0.));
#845=DIRECTION('',(-0.612372435695795,-0.707106781186548,0.353553390593273));
#846=DIRECTION('',(3.55445226721631E-17,-1.,-2.052163973299E-17));
#847=DIRECTION('',(0.612372435695795,-0.707106781186548,-0.353553390593273));
#848=DIRECTION('',(0.,-1.,0.));
#849=DIRECTION('',(-0.612372435695795,-0.707106781186548,0.353553390593273));
#850=DIRECTION('',(3.55445226721631E-17,-1.,-2.052163973299E-17));
#851=DIRECTION('',(0.612372435695795,-0.707106781186548,-0.353553390593273));
#852=DIRECTION('',(0.,-1.,0.));
#853=DIRECTION('',(0.,0.,-1.));
#854=DIRECTION('',(-1.,0.,0.));
#855=DIRECTION('',(-0.9379290325991,0.346827233370905,0.));
#856=DIRECTION('',(-0.9379290325991,0.346827233370905,0.));
#857=DIRECTION('',(0.5,0.,0.866025403784439));
#858=DIRECTION('',(0.866025403784439,0.,-0.5));
#859=DIRECTION('',(0.5,0.,0.866025403784438));
#860=DIRECTION('',(0.866025403784438,0.,-0.5));
#861=DIRECTION('',(-0.858371231107697,0.132659110035998,0.495580861344658));
#862=DIRECTION('',(-0.858371231107697,0.132659110035998,0.495580861344658));
#863=DIRECTION('',(0.866025403784439,0.,-0.5));
#864=DIRECTION('',(-0.5,0.,-0.866025403784439));
#865=DIRECTION('',(0.499999999996153,3.92232072295997E-06,0.866025403777777));
#866=DIRECTION('',(3.55445226721631E-17,1.,6.15649191989705E-17));
#867=DIRECTION('',(-0.5,7.10890453443263E-17,-0.866025403784439));
#868=DIRECTION('',(0.866025403784439,0.,-0.5));
#869=DIRECTION('',(-0.5,0.,-0.866025403784439));
#870=DIRECTION('',(3.55445226721631E-17,1.,6.15649191989705E-17));
#871=DIRECTION('',(0.499999999996154,3.92232072292497E-06,0.866025403777777));
#872=DIRECTION('',(0.5,0.,0.866025403784439));
#873=DIRECTION('',(-0.5,7.10890453443263E-17,-0.866025403784439));
#874=DIRECTION('',(-0.866025403784439,0.,0.5));
#875=DIRECTION('',(0.858371231107697,-0.132659110035998,-0.495580861344659));
#876=DIRECTION('',(-0.796459724421261,0.392686316500096,0.459836236293309));
#877=DIRECTION('',(3.55445226721631E-17,1.,6.15649191989705E-17));
#878=DIRECTION('',(-0.612372435695795,0.707106781186548,0.353553390593274));
#879=DIRECTION('',(-3.55445226721631E-17,-1.,-6.15649191989705E-17));
#880=DIRECTION('',(0.612372435695795,0.707106781186548,-0.353553390593274));
#881=DIRECTION('',(3.55445226721631E-17,1.,6.15649191989705E-17));
#882=DIRECTION('',(-0.612372435695795,0.707106781186548,0.353553390593274));
#883=DIRECTION('',(-3.55445226721631E-17,-1.,-6.15649191989705E-17));
#884=DIRECTION('',(0.612372435695795,0.707106781186548,-0.353553390593274));
#885=DIRECTION('',(3.55445226721631E-17,1.,6.15649191989705E-17));
#886=DIRECTION('',(-0.612372435695795,0.707106781186548,0.353553390593274));
#887=DIRECTION('',(-3.55445226721631E-17,-1.,-6.15649191989705E-17));
#888=DIRECTION('',(0.612372435695795,0.707106781186548,-0.353553390593274));
#889=DIRECTION('',(3.55445226721631E-17,1.,6.15649191989705E-17));
#890=DIRECTION('',(-0.612372435695795,0.707106781186548,0.353553390593274));
#891=DIRECTION('',(-3.55445226721631E-17,-1.,-6.15649191989705E-17));
#892=DIRECTION('',(0.612372435695795,0.707106781186548,-0.353553390593274));
#893=DIRECTION('',(3.55445226721631E-17,1.,6.15649191989705E-17));
#894=DIRECTION('',(-0.612372435695795,0.707106781186548,0.353553390593274));
#895=DIRECTION('',(-3.55445226721631E-17,-1.,-6.15649191989705E-17));
#896=DIRECTION('',(0.612372435695795,0.707106781186548,-0.353553390593274));
#897=DIRECTION('',(-0.34007632580762,-0.91967247258662,0.196343158250048));
#898=DIRECTION('',(0.9379290325991,-0.346827233370905,0.));
#899=DIRECTION('',(-0.5,0.,-0.866025403784439));
#900=DIRECTION('',(0.866025403784439,0.,-0.5));
#901=DIRECTION('',(0.,1.,0.));
#902=DIRECTION('',(-0.5,7.10890453443263E-17,-0.866025403784439));
#903=DIRECTION('',(-0.5,7.10890453443263E-17,-0.866025403784439));
#904=DIRECTION('',(0.866025403784439,0.,-0.5));
#905=DIRECTION('',(0.,1.,0.));
#906=DIRECTION('',(-0.5,7.10890453443263E-17,-0.866025403784439));
#907=DIRECTION('',(-0.5,7.10890453443263E-17,-0.866025403784439));
#908=DIRECTION('',(0.866025403784439,0.,-0.5));
#909=DIRECTION('',(0.,1.,0.));
#910=DIRECTION('',(-0.5,7.10890453443263E-17,-0.866025403784439));
#911=DIRECTION('',(-0.5,7.10890453443263E-17,-0.866025403784439));
#912=DIRECTION('',(0.866025403784439,0.,-0.5));
#913=DIRECTION('',(0.,1.,0.));
#914=DIRECTION('',(-0.5,7.10890453443263E-17,-0.866025403784439));
#915=DIRECTION('',(-0.5,7.10890453443263E-17,-0.866025403784439));
#916=DIRECTION('',(0.866025403784439,0.,-0.5));
#917=DIRECTION('',(0.,1.,0.));
#918=DIRECTION('',(-0.5,7.10890453443263E-17,-0.866025403784439));
#919=DIRECTION('',(-0.5,7.10890453443263E-17,-0.866025403784439));
#920=DIRECTION('',(0.866025403784439,0.,-0.5));
#921=DIRECTION('',(-0.5,0.,-0.866025403784439));
#922=DIRECTION('',(-0.5,7.10890453443263E-17,-0.866025403784439));
#923=DIRECTION('',(-0.5,7.10890453443263E-17,-0.866025403784439));
#924=DIRECTION('',(0.866025403784439,0.,-0.5));
#925=DIRECTION('',(-0.5,0.,-0.866025403784439));
#926=DIRECTION('',(-0.5,7.10890453443263E-17,-0.866025403784439));
#927=DIRECTION('',(-0.5,7.10890453443263E-17,-0.866025403784439));
#928=DIRECTION('',(0.866025403784439,0.,-0.5));
#929=DIRECTION('',(-0.5,0.,-0.866025403784439));
#930=DIRECTION('',(-0.5,7.10890453443263E-17,-0.866025403784439));
#931=DIRECTION('',(-0.5,7.10890453443263E-17,-0.866025403784439));
#932=DIRECTION('',(0.866025403784439,0.,-0.5));
#933=DIRECTION('',(-0.5,0.,-0.866025403784439));
#934=DIRECTION('',(-0.5,7.10890453443263E-17,-0.866025403784439));
#935=DIRECTION('',(-0.5,7.10890453443263E-17,-0.866025403784439));
#936=DIRECTION('',(0.866025403784439,0.,-0.5));
#937=DIRECTION('',(-0.5,0.,-0.866025403784439));
#938=DIRECTION('',(-0.5,7.10890453443263E-17,-0.866025403784439));
#939=DIRECTION('',(-0.612372435695795,-0.707106781186548,0.353553390593274));
#940=DIRECTION('',(0.612372435695795,-0.707106781186548,-0.353553390593274));
#941=DIRECTION('',(-0.612372435695795,0.707106781186548,0.353553390593274));
#942=DIRECTION('',(-0.612372435695795,-0.707106781186548,0.353553390593274));
#943=DIRECTION('',(-0.612372435695795,-0.707106781186548,0.353553390593274));
#944=DIRECTION('',(0.612372435695795,-0.707106781186548,-0.353553390593274));
#945=DIRECTION('',(-0.612372435695795,0.707106781186548,0.353553390593274));
#946=DIRECTION('',(-0.612372435695795,-0.707106781186548,0.353553390593274));
#947=DIRECTION('',(-0.612372435695795,-0.707106781186548,0.353553390593274));
#948=DIRECTION('',(0.612372435695795,-0.707106781186548,-0.353553390593274));
#949=DIRECTION('',(-0.612372435695795,0.707106781186548,0.353553390593274));
#950=DIRECTION('',(-0.612372435695795,-0.707106781186548,0.353553390593274));
#951=DIRECTION('',(-0.612372435695795,-0.707106781186548,0.353553390593274));
#952=DIRECTION('',(0.612372435695795,-0.707106781186548,-0.353553390593274));
#953=DIRECTION('',(-0.612372435695795,0.707106781186548,0.353553390593274));
#954=DIRECTION('',(-0.612372435695795,-0.707106781186548,0.353553390593274));
#955=DIRECTION('',(-0.612372435695795,-0.707106781186548,0.353553390593274));
#956=DIRECTION('',(0.612372435695795,-0.707106781186548,-0.353553390593274));
#957=DIRECTION('',(-0.612372435695795,0.707106781186548,0.353553390593274));
#958=DIRECTION('',(-0.612372435695795,-0.707106781186548,0.353553390593274));
#959=DIRECTION('',(0.114884215506659,0.991161722681828,-0.0663329218247656));
#960=DIRECTION('',(-0.993378888957995,0.114627800345116,-0.00767139886986765));
#961=DIRECTION('',(0.5,0.,0.86602540378444));
#962=DIRECTION('',(0.86602540378444,0.,-0.5));
#963=DIRECTION('',(0.5,0.,0.86602540378444));
#964=DIRECTION('',(-0.86602540378444,0.,0.5));
#965=DIRECTION('',(-0.796459724421261,0.392686316500096,0.459836236293308));
#966=DIRECTION('',(0.,1.,0.));
#967=DIRECTION('',(-0.858371231107698,0.132659110035998,0.495580861344658));
#968=DIRECTION('',(0.5,0.,0.86602540378444));
#969=DIRECTION('',(0.86602540378444,0.,-0.5));
#970=DIRECTION('',(0.866025403784439,0.,-0.5));
#971=DIRECTION('',(-0.5,0.,-0.866025403784439));
#972=DIRECTION('',(0.5,-6.01172691400053E-16,0.866025403784439));
#973=DIRECTION('',(0.499999999996154,3.92232072292497E-06,0.866025403777777));
#974=DIRECTION('',(-0.34007632580762,-0.91967247258662,0.196343158250048));
#975=DIRECTION('',(0.9379290325991,-0.346827233370905,0.));
#976=DIRECTION('',(0.114884215506659,0.991161722681828,-0.0663329218247656));
#977=DIRECTION('',(-0.993378888957995,0.114627800345116,-0.00767139886986765));
#978=DIRECTION('',(0.5,0.,0.866025403784438));
#979=DIRECTION('',(0.866025403784438,0.,-0.5));
#980=DIRECTION('',(0.,0.,1.));
#981=DIRECTION('',(1.,0.,0.));
#982=CARTESIAN_POINT('',(0.,0.,0.));
#983=CARTESIAN_POINT('',(0.240503968546522,0.599111929747018,0.0247112122887518));
#984=CARTESIAN_POINT('',(-0.117479826849486,0.,0.231393252926161));
#985=CARTESIAN_POINT('',(0.220397195291588,-0.0945290330867191,0.0363198632400225));
#986=CARTESIAN_POINT('',(0.220925960285316,-0.0928325167310271,0.0360145806285555));
#987=CARTESIAN_POINT('',(0.0204611132377101,0.00404740611018861,0.151753014034548));
#988=CARTESIAN_POINT('',(0.288656733260263,-0.128183699743461,-0.00308979938095164));
#989=CARTESIAN_POINT('',(0.288656733260263,0.599111929747018,-0.00308979938095164));
#990=CARTESIAN_POINT('',(0.288656733260263,-0.126226481218764,-0.00308979938095164));
#991=CARTESIAN_POINT('',(0.0210732506241638,0.00570281656084448,0.151399596349698));
#992=CARTESIAN_POINT('',(0.310471960169581,0.599111929747018,-0.00308979938095164));
#993=CARTESIAN_POINT('',(0.288656733260263,0.599111929747018,-0.00308979938095164));
#994=CARTESIAN_POINT('',(0.288656733260263,-0.0403859542243462,-0.00308979938095165));
#995=CARTESIAN_POINT('',(0.288656733260263,-0.0422020049845893,-0.00308979938095164));
#996=CARTESIAN_POINT('',(0.236834352948533,-0.0361953429318093,-0.00308979938095164));
#997=CARTESIAN_POINT('',(0.332287187078898,-0.0472591519107145,-0.00308979938095172));
#998=CARTESIAN_POINT('',(0.332287187078898,0.599111929747018,-0.00308979938095172));
#999=CARTESIAN_POINT('',(0.332287187078898,-0.0454431011504718,-0.00308979938095168));
#1000=CARTESIAN_POINT('',(0.237042058452401,-0.0344033670357609,-0.00308979938095164));
#1001=CARTESIAN_POINT('',(0.357382009957605,0.599111929747018,-0.017578302125239));
#1002=CARTESIAN_POINT('',(0.283337611599185,-0.0396941184095347,0.0251712511989788));
#1003=CARTESIAN_POINT('',(0.376241449929064,-0.0540521724368879,-0.0284668048695264));
#1004=CARTESIAN_POINT('',(0.376241449929064,-1.11022302462516E-16,-0.0284668048695264));
#1005=CARTESIAN_POINT('',(0.376241449929064,-0.164031342278045,-0.0284668048695264));
#1006=CARTESIAN_POINT('',(0.121610382543933,-0.0384881002884873,0.11854451042932));
#1007=CARTESIAN_POINT('',(0.332287187078898,-0.142360142788767,-0.00308979938095172));
#1008=CARTESIAN_POINT('',(0.332287187078898,0.599111929747018,-0.00308979938095172));
#1009=CARTESIAN_POINT('',(0.332287187078898,-0.144317361313464,-0.00308979938095173));
#1010=CARTESIAN_POINT('',(0.12099824515748,-0.0401435107391435,0.11889792811417));
#1011=CARTESIAN_POINT('',(0.377800295655876,-0.166757133735791,-0.0293668048695265));
#1012=CARTESIAN_POINT('',(0.377800295655876,-1.11022302462516E-16,-0.0293668048695264));
#1013=CARTESIAN_POINT('',(0.377800295655876,-0.0524770373542772,-0.0293668048695264));
#1014=CARTESIAN_POINT('',(0.283544406685989,-0.0379100273086803,0.0250518579999455));
#1015=CARTESIAN_POINT('',(0.252239592981699,0.599111929747018,-0.0727823213352507));
#1016=CARTESIAN_POINT('',(0.305373710852245,-0.15579343850231,-0.103459318590963));
#1017=CARTESIAN_POINT('',(0.332287187078898,-0.169062852534937,-0.118997821335251));
#1018=CARTESIAN_POINT('',(0.178512833545534,-0.0932459811858193,-0.0302161569283025));
#1019=CARTESIAN_POINT('',(-0.0978388106981088,0.,0.12933553926676));
#1020=CARTESIAN_POINT('',(0.186856675480559,-0.0673325152351404,-0.0350334763155645));
#1021=CARTESIAN_POINT('',(0.0315442286340599,0.,0.0546362066797613));
#1022=CARTESIAN_POINT('',(0.195111361186306,-0.032,-0.039799321329854));
#1023=CARTESIAN_POINT('',(0.179369027895213,-0.029567062072209,-0.030710480966568));
#1024=CARTESIAN_POINT('',(0.332287187078898,-0.0532001745768604,-0.118997821335251));
#1025=CARTESIAN_POINT('',(0.332287187078898,0.599111929747018,-0.118997821335251));
#1026=CARTESIAN_POINT('',(0.332287187078898,-0.0585470791127607,-0.118997821335251));
#1027=CARTESIAN_POINT('',(0.577038094380431,0.224066925317129,-0.260304823550195));
#1028=CARTESIAN_POINT('',(0.328649880383004,-0.0627470791127607,-0.116897821335251));
#1029=CARTESIAN_POINT('',(0.328649880383004,0.599111929747018,-0.116897821335251));
#1030=CARTESIAN_POINT('',(0.328649880383004,-0.0669470791127607,-0.116897821335251));
#1031=CARTESIAN_POINT('',(0.0020327256363244,0.310197925317129,0.0716746808796935));
#1032=CARTESIAN_POINT('',(0.332287187078898,-0.0711470791127607,-0.118997821335251));
#1033=CARTESIAN_POINT('',(0.332287187078898,0.599111929747018,-0.118997821335251));
#1034=CARTESIAN_POINT('',(0.332287187078898,-0.0764964593136689,-0.118997821335251));
#1035=CARTESIAN_POINT('',(0.584810403998517,0.215092235216675,-0.264792168600422));
#1036=CARTESIAN_POINT('',(0.328649880383004,-0.0806964593136689,-0.116897821335251));
#1037=CARTESIAN_POINT('',(0.328649880383004,0.599111929747018,-0.116897821335251));
#1038=CARTESIAN_POINT('',(0.328649880383004,-0.0848964593136689,-0.116897821335251));
#1039=CARTESIAN_POINT('',(-0.00573958398176167,0.301223235216675,0.0761620259299206));
#1040=CARTESIAN_POINT('',(0.332287187078898,-0.0890964593136689,-0.118997821335251));
#1041=CARTESIAN_POINT('',(0.332287187078898,0.599111929747018,-0.118997821335251));
#1042=CARTESIAN_POINT('',(0.332287187078898,-0.104496459313669,-0.118997821335251));
#1043=CARTESIAN_POINT('',(0.596934759651499,0.201092235216674,-0.271792168600422));
#1044=CARTESIAN_POINT('',(0.328649880383004,-0.108696459313669,-0.116897821335251));
#1045=CARTESIAN_POINT('',(0.328649880383004,0.599111929747018,-0.116897821335251));
#1046=CARTESIAN_POINT('',(0.328649880383004,-0.112896459313669,-0.116897821335251));
#1047=CARTESIAN_POINT('',(-0.0178639396347438,0.287223235216675,0.0831620259299206));
#1048=CARTESIAN_POINT('',(0.332287187078898,-0.117096459313669,-0.118997821335251));
#1049=CARTESIAN_POINT('',(0.332287187078898,0.599111929747018,-0.118997821335251));
#1050=CARTESIAN_POINT('',(0.332287187078898,-0.126629655924303,-0.118997821335251));
#1051=CARTESIAN_POINT('',(0.606518714917381,0.190025636911357,-0.27732546775308));
#1052=CARTESIAN_POINT('',(0.328649880383004,-0.130829655924303,-0.116897821335251));
#1053=CARTESIAN_POINT('',(0.328649880383004,0.599111929747018,-0.116897821335251));
#1054=CARTESIAN_POINT('',(0.328649880383004,-0.135029655924303,-0.116897821335251));
#1055=CARTESIAN_POINT('',(-0.0274478949006262,0.276156636911358,0.0886953250825791));
#1056=CARTESIAN_POINT('',(0.332287187078898,-0.139229655924303,-0.118997821335251));
#1057=CARTESIAN_POINT('',(0.332287187078898,0.599111929747018,-0.118997821335251));
#1058=CARTESIAN_POINT('',(0.332287187078898,-0.148762852534937,-0.118997821335251));
#1059=CARTESIAN_POINT('',(0.616102670183264,0.178959038606041,-0.282858766905739));
#1060=CARTESIAN_POINT('',(0.328649880383004,-0.152962852534937,-0.116897821335251));
#1061=CARTESIAN_POINT('',(0.328649880383004,0.599111929747018,-0.116897821335251));
#1062=CARTESIAN_POINT('',(0.328649880383004,-0.157162852534937,-0.116897821335251));
#1063=CARTESIAN_POINT('',(-0.0370318501665085,0.265090038606041,0.0942286242352375));
#1064=CARTESIAN_POINT('',(0.332287187078898,-0.161362852534937,-0.118997821335251));
#1065=CARTESIAN_POINT('',(0.332287187078898,0.599111929747018,-0.118997821335251));
#1066=CARTESIAN_POINT('',(0.310471960169581,0.599111929747018,-0.00308979938095164));
#1067=CARTESIAN_POINT('',(0.0718957253280868,-0.0460726336771457,-0.00308979938095164));
#1068=CARTESIAN_POINT('',(0.0712590434504533,-0.047794420088663,-0.00308979938095164));
#1069=CARTESIAN_POINT('',(0.240503968546522,0.599111929747018,0.0247112122887518));
#1070=CARTESIAN_POINT('',(0.0708262609368151,0.,0.122674682452695));
#1071=CARTESIAN_POINT('',(0.234125607118744,-0.0337743568982718,0.0283937609760683));
#1072=CARTESIAN_POINT('',(0.234393437701238,-0.0319996986794217,0.0282391289171681));
#1073=CARTESIAN_POINT('',(0.168324474607188,-0.0236049577362343,0.066384062544597));
#1074=CARTESIAN_POINT('',(0.168531269693992,-0.0218208666353798,0.0662646693455637));
#1075=CARTESIAN_POINT('',(0.357382009957605,0.599111929747018,-0.0755323131023886));
#1076=CARTESIAN_POINT('',(0.357383289245868,-0.0531999812370259,-0.0755300973101193));
#1077=CARTESIAN_POINT('',(0.333187187078898,-0.0532001710467718,-0.117438975608439));
#1078=CARTESIAN_POINT('',(0.333187187078898,1.70613708826383E-19,-0.117438975608439));
#1079=CARTESIAN_POINT('',(0.333187187078898,-0.0585470791127607,-0.117438975608439));
#1080=CARTESIAN_POINT('',(0.334387187078898,-0.0585470791127607,-0.115360514639356));
#1081=CARTESIAN_POINT('',(0.329709649898463,-1.11022302462516E-16,-0.112662246690164));
#1082=CARTESIAN_POINT('',(0.328510649898463,-1.1085183093178E-16,-0.114738975608439));
#1083=CARTESIAN_POINT('',(0.328510649898463,-0.166757133735791,-0.114738975608439));
#1084=CARTESIAN_POINT('',(0.328510649898463,-0.0524774240138751,-0.114738975608439));
#1085=CARTESIAN_POINT('',(0.329709752815088,-0.0524774146073427,-0.11266206843334));
#1086=CARTESIAN_POINT('',(0.329709649898463,-0.166757133735791,-0.112662246690164));
#1087=CARTESIAN_POINT('',(0.329549880383004,1.70613708826383E-19,-0.115338975608439));
#1088=CARTESIAN_POINT('',(0.323555947204039,-0.051711687201975,-0.111878376674059));
#1089=CARTESIAN_POINT('',(0.277234861453557,-0.141476130977366,-0.0851348853468626));
#1090=CARTESIAN_POINT('',(0.333187187078898,-0.169062852534937,-0.117438975608439));
#1091=CARTESIAN_POINT('',(0.333187187078898,1.70613708826383E-19,-0.117438975608439));
#1092=CARTESIAN_POINT('',(0.333187187078898,-0.161362852534937,-0.117438975608439));
#1093=CARTESIAN_POINT('',(0.331368533730951,-0.159262852534937,-0.116388975608439));
#1094=CARTESIAN_POINT('',(0.329549880383004,-0.157162852534937,-0.115338975608439));
#1095=CARTESIAN_POINT('',(0.329549880383004,0.599111929747018,-0.115338975608439));
#1096=CARTESIAN_POINT('',(0.329549880383004,-0.152962852534937,-0.115338975608439));
#1097=CARTESIAN_POINT('',(0.331368533730951,-0.150862852534937,-0.116388975608439));
#1098=CARTESIAN_POINT('',(0.333187187078898,-0.148762852534937,-0.117438975608439));
#1099=CARTESIAN_POINT('',(0.333187187078898,1.70613708826383E-19,-0.117438975608439));
#1100=CARTESIAN_POINT('',(0.333187187078898,-0.139229655924303,-0.117438975608439));
#1101=CARTESIAN_POINT('',(0.331368533730951,-0.137129655924303,-0.116388975608439));
#1102=CARTESIAN_POINT('',(0.329549880383004,-0.135029655924303,-0.115338975608439));
#1103=CARTESIAN_POINT('',(0.329549880383004,0.599111929747018,-0.115338975608439));
#1104=CARTESIAN_POINT('',(0.329549880383004,-0.130829655924303,-0.115338975608439));
#1105=CARTESIAN_POINT('',(0.331368533730951,-0.128729655924303,-0.116388975608439));
#1106=CARTESIAN_POINT('',(0.333187187078898,-0.126629655924303,-0.117438975608439));
#1107=CARTESIAN_POINT('',(0.333187187078898,1.70613708826383E-19,-0.117438975608439));
#1108=CARTESIAN_POINT('',(0.333187187078898,-0.117096459313669,-0.117438975608439));
#1109=CARTESIAN_POINT('',(0.331368533730951,-0.114996459313669,-0.116388975608439));
#1110=CARTESIAN_POINT('',(0.329549880383004,-0.112896459313669,-0.115338975608439));
#1111=CARTESIAN_POINT('',(0.329549880383004,0.599111929747018,-0.115338975608439));
#1112=CARTESIAN_POINT('',(0.329549880383004,-0.108696459313669,-0.115338975608439));
#1113=CARTESIAN_POINT('',(0.331368533730951,-0.106596459313669,-0.116388975608439));
#1114=CARTESIAN_POINT('',(0.333187187078898,-0.104496459313669,-0.117438975608439));
#1115=CARTESIAN_POINT('',(0.333187187078898,1.70613708826383E-19,-0.117438975608439));
#1116=CARTESIAN_POINT('',(0.333187187078898,-0.0890964593136689,-0.117438975608439));
#1117=CARTESIAN_POINT('',(0.331368533730951,-0.0869964593136689,-0.116388975608439));
#1118=CARTESIAN_POINT('',(0.329549880383004,-0.0848964593136689,-0.115338975608439));
#1119=CARTESIAN_POINT('',(0.329549880383004,0.599111929747018,-0.115338975608439));
#1120=CARTESIAN_POINT('',(0.329549880383004,-0.0806964593136689,-0.115338975608439));
#1121=CARTESIAN_POINT('',(0.331368533730951,-0.0785964593136689,-0.116388975608439));
#1122=CARTESIAN_POINT('',(0.333187187078898,-0.0764964593136689,-0.117438975608439));
#1123=CARTESIAN_POINT('',(0.333187187078898,1.70613708826383E-19,-0.117438975608439));
#1124=CARTESIAN_POINT('',(0.333187187078898,-0.0711470791127607,-0.117438975608439));
#1125=CARTESIAN_POINT('',(0.331368533730951,-0.0690470791127607,-0.116388975608439));
#1126=CARTESIAN_POINT('',(0.329549880383004,-0.0669470791127607,-0.115338975608439));
#1127=CARTESIAN_POINT('',(0.329549880383004,0.599111929747018,-0.115338975608439));
#1128=CARTESIAN_POINT('',(0.329549880383004,-0.0627470791127607,-0.115338975608439));
#1129=CARTESIAN_POINT('',(0.331368533730951,-0.0606470791127607,-0.116388975608439));
#1130=CARTESIAN_POINT('',(0.602179042636182,-0.15579343850231,0.410622596016157));
#1131=CARTESIAN_POINT('',(0.178512833545534,-0.0932459811858195,-0.0302161569283025));
#1132=CARTESIAN_POINT('',(0.192629956832053,-0.0937524771974974,-0.00813701234554707));
#1133=CARTESIAN_POINT('',(0.206566665307432,-0.0941676330819845,0.0140574822943623));
#1134=CARTESIAN_POINT('',(0.220397195291588,-0.0945290330867194,0.0363198632400225));
#1135=CARTESIAN_POINT('',(0.32347831704118,-0.169062852534937,-0.134255231797851));
#1136=CARTESIAN_POINT('',(0.35374470326171,0.,-0.0734323131023887));
#1137=CARTESIAN_POINT('',(0.330749880383004,-0.0669470791127607,-0.113260514639356));
#1138=CARTESIAN_POINT('',(0.330749880383004,-0.0627470791127607,-0.113260514639356));
#1139=CARTESIAN_POINT('',(0.35374470326171,0.,-0.0734323131023887));
#1140=CARTESIAN_POINT('',(0.330749880383004,-0.0848964593136689,-0.113260514639356));
#1141=CARTESIAN_POINT('',(0.330749880383004,-0.0806964593136689,-0.113260514639356));
#1142=CARTESIAN_POINT('',(0.35374470326171,0.,-0.0734323131023887));
#1143=CARTESIAN_POINT('',(0.330749880383004,-0.112896459313669,-0.113260514639356));
#1144=CARTESIAN_POINT('',(0.330749880383004,-0.108696459313669,-0.113260514639356));
#1145=CARTESIAN_POINT('',(0.35374470326171,0.,-0.0734323131023887));
#1146=CARTESIAN_POINT('',(0.330749880383004,-0.135029655924303,-0.113260514639356));
#1147=CARTESIAN_POINT('',(0.330749880383004,-0.130829655924303,-0.113260514639356));
#1148=CARTESIAN_POINT('',(0.35374470326171,0.,-0.0734323131023887));
#1149=CARTESIAN_POINT('',(0.330749880383004,-0.157162852534937,-0.113260514639356));
#1150=CARTESIAN_POINT('',(0.330749880383004,-0.152962852534937,-0.113260514639356));
#1151=CARTESIAN_POINT('',(0.357382009957605,0.599111929747018,-0.0755323131023886));
#1152=CARTESIAN_POINT('',(0.334387187078898,-0.104496459313669,-0.115360514639356));
#1153=CARTESIAN_POINT('',(0.334387187078898,-0.0890964593136689,-0.115360514639356));
#1154=CARTESIAN_POINT('',(0.357382009957605,0.599111929747018,-0.0755323131023886));
#1155=CARTESIAN_POINT('',(0.334387187078898,-0.148762852534937,-0.115360514639356));
#1156=CARTESIAN_POINT('',(0.334387187078898,-0.139229655924303,-0.115360514639356));
#1157=CARTESIAN_POINT('',(0.357382009957605,0.599111929747018,-0.0755323131023886));
#1158=CARTESIAN_POINT('',(0.334387187078898,-0.126629655924303,-0.115360514639356));
#1159=CARTESIAN_POINT('',(0.334387187078898,-0.117096459313669,-0.115360514639356));
#1160=CARTESIAN_POINT('',(0.357382009957605,0.599111929747018,-0.0755323131023886));
#1161=CARTESIAN_POINT('',(0.334387187078898,-0.0764964593136689,-0.115360514639356));
#1162=CARTESIAN_POINT('',(0.334387187078898,-0.0711470791127607,-0.115360514639356));
#1163=CARTESIAN_POINT('',(0.357382009957605,0.599111929747018,-0.0755323131023886));
#1164=CARTESIAN_POINT('',(0.334387187078898,-0.161362852534937,-0.115360514639356));
#1165=CARTESIAN_POINT('',(0.332568533730951,-0.0869964593136689,-0.114310514639356));
#1166=CARTESIAN_POINT('',(0.332568533730951,-0.0785964593136689,-0.114310514639356));
#1167=CARTESIAN_POINT('',(0.332568533730951,-0.0690470791127607,-0.114310514639356));
#1168=CARTESIAN_POINT('',(0.332568533730951,-0.0606470791127607,-0.114310514639356));
#1169=CARTESIAN_POINT('',(0.332568533730951,-0.137129655924303,-0.114310514639356));
#1170=CARTESIAN_POINT('',(0.332568533730951,-0.128729655924303,-0.114310514639356));
#1171=CARTESIAN_POINT('',(0.332568533730951,-0.159262852534937,-0.114310514639356));
#1172=CARTESIAN_POINT('',(0.332568533730951,-0.150862852534937,-0.114310514639356));
#1173=CARTESIAN_POINT('',(0.332568533730951,-0.114996459313669,-0.114310514639356));
#1174=CARTESIAN_POINT('',(0.332568533730951,-0.106596459313669,-0.114310514639356));
#1175=CARTESIAN_POINT('',(0.263699274132602,-0.0426000890534746,-0.0793985713325524));
#1176=CARTESIAN_POINT('',(0.234393437701238,-0.0319996986794217,0.028239128917168));
#1177=CARTESIAN_POINT('',(0.221299412196331,-0.0319997991196253,0.00555964550145369));
#1178=CARTESIAN_POINT('',(0.208205386691353,-0.0319998995598181,-0.0171198379142203));
#1179=CARTESIAN_POINT('',(0.195111361186307,-0.0320000000000001,-0.039799321329854));
#1180=CARTESIAN_POINT('',(0.253139592981699,0.599111929747018,-0.0712234756084387));
#1181=CARTESIAN_POINT('',(-0.0982888106981088,0.,0.131673807856978));
#1182=CARTESIAN_POINT('',(0.180101247301705,-0.091628178018673,-0.0290547670689296));
#1183=CARTESIAN_POINT('',(0.187981272373251,-0.0666376757921722,-0.033604301665208));
#1184=CARTESIAN_POINT('',(0.306885848238698,-0.154138028051654,-0.102253890549002));
#1185=CARTESIAN_POINT('',(0.326951804171651,-0.164031342278045,-0.113838975608439));
#1186=CARTESIAN_POINT('',(0.326951804171651,0.599111929747018,-0.113838975608439));
#1187=CARTESIAN_POINT('',(0.326951804171651,-0.0540525590964858,-0.113838975608439));
#1188=CARTESIAN_POINT('',(0.180062233612357,-0.031351146237134,-0.0290322425048823));
#1189=CARTESIAN_POINT('',(0.195743529204075,-0.0337746509423468,-0.038085842736003));
#1190=CARTESIAN_POINT('',(0.0324442286340595,0.,0.0561950524065727));
#1191=CARTESIAN_POINT('',(0.328150804171651,-1.11022302462516E-16,-0.111762246690164));
#1192=CARTESIAN_POINT('',(0.622857135955589,-0.164031342278045,0.398684093271869));
#1193=CARTESIAN_POINT('',(0.328150910177368,-0.0540525496899292,-0.111762063082875));
#1194=CARTESIAN_POINT('',(0.602791180022636,-0.154138028051654,0.410269178331306));
#1195=CARTESIAN_POINT('',(0.180101247301705,-0.091628178018673,-0.0290547670689298));
#1196=CARTESIAN_POINT('',(0.193851782210753,-0.092101590307635,-0.00745560783560879));
#1197=CARTESIAN_POINT('',(0.207437936219833,-0.0924918678593219,0.0142482389105166));
#1198=CARTESIAN_POINT('',(0.220925960285317,-0.0928325167310271,0.0360145806285555));
#1199=CARTESIAN_POINT('',(0.26349248254469,-0.0443841801543018,-0.0792791720732678));
#1200=CARTESIAN_POINT('',(0.234125607118744,-0.0337743568982718,0.0283937609760682));
#1201=CARTESIAN_POINT('',(0.221331581147254,-0.0337744549129738,0.00623389307200591));
#1202=CARTESIAN_POINT('',(0.208537555175698,-0.0337745529276655,-0.0159259748320179));
#1203=CARTESIAN_POINT('',(0.195743529204075,-0.0337746509423469,-0.0380858427360032));
#1204=CARTESIAN_POINT('',(0.0511852447854372,0.,0.0886554445662277));
#1205=CARTESIAN_POINT('',(0.186856675480558,-0.0673325152351414,-0.035033476315564));
#1206=CARTESIAN_POINT('',(0.187232659019711,-0.0670969771198137,-0.0345591181124319));
#1207=CARTESIAN_POINT('',(0.187607499812362,-0.06686542142002,-0.0340826908505646));
#1208=CARTESIAN_POINT('',(0.187981272373252,-0.0666376757921732,-0.0336043016652078));
#1209=CARTESIAN_POINT('',(0.,0.,-0.0540451649494494));
#1210=MECHANICAL_DESIGN_GEOMETRIC_PRESENTATION_REPRESENTATION('',(#745),#1211);
#1211=(
GEOMETRIC_REPRESENTATION_CONTEXT(3)
GLOBAL_UNCERTAINTY_ASSIGNED_CONTEXT((#1212))
GLOBAL_UNIT_ASSIGNED_CONTEXT((#1215,#1214,#1213))
REPRESENTATION_CONTEXT('bin_third_left','TOP_LEVEL_ASSEMBLY_PART')
);
#1212=UNCERTAINTY_MEASURE_WITH_UNIT(LENGTH_MEASURE(2.E-05),#1215,'DISTANCE_ACCURACY_VALUE','Maximum Tolerance applied to model');
#1213=(
NAMED_UNIT(*)
SI_UNIT($,.STERADIAN.)
SOLID_ANGLE_UNIT()
);
#1214=(
NAMED_UNIT(*)
PLANE_ANGLE_UNIT()
SI_UNIT($,.RADIAN.)
);
#1215=(
LENGTH_UNIT()
NAMED_UNIT(*)
SI_UNIT($,.METRE.)
);
#1216=PRODUCT_DEFINITION_SHAPE('','',#1217);
#1217=PRODUCT_DEFINITION('','',#1219,#1218);
#1218=PRODUCT_DEFINITION_CONTEXT('',#1225,'design');
#1219=PRODUCT_DEFINITION_FORMATION_WITH_SPECIFIED_SOURCE('','',#1221,.NOT_KNOWN.);
#1220=PRODUCT_RELATED_PRODUCT_CATEGORY('','',(#1221));
#1221=PRODUCT('bin_third_left','bin_third_left','bin_third_left',(#1223));
#1222=PRODUCT_CATEGORY('','');
#1223=PRODUCT_CONTEXT('',#1225,'mechanical');
#1224=APPLICATION_PROTOCOL_DEFINITION('international standard','ap242_managed_model_based_3d_engineering',2020,#1225);
#1225=APPLICATION_CONTEXT('managed model based 3d engineering');
ENDSEC;
END-ISO-10303-21;
