ISO-10303-21;
HEADER;
/*Generated by software containing ST-Developer
 * from STEP Tools, Inc. (www.steptools.com) 
 */
/*OPTION: using custom renumber hook */
/*description */
/*implementation_level */
FILE_DESCRIPTION(('STEP AP242 Edition 2','STEP AP242 Edition 2''CAx-IF Rec.Pracs.---Representation and Presentation of Product Manufa
cturing Information (PMI)---4.0---2014-10-13','STEP AP242 Edition 2''CAx-IF Rec.Pracs.---Representation and Presentation of Product Manufa
cturing Information (PMI)---4.0---2014-10-13''CAx-IF Rec.Pracs.---3D Tessellated Geometry---0.4---2014-09-14','STEP AP242 Edition 2''CAx-IF Rec.Pracs.---Representation and Presentation of Product Manufa
cturing Information (PMI)---4.0---2014-10-13''CAx-IF Rec.Pracs.---3D Tessellated Geometry---0.4---2014-09-14''2;1','STEP AP242 Edition 2''CAx-IF Rec.Pracs.---Representation and Presentation of Product Manufa
cturing Information (PMI)---4.0---2014-10-13''CAx-IF Rec.Pracs.---3D Tessellated Geometry---0.4---2014-09-14''2;1''CAx-IF Rec.Pracs.---User Defined Attributes---1.5---2016-08-15'),'2;1');
/*name */
/*time_stamp */
/*author */
/*organization */
/*preprocessor_version */
/*originating_system */
/*authorisation */
FILE_NAME('/vol/tmp/translate-15977737023270067282/0_bins - bin_third_right.step','2026-03-19T22:04:53',(''),(''),'ST-DEVELOPER v20','ONSHAPE BY PTC INC, 1.212','  ');
FILE_SCHEMA(('AP242_MANAGED_MODEL_BASED_3D_ENGINEERING_MIM_LF { 1 0 10303 442 3 1 4 }'));
ENDSEC;
DATA;
#10=SHAPE_REPRESENTATION_RELATIONSHIP('','',#755,#11);
#11=ADVANCED_BREP_SHAPE_REPRESENTATION('',(#753),#1211);
#12=CONICAL_SURFACE('',#799,0.187641533150917,0.523598775598299);
#13=CYLINDRICAL_SURFACE('',#798,0.191562720281946);
#14=B_SPLINE_CURVE_WITH_KNOTS('',3,(#1150,#1151,#1152,#1153),.UNSPECIFIED.,.F.,.F.,(4,4),(0.00307835051198552,0.0817103283275443),.UNSPECIFIED.);
#15=B_SPLINE_CURVE_WITH_KNOTS('',3,(#1176,#1177,#1178,#1179),.UNSPECIFIED.,.F.,.F.,(4,4),(0.00466240558808394,0.0832264701941889),.UNSPECIFIED.);
#16=B_SPLINE_CURVE_WITH_KNOTS('',3,(#1181,#1182,#1183,#1184),.UNSPECIFIED.,.F.,.F.,(4,4),(0.00297500128810331,0.0798003070694982),.UNSPECIFIED.);
#17=B_SPLINE_CURVE_WITH_KNOTS('',3,(#1200,#1201,#1202,#1203),.UNSPECIFIED.,.F.,.F.,(4,4),(0.0051980658234399,0.0819621304295314),.UNSPECIFIED.);
#18=B_SPLINE_CURVE_WITH_KNOTS('',3,(#1205,#1206,#1207,#1208),.UNSPECIFIED.,.F.,.F.,(4,4),(0.0852982181634367,0.0872196848276817),.UNSPECIFIED.);
#19=ELLIPSE('',#763,0.406962057935412,0.332283128871575);
#20=ELLIPSE('',#789,0.338923582162477,0.276729946031441);
#21=ELLIPSE('',#795,0.340482427889289,0.278002738237577);
#22=LINE('',#987,#116);
#23=LINE('',#989,#117);
#24=LINE('',#991,#118);
#25=LINE('',#993,#119);
#26=LINE('',#996,#120);
#27=LINE('',#998,#121);
#28=LINE('',#1000,#122);
#29=LINE('',#1002,#123);
#30=LINE('',#1004,#124);
#31=LINE('',#1006,#125);
#32=LINE('',#1008,#126);
#33=LINE('',#1010,#127);
#34=LINE('',#1011,#128);
#35=LINE('',#1013,#129);
#36=LINE('',#1015,#130);
#37=LINE('',#1017,#131);
#38=LINE('',#1022,#132);
#39=LINE('',#1023,#133);
#40=LINE('',#1025,#134);
#41=LINE('',#1028,#135);
#42=LINE('',#1030,#136);
#43=LINE('',#1032,#137);
#44=LINE('',#1034,#138);
#45=LINE('',#1036,#139);
#46=LINE('',#1038,#140);
#47=LINE('',#1040,#141);
#48=LINE('',#1043,#142);
#49=LINE('',#1044,#143);
#50=LINE('',#1046,#144);
#51=LINE('',#1048,#145);
#52=LINE('',#1050,#146);
#53=LINE('',#1052,#147);
#54=LINE('',#1055,#148);
#55=LINE('',#1056,#149);
#56=LINE('',#1058,#150);
#57=LINE('',#1060,#151);
#58=LINE('',#1062,#152);
#59=LINE('',#1064,#153);
#60=LINE('',#1067,#154);
#61=LINE('',#1068,#155);
#62=LINE('',#1070,#156);
#63=LINE('',#1072,#157);
#64=LINE('',#1074,#158);
#65=LINE('',#1076,#159);
#66=LINE('',#1079,#160);
#67=LINE('',#1080,#161);
#68=LINE('',#1082,#162);
#69=LINE('',#1084,#163);
#70=LINE('',#1086,#164);
#71=LINE('',#1088,#165);
#72=LINE('',#1091,#166);
#73=LINE('',#1092,#167);
#74=LINE('',#1094,#168);
#75=LINE('',#1096,#169);
#76=LINE('',#1098,#170);
#77=LINE('',#1100,#171);
#78=LINE('',#1103,#172);
#79=LINE('',#1104,#173);
#80=LINE('',#1106,#174);
#81=LINE('',#1108,#175);
#82=LINE('',#1110,#176);
#83=LINE('',#1112,#177);
#84=LINE('',#1115,#178);
#85=LINE('',#1116,#179);
#86=LINE('',#1118,#180);
#87=LINE('',#1120,#181);
#88=LINE('',#1122,#182);
#89=LINE('',#1124,#183);
#90=LINE('',#1127,#184);
#91=LINE('',#1128,#185);
#92=LINE('',#1130,#186);
#93=LINE('',#1132,#187);
#94=LINE('',#1134,#188);
#95=LINE('',#1136,#189);
#96=LINE('',#1139,#190);
#97=LINE('',#1140,#191);
#98=LINE('',#1142,#192);
#99=LINE('',#1144,#193);
#100=LINE('',#1146,#194);
#101=LINE('',#1148,#195);
#102=LINE('',#1154,#196);
#103=LINE('',#1156,#197);
#104=LINE('',#1158,#198);
#105=LINE('',#1160,#199);
#106=LINE('',#1162,#200);
#107=LINE('',#1164,#201);
#108=LINE('',#1170,#202);
#109=LINE('',#1172,#203);
#110=LINE('',#1174,#204);
#111=LINE('',#1186,#205);
#112=LINE('',#1188,#206);
#113=LINE('',#1190,#207);
#114=LINE('',#1192,#208);
#115=LINE('',#1198,#209);
#116=VECTOR('',#806,1.);
#117=VECTOR('',#807,1.);
#118=VECTOR('',#808,1.);
#119=VECTOR('',#811,1.);
#120=VECTOR('',#812,1.);
#121=VECTOR('',#813,1.);
#122=VECTOR('',#814,1.);
#123=VECTOR('',#815,1.);
#124=VECTOR('',#816,1.);
#125=VECTOR('',#817,1.);
#126=VECTOR('',#818,1.);
#127=VECTOR('',#821,1.);
#128=VECTOR('',#822,1.);
#129=VECTOR('',#825,1.);
#130=VECTOR('',#826,1.);
#131=VECTOR('',#827,1.);
#132=VECTOR('',#832,1.);
#133=VECTOR('',#833,1.);
#134=VECTOR('',#836,1.);
#135=VECTOR('',#837,1.);
#136=VECTOR('',#838,1.);
#137=VECTOR('',#839,1.);
#138=VECTOR('',#842,1.);
#139=VECTOR('',#843,1.);
#140=VECTOR('',#844,1.);
#141=VECTOR('',#847,1.);
#142=VECTOR('',#848,1.);
#143=VECTOR('',#849,1.);
#144=VECTOR('',#852,1.);
#145=VECTOR('',#853,1.);
#146=VECTOR('',#854,1.);
#147=VECTOR('',#857,1.);
#148=VECTOR('',#858,1.);
#149=VECTOR('',#859,1.);
#150=VECTOR('',#862,1.);
#151=VECTOR('',#863,1.);
#152=VECTOR('',#864,1.);
#153=VECTOR('',#867,1.);
#154=VECTOR('',#868,1.);
#155=VECTOR('',#869,1.);
#156=VECTOR('',#872,1.);
#157=VECTOR('',#873,1.);
#158=VECTOR('',#874,1.);
#159=VECTOR('',#877,1.);
#160=VECTOR('',#878,1.);
#161=VECTOR('',#879,1.);
#162=VECTOR('',#882,1.);
#163=VECTOR('',#883,1.);
#164=VECTOR('',#884,1.);
#165=VECTOR('',#887,1.);
#166=VECTOR('',#888,1.);
#167=VECTOR('',#889,1.);
#168=VECTOR('',#892,1.);
#169=VECTOR('',#893,1.);
#170=VECTOR('',#894,1.);
#171=VECTOR('',#897,1.);
#172=VECTOR('',#898,1.);
#173=VECTOR('',#899,1.);
#174=VECTOR('',#902,1.);
#175=VECTOR('',#903,1.);
#176=VECTOR('',#904,1.);
#177=VECTOR('',#907,1.);
#178=VECTOR('',#908,1.);
#179=VECTOR('',#909,1.);
#180=VECTOR('',#912,1.);
#181=VECTOR('',#913,1.);
#182=VECTOR('',#914,1.);
#183=VECTOR('',#917,1.);
#184=VECTOR('',#918,1.);
#185=VECTOR('',#919,1.);
#186=VECTOR('',#922,1.);
#187=VECTOR('',#923,1.);
#188=VECTOR('',#924,1.);
#189=VECTOR('',#927,1.);
#190=VECTOR('',#928,1.);
#191=VECTOR('',#929,1.);
#192=VECTOR('',#932,1.);
#193=VECTOR('',#933,1.);
#194=VECTOR('',#934,1.);
#195=VECTOR('',#937,1.);
#196=VECTOR('',#938,1.);
#197=VECTOR('',#939,1.);
#198=VECTOR('',#942,1.);
#199=VECTOR('',#943,1.);
#200=VECTOR('',#946,1.);
#201=VECTOR('',#947,1.);
#202=VECTOR('',#954,1.);
#203=VECTOR('',#955,1.);
#204=VECTOR('',#958,1.);
#205=VECTOR('',#963,1.);
#206=VECTOR('',#964,1.);
#207=VECTOR('',#967,1.);
#208=VECTOR('',#968,1.);
#209=VECTOR('',#975,1.);
#210=ORIENTED_EDGE('',*,*,#420,.F.);
#211=ORIENTED_EDGE('',*,*,#421,.F.);
#212=ORIENTED_EDGE('',*,*,#422,.F.);
#213=ORIENTED_EDGE('',*,*,#423,.T.);
#214=ORIENTED_EDGE('',*,*,#424,.F.);
#215=ORIENTED_EDGE('',*,*,#425,.T.);
#216=ORIENTED_EDGE('',*,*,#426,.T.);
#217=ORIENTED_EDGE('',*,*,#427,.T.);
#218=ORIENTED_EDGE('',*,*,#428,.T.);
#219=ORIENTED_EDGE('',*,*,#429,.T.);
#220=ORIENTED_EDGE('',*,*,#430,.F.);
#221=ORIENTED_EDGE('',*,*,#431,.F.);
#222=ORIENTED_EDGE('',*,*,#432,.F.);
#223=ORIENTED_EDGE('',*,*,#422,.T.);
#224=ORIENTED_EDGE('',*,*,#433,.T.);
#225=ORIENTED_EDGE('',*,*,#425,.F.);
#226=ORIENTED_EDGE('',*,*,#434,.F.);
#227=ORIENTED_EDGE('',*,*,#429,.F.);
#228=ORIENTED_EDGE('',*,*,#435,.T.);
#229=ORIENTED_EDGE('',*,*,#436,.T.);
#230=ORIENTED_EDGE('',*,*,#437,.F.);
#231=ORIENTED_EDGE('',*,*,#438,.T.);
#232=ORIENTED_EDGE('',*,*,#436,.F.);
#233=ORIENTED_EDGE('',*,*,#439,.F.);
#234=ORIENTED_EDGE('',*,*,#440,.F.);
#235=ORIENTED_EDGE('',*,*,#441,.F.);
#236=ORIENTED_EDGE('',*,*,#442,.T.);
#237=ORIENTED_EDGE('',*,*,#443,.F.);
#238=ORIENTED_EDGE('',*,*,#444,.T.);
#239=ORIENTED_EDGE('',*,*,#440,.T.);
#240=ORIENTED_EDGE('',*,*,#445,.F.);
#241=ORIENTED_EDGE('',*,*,#446,.F.);
#242=ORIENTED_EDGE('',*,*,#447,.F.);
#243=ORIENTED_EDGE('',*,*,#448,.F.);
#244=ORIENTED_EDGE('',*,*,#446,.T.);
#245=ORIENTED_EDGE('',*,*,#449,.F.);
#246=ORIENTED_EDGE('',*,*,#450,.F.);
#247=ORIENTED_EDGE('',*,*,#447,.T.);
#248=ORIENTED_EDGE('',*,*,#451,.F.);
#249=ORIENTED_EDGE('',*,*,#452,.F.);
#250=ORIENTED_EDGE('',*,*,#453,.F.);
#251=ORIENTED_EDGE('',*,*,#454,.F.);
#252=ORIENTED_EDGE('',*,*,#452,.T.);
#253=ORIENTED_EDGE('',*,*,#455,.F.);
#254=ORIENTED_EDGE('',*,*,#456,.T.);
#255=ORIENTED_EDGE('',*,*,#453,.T.);
#256=ORIENTED_EDGE('',*,*,#457,.F.);
#257=ORIENTED_EDGE('',*,*,#458,.F.);
#258=ORIENTED_EDGE('',*,*,#459,.F.);
#259=ORIENTED_EDGE('',*,*,#460,.F.);
#260=ORIENTED_EDGE('',*,*,#458,.T.);
#261=ORIENTED_EDGE('',*,*,#461,.F.);
#262=ORIENTED_EDGE('',*,*,#462,.F.);
#263=ORIENTED_EDGE('',*,*,#459,.T.);
#264=ORIENTED_EDGE('',*,*,#463,.F.);
#265=ORIENTED_EDGE('',*,*,#464,.F.);
#266=ORIENTED_EDGE('',*,*,#465,.F.);
#267=ORIENTED_EDGE('',*,*,#466,.F.);
#268=ORIENTED_EDGE('',*,*,#464,.T.);
#269=ORIENTED_EDGE('',*,*,#467,.F.);
#270=ORIENTED_EDGE('',*,*,#468,.T.);
#271=ORIENTED_EDGE('',*,*,#465,.T.);
#272=ORIENTED_EDGE('',*,*,#469,.F.);
#273=ORIENTED_EDGE('',*,*,#470,.F.);
#274=ORIENTED_EDGE('',*,*,#471,.F.);
#275=ORIENTED_EDGE('',*,*,#472,.F.);
#276=ORIENTED_EDGE('',*,*,#470,.T.);
#277=ORIENTED_EDGE('',*,*,#473,.F.);
#278=ORIENTED_EDGE('',*,*,#474,.F.);
#279=ORIENTED_EDGE('',*,*,#471,.T.);
#280=ORIENTED_EDGE('',*,*,#475,.F.);
#281=ORIENTED_EDGE('',*,*,#476,.F.);
#282=ORIENTED_EDGE('',*,*,#477,.F.);
#283=ORIENTED_EDGE('',*,*,#478,.F.);
#284=ORIENTED_EDGE('',*,*,#476,.T.);
#285=ORIENTED_EDGE('',*,*,#479,.F.);
#286=ORIENTED_EDGE('',*,*,#480,.T.);
#287=ORIENTED_EDGE('',*,*,#477,.T.);
#288=ORIENTED_EDGE('',*,*,#481,.F.);
#289=ORIENTED_EDGE('',*,*,#482,.F.);
#290=ORIENTED_EDGE('',*,*,#483,.F.);
#291=ORIENTED_EDGE('',*,*,#484,.F.);
#292=ORIENTED_EDGE('',*,*,#482,.T.);
#293=ORIENTED_EDGE('',*,*,#485,.F.);
#294=ORIENTED_EDGE('',*,*,#486,.F.);
#295=ORIENTED_EDGE('',*,*,#483,.T.);
#296=ORIENTED_EDGE('',*,*,#487,.F.);
#297=ORIENTED_EDGE('',*,*,#488,.F.);
#298=ORIENTED_EDGE('',*,*,#489,.F.);
#299=ORIENTED_EDGE('',*,*,#490,.F.);
#300=ORIENTED_EDGE('',*,*,#488,.T.);
#301=ORIENTED_EDGE('',*,*,#491,.F.);
#302=ORIENTED_EDGE('',*,*,#492,.T.);
#303=ORIENTED_EDGE('',*,*,#489,.T.);
#304=ORIENTED_EDGE('',*,*,#493,.F.);
#305=ORIENTED_EDGE('',*,*,#494,.F.);
#306=ORIENTED_EDGE('',*,*,#495,.F.);
#307=ORIENTED_EDGE('',*,*,#496,.F.);
#308=ORIENTED_EDGE('',*,*,#494,.T.);
#309=ORIENTED_EDGE('',*,*,#497,.F.);
#310=ORIENTED_EDGE('',*,*,#498,.F.);
#311=ORIENTED_EDGE('',*,*,#495,.T.);
#312=ORIENTED_EDGE('',*,*,#499,.F.);
#313=ORIENTED_EDGE('',*,*,#500,.F.);
#314=ORIENTED_EDGE('',*,*,#501,.T.);
#315=ORIENTED_EDGE('',*,*,#502,.T.);
#316=ORIENTED_EDGE('',*,*,#439,.T.);
#317=ORIENTED_EDGE('',*,*,#435,.F.);
#318=ORIENTED_EDGE('',*,*,#428,.F.);
#319=ORIENTED_EDGE('',*,*,#503,.F.);
#320=ORIENTED_EDGE('',*,*,#504,.F.);
#321=ORIENTED_EDGE('',*,*,#500,.T.);
#322=ORIENTED_EDGE('',*,*,#505,.F.);
#323=ORIENTED_EDGE('',*,*,#506,.T.);
#324=ORIENTED_EDGE('',*,*,#503,.T.);
#325=ORIENTED_EDGE('',*,*,#427,.F.);
#326=ORIENTED_EDGE('',*,*,#506,.F.);
#327=ORIENTED_EDGE('',*,*,#507,.T.);
#328=ORIENTED_EDGE('',*,*,#508,.T.);
#329=ORIENTED_EDGE('',*,*,#441,.T.);
#330=ORIENTED_EDGE('',*,*,#444,.F.);
#331=ORIENTED_EDGE('',*,*,#448,.T.);
#332=ORIENTED_EDGE('',*,*,#450,.T.);
#333=ORIENTED_EDGE('',*,*,#454,.T.);
#334=ORIENTED_EDGE('',*,*,#456,.F.);
#335=ORIENTED_EDGE('',*,*,#460,.T.);
#336=ORIENTED_EDGE('',*,*,#462,.T.);
#337=ORIENTED_EDGE('',*,*,#466,.T.);
#338=ORIENTED_EDGE('',*,*,#468,.F.);
#339=ORIENTED_EDGE('',*,*,#472,.T.);
#340=ORIENTED_EDGE('',*,*,#474,.T.);
#341=ORIENTED_EDGE('',*,*,#478,.T.);
#342=ORIENTED_EDGE('',*,*,#480,.F.);
#343=ORIENTED_EDGE('',*,*,#484,.T.);
#344=ORIENTED_EDGE('',*,*,#486,.T.);
#345=ORIENTED_EDGE('',*,*,#490,.T.);
#346=ORIENTED_EDGE('',*,*,#492,.F.);
#347=ORIENTED_EDGE('',*,*,#496,.T.);
#348=ORIENTED_EDGE('',*,*,#498,.T.);
#349=ORIENTED_EDGE('',*,*,#504,.T.);
#350=ORIENTED_EDGE('',*,*,#509,.T.);
#351=ORIENTED_EDGE('',*,*,#510,.T.);
#352=ORIENTED_EDGE('',*,*,#501,.F.);
#353=ORIENTED_EDGE('',*,*,#499,.T.);
#354=ORIENTED_EDGE('',*,*,#497,.T.);
#355=ORIENTED_EDGE('',*,*,#493,.T.);
#356=ORIENTED_EDGE('',*,*,#491,.T.);
#357=ORIENTED_EDGE('',*,*,#487,.T.);
#358=ORIENTED_EDGE('',*,*,#485,.T.);
#359=ORIENTED_EDGE('',*,*,#481,.T.);
#360=ORIENTED_EDGE('',*,*,#479,.T.);
#361=ORIENTED_EDGE('',*,*,#475,.T.);
#362=ORIENTED_EDGE('',*,*,#473,.T.);
#363=ORIENTED_EDGE('',*,*,#469,.T.);
#364=ORIENTED_EDGE('',*,*,#467,.T.);
#365=ORIENTED_EDGE('',*,*,#463,.T.);
#366=ORIENTED_EDGE('',*,*,#461,.T.);
#367=ORIENTED_EDGE('',*,*,#457,.T.);
#368=ORIENTED_EDGE('',*,*,#455,.T.);
#369=ORIENTED_EDGE('',*,*,#451,.T.);
#370=ORIENTED_EDGE('',*,*,#449,.T.);
#371=ORIENTED_EDGE('',*,*,#445,.T.);
#372=ORIENTED_EDGE('',*,*,#443,.T.);
#373=ORIENTED_EDGE('',*,*,#511,.T.);
#374=ORIENTED_EDGE('',*,*,#512,.T.);
#375=ORIENTED_EDGE('',*,*,#513,.F.);
#376=ORIENTED_EDGE('',*,*,#511,.F.);
#377=ORIENTED_EDGE('',*,*,#442,.F.);
#378=ORIENTED_EDGE('',*,*,#508,.F.);
#379=ORIENTED_EDGE('',*,*,#421,.T.);
#380=ORIENTED_EDGE('',*,*,#514,.T.);
#381=ORIENTED_EDGE('',*,*,#512,.F.);
#382=ORIENTED_EDGE('',*,*,#513,.T.);
#383=ORIENTED_EDGE('',*,*,#507,.F.);
#384=ORIENTED_EDGE('',*,*,#505,.T.);
#385=ORIENTED_EDGE('',*,*,#426,.F.);
#386=ORIENTED_EDGE('',*,*,#433,.F.);
#387=ORIENTED_EDGE('',*,*,#515,.F.);
#388=ORIENTED_EDGE('',*,*,#516,.F.);
#389=ORIENTED_EDGE('',*,*,#517,.T.);
#390=ORIENTED_EDGE('',*,*,#430,.T.);
#391=ORIENTED_EDGE('',*,*,#434,.T.);
#392=ORIENTED_EDGE('',*,*,#438,.F.);
#393=ORIENTED_EDGE('',*,*,#518,.T.);
#394=ORIENTED_EDGE('',*,*,#519,.T.);
#395=ORIENTED_EDGE('',*,*,#431,.T.);
#396=ORIENTED_EDGE('',*,*,#517,.F.);
#397=ORIENTED_EDGE('',*,*,#520,.F.);
#398=ORIENTED_EDGE('',*,*,#521,.F.);
#399=ORIENTED_EDGE('',*,*,#522,.F.);
#400=ORIENTED_EDGE('',*,*,#518,.F.);
#401=ORIENTED_EDGE('',*,*,#516,.T.);
#402=ORIENTED_EDGE('',*,*,#523,.F.);
#403=ORIENTED_EDGE('',*,*,#423,.F.);
#404=ORIENTED_EDGE('',*,*,#432,.T.);
#405=ORIENTED_EDGE('',*,*,#424,.T.);
#406=ORIENTED_EDGE('',*,*,#519,.F.);
#407=ORIENTED_EDGE('',*,*,#522,.T.);
#408=ORIENTED_EDGE('',*,*,#521,.T.);
#409=ORIENTED_EDGE('',*,*,#524,.T.);
#410=ORIENTED_EDGE('',*,*,#509,.F.);
#411=ORIENTED_EDGE('',*,*,#514,.F.);
#412=ORIENTED_EDGE('',*,*,#420,.T.);
#413=ORIENTED_EDGE('',*,*,#523,.T.);
#414=ORIENTED_EDGE('',*,*,#437,.T.);
#415=ORIENTED_EDGE('',*,*,#502,.F.);
#416=ORIENTED_EDGE('',*,*,#510,.F.);
#417=ORIENTED_EDGE('',*,*,#524,.F.);
#418=ORIENTED_EDGE('',*,*,#520,.T.);
#419=ORIENTED_EDGE('',*,*,#515,.T.);
#420=EDGE_CURVE('',#525,#526,#595,.T.);
#421=EDGE_CURVE('',#527,#525,#22,.T.);
#422=EDGE_CURVE('',#528,#527,#23,.T.);
#423=EDGE_CURVE('',#528,#526,#24,.T.);
#424=EDGE_CURVE('',#529,#530,#25,.T.);
#425=EDGE_CURVE('',#529,#531,#26,.T.);
#426=EDGE_CURVE('',#531,#532,#27,.T.);
#427=EDGE_CURVE('',#532,#533,#28,.T.);
#428=EDGE_CURVE('',#533,#534,#29,.T.);
#429=EDGE_CURVE('',#534,#535,#30,.T.);
#430=EDGE_CURVE('',#536,#535,#31,.T.);
#431=EDGE_CURVE('',#530,#536,#32,.T.);
#432=EDGE_CURVE('',#528,#529,#33,.T.);
#433=EDGE_CURVE('',#527,#531,#34,.T.);
#434=EDGE_CURVE('',#535,#537,#35,.T.);
#435=EDGE_CURVE('',#534,#538,#36,.T.);
#436=EDGE_CURVE('',#538,#537,#37,.T.);
#437=EDGE_CURVE('',#539,#540,#19,.T.);
#438=EDGE_CURVE('',#539,#537,#38,.T.);
#439=EDGE_CURVE('',#540,#538,#39,.T.);
#440=EDGE_CURVE('',#541,#542,#40,.T.);
#441=EDGE_CURVE('',#543,#541,#41,.T.);
#442=EDGE_CURVE('',#543,#544,#42,.T.);
#443=EDGE_CURVE('',#542,#544,#43,.T.);
#444=EDGE_CURVE('',#545,#541,#44,.T.);
#445=EDGE_CURVE('',#546,#542,#45,.T.);
#446=EDGE_CURVE('',#545,#546,#46,.T.);
#447=EDGE_CURVE('',#547,#548,#47,.T.);
#448=EDGE_CURVE('',#545,#547,#48,.T.);
#449=EDGE_CURVE('',#548,#546,#49,.T.);
#450=EDGE_CURVE('',#547,#549,#50,.T.);
#451=EDGE_CURVE('',#550,#548,#51,.T.);
#452=EDGE_CURVE('',#549,#550,#52,.T.);
#453=EDGE_CURVE('',#551,#552,#53,.T.);
#454=EDGE_CURVE('',#549,#551,#54,.T.);
#455=EDGE_CURVE('',#552,#550,#55,.T.);
#456=EDGE_CURVE('',#553,#551,#56,.T.);
#457=EDGE_CURVE('',#554,#552,#57,.T.);
#458=EDGE_CURVE('',#553,#554,#58,.T.);
#459=EDGE_CURVE('',#555,#556,#59,.T.);
#460=EDGE_CURVE('',#553,#555,#60,.T.);
#461=EDGE_CURVE('',#556,#554,#61,.T.);
#462=EDGE_CURVE('',#555,#557,#62,.T.);
#463=EDGE_CURVE('',#558,#556,#63,.T.);
#464=EDGE_CURVE('',#557,#558,#64,.T.);
#465=EDGE_CURVE('',#559,#560,#65,.T.);
#466=EDGE_CURVE('',#557,#559,#66,.T.);
#467=EDGE_CURVE('',#560,#558,#67,.T.);
#468=EDGE_CURVE('',#561,#559,#68,.T.);
#469=EDGE_CURVE('',#562,#560,#69,.T.);
#470=EDGE_CURVE('',#561,#562,#70,.T.);
#471=EDGE_CURVE('',#563,#564,#71,.T.);
#472=EDGE_CURVE('',#561,#563,#72,.T.);
#473=EDGE_CURVE('',#564,#562,#73,.T.);
#474=EDGE_CURVE('',#563,#565,#74,.T.);
#475=EDGE_CURVE('',#566,#564,#75,.T.);
#476=EDGE_CURVE('',#565,#566,#76,.T.);
#477=EDGE_CURVE('',#567,#568,#77,.T.);
#478=EDGE_CURVE('',#565,#567,#78,.T.);
#479=EDGE_CURVE('',#568,#566,#79,.T.);
#480=EDGE_CURVE('',#569,#567,#80,.T.);
#481=EDGE_CURVE('',#570,#568,#81,.T.);
#482=EDGE_CURVE('',#569,#570,#82,.T.);
#483=EDGE_CURVE('',#571,#572,#83,.T.);
#484=EDGE_CURVE('',#569,#571,#84,.T.);
#485=EDGE_CURVE('',#572,#570,#85,.T.);
#486=EDGE_CURVE('',#571,#573,#86,.T.);
#487=EDGE_CURVE('',#574,#572,#87,.T.);
#488=EDGE_CURVE('',#573,#574,#88,.T.);
#489=EDGE_CURVE('',#575,#576,#89,.T.);
#490=EDGE_CURVE('',#573,#575,#90,.T.);
#491=EDGE_CURVE('',#576,#574,#91,.T.);
#492=EDGE_CURVE('',#577,#575,#92,.T.);
#493=EDGE_CURVE('',#578,#576,#93,.T.);
#494=EDGE_CURVE('',#577,#578,#94,.T.);
#495=EDGE_CURVE('',#579,#580,#95,.T.);
#496=EDGE_CURVE('',#577,#579,#96,.T.);
#497=EDGE_CURVE('',#580,#578,#97,.T.);
#498=EDGE_CURVE('',#579,#581,#98,.T.);
#499=EDGE_CURVE('',#582,#580,#99,.T.);
#500=EDGE_CURVE('',#581,#582,#100,.T.);
#501=EDGE_CURVE('',#582,#583,#101,.T.);
#502=EDGE_CURVE('',#583,#540,#14,.T.);
#503=EDGE_CURVE('',#584,#533,#102,.T.);
#504=EDGE_CURVE('',#581,#584,#103,.T.);
#505=EDGE_CURVE('',#585,#532,#104,.T.);
#506=EDGE_CURVE('',#585,#584,#105,.T.);
#507=EDGE_CURVE('',#585,#586,#106,.T.);
#508=EDGE_CURVE('',#586,#543,#107,.T.);
#509=EDGE_CURVE('',#587,#588,#596,.T.);
#510=EDGE_CURVE('',#588,#583,#20,.T.);
#511=EDGE_CURVE('',#544,#589,#108,.T.);
#512=EDGE_CURVE('',#589,#587,#109,.T.);
#513=EDGE_CURVE('',#589,#586,#110,.T.);
#514=EDGE_CURVE('',#525,#587,#15,.T.);
#515=EDGE_CURVE('',#590,#539,#16,.T.);
#516=EDGE_CURVE('',#591,#590,#111,.T.);
#517=EDGE_CURVE('',#591,#536,#112,.T.);
#518=EDGE_CURVE('',#591,#592,#113,.T.);
#519=EDGE_CURVE('',#592,#530,#114,.T.);
#520=EDGE_CURVE('',#593,#590,#21,.T.);
#521=EDGE_CURVE('',#594,#593,#597,.T.);
#522=EDGE_CURVE('',#592,#594,#115,.T.);
#523=EDGE_CURVE('',#526,#594,#17,.T.);
#524=EDGE_CURVE('',#593,#588,#18,.T.);
#525=VERTEX_POINT('',#985);
#526=VERTEX_POINT('',#986);
#527=VERTEX_POINT('',#988);
#528=VERTEX_POINT('',#990);
#529=VERTEX_POINT('',#994);
#530=VERTEX_POINT('',#995);
#531=VERTEX_POINT('',#997);
#532=VERTEX_POINT('',#999);
#533=VERTEX_POINT('',#1001);
#534=VERTEX_POINT('',#1003);
#535=VERTEX_POINT('',#1005);
#536=VERTEX_POINT('',#1007);
#537=VERTEX_POINT('',#1014);
#538=VERTEX_POINT('',#1016);
#539=VERTEX_POINT('',#1020);
#540=VERTEX_POINT('',#1021);
#541=VERTEX_POINT('',#1026);
#542=VERTEX_POINT('',#1027);
#543=VERTEX_POINT('',#1029);
#544=VERTEX_POINT('',#1031);
#545=VERTEX_POINT('',#1035);
#546=VERTEX_POINT('',#1037);
#547=VERTEX_POINT('',#1041);
#548=VERTEX_POINT('',#1042);
#549=VERTEX_POINT('',#1047);
#550=VERTEX_POINT('',#1049);
#551=VERTEX_POINT('',#1053);
#552=VERTEX_POINT('',#1054);
#553=VERTEX_POINT('',#1059);
#554=VERTEX_POINT('',#1061);
#555=VERTEX_POINT('',#1065);
#556=VERTEX_POINT('',#1066);
#557=VERTEX_POINT('',#1071);
#558=VERTEX_POINT('',#1073);
#559=VERTEX_POINT('',#1077);
#560=VERTEX_POINT('',#1078);
#561=VERTEX_POINT('',#1083);
#562=VERTEX_POINT('',#1085);
#563=VERTEX_POINT('',#1089);
#564=VERTEX_POINT('',#1090);
#565=VERTEX_POINT('',#1095);
#566=VERTEX_POINT('',#1097);
#567=VERTEX_POINT('',#1101);
#568=VERTEX_POINT('',#1102);
#569=VERTEX_POINT('',#1107);
#570=VERTEX_POINT('',#1109);
#571=VERTEX_POINT('',#1113);
#572=VERTEX_POINT('',#1114);
#573=VERTEX_POINT('',#1119);
#574=VERTEX_POINT('',#1121);
#575=VERTEX_POINT('',#1125);
#576=VERTEX_POINT('',#1126);
#577=VERTEX_POINT('',#1131);
#578=VERTEX_POINT('',#1133);
#579=VERTEX_POINT('',#1137);
#580=VERTEX_POINT('',#1138);
#581=VERTEX_POINT('',#1143);
#582=VERTEX_POINT('',#1145);
#583=VERTEX_POINT('',#1149);
#584=VERTEX_POINT('',#1155);
#585=VERTEX_POINT('',#1159);
#586=VERTEX_POINT('',#1163);
#587=VERTEX_POINT('',#1167);
#588=VERTEX_POINT('',#1168);
#589=VERTEX_POINT('',#1171);
#590=VERTEX_POINT('',#1185);
#591=VERTEX_POINT('',#1187);
#592=VERTEX_POINT('',#1191);
#593=VERTEX_POINT('',#1195);
#594=VERTEX_POINT('',#1197);
#595=CIRCLE('',#758,0.191562720281946);
#596=CIRCLE('',#788,0.191562720281946);
#597=CIRCLE('',#796,0.191562720281946);
#598=EDGE_LOOP('',(#210,#211,#212,#213));
#599=EDGE_LOOP('',(#214,#215,#216,#217,#218,#219,#220,#221));
#600=EDGE_LOOP('',(#222,#223,#224,#225));
#601=EDGE_LOOP('',(#226,#227,#228,#229));
#602=EDGE_LOOP('',(#230,#231,#232,#233));
#603=EDGE_LOOP('',(#234,#235,#236,#237));
#604=EDGE_LOOP('',(#238,#239,#240,#241));
#605=EDGE_LOOP('',(#242,#243,#244,#245));
#606=EDGE_LOOP('',(#246,#247,#248,#249));
#607=EDGE_LOOP('',(#250,#251,#252,#253));
#608=EDGE_LOOP('',(#254,#255,#256,#257));
#609=EDGE_LOOP('',(#258,#259,#260,#261));
#610=EDGE_LOOP('',(#262,#263,#264,#265));
#611=EDGE_LOOP('',(#266,#267,#268,#269));
#612=EDGE_LOOP('',(#270,#271,#272,#273));
#613=EDGE_LOOP('',(#274,#275,#276,#277));
#614=EDGE_LOOP('',(#278,#279,#280,#281));
#615=EDGE_LOOP('',(#282,#283,#284,#285));
#616=EDGE_LOOP('',(#286,#287,#288,#289));
#617=EDGE_LOOP('',(#290,#291,#292,#293));
#618=EDGE_LOOP('',(#294,#295,#296,#297));
#619=EDGE_LOOP('',(#298,#299,#300,#301));
#620=EDGE_LOOP('',(#302,#303,#304,#305));
#621=EDGE_LOOP('',(#306,#307,#308,#309));
#622=EDGE_LOOP('',(#310,#311,#312,#313));
#623=EDGE_LOOP('',(#314,#315,#316,#317,#318,#319,#320,#321));
#624=EDGE_LOOP('',(#322,#323,#324,#325));
#625=EDGE_LOOP('',(#326,#327,#328,#329,#330,#331,#332,#333,#334,#335,#336,#337,#338,#339,#340,#341,#342,#343,#344,#345,#346,#347,#348,#349));
#626=EDGE_LOOP('',(#350,#351,#352,#353,#354,#355,#356,#357,#358,#359,#360,#361,#362,#363,#364,#365,#366,#367,#368,#369,#370,#371,#372,#373,#374));
#627=EDGE_LOOP('',(#375,#376,#377,#378));
#628=EDGE_LOOP('',(#379,#380,#381,#382,#383,#384,#385,#386));
#629=EDGE_LOOP('',(#387,#388,#389,#390,#391,#392));
#630=EDGE_LOOP('',(#393,#394,#395,#396));
#631=EDGE_LOOP('',(#397,#398,#399,#400,#401));
#632=EDGE_LOOP('',(#402,#403,#404,#405,#406,#407));
#633=EDGE_LOOP('',(#408,#409,#410,#411,#412,#413));
#634=EDGE_LOOP('',(#414,#415,#416,#417,#418,#419));
#635=FACE_BOUND('',#598,.T.);
#636=FACE_BOUND('',#599,.T.);
#637=FACE_BOUND('',#600,.T.);
#638=FACE_BOUND('',#601,.T.);
#639=FACE_BOUND('',#602,.T.);
#640=FACE_BOUND('',#603,.T.);
#641=FACE_BOUND('',#604,.T.);
#642=FACE_BOUND('',#605,.T.);
#643=FACE_BOUND('',#606,.T.);
#644=FACE_BOUND('',#607,.T.);
#645=FACE_BOUND('',#608,.T.);
#646=FACE_BOUND('',#609,.T.);
#647=FACE_BOUND('',#610,.T.);
#648=FACE_BOUND('',#611,.T.);
#649=FACE_BOUND('',#612,.T.);
#650=FACE_BOUND('',#613,.T.);
#651=FACE_BOUND('',#614,.T.);
#652=FACE_BOUND('',#615,.T.);
#653=FACE_BOUND('',#616,.T.);
#654=FACE_BOUND('',#617,.T.);
#655=FACE_BOUND('',#618,.T.);
#656=FACE_BOUND('',#619,.T.);
#657=FACE_BOUND('',#620,.T.);
#658=FACE_BOUND('',#621,.T.);
#659=FACE_BOUND('',#622,.T.);
#660=FACE_BOUND('',#623,.T.);
#661=FACE_BOUND('',#624,.T.);
#662=FACE_BOUND('',#625,.T.);
#663=FACE_BOUND('',#626,.T.);
#664=FACE_BOUND('',#627,.T.);
#665=FACE_BOUND('',#628,.T.);
#666=FACE_BOUND('',#629,.T.);
#667=FACE_BOUND('',#630,.T.);
#668=FACE_BOUND('',#631,.T.);
#669=FACE_BOUND('',#632,.T.);
#670=FACE_BOUND('',#633,.T.);
#671=FACE_BOUND('',#634,.T.);
#672=PLANE('',#757);
#673=PLANE('',#759);
#674=PLANE('',#760);
#675=PLANE('',#761);
#676=PLANE('',#762);
#677=PLANE('',#764);
#678=PLANE('',#765);
#679=PLANE('',#766);
#680=PLANE('',#767);
#681=PLANE('',#768);
#682=PLANE('',#769);
#683=PLANE('',#770);
#684=PLANE('',#771);
#685=PLANE('',#772);
#686=PLANE('',#773);
#687=PLANE('',#774);
#688=PLANE('',#775);
#689=PLANE('',#776);
#690=PLANE('',#777);
#691=PLANE('',#778);
#692=PLANE('',#779);
#693=PLANE('',#780);
#694=PLANE('',#781);
#695=PLANE('',#782);
#696=PLANE('',#783);
#697=PLANE('',#784);
#698=PLANE('',#785);
#699=PLANE('',#786);
#700=PLANE('',#787);
#701=PLANE('',#790);
#702=PLANE('',#791);
#703=PLANE('',#792);
#704=PLANE('',#793);
#705=PLANE('',#794);
#706=PLANE('',#797);
#707=ADVANCED_FACE('',(#635),#672,.T.);
#708=ADVANCED_FACE('',(#636),#673,.F.);
#709=ADVANCED_FACE('',(#637),#674,.F.);
#710=ADVANCED_FACE('',(#638),#675,.F.);
#711=ADVANCED_FACE('',(#639),#676,.T.);
#712=ADVANCED_FACE('',(#640),#677,.F.);
#713=ADVANCED_FACE('',(#641),#678,.T.);
#714=ADVANCED_FACE('',(#642),#679,.F.);
#715=ADVANCED_FACE('',(#643),#680,.T.);
#716=ADVANCED_FACE('',(#644),#681,.F.);
#717=ADVANCED_FACE('',(#645),#682,.T.);
#718=ADVANCED_FACE('',(#646),#683,.F.);
#719=ADVANCED_FACE('',(#647),#684,.T.);
#720=ADVANCED_FACE('',(#648),#685,.F.);
#721=ADVANCED_FACE('',(#649),#686,.T.);
#722=ADVANCED_FACE('',(#650),#687,.F.);
#723=ADVANCED_FACE('',(#651),#688,.T.);
#724=ADVANCED_FACE('',(#652),#689,.F.);
#725=ADVANCED_FACE('',(#653),#690,.T.);
#726=ADVANCED_FACE('',(#654),#691,.F.);
#727=ADVANCED_FACE('',(#655),#692,.T.);
#728=ADVANCED_FACE('',(#656),#693,.F.);
#729=ADVANCED_FACE('',(#657),#694,.T.);
#730=ADVANCED_FACE('',(#658),#695,.F.);
#731=ADVANCED_FACE('',(#659),#696,.T.);
#732=ADVANCED_FACE('',(#660),#697,.F.);
#733=ADVANCED_FACE('',(#661),#698,.T.);
#734=ADVANCED_FACE('',(#662),#699,.F.);
#735=ADVANCED_FACE('',(#663),#700,.F.);
#736=ADVANCED_FACE('',(#664),#701,.T.);
#737=ADVANCED_FACE('',(#665),#702,.F.);
#738=ADVANCED_FACE('',(#666),#703,.T.);
#739=ADVANCED_FACE('',(#667),#704,.F.);
#740=ADVANCED_FACE('',(#668),#705,.T.);
#741=ADVANCED_FACE('',(#669),#706,.T.);
#742=ADVANCED_FACE('',(#670),#13,.F.);
#743=ADVANCED_FACE('',(#671),#12,.F.);
#744=CLOSED_SHELL('',(#707,#708,#709,#710,#711,#712,#713,#714,#715,#716,#717,#718,#719,#720,#721,#722,#723,#724,#725,#726,#727,#728,#729,#730,#731,#732,#733,#734,#735,#736,#737,#738,#739,#740,#741,#742,#743));
#745=STYLED_ITEM('',(#746),#753);
#746=PRESENTATION_STYLE_ASSIGNMENT((#747));
#747=SURFACE_STYLE_USAGE(.BOTH.,#748);
#748=SURFACE_SIDE_STYLE('',(#749));
#749=SURFACE_STYLE_FILL_AREA(#750);
#750=FILL_AREA_STYLE('',(#751));
#751=FILL_AREA_STYLE_COLOUR('',#752);
#752=COLOUR_RGB('',0.647058823529412,0.647058823529412,0.647058823529412);
#753=MANIFOLD_SOLID_BREP('bin_third_right',#744);
#754=SHAPE_DEFINITION_REPRESENTATION(#1216,#755);
#755=SHAPE_REPRESENTATION('bin_third_right',(#756),#1211);
#756=AXIS2_PLACEMENT_3D('',#982,#800,#801);
#757=AXIS2_PLACEMENT_3D('',#983,#802,#803);
#758=AXIS2_PLACEMENT_3D('',#984,#804,#805);
#759=AXIS2_PLACEMENT_3D('',#992,#809,#810);
#760=AXIS2_PLACEMENT_3D('',#1009,#819,#820);
#761=AXIS2_PLACEMENT_3D('',#1012,#823,#824);
#762=AXIS2_PLACEMENT_3D('',#1018,#828,#829);
#763=AXIS2_PLACEMENT_3D('',#1019,#830,#831);
#764=AXIS2_PLACEMENT_3D('',#1024,#834,#835);
#765=AXIS2_PLACEMENT_3D('',#1033,#840,#841);
#766=AXIS2_PLACEMENT_3D('',#1039,#845,#846);
#767=AXIS2_PLACEMENT_3D('',#1045,#850,#851);
#768=AXIS2_PLACEMENT_3D('',#1051,#855,#856);
#769=AXIS2_PLACEMENT_3D('',#1057,#860,#861);
#770=AXIS2_PLACEMENT_3D('',#1063,#865,#866);
#771=AXIS2_PLACEMENT_3D('',#1069,#870,#871);
#772=AXIS2_PLACEMENT_3D('',#1075,#875,#876);
#773=AXIS2_PLACEMENT_3D('',#1081,#880,#881);
#774=AXIS2_PLACEMENT_3D('',#1087,#885,#886);
#775=AXIS2_PLACEMENT_3D('',#1093,#890,#891);
#776=AXIS2_PLACEMENT_3D('',#1099,#895,#896);
#777=AXIS2_PLACEMENT_3D('',#1105,#900,#901);
#778=AXIS2_PLACEMENT_3D('',#1111,#905,#906);
#779=AXIS2_PLACEMENT_3D('',#1117,#910,#911);
#780=AXIS2_PLACEMENT_3D('',#1123,#915,#916);
#781=AXIS2_PLACEMENT_3D('',#1129,#920,#921);
#782=AXIS2_PLACEMENT_3D('',#1135,#925,#926);
#783=AXIS2_PLACEMENT_3D('',#1141,#930,#931);
#784=AXIS2_PLACEMENT_3D('',#1147,#935,#936);
#785=AXIS2_PLACEMENT_3D('',#1157,#940,#941);
#786=AXIS2_PLACEMENT_3D('',#1161,#944,#945);
#787=AXIS2_PLACEMENT_3D('',#1165,#948,#949);
#788=AXIS2_PLACEMENT_3D('',#1166,#950,#951);
#789=AXIS2_PLACEMENT_3D('',#1169,#952,#953);
#790=AXIS2_PLACEMENT_3D('',#1173,#956,#957);
#791=AXIS2_PLACEMENT_3D('',#1175,#959,#960);
#792=AXIS2_PLACEMENT_3D('',#1180,#961,#962);
#793=AXIS2_PLACEMENT_3D('',#1189,#965,#966);
#794=AXIS2_PLACEMENT_3D('',#1193,#969,#970);
#795=AXIS2_PLACEMENT_3D('',#1194,#971,#972);
#796=AXIS2_PLACEMENT_3D('',#1196,#973,#974);
#797=AXIS2_PLACEMENT_3D('',#1199,#976,#977);
#798=AXIS2_PLACEMENT_3D('',#1204,#978,#979);
#799=AXIS2_PLACEMENT_3D('',#1209,#980,#981);
#800=DIRECTION('',(0.,0.,1.));
#801=DIRECTION('',(1.,0.,0.));
#802=DIRECTION('',(0.5,0.,0.866025403784439));
#803=DIRECTION('',(0.866025403784439,0.,-0.5));
#804=DIRECTION('',(0.5,0.,0.866025403784438));
#805=DIRECTION('',(0.866025403784438,0.,-0.5));
#806=DIRECTION('',(-0.858371231107697,-0.132659110035999,0.495580861344658));
#807=DIRECTION('',(0.,-1.,0.));
#808=DIRECTION('',(-0.858371231107697,-0.132659110035999,0.495580861344658));
#809=DIRECTION('',(-0.5,0.,-0.866025403784439));
#810=DIRECTION('',(-0.866025403784439,0.,0.5));
#811=DIRECTION('',(0.858371231107697,0.132659110035999,-0.495580861344659));
#812=DIRECTION('',(0.,-1.,0.));
#813=DIRECTION('',(0.858371231107697,0.132659110035999,-0.495580861344659));
#814=DIRECTION('',(0.,1.,0.));
#815=DIRECTION('',(-0.79645972442126,-0.392686316500096,0.459836236293309));
#816=DIRECTION('',(0.,-1.,0.));
#817=DIRECTION('',(-0.79645972442126,-0.392686316500096,0.459836236293309));
#818=DIRECTION('',(0.,1.,0.));
#819=DIRECTION('',(0.,0.,-1.));
#820=DIRECTION('',(-1.,0.,0.));
#821=DIRECTION('',(0.993349528987573,0.115137801178265,0.));
#822=DIRECTION('',(0.993349528987573,0.115137801178265,0.));
#823=DIRECTION('',(0.,0.,-1.));
#824=DIRECTION('',(-1.,0.,0.));
#825=DIRECTION('',(-0.9379290325991,-0.346827233370906,0.));
#826=DIRECTION('',(-0.9379290325991,-0.346827233370906,0.));
#827=DIRECTION('',(0.,-1.,0.));
#828=DIRECTION('',(0.5,0.,0.866025403784439));
#829=DIRECTION('',(0.866025403784439,0.,-0.5));
#830=DIRECTION('',(0.5,0.,0.866025403784439));
#831=DIRECTION('',(-0.866025403784439,0.,0.5));
#832=DIRECTION('',(0.796459724421261,0.392686316500096,-0.459836236293309));
#833=DIRECTION('',(0.796459724421261,0.392686316500096,-0.459836236293309));
#834=DIRECTION('',(-0.612372435695795,-0.707106781186548,0.353553390593274));
#835=DIRECTION('',(0.612372435695795,-0.707106781186548,-0.353553390593274));
#836=DIRECTION('',(-0.5,7.10890453443263E-17,-0.866025403784439));
#837=DIRECTION('',(-0.612372435695795,0.707106781186548,0.353553390593274));
#838=DIRECTION('',(-0.5,7.10890453443263E-17,-0.866025403784439));
#839=DIRECTION('',(0.612372435695795,-0.707106781186548,-0.353553390593273));
#840=DIRECTION('',(0.866025403784439,0.,-0.5));
#841=DIRECTION('',(0.,1.,0.));
#842=DIRECTION('',(-3.55445226721631E-17,-1.,-6.15649191989705E-17));
#843=DIRECTION('',(3.55445226721631E-17,-1.,-2.052163973299E-17));
#844=DIRECTION('',(-0.5,7.10890453443263E-17,-0.866025403784439));
#845=DIRECTION('',(-0.612372435695795,0.707106781186548,0.353553390593274));
#846=DIRECTION('',(-0.612372435695795,-0.707106781186548,0.353553390593274));
#847=DIRECTION('',(-0.5,7.10890453443263E-17,-0.866025403784439));
#848=DIRECTION('',(0.612372435695795,0.707106781186548,-0.353553390593274));
#849=DIRECTION('',(-0.612372435695795,-0.707106781186548,0.353553390593273));
#850=DIRECTION('',(0.866025403784439,0.,-0.5));
#851=DIRECTION('',(-0.5,0.,-0.866025403784439));
#852=DIRECTION('',(3.55445226721631E-17,1.,6.15649191989705E-17));
#853=DIRECTION('',(0.,-1.,0.));
#854=DIRECTION('',(-0.5,7.10890453443263E-17,-0.866025403784439));
#855=DIRECTION('',(-0.612372435695795,-0.707106781186548,0.353553390593274));
#856=DIRECTION('',(0.612372435695795,-0.707106781186548,-0.353553390593274));
#857=DIRECTION('',(-0.5,7.10890453443263E-17,-0.866025403784439));
#858=DIRECTION('',(-0.612372435695795,0.707106781186548,0.353553390593274));
#859=DIRECTION('',(0.612372435695795,-0.707106781186548,-0.353553390593273));
#860=DIRECTION('',(0.866025403784439,0.,-0.5));
#861=DIRECTION('',(0.,1.,0.));
#862=DIRECTION('',(-3.55445226721631E-17,-1.,-6.15649191989705E-17));
#863=DIRECTION('',(3.55445226721631E-17,-1.,-2.052163973299E-17));
#864=DIRECTION('',(-0.5,7.10890453443263E-17,-0.866025403784439));
#865=DIRECTION('',(-0.612372435695795,0.707106781186548,0.353553390593274));
#866=DIRECTION('',(-0.612372435695795,-0.707106781186548,0.353553390593274));
#867=DIRECTION('',(-0.5,7.10890453443263E-17,-0.866025403784439));
#868=DIRECTION('',(0.612372435695795,0.707106781186548,-0.353553390593274));
#869=DIRECTION('',(-0.612372435695795,-0.707106781186548,0.353553390593273));
#870=DIRECTION('',(0.866025403784439,0.,-0.5));
#871=DIRECTION('',(-0.5,0.,-0.866025403784439));
#872=DIRECTION('',(3.55445226721631E-17,1.,6.15649191989705E-17));
#873=DIRECTION('',(0.,-1.,0.));
#874=DIRECTION('',(-0.5,7.10890453443263E-17,-0.866025403784439));
#875=DIRECTION('',(-0.612372435695795,-0.707106781186548,0.353553390593274));
#876=DIRECTION('',(0.612372435695795,-0.707106781186548,-0.353553390593274));
#877=DIRECTION('',(-0.5,7.10890453443263E-17,-0.866025403784439));
#878=DIRECTION('',(-0.612372435695795,0.707106781186548,0.353553390593274));
#879=DIRECTION('',(0.612372435695795,-0.707106781186548,-0.353553390593273));
#880=DIRECTION('',(0.866025403784439,0.,-0.5));
#881=DIRECTION('',(0.,1.,0.));
#882=DIRECTION('',(-3.55445226721631E-17,-1.,-6.15649191989705E-17));
#883=DIRECTION('',(3.55445226721631E-17,-1.,-2.052163973299E-17));
#884=DIRECTION('',(-0.5,7.10890453443263E-17,-0.866025403784439));
#885=DIRECTION('',(-0.612372435695795,0.707106781186548,0.353553390593274));
#886=DIRECTION('',(-0.612372435695795,-0.707106781186548,0.353553390593274));
#887=DIRECTION('',(-0.5,7.10890453443263E-17,-0.866025403784439));
#888=DIRECTION('',(0.612372435695795,0.707106781186548,-0.353553390593274));
#889=DIRECTION('',(-0.612372435695795,-0.707106781186548,0.353553390593273));
#890=DIRECTION('',(0.866025403784439,0.,-0.5));
#891=DIRECTION('',(-0.5,0.,-0.866025403784439));
#892=DIRECTION('',(3.55445226721631E-17,1.,6.15649191989705E-17));
#893=DIRECTION('',(0.,-1.,0.));
#894=DIRECTION('',(-0.5,7.10890453443263E-17,-0.866025403784439));
#895=DIRECTION('',(-0.612372435695795,-0.707106781186548,0.353553390593274));
#896=DIRECTION('',(0.612372435695795,-0.707106781186548,-0.353553390593274));
#897=DIRECTION('',(-0.5,7.10890453443263E-17,-0.866025403784439));
#898=DIRECTION('',(-0.612372435695795,0.707106781186548,0.353553390593274));
#899=DIRECTION('',(0.612372435695795,-0.707106781186548,-0.353553390593273));
#900=DIRECTION('',(0.866025403784439,0.,-0.5));
#901=DIRECTION('',(0.,1.,0.));
#902=DIRECTION('',(-3.55445226721631E-17,-1.,-6.15649191989705E-17));
#903=DIRECTION('',(3.55445226721631E-17,-1.,-2.052163973299E-17));
#904=DIRECTION('',(-0.5,7.10890453443263E-17,-0.866025403784439));
#905=DIRECTION('',(-0.612372435695795,0.707106781186548,0.353553390593274));
#906=DIRECTION('',(-0.612372435695795,-0.707106781186548,0.353553390593274));
#907=DIRECTION('',(-0.5,7.10890453443263E-17,-0.866025403784439));
#908=DIRECTION('',(0.612372435695795,0.707106781186548,-0.353553390593274));
#909=DIRECTION('',(-0.612372435695795,-0.707106781186548,0.353553390593273));
#910=DIRECTION('',(0.866025403784439,0.,-0.5));
#911=DIRECTION('',(-0.5,0.,-0.866025403784439));
#912=DIRECTION('',(3.55445226721631E-17,1.,6.15649191989705E-17));
#913=DIRECTION('',(0.,-1.,0.));
#914=DIRECTION('',(-0.5,7.10890453443263E-17,-0.866025403784439));
#915=DIRECTION('',(-0.612372435695795,-0.707106781186548,0.353553390593274));
#916=DIRECTION('',(0.612372435695795,-0.707106781186548,-0.353553390593274));
#917=DIRECTION('',(-0.5,7.10890453443263E-17,-0.866025403784439));
#918=DIRECTION('',(-0.612372435695795,0.707106781186548,0.353553390593274));
#919=DIRECTION('',(0.612372435695795,-0.707106781186548,-0.353553390593273));
#920=DIRECTION('',(0.866025403784439,0.,-0.5));
#921=DIRECTION('',(0.,1.,0.));
#922=DIRECTION('',(-3.55445226721631E-17,-1.,-6.15649191989705E-17));
#923=DIRECTION('',(3.55445226721631E-17,-1.,-2.052163973299E-17));
#924=DIRECTION('',(-0.5,7.10890453443263E-17,-0.866025403784439));
#925=DIRECTION('',(-0.612372435695795,0.707106781186548,0.353553390593274));
#926=DIRECTION('',(-0.612372435695795,-0.707106781186548,0.353553390593274));
#927=DIRECTION('',(-0.5,7.10890453443263E-17,-0.866025403784439));
#928=DIRECTION('',(0.612372435695795,0.707106781186548,-0.353553390593274));
#929=DIRECTION('',(-0.612372435695795,-0.707106781186548,0.353553390593273));
#930=DIRECTION('',(0.866025403784439,0.,-0.5));
#931=DIRECTION('',(-0.5,0.,-0.866025403784439));
#932=DIRECTION('',(3.55445226721631E-17,1.,6.15649191989705E-17));
#933=DIRECTION('',(0.,-1.,0.));
#934=DIRECTION('',(-0.5,0.,-0.866025403784439));
#935=DIRECTION('',(0.34007632580762,-0.919672472586619,-0.196343158250048));
#936=DIRECTION('',(0.9379290325991,0.346827233370906,0.));
#937=DIRECTION('',(-0.796459724421261,-0.392686316500096,0.459836236293308));
#938=DIRECTION('',(0.5,0.,0.866025403784439));
#939=DIRECTION('',(-0.796459724421261,-0.392686316500096,0.459836236293309));
#940=DIRECTION('',(0.866025403784439,0.,-0.5));
#941=DIRECTION('',(-0.5,0.,-0.866025403784439));
#942=DIRECTION('',(0.499999999996154,-3.92232072256793E-06,0.866025403777777));
#943=DIRECTION('',(3.55445226721631E-17,1.,6.15649191989705E-17));
#944=DIRECTION('',(-0.5,7.10890453443263E-17,-0.866025403784439));
#945=DIRECTION('',(-0.866025403784439,0.,0.5));
#946=DIRECTION('',(0.858371231107697,0.132659110035999,-0.495580861344659));
#947=DIRECTION('',(3.55445226721631E-17,1.,6.15649191989705E-17));
#948=DIRECTION('',(0.5,0.,0.86602540378444));
#949=DIRECTION('',(0.86602540378444,0.,-0.5));
#950=DIRECTION('',(0.5,0.,0.866025403784438));
#951=DIRECTION('',(0.866025403784438,0.,-0.5));
#952=DIRECTION('',(0.5,0.,0.86602540378444));
#953=DIRECTION('',(-0.86602540378444,0.,0.5));
#954=DIRECTION('',(0.,-1.,0.));
#955=DIRECTION('',(-0.858371231107697,-0.132659110035999,0.495580861344658));
#956=DIRECTION('',(0.866025403784439,0.,-0.5));
#957=DIRECTION('',(-0.5,0.,-0.866025403784439));
#958=DIRECTION('',(0.499999999996153,-3.92232072260987E-06,0.866025403777777));
#959=DIRECTION('',(-0.11488421550666,0.991161722681828,0.0663329218247656));
#960=DIRECTION('',(-0.993378888957994,-0.114627800345117,-0.0076713988698677));
#961=DIRECTION('',(0.34007632580762,-0.919672472586619,-0.196343158250048));
#962=DIRECTION('',(0.9379290325991,0.346827233370906,0.));
#963=DIRECTION('',(-0.796459724421261,-0.392686316500096,0.459836236293308));
#964=DIRECTION('',(0.5,5.73417115784424E-16,0.866025403784439));
#965=DIRECTION('',(0.866025403784439,0.,-0.5));
#966=DIRECTION('',(-0.5,0.,-0.866025403784439));
#967=DIRECTION('',(0.,-1.,0.));
#968=DIRECTION('',(0.499999999996154,-3.92232072256793E-06,0.866025403777777));
#969=DIRECTION('',(0.5,0.,0.86602540378444));
#970=DIRECTION('',(0.86602540378444,0.,-0.5));
#971=DIRECTION('',(0.5,0.,0.86602540378444));
#972=DIRECTION('',(-0.86602540378444,0.,0.5));
#973=DIRECTION('',(0.5,0.,0.86602540378444));
#974=DIRECTION('',(0.86602540378444,0.,-0.5));
#975=DIRECTION('',(-0.858371231107697,-0.132659110035999,0.495580861344658));
#976=DIRECTION('',(-0.11488421550666,0.991161722681828,0.0663329218247656));
#977=DIRECTION('',(-0.993378888957994,-0.114627800345117,-0.0076713988698677));
#978=DIRECTION('',(0.5,0.,0.866025403784438));
#979=DIRECTION('',(0.866025403784438,0.,-0.5));
#980=DIRECTION('',(0.,0.,1.));
#981=DIRECTION('',(1.,0.,0.));
#982=CARTESIAN_POINT('',(0.,0.,0.));
#983=CARTESIAN_POINT('',(0.240503968546522,0.599111929747018,0.0247112122887518));
#984=CARTESIAN_POINT('',(0.0708262609368151,0.,0.122674682452695));
#985=CARTESIAN_POINT('',(0.234393437701238,0.0319996986794217,0.0282391289171681));
#986=CARTESIAN_POINT('',(0.234125607118744,0.0337743568982717,0.0283937609760682));
#987=CARTESIAN_POINT('',(0.30497393553742,0.0429077367048374,-0.0125105405080895));
#988=CARTESIAN_POINT('',(0.288656733260263,0.0403859542243463,-0.00308979938095164));
#989=CARTESIAN_POINT('',(0.288656733260263,0.599111929747018,-0.00308979938095164));
#990=CARTESIAN_POINT('',(0.288656733260263,0.0422020049845891,-0.00308979938095164));
#991=CARTESIAN_POINT('',(0.304767140450616,0.0446918278056917,-0.0123911473090562));
#992=CARTESIAN_POINT('',(0.357382009957605,0.599111929747018,-0.017578302125239));
#993=CARTESIAN_POINT('',(0.419780277442613,0.0607809884789922,-0.0536039586546745));
#994=CARTESIAN_POINT('',(0.332287187078898,0.0472591519107144,-0.00308979938095172));
#995=CARTESIAN_POINT('',(0.376241449929064,0.0540521724368879,-0.0284668048695264));
#996=CARTESIAN_POINT('',(0.332287187078898,0.599111929747018,-0.00308979938095172));
#997=CARTESIAN_POINT('',(0.332287187078898,0.0454431011504716,-0.00308979938095174));
#998=CARTESIAN_POINT('',(0.419987072529417,0.058996897378138,-0.0537233518537078));
#999=CARTESIAN_POINT('',(0.377800295655876,0.0524770373542772,-0.0293668048695264));
#1000=CARTESIAN_POINT('',(0.377800295655876,-1.11022302462516E-16,-0.0293668048695264));
#1001=CARTESIAN_POINT('',(0.377800295655876,0.166757133735791,-0.0293668048695264));
#1002=CARTESIAN_POINT('',(0.495753344029686,0.2249126771558,-0.0974670290998822));
#1003=CARTESIAN_POINT('',(0.332287187078898,0.144317361313463,-0.00308979938095172));
#1004=CARTESIAN_POINT('',(0.332287187078898,0.599111929747018,-0.00308979938095172));
#1005=CARTESIAN_POINT('',(0.332287187078898,0.142360142788767,-0.00308979938095172));
#1006=CARTESIAN_POINT('',(0.496365481416139,0.223257266705144,-0.0978204467847323));
#1007=CARTESIAN_POINT('',(0.376241449929064,0.164031342278045,-0.0284668048695264));
#1008=CARTESIAN_POINT('',(0.376241449929064,-1.11022302462516E-16,-0.0284668048695264));
#1009=CARTESIAN_POINT('',(0.310471960169581,0.599111929747018,-0.00308979938095164));
#1010=CARTESIAN_POINT('',(0.373877708746396,0.0520798530586107,-0.00308979938095164));
#1011=CARTESIAN_POINT('',(0.374085414250264,0.0502878771625623,-0.00308979938095164));
#1012=CARTESIAN_POINT('',(0.310471960169581,0.599111929747018,-0.00308979938095164));
#1013=CARTESIAN_POINT('',(0.461677145778407,0.190205939050527,-0.00308979938095164));
#1014=CARTESIAN_POINT('',(0.288656733260263,0.126226481218764,-0.00308979938095164));
#1015=CARTESIAN_POINT('',(0.461040463900774,0.191927725462045,-0.00308979938095164));
#1016=CARTESIAN_POINT('',(0.288656733260263,0.12818369974346,-0.00308979938095164));
#1017=CARTESIAN_POINT('',(0.288656733260263,0.599111929747018,-0.00308979938095164));
#1018=CARTESIAN_POINT('',(0.240503968546522,0.599111929747018,0.0247112122887518));
#1019=CARTESIAN_POINT('',(-0.117479826849486,0.,0.231393252926161));
#1020=CARTESIAN_POINT('',(0.220925960285316,0.092832516731027,0.0360145806285555));
#1021=CARTESIAN_POINT('',(0.220397195291588,0.094529033086719,0.0363198632400225));
#1022=CARTESIAN_POINT('',(0.39582834949637,0.179066349855811,-0.0649653608643547));
#1023=CARTESIAN_POINT('',(0.395216212109916,0.180721760306467,-0.0646119431795046));
#1024=CARTESIAN_POINT('',(0.332568533730951,0.0606470791127607,-0.114310514639356));
#1025=CARTESIAN_POINT('',(0.330749880383004,0.0627470791127607,-0.113260514639356));
#1026=CARTESIAN_POINT('',(0.329549880383004,0.0627470791127607,-0.115338975608439));
#1027=CARTESIAN_POINT('',(0.328649880383004,0.0627470791127607,-0.116897821335251));
#1028=CARTESIAN_POINT('',(0.331368533730951,0.0606470791127607,-0.116388975608439));
#1029=CARTESIAN_POINT('',(0.333187187078898,0.0585470791127607,-0.117438975608439));
#1030=CARTESIAN_POINT('',(0.334387187078898,0.0585470791127607,-0.115360514639356));
#1031=CARTESIAN_POINT('',(0.332287187078898,0.0585470791127607,-0.118997821335251));
#1032=CARTESIAN_POINT('',(0.0581919435091944,0.37504500442989,0.0392511413233133));
#1033=CARTESIAN_POINT('',(0.35374470326171,0.,-0.0734323131023887));
#1034=CARTESIAN_POINT('',(0.329549880383004,0.599111929747018,-0.115338975608439));
#1035=CARTESIAN_POINT('',(0.329549880383004,0.0669470791127607,-0.115338975608439));
#1036=CARTESIAN_POINT('',(0.328649880383004,0.599111929747018,-0.116897821335251));
#1037=CARTESIAN_POINT('',(0.328649880383004,0.0669470791127607,-0.116897821335251));
#1038=CARTESIAN_POINT('',(0.330749880383004,0.0669470791127607,-0.113260514639356));
#1039=CARTESIAN_POINT('',(0.332568533730951,0.0690470791127607,-0.114310514639356));
#1040=CARTESIAN_POINT('',(0.334387187078898,0.0711470791127607,-0.115360514639356));
#1041=CARTESIAN_POINT('',(0.333187187078898,0.0711470791127607,-0.117438975608439));
#1042=CARTESIAN_POINT('',(0.332287187078898,0.0711470791127607,-0.118997821335251));
#1043=CARTESIAN_POINT('',(0.331368533730951,0.0690470791127607,-0.116388975608439));
#1044=CARTESIAN_POINT('',(0.520878876507561,0.28891400442989,-0.227881283993815));
#1045=CARTESIAN_POINT('',(0.357382009957605,0.599111929747018,-0.0755323131023886));
#1046=CARTESIAN_POINT('',(0.333187187078898,1.70613708826383E-19,-0.117438975608439));
#1047=CARTESIAN_POINT('',(0.333187187078898,0.0764964593136688,-0.117438975608439));
#1048=CARTESIAN_POINT('',(0.332287187078898,0.599111929747018,-0.118997821335251));
#1049=CARTESIAN_POINT('',(0.332287187078898,0.0764964593136688,-0.118997821335251));
#1050=CARTESIAN_POINT('',(0.334387187078898,0.0764964593136688,-0.115360514639356));
#1051=CARTESIAN_POINT('',(0.332568533730951,0.0785964593136689,-0.114310514639356));
#1052=CARTESIAN_POINT('',(0.330749880383004,0.0806964593136688,-0.113260514639356));
#1053=CARTESIAN_POINT('',(0.329549880383004,0.0806964593136689,-0.115338975608439));
#1054=CARTESIAN_POINT('',(0.328649880383004,0.0806964593136689,-0.116897821335251));
#1055=CARTESIAN_POINT('',(0.331368533730951,0.0785964593136689,-0.116388975608439));
#1056=CARTESIAN_POINT('',(0.0659642531272804,0.384019694530344,0.0347637962730863));
#1057=CARTESIAN_POINT('',(0.35374470326171,0.,-0.0734323131023887));
#1058=CARTESIAN_POINT('',(0.329549880383004,0.599111929747018,-0.115338975608439));
#1059=CARTESIAN_POINT('',(0.329549880383004,0.0848964593136689,-0.115338975608439));
#1060=CARTESIAN_POINT('',(0.328649880383004,0.599111929747018,-0.116897821335251));
#1061=CARTESIAN_POINT('',(0.328649880383004,0.0848964593136689,-0.116897821335251));
#1062=CARTESIAN_POINT('',(0.330749880383004,0.0848964593136689,-0.113260514639356));
#1063=CARTESIAN_POINT('',(0.332568533730951,0.0869964593136688,-0.114310514639356));
#1064=CARTESIAN_POINT('',(0.334387187078898,0.0890964593136688,-0.115360514639356));
#1065=CARTESIAN_POINT('',(0.333187187078898,0.0890964593136688,-0.117438975608439));
#1066=CARTESIAN_POINT('',(0.332287187078898,0.0890964593136689,-0.118997821335251));
#1067=CARTESIAN_POINT('',(0.331368533730951,0.0869964593136688,-0.116388975608439));
#1068=CARTESIAN_POINT('',(0.513106566889475,0.297888694530344,-0.223393938943588));
#1069=CARTESIAN_POINT('',(0.357382009957605,0.599111929747018,-0.0755323131023886));
#1070=CARTESIAN_POINT('',(0.333187187078898,1.70613708826383E-19,-0.117438975608439));
#1071=CARTESIAN_POINT('',(0.333187187078898,0.104496459313669,-0.117438975608439));
#1072=CARTESIAN_POINT('',(0.332287187078898,0.599111929747018,-0.118997821335251));
#1073=CARTESIAN_POINT('',(0.332287187078898,0.104496459313669,-0.118997821335251));
#1074=CARTESIAN_POINT('',(0.334387187078898,0.104496459313669,-0.115360514639356));
#1075=CARTESIAN_POINT('',(0.332568533730951,0.106596459313669,-0.114310514639356));
#1076=CARTESIAN_POINT('',(0.330749880383004,0.108696459313669,-0.113260514639356));
#1077=CARTESIAN_POINT('',(0.329549880383004,0.108696459313669,-0.115338975608439));
#1078=CARTESIAN_POINT('',(0.328649880383004,0.108696459313669,-0.116897821335251));
#1079=CARTESIAN_POINT('',(0.331368533730951,0.106596459313669,-0.116388975608439));
#1080=CARTESIAN_POINT('',(0.0780886087802625,0.398019694530344,0.0277637962730863));
#1081=CARTESIAN_POINT('',(0.35374470326171,0.,-0.0734323131023887));
#1082=CARTESIAN_POINT('',(0.329549880383004,0.599111929747018,-0.115338975608439));
#1083=CARTESIAN_POINT('',(0.329549880383004,0.112896459313669,-0.115338975608439));
#1084=CARTESIAN_POINT('',(0.328649880383004,0.599111929747018,-0.116897821335251));
#1085=CARTESIAN_POINT('',(0.328649880383004,0.112896459313669,-0.116897821335251));
#1086=CARTESIAN_POINT('',(0.330749880383004,0.112896459313669,-0.113260514639356));
#1087=CARTESIAN_POINT('',(0.332568533730951,0.114996459313669,-0.114310514639356));
#1088=CARTESIAN_POINT('',(0.334387187078898,0.117096459313669,-0.115360514639356));
#1089=CARTESIAN_POINT('',(0.333187187078898,0.117096459313669,-0.117438975608439));
#1090=CARTESIAN_POINT('',(0.332287187078898,0.117096459313669,-0.118997821335251));
#1091=CARTESIAN_POINT('',(0.331368533730951,0.114996459313669,-0.116388975608439));
#1092=CARTESIAN_POINT('',(0.500982211236493,0.311888694530344,-0.216393938943588));
#1093=CARTESIAN_POINT('',(0.357382009957605,0.599111929747018,-0.0755323131023886));
#1094=CARTESIAN_POINT('',(0.333187187078898,1.70613708826383E-19,-0.117438975608439));
#1095=CARTESIAN_POINT('',(0.333187187078898,0.126629655924303,-0.117438975608439));
#1096=CARTESIAN_POINT('',(0.332287187078898,0.599111929747018,-0.118997821335251));
#1097=CARTESIAN_POINT('',(0.332287187078898,0.126629655924303,-0.118997821335251));
#1098=CARTESIAN_POINT('',(0.334387187078898,0.126629655924303,-0.115360514639356));
#1099=CARTESIAN_POINT('',(0.332568533730951,0.128729655924303,-0.114310514639356));
#1100=CARTESIAN_POINT('',(0.330749880383004,0.130829655924303,-0.113260514639356));
#1101=CARTESIAN_POINT('',(0.329549880383004,0.130829655924303,-0.115338975608439));
#1102=CARTESIAN_POINT('',(0.328649880383004,0.130829655924303,-0.116897821335251));
#1103=CARTESIAN_POINT('',(0.331368533730951,0.128729655924303,-0.116388975608439));
#1104=CARTESIAN_POINT('',(0.0876725640461449,0.409086292835661,0.0222304971204278));
#1105=CARTESIAN_POINT('',(0.35374470326171,0.,-0.0734323131023887));
#1106=CARTESIAN_POINT('',(0.329549880383004,0.599111929747018,-0.115338975608439));
#1107=CARTESIAN_POINT('',(0.329549880383004,0.135029655924303,-0.115338975608439));
#1108=CARTESIAN_POINT('',(0.328649880383004,0.599111929747018,-0.116897821335251));
#1109=CARTESIAN_POINT('',(0.328649880383004,0.135029655924303,-0.116897821335251));
#1110=CARTESIAN_POINT('',(0.330749880383004,0.135029655924303,-0.113260514639356));
#1111=CARTESIAN_POINT('',(0.332568533730951,0.137129655924303,-0.114310514639356));
#1112=CARTESIAN_POINT('',(0.334387187078898,0.139229655924303,-0.115360514639356));
#1113=CARTESIAN_POINT('',(0.333187187078898,0.139229655924303,-0.117438975608439));
#1114=CARTESIAN_POINT('',(0.332287187078898,0.139229655924303,-0.118997821335251));
#1115=CARTESIAN_POINT('',(0.331368533730951,0.137129655924303,-0.116388975608439));
#1116=CARTESIAN_POINT('',(0.49139825597061,0.32295529283566,-0.210860639790929));
#1117=CARTESIAN_POINT('',(0.357382009957605,0.599111929747018,-0.0755323131023886));
#1118=CARTESIAN_POINT('',(0.333187187078898,1.70613708826383E-19,-0.117438975608439));
#1119=CARTESIAN_POINT('',(0.333187187078898,0.148762852534937,-0.117438975608439));
#1120=CARTESIAN_POINT('',(0.332287187078898,0.599111929747018,-0.118997821335251));
#1121=CARTESIAN_POINT('',(0.332287187078898,0.148762852534937,-0.118997821335251));
#1122=CARTESIAN_POINT('',(0.334387187078898,0.148762852534937,-0.115360514639356));
#1123=CARTESIAN_POINT('',(0.332568533730951,0.150862852534937,-0.114310514639356));
#1124=CARTESIAN_POINT('',(0.330749880383004,0.152962852534937,-0.113260514639356));
#1125=CARTESIAN_POINT('',(0.329549880383004,0.152962852534937,-0.115338975608439));
#1126=CARTESIAN_POINT('',(0.328649880383004,0.152962852534937,-0.116897821335251));
#1127=CARTESIAN_POINT('',(0.331368533730951,0.150862852534937,-0.116388975608439));
#1128=CARTESIAN_POINT('',(0.0972565193120272,0.420152891140978,0.0166971979677693));
#1129=CARTESIAN_POINT('',(0.35374470326171,0.,-0.0734323131023887));
#1130=CARTESIAN_POINT('',(0.329549880383004,0.599111929747018,-0.115338975608439));
#1131=CARTESIAN_POINT('',(0.329549880383004,0.157162852534937,-0.115338975608439));
#1132=CARTESIAN_POINT('',(0.328649880383004,0.599111929747018,-0.116897821335251));
#1133=CARTESIAN_POINT('',(0.328649880383004,0.157162852534937,-0.116897821335251));
#1134=CARTESIAN_POINT('',(0.330749880383004,0.157162852534937,-0.113260514639356));
#1135=CARTESIAN_POINT('',(0.332568533730951,0.159262852534937,-0.114310514639356));
#1136=CARTESIAN_POINT('',(0.334387187078898,0.161362852534937,-0.115360514639356));
#1137=CARTESIAN_POINT('',(0.333187187078898,0.161362852534937,-0.117438975608439));
#1138=CARTESIAN_POINT('',(0.332287187078898,0.161362852534937,-0.118997821335251));
#1139=CARTESIAN_POINT('',(0.331368533730951,0.159262852534937,-0.116388975608439));
#1140=CARTESIAN_POINT('',(0.481814300704728,0.334021891140978,-0.205327340638271));
#1141=CARTESIAN_POINT('',(0.357382009957605,0.599111929747018,-0.0755323131023886));
#1142=CARTESIAN_POINT('',(0.333187187078898,1.70613708826383E-19,-0.117438975608439));
#1143=CARTESIAN_POINT('',(0.333187187078898,0.169062852534937,-0.117438975608439));
#1144=CARTESIAN_POINT('',(0.332287187078898,0.599111929747018,-0.118997821335251));
#1145=CARTESIAN_POINT('',(0.332287187078898,0.169062852534937,-0.118997821335251));
#1146=CARTESIAN_POINT('',(0.337524061527075,0.169062852534937,-0.109927288718149));
#1147=CARTESIAN_POINT('',(0.492410935678759,0.101673396686485,0.473997242116461));
#1148=CARTESIAN_POINT('',(0.195605603894821,0.101673396686485,-0.0400846724906596));
#1149=CARTESIAN_POINT('',(0.178512833545534,0.0932459811858193,-0.0302161569283026));
#1150=CARTESIAN_POINT('',(0.178512833545534,0.0932459811858192,-0.0302161569283027));
#1151=CARTESIAN_POINT('',(0.192629956832054,0.093752477197497,-0.00813701234554717));
#1152=CARTESIAN_POINT('',(0.206566665307432,0.0941676330819842,0.0140574822943622));
#1153=CARTESIAN_POINT('',(0.220397195291588,0.094529033086719,0.0363198632400224));
#1154=CARTESIAN_POINT('',(0.329709649898463,0.166757133735791,-0.112662246690164));
#1155=CARTESIAN_POINT('',(0.328510649898463,0.166757133735791,-0.114738975608439));
#1156=CARTESIAN_POINT('',(0.277234861453557,0.141476130977366,-0.0851348853468625));
#1157=CARTESIAN_POINT('',(0.329709649898463,-1.11022302462516E-16,-0.112662246690164));
#1158=CARTESIAN_POINT('',(0.329709752815088,0.0524774146073427,-0.11266206843334));
#1159=CARTESIAN_POINT('',(0.328510649898463,0.0524774240138751,-0.114738975608439));
#1160=CARTESIAN_POINT('',(0.328510649898463,-1.1085183093178E-16,-0.114738975608439));
#1161=CARTESIAN_POINT('',(0.329549880383004,1.70613708826383E-19,-0.115338975608439));
#1162=CARTESIAN_POINT('',(0.323555947204039,0.051711687201975,-0.111878376674059));
#1163=CARTESIAN_POINT('',(0.333187187078898,0.0532001710467718,-0.117438975608439));
#1164=CARTESIAN_POINT('',(0.333187187078898,1.70613708826383E-19,-0.117438975608439));
#1165=CARTESIAN_POINT('',(0.252239592981699,0.599111929747018,-0.0727823213352507));
#1166=CARTESIAN_POINT('',(0.0315442286340599,0.,0.0546362066797613));
#1167=CARTESIAN_POINT('',(0.195111361186306,0.032,-0.039799321329854));
#1168=CARTESIAN_POINT('',(0.186856675480559,0.0673325152351403,-0.0350334763155645));
#1169=CARTESIAN_POINT('',(-0.0978388106981088,0.,0.12933553926676));
#1170=CARTESIAN_POINT('',(0.332287187078898,0.599111929747018,-0.118997821335251));
#1171=CARTESIAN_POINT('',(0.332287187078898,0.0532001781069491,-0.118997821335251));
#1172=CARTESIAN_POINT('',(0.315811693738641,0.0506539321416666,-0.109485690820221));
#1173=CARTESIAN_POINT('',(0.357382009957605,0.599111929747018,-0.0755323131023886));
#1174=CARTESIAN_POINT('',(0.357380939336731,0.0531999812554601,-0.0755341674721383));
#1175=CARTESIAN_POINT('',(0.263699274132602,0.0426000890534745,-0.0793985713325523));
#1176=CARTESIAN_POINT('',(0.234393437701238,0.0319996986794217,0.0282391289171682));
#1177=CARTESIAN_POINT('',(0.221299412196331,0.0319997991196252,0.00555964550145382));
#1178=CARTESIAN_POINT('',(0.208205386691354,0.031999899559818,-0.0171198379142203));
#1179=CARTESIAN_POINT('',(0.195111361186307,0.032,-0.0397993213298541));
#1180=CARTESIAN_POINT('',(0.493023073065213,0.100017986235829,0.473643824431611));
#1181=CARTESIAN_POINT('',(0.180101247301705,0.0916281780186729,-0.0290547670689298));
#1182=CARTESIAN_POINT('',(0.193851782210753,0.0921015903076349,-0.00745560783560883));
#1183=CARTESIAN_POINT('',(0.207437936219833,0.0924918678593218,0.0142482389105165));
#1184=CARTESIAN_POINT('',(0.220925960285317,0.092832516731027,0.0360145806285554));
#1185=CARTESIAN_POINT('',(0.180101247301705,0.0916281780186729,-0.0290547670689297));
#1186=CARTESIAN_POINT('',(0.197117741281274,0.100017986235829,-0.0388792444486977));
#1187=CARTESIAN_POINT('',(0.326951804171651,0.164031342278045,-0.113838975608439));
#1188=CARTESIAN_POINT('',(0.622857135955589,0.164031342278045,0.398684093271869));
#1189=CARTESIAN_POINT('',(0.328150804171651,-1.11022302462516E-16,-0.111762246690164));
#1190=CARTESIAN_POINT('',(0.326951804171651,-1.11022302462516E-16,-0.113838975608439));
#1191=CARTESIAN_POINT('',(0.326951804171651,0.0540525590964858,-0.113838975608439));
#1192=CARTESIAN_POINT('',(0.328150910177368,0.0540525496899292,-0.111762063082875));
#1193=CARTESIAN_POINT('',(0.253139592981699,0.599111929747018,-0.0712234756084387));
#1194=CARTESIAN_POINT('',(-0.0982888106981088,0.,0.131673807856978));
#1195=CARTESIAN_POINT('',(0.187981272373251,0.0666376757921722,-0.033604301665208));
#1196=CARTESIAN_POINT('',(0.0324442286340595,0.,0.0561950524065727));
#1197=CARTESIAN_POINT('',(0.195743529204075,0.0337746509423468,-0.038085842736003));
#1198=CARTESIAN_POINT('',(0.316504899455785,0.0524380163065915,-0.107807452358535));
#1199=CARTESIAN_POINT('',(0.26349248254469,0.0443841801543018,-0.0792791720732678));
#1200=CARTESIAN_POINT('',(0.234125607118744,0.0337743568982717,0.0283937609760681));
#1201=CARTESIAN_POINT('',(0.221331581147254,0.0337744549129737,0.00623389307200584));
#1202=CARTESIAN_POINT('',(0.208537555175698,0.0337745529276654,-0.0159259748320179));
#1203=CARTESIAN_POINT('',(0.195743529204075,0.0337746509423468,-0.0380858427360032));
#1204=CARTESIAN_POINT('',(0.0511852447854372,0.,0.0886554445662277));
#1205=CARTESIAN_POINT('',(0.187981272373251,0.0666376757921733,-0.0336043016652077));
#1206=CARTESIAN_POINT('',(0.187607603281667,0.0668653583745104,-0.034082558420843));
#1207=CARTESIAN_POINT('',(0.187232764799984,0.0670969108528536,-0.0345589846551526));
#1208=CARTESIAN_POINT('',(0.186856675480558,0.0673325152351412,-0.0350334763155641));
#1209=CARTESIAN_POINT('',(0.,0.,-0.0540451649494494));
#1210=MECHANICAL_DESIGN_GEOMETRIC_PRESENTATION_REPRESENTATION('',(#745),#1211);
#1211=(
GEOMETRIC_REPRESENTATION_CONTEXT(3)
GLOBAL_UNCERTAINTY_ASSIGNED_CONTEXT((#1212))
GLOBAL_UNIT_ASSIGNED_CONTEXT((#1215,#1214,#1213))
REPRESENTATION_CONTEXT('bin_third_right','TOP_LEVEL_ASSEMBLY_PART')
);
#1212=UNCERTAINTY_MEASURE_WITH_UNIT(LENGTH_MEASURE(2.E-05),#1215,'DISTANCE_ACCURACY_VALUE','Maximum Tolerance applied to model');
#1213=(
NAMED_UNIT(*)
SI_UNIT($,.STERADIAN.)
SOLID_ANGLE_UNIT()
);
#1214=(
NAMED_UNIT(*)
PLANE_ANGLE_UNIT()
SI_UNIT($,.RADIAN.)
);
#1215=(
LENGTH_UNIT()
NAMED_UNIT(*)
SI_UNIT($,.METRE.)
);
#1216=PRODUCT_DEFINITION_SHAPE('','',#1217);
#1217=PRODUCT_DEFINITION('','',#1219,#1218);
#1218=PRODUCT_DEFINITION_CONTEXT('',#1225,'design');
#1219=PRODUCT_DEFINITION_FORMATION_WITH_SPECIFIED_SOURCE('','',#1221,.NOT_KNOWN.);
#1220=PRODUCT_RELATED_PRODUCT_CATEGORY('','',(#1221));
#1221=PRODUCT('bin_third_right','bin_third_right','bin_third_right',(#1223));
#1222=PRODUCT_CATEGORY('','');
#1223=PRODUCT_CONTEXT('',#1225,'mechanical');
#1224=APPLICATION_PROTOCOL_DEFINITION('international standard','ap242_managed_model_based_3d_engineering',2020,#1225);
#1225=APPLICATION_CONTEXT('managed model based 3d engineering');
ENDSEC;
END-ISO-10303-21;
