ISO-10303-21;
HEADER;
/*Generated by software containing ST-Developer
 * from STEP Tools, Inc. (www.steptools.com) 
 */
/*OPTION: using custom renumber hook */
/*description */
/*implementation_level */
FILE_DESCRIPTION(('STEP AP242 Edition 2','STEP AP242 Edition 2''CAx-IF Rec.Pracs.---Representation and Presentation of Product Manufa
cturing Information (PMI)---4.0---2014-10-13','STEP AP242 Edition 2''CAx-IF Rec.Pracs.---Representation and Presentation of Product Manufa
cturing Information (PMI)---4.0---2014-10-13''CAx-IF Rec.Pracs.---3D Tessellated Geometry---0.4---2014-09-14','STEP AP242 Edition 2''CAx-IF Rec.Pracs.---Representation and Presentation of Product Manufa
cturing Information (PMI)---4.0---2014-10-13''CAx-IF Rec.Pracs.---3D Tessellated Geometry---0.4---2014-09-14''2;1','STEP AP242 Edition 2''CAx-IF Rec.Pracs.---Representation and Presentation of Product Manufa
cturing Information (PMI)---4.0---2014-10-13''CAx-IF Rec.Pracs.---3D Tessellated Geometry---0.4---2014-09-14''2;1''CAx-IF Rec.Pracs.---User Defined Attributes---1.5---2016-08-15'),'2;1');
/*name */
/*time_stamp */
/*author */
/*organization */
/*preprocessor_version */
/*originating_system */
/*authorisation */
FILE_NAME('/vol/tmp/translate-15977737023270067282/0_bins - bin_third_center.step','2026-03-19T22:04:53',(''),(''),'ST-DEVELOPER v20','ONSHAPE BY PTC INC, 1.212','  ');
FILE_SCHEMA(('AP242_MANAGED_MODEL_BASED_3D_ENGINEERING_MIM_LF { 1 0 10303 442 3 1 4 }'));
ENDSEC;
DATA;
#10=SHAPE_REPRESENTATION_RELATIONSHIP('','',#653,#11);
#11=ADVANCED_BREP_SHAPE_REPRESENTATION('',(#651),#1043);
#12=CYLINDRICAL_SURFACE('',#690,0.191562720281946);
#13=B_SPLINE_CURVE_WITH_KNOTS('',3,(#1010,#1011,#1012,#1013),.UNSPECIFIED.,.F.,.F.,(4,4),(0.00466240558808418,0.0832264701941889),.UNSPECIFIED.);
#14=B_SPLINE_CURVE_WITH_KNOTS('',3,(#1015,#1016,#1017,#1018),.UNSPECIFIED.,.F.,.F.,(4,4),(0.00466240558808394,0.0832264701941889),.UNSPECIFIED.);
#15=B_SPLINE_CURVE_WITH_KNOTS('',3,(#1032,#1033,#1034,#1035),.UNSPECIFIED.,.F.,.F.,(4,4),(0.0041558348067391,0.0809198994128299),.UNSPECIFIED.);
#16=B_SPLINE_CURVE_WITH_KNOTS('',3,(#1037,#1038,#1039,#1040),.UNSPECIFIED.,.F.,.F.,(4,4),(0.00415583480673907,0.0809198994128298),.UNSPECIFIED.);
#17=LINE('',#852,#99);
#18=LINE('',#854,#100);
#19=LINE('',#856,#101);
#20=LINE('',#858,#102);
#21=LINE('',#861,#103);
#22=LINE('',#863,#104);
#23=LINE('',#865,#105);
#24=LINE('',#867,#106);
#25=LINE('',#870,#107);
#26=LINE('',#872,#108);
#27=LINE('',#874,#109);
#28=LINE('',#879,#110);
#29=LINE('',#880,#111);
#30=LINE('',#882,#112);
#31=LINE('',#884,#113);
#32=LINE('',#886,#114);
#33=LINE('',#888,#115);
#34=LINE('',#890,#116);
#35=LINE('',#892,#117);
#36=LINE('',#894,#118);
#37=LINE('',#896,#119);
#38=LINE('',#898,#120);
#39=LINE('',#900,#121);
#40=LINE('',#902,#122);
#41=LINE('',#904,#123);
#42=LINE('',#906,#124);
#43=LINE('',#908,#125);
#44=LINE('',#910,#126);
#45=LINE('',#912,#127);
#46=LINE('',#914,#128);
#47=LINE('',#916,#129);
#48=LINE('',#918,#130);
#49=LINE('',#920,#131);
#50=LINE('',#922,#132);
#51=LINE('',#924,#133);
#52=LINE('',#926,#134);
#53=LINE('',#928,#135);
#54=LINE('',#930,#136);
#55=LINE('',#932,#137);
#56=LINE('',#937,#138);
#57=LINE('',#938,#139);
#58=LINE('',#940,#140);
#59=LINE('',#942,#141);
#60=LINE('',#944,#142);
#61=LINE('',#946,#143);
#62=LINE('',#948,#144);
#63=LINE('',#950,#145);
#64=LINE('',#952,#146);
#65=LINE('',#954,#147);
#66=LINE('',#956,#148);
#67=LINE('',#958,#149);
#68=LINE('',#960,#150);
#69=LINE('',#962,#151);
#70=LINE('',#964,#152);
#71=LINE('',#966,#153);
#72=LINE('',#968,#154);
#73=LINE('',#970,#155);
#74=LINE('',#972,#156);
#75=LINE('',#974,#157);
#76=LINE('',#975,#158);
#77=LINE('',#976,#159);
#78=LINE('',#978,#160);
#79=LINE('',#980,#161);
#80=LINE('',#982,#162);
#81=LINE('',#984,#163);
#82=LINE('',#986,#164);
#83=LINE('',#988,#165);
#84=LINE('',#990,#166);
#85=LINE('',#992,#167);
#86=LINE('',#994,#168);
#87=LINE('',#996,#169);
#88=LINE('',#998,#170);
#89=LINE('',#1000,#171);
#90=LINE('',#1002,#172);
#91=LINE('',#1004,#173);
#92=LINE('',#1006,#174);
#93=LINE('',#1008,#175);
#94=LINE('',#1020,#176);
#95=LINE('',#1022,#177);
#96=LINE('',#1024,#178);
#97=LINE('',#1029,#179);
#98=LINE('',#1030,#180);
#99=VECTOR('',#697,1.);
#100=VECTOR('',#698,1.);
#101=VECTOR('',#699,1.);
#102=VECTOR('',#702,1.);
#103=VECTOR('',#703,1.);
#104=VECTOR('',#704,1.);
#105=VECTOR('',#705,1.);
#106=VECTOR('',#708,1.);
#107=VECTOR('',#709,1.);
#108=VECTOR('',#710,1.);
#109=VECTOR('',#711,1.);
#110=VECTOR('',#716,1.);
#111=VECTOR('',#717,1.);
#112=VECTOR('',#720,1.);
#113=VECTOR('',#721,1.);
#114=VECTOR('',#722,1.);
#115=VECTOR('',#725,1.);
#116=VECTOR('',#726,1.);
#117=VECTOR('',#727,1.);
#118=VECTOR('',#728,1.);
#119=VECTOR('',#729,1.);
#120=VECTOR('',#730,1.);
#121=VECTOR('',#731,1.);
#122=VECTOR('',#732,1.);
#123=VECTOR('',#733,1.);
#124=VECTOR('',#734,1.);
#125=VECTOR('',#735,1.);
#126=VECTOR('',#736,1.);
#127=VECTOR('',#737,1.);
#128=VECTOR('',#738,1.);
#129=VECTOR('',#739,1.);
#130=VECTOR('',#740,1.);
#131=VECTOR('',#741,1.);
#132=VECTOR('',#742,1.);
#133=VECTOR('',#743,1.);
#134=VECTOR('',#746,1.);
#135=VECTOR('',#747,1.);
#136=VECTOR('',#748,1.);
#137=VECTOR('',#751,1.);
#138=VECTOR('',#754,1.);
#139=VECTOR('',#755,1.);
#140=VECTOR('',#756,1.);
#141=VECTOR('',#757,1.);
#142=VECTOR('',#758,1.);
#143=VECTOR('',#759,1.);
#144=VECTOR('',#760,1.);
#145=VECTOR('',#761,1.);
#146=VECTOR('',#762,1.);
#147=VECTOR('',#763,1.);
#148=VECTOR('',#764,1.);
#149=VECTOR('',#765,1.);
#150=VECTOR('',#766,1.);
#151=VECTOR('',#767,1.);
#152=VECTOR('',#768,1.);
#153=VECTOR('',#769,1.);
#154=VECTOR('',#770,1.);
#155=VECTOR('',#773,1.);
#156=VECTOR('',#774,1.);
#157=VECTOR('',#775,1.);
#158=VECTOR('',#776,1.);
#159=VECTOR('',#777,1.);
#160=VECTOR('',#780,1.);
#161=VECTOR('',#783,1.);
#162=VECTOR('',#786,1.);
#163=VECTOR('',#789,1.);
#164=VECTOR('',#792,1.);
#165=VECTOR('',#795,1.);
#166=VECTOR('',#798,1.);
#167=VECTOR('',#801,1.);
#168=VECTOR('',#804,1.);
#169=VECTOR('',#807,1.);
#170=VECTOR('',#810,1.);
#171=VECTOR('',#813,1.);
#172=VECTOR('',#816,1.);
#173=VECTOR('',#819,1.);
#174=VECTOR('',#822,1.);
#175=VECTOR('',#825,1.);
#176=VECTOR('',#832,1.);
#177=VECTOR('',#833,1.);
#178=VECTOR('',#834,1.);
#179=VECTOR('',#839,1.);
#180=VECTOR('',#840,1.);
#181=ORIENTED_EDGE('',*,*,#361,.F.);
#182=ORIENTED_EDGE('',*,*,#362,.F.);
#183=ORIENTED_EDGE('',*,*,#363,.F.);
#184=ORIENTED_EDGE('',*,*,#364,.T.);
#185=ORIENTED_EDGE('',*,*,#365,.F.);
#186=ORIENTED_EDGE('',*,*,#366,.T.);
#187=ORIENTED_EDGE('',*,*,#367,.T.);
#188=ORIENTED_EDGE('',*,*,#368,.F.);
#189=ORIENTED_EDGE('',*,*,#369,.F.);
#190=ORIENTED_EDGE('',*,*,#370,.T.);
#191=ORIENTED_EDGE('',*,*,#371,.F.);
#192=ORIENTED_EDGE('',*,*,#372,.T.);
#193=ORIENTED_EDGE('',*,*,#373,.F.);
#194=ORIENTED_EDGE('',*,*,#374,.F.);
#195=ORIENTED_EDGE('',*,*,#366,.F.);
#196=ORIENTED_EDGE('',*,*,#375,.T.);
#197=ORIENTED_EDGE('',*,*,#363,.T.);
#198=ORIENTED_EDGE('',*,*,#376,.T.);
#199=ORIENTED_EDGE('',*,*,#377,.F.);
#200=ORIENTED_EDGE('',*,*,#378,.F.);
#201=ORIENTED_EDGE('',*,*,#379,.F.);
#202=ORIENTED_EDGE('',*,*,#380,.F.);
#203=ORIENTED_EDGE('',*,*,#381,.T.);
#204=ORIENTED_EDGE('',*,*,#382,.T.);
#205=ORIENTED_EDGE('',*,*,#383,.T.);
#206=ORIENTED_EDGE('',*,*,#384,.F.);
#207=ORIENTED_EDGE('',*,*,#385,.T.);
#208=ORIENTED_EDGE('',*,*,#386,.T.);
#209=ORIENTED_EDGE('',*,*,#387,.T.);
#210=ORIENTED_EDGE('',*,*,#388,.F.);
#211=ORIENTED_EDGE('',*,*,#389,.T.);
#212=ORIENTED_EDGE('',*,*,#390,.T.);
#213=ORIENTED_EDGE('',*,*,#391,.T.);
#214=ORIENTED_EDGE('',*,*,#392,.F.);
#215=ORIENTED_EDGE('',*,*,#393,.T.);
#216=ORIENTED_EDGE('',*,*,#394,.T.);
#217=ORIENTED_EDGE('',*,*,#395,.T.);
#218=ORIENTED_EDGE('',*,*,#396,.F.);
#219=ORIENTED_EDGE('',*,*,#397,.T.);
#220=ORIENTED_EDGE('',*,*,#371,.T.);
#221=ORIENTED_EDGE('',*,*,#380,.T.);
#222=ORIENTED_EDGE('',*,*,#398,.T.);
#223=ORIENTED_EDGE('',*,*,#399,.F.);
#224=ORIENTED_EDGE('',*,*,#400,.F.);
#225=ORIENTED_EDGE('',*,*,#401,.T.);
#226=ORIENTED_EDGE('',*,*,#402,.T.);
#227=ORIENTED_EDGE('',*,*,#403,.F.);
#228=ORIENTED_EDGE('',*,*,#369,.T.);
#229=ORIENTED_EDGE('',*,*,#404,.T.);
#230=ORIENTED_EDGE('',*,*,#405,.T.);
#231=ORIENTED_EDGE('',*,*,#406,.T.);
#232=ORIENTED_EDGE('',*,*,#407,.T.);
#233=ORIENTED_EDGE('',*,*,#408,.T.);
#234=ORIENTED_EDGE('',*,*,#409,.T.);
#235=ORIENTED_EDGE('',*,*,#410,.T.);
#236=ORIENTED_EDGE('',*,*,#411,.T.);
#237=ORIENTED_EDGE('',*,*,#412,.T.);
#238=ORIENTED_EDGE('',*,*,#413,.T.);
#239=ORIENTED_EDGE('',*,*,#414,.T.);
#240=ORIENTED_EDGE('',*,*,#415,.T.);
#241=ORIENTED_EDGE('',*,*,#416,.T.);
#242=ORIENTED_EDGE('',*,*,#417,.T.);
#243=ORIENTED_EDGE('',*,*,#418,.T.);
#244=ORIENTED_EDGE('',*,*,#419,.T.);
#245=ORIENTED_EDGE('',*,*,#377,.T.);
#246=ORIENTED_EDGE('',*,*,#420,.T.);
#247=ORIENTED_EDGE('',*,*,#421,.F.);
#248=ORIENTED_EDGE('',*,*,#422,.F.);
#249=ORIENTED_EDGE('',*,*,#368,.T.);
#250=ORIENTED_EDGE('',*,*,#423,.T.);
#251=ORIENTED_EDGE('',*,*,#399,.T.);
#252=ORIENTED_EDGE('',*,*,#424,.F.);
#253=ORIENTED_EDGE('',*,*,#372,.F.);
#254=ORIENTED_EDGE('',*,*,#397,.F.);
#255=ORIENTED_EDGE('',*,*,#425,.T.);
#256=ORIENTED_EDGE('',*,*,#404,.F.);
#257=ORIENTED_EDGE('',*,*,#396,.T.);
#258=ORIENTED_EDGE('',*,*,#426,.T.);
#259=ORIENTED_EDGE('',*,*,#405,.F.);
#260=ORIENTED_EDGE('',*,*,#425,.F.);
#261=ORIENTED_EDGE('',*,*,#426,.F.);
#262=ORIENTED_EDGE('',*,*,#395,.F.);
#263=ORIENTED_EDGE('',*,*,#427,.T.);
#264=ORIENTED_EDGE('',*,*,#406,.F.);
#265=ORIENTED_EDGE('',*,*,#394,.F.);
#266=ORIENTED_EDGE('',*,*,#428,.T.);
#267=ORIENTED_EDGE('',*,*,#407,.F.);
#268=ORIENTED_EDGE('',*,*,#427,.F.);
#269=ORIENTED_EDGE('',*,*,#428,.F.);
#270=ORIENTED_EDGE('',*,*,#393,.F.);
#271=ORIENTED_EDGE('',*,*,#429,.T.);
#272=ORIENTED_EDGE('',*,*,#408,.F.);
#273=ORIENTED_EDGE('',*,*,#392,.T.);
#274=ORIENTED_EDGE('',*,*,#430,.T.);
#275=ORIENTED_EDGE('',*,*,#409,.F.);
#276=ORIENTED_EDGE('',*,*,#429,.F.);
#277=ORIENTED_EDGE('',*,*,#430,.F.);
#278=ORIENTED_EDGE('',*,*,#391,.F.);
#279=ORIENTED_EDGE('',*,*,#431,.T.);
#280=ORIENTED_EDGE('',*,*,#410,.F.);
#281=ORIENTED_EDGE('',*,*,#390,.F.);
#282=ORIENTED_EDGE('',*,*,#432,.T.);
#283=ORIENTED_EDGE('',*,*,#411,.F.);
#284=ORIENTED_EDGE('',*,*,#431,.F.);
#285=ORIENTED_EDGE('',*,*,#432,.F.);
#286=ORIENTED_EDGE('',*,*,#389,.F.);
#287=ORIENTED_EDGE('',*,*,#433,.T.);
#288=ORIENTED_EDGE('',*,*,#412,.F.);
#289=ORIENTED_EDGE('',*,*,#388,.T.);
#290=ORIENTED_EDGE('',*,*,#434,.T.);
#291=ORIENTED_EDGE('',*,*,#413,.F.);
#292=ORIENTED_EDGE('',*,*,#433,.F.);
#293=ORIENTED_EDGE('',*,*,#434,.F.);
#294=ORIENTED_EDGE('',*,*,#387,.F.);
#295=ORIENTED_EDGE('',*,*,#435,.T.);
#296=ORIENTED_EDGE('',*,*,#414,.F.);
#297=ORIENTED_EDGE('',*,*,#386,.F.);
#298=ORIENTED_EDGE('',*,*,#436,.T.);
#299=ORIENTED_EDGE('',*,*,#415,.F.);
#300=ORIENTED_EDGE('',*,*,#435,.F.);
#301=ORIENTED_EDGE('',*,*,#436,.F.);
#302=ORIENTED_EDGE('',*,*,#385,.F.);
#303=ORIENTED_EDGE('',*,*,#437,.T.);
#304=ORIENTED_EDGE('',*,*,#416,.F.);
#305=ORIENTED_EDGE('',*,*,#384,.T.);
#306=ORIENTED_EDGE('',*,*,#438,.T.);
#307=ORIENTED_EDGE('',*,*,#417,.F.);
#308=ORIENTED_EDGE('',*,*,#437,.F.);
#309=ORIENTED_EDGE('',*,*,#438,.F.);
#310=ORIENTED_EDGE('',*,*,#383,.F.);
#311=ORIENTED_EDGE('',*,*,#439,.T.);
#312=ORIENTED_EDGE('',*,*,#418,.F.);
#313=ORIENTED_EDGE('',*,*,#440,.F.);
#314=ORIENTED_EDGE('',*,*,#419,.F.);
#315=ORIENTED_EDGE('',*,*,#439,.F.);
#316=ORIENTED_EDGE('',*,*,#382,.F.);
#317=ORIENTED_EDGE('',*,*,#374,.T.);
#318=ORIENTED_EDGE('',*,*,#441,.T.);
#319=ORIENTED_EDGE('',*,*,#401,.F.);
#320=ORIENTED_EDGE('',*,*,#440,.T.);
#321=ORIENTED_EDGE('',*,*,#381,.F.);
#322=ORIENTED_EDGE('',*,*,#400,.T.);
#323=ORIENTED_EDGE('',*,*,#423,.F.);
#324=ORIENTED_EDGE('',*,*,#367,.F.);
#325=ORIENTED_EDGE('',*,*,#442,.F.);
#326=ORIENTED_EDGE('',*,*,#364,.F.);
#327=ORIENTED_EDGE('',*,*,#378,.T.);
#328=ORIENTED_EDGE('',*,*,#424,.T.);
#329=ORIENTED_EDGE('',*,*,#398,.F.);
#330=ORIENTED_EDGE('',*,*,#379,.T.);
#331=ORIENTED_EDGE('',*,*,#370,.F.);
#332=ORIENTED_EDGE('',*,*,#403,.T.);
#333=ORIENTED_EDGE('',*,*,#443,.T.);
#334=ORIENTED_EDGE('',*,*,#421,.T.);
#335=ORIENTED_EDGE('',*,*,#444,.F.);
#336=ORIENTED_EDGE('',*,*,#445,.F.);
#337=ORIENTED_EDGE('',*,*,#446,.F.);
#338=ORIENTED_EDGE('',*,*,#447,.F.);
#339=ORIENTED_EDGE('',*,*,#445,.T.);
#340=ORIENTED_EDGE('',*,*,#448,.T.);
#341=ORIENTED_EDGE('',*,*,#449,.F.);
#342=ORIENTED_EDGE('',*,*,#375,.F.);
#343=ORIENTED_EDGE('',*,*,#365,.T.);
#344=ORIENTED_EDGE('',*,*,#422,.T.);
#345=ORIENTED_EDGE('',*,*,#443,.F.);
#346=ORIENTED_EDGE('',*,*,#447,.T.);
#347=ORIENTED_EDGE('',*,*,#362,.T.);
#348=ORIENTED_EDGE('',*,*,#450,.T.);
#349=ORIENTED_EDGE('',*,*,#448,.F.);
#350=ORIENTED_EDGE('',*,*,#444,.T.);
#351=ORIENTED_EDGE('',*,*,#420,.F.);
#352=ORIENTED_EDGE('',*,*,#376,.F.);
#353=ORIENTED_EDGE('',*,*,#373,.T.);
#354=ORIENTED_EDGE('',*,*,#449,.T.);
#355=ORIENTED_EDGE('',*,*,#446,.T.);
#356=ORIENTED_EDGE('',*,*,#450,.F.);
#357=ORIENTED_EDGE('',*,*,#361,.T.);
#358=ORIENTED_EDGE('',*,*,#442,.T.);
#359=ORIENTED_EDGE('',*,*,#402,.F.);
#360=ORIENTED_EDGE('',*,*,#441,.F.);
#361=EDGE_CURVE('',#451,#452,#511,.T.);
#362=EDGE_CURVE('',#453,#451,#17,.T.);
#363=EDGE_CURVE('',#454,#453,#18,.T.);
#364=EDGE_CURVE('',#454,#452,#19,.T.);
#365=EDGE_CURVE('',#455,#456,#20,.T.);
#366=EDGE_CURVE('',#455,#457,#21,.T.);
#367=EDGE_CURVE('',#457,#458,#22,.T.);
#368=EDGE_CURVE('',#456,#458,#23,.T.);
#369=EDGE_CURVE('',#459,#460,#24,.T.);
#370=EDGE_CURVE('',#459,#461,#25,.T.);
#371=EDGE_CURVE('',#462,#461,#26,.T.);
#372=EDGE_CURVE('',#462,#460,#27,.T.);
#373=EDGE_CURVE('',#463,#464,#512,.T.);
#374=EDGE_CURVE('',#457,#463,#28,.T.);
#375=EDGE_CURVE('',#455,#464,#29,.T.);
#376=EDGE_CURVE('',#453,#465,#30,.T.);
#377=EDGE_CURVE('',#466,#465,#31,.T.);
#378=EDGE_CURVE('',#454,#466,#32,.T.);
#379=EDGE_CURVE('',#467,#461,#33,.T.);
#380=EDGE_CURVE('',#468,#467,#34,.T.);
#381=EDGE_CURVE('',#468,#469,#35,.T.);
#382=EDGE_CURVE('',#469,#470,#36,.T.);
#383=EDGE_CURVE('',#470,#471,#37,.T.);
#384=EDGE_CURVE('',#472,#471,#38,.T.);
#385=EDGE_CURVE('',#472,#473,#39,.T.);
#386=EDGE_CURVE('',#473,#474,#40,.T.);
#387=EDGE_CURVE('',#474,#475,#41,.T.);
#388=EDGE_CURVE('',#476,#475,#42,.T.);
#389=EDGE_CURVE('',#476,#477,#43,.T.);
#390=EDGE_CURVE('',#477,#478,#44,.T.);
#391=EDGE_CURVE('',#478,#479,#45,.T.);
#392=EDGE_CURVE('',#480,#479,#46,.T.);
#393=EDGE_CURVE('',#480,#481,#47,.T.);
#394=EDGE_CURVE('',#481,#482,#48,.T.);
#395=EDGE_CURVE('',#482,#483,#49,.T.);
#396=EDGE_CURVE('',#484,#483,#50,.T.);
#397=EDGE_CURVE('',#484,#462,#51,.T.);
#398=EDGE_CURVE('',#467,#485,#52,.T.);
#399=EDGE_CURVE('',#486,#485,#53,.T.);
#400=EDGE_CURVE('',#468,#486,#54,.T.);
#401=EDGE_CURVE('',#487,#488,#55,.T.);
#402=EDGE_CURVE('',#488,#489,#513,.T.);
#403=EDGE_CURVE('',#459,#489,#56,.T.);
#404=EDGE_CURVE('',#460,#490,#57,.T.);
#405=EDGE_CURVE('',#490,#491,#58,.T.);
#406=EDGE_CURVE('',#491,#492,#59,.T.);
#407=EDGE_CURVE('',#492,#493,#60,.T.);
#408=EDGE_CURVE('',#493,#494,#61,.T.);
#409=EDGE_CURVE('',#494,#495,#62,.T.);
#410=EDGE_CURVE('',#495,#496,#63,.T.);
#411=EDGE_CURVE('',#496,#497,#64,.T.);
#412=EDGE_CURVE('',#497,#498,#65,.T.);
#413=EDGE_CURVE('',#498,#499,#66,.T.);
#414=EDGE_CURVE('',#499,#500,#67,.T.);
#415=EDGE_CURVE('',#500,#501,#68,.T.);
#416=EDGE_CURVE('',#501,#502,#69,.T.);
#417=EDGE_CURVE('',#502,#503,#70,.T.);
#418=EDGE_CURVE('',#503,#504,#71,.T.);
#419=EDGE_CURVE('',#504,#487,#72,.T.);
#420=EDGE_CURVE('',#465,#505,#73,.T.);
#421=EDGE_CURVE('',#506,#505,#74,.T.);
#422=EDGE_CURVE('',#456,#506,#75,.T.);
#423=EDGE_CURVE('',#458,#486,#76,.T.);
#424=EDGE_CURVE('',#466,#485,#77,.T.);
#425=EDGE_CURVE('',#484,#490,#78,.T.);
#426=EDGE_CURVE('',#483,#491,#79,.T.);
#427=EDGE_CURVE('',#482,#492,#80,.T.);
#428=EDGE_CURVE('',#481,#493,#81,.T.);
#429=EDGE_CURVE('',#480,#494,#82,.T.);
#430=EDGE_CURVE('',#479,#495,#83,.T.);
#431=EDGE_CURVE('',#478,#496,#84,.T.);
#432=EDGE_CURVE('',#477,#497,#85,.T.);
#433=EDGE_CURVE('',#476,#498,#86,.T.);
#434=EDGE_CURVE('',#475,#499,#87,.T.);
#435=EDGE_CURVE('',#474,#500,#88,.T.);
#436=EDGE_CURVE('',#473,#501,#89,.T.);
#437=EDGE_CURVE('',#472,#502,#90,.T.);
#438=EDGE_CURVE('',#471,#503,#91,.T.);
#439=EDGE_CURVE('',#470,#504,#92,.T.);
#440=EDGE_CURVE('',#487,#469,#93,.T.);
#441=EDGE_CURVE('',#463,#488,#13,.T.);
#442=EDGE_CURVE('',#452,#489,#14,.T.);
#443=EDGE_CURVE('',#507,#506,#94,.T.);
#444=EDGE_CURVE('',#508,#505,#95,.T.);
#445=EDGE_CURVE('',#507,#508,#96,.T.);
#446=EDGE_CURVE('',#509,#510,#514,.T.);
#447=EDGE_CURVE('',#507,#509,#97,.T.);
#448=EDGE_CURVE('',#508,#510,#98,.T.);
#449=EDGE_CURVE('',#464,#509,#15,.T.);
#450=EDGE_CURVE('',#451,#510,#16,.T.);
#451=VERTEX_POINT('',#850);
#452=VERTEX_POINT('',#851);
#453=VERTEX_POINT('',#853);
#454=VERTEX_POINT('',#855);
#455=VERTEX_POINT('',#859);
#456=VERTEX_POINT('',#860);
#457=VERTEX_POINT('',#862);
#458=VERTEX_POINT('',#864);
#459=VERTEX_POINT('',#868);
#460=VERTEX_POINT('',#869);
#461=VERTEX_POINT('',#871);
#462=VERTEX_POINT('',#873);
#463=VERTEX_POINT('',#877);
#464=VERTEX_POINT('',#878);
#465=VERTEX_POINT('',#883);
#466=VERTEX_POINT('',#885);
#467=VERTEX_POINT('',#889);
#468=VERTEX_POINT('',#891);
#469=VERTEX_POINT('',#893);
#470=VERTEX_POINT('',#895);
#471=VERTEX_POINT('',#897);
#472=VERTEX_POINT('',#899);
#473=VERTEX_POINT('',#901);
#474=VERTEX_POINT('',#903);
#475=VERTEX_POINT('',#905);
#476=VERTEX_POINT('',#907);
#477=VERTEX_POINT('',#909);
#478=VERTEX_POINT('',#911);
#479=VERTEX_POINT('',#913);
#480=VERTEX_POINT('',#915);
#481=VERTEX_POINT('',#917);
#482=VERTEX_POINT('',#919);
#483=VERTEX_POINT('',#921);
#484=VERTEX_POINT('',#923);
#485=VERTEX_POINT('',#927);
#486=VERTEX_POINT('',#929);
#487=VERTEX_POINT('',#933);
#488=VERTEX_POINT('',#934);
#489=VERTEX_POINT('',#936);
#490=VERTEX_POINT('',#939);
#491=VERTEX_POINT('',#941);
#492=VERTEX_POINT('',#943);
#493=VERTEX_POINT('',#945);
#494=VERTEX_POINT('',#947);
#495=VERTEX_POINT('',#949);
#496=VERTEX_POINT('',#951);
#497=VERTEX_POINT('',#953);
#498=VERTEX_POINT('',#955);
#499=VERTEX_POINT('',#957);
#500=VERTEX_POINT('',#959);
#501=VERTEX_POINT('',#961);
#502=VERTEX_POINT('',#963);
#503=VERTEX_POINT('',#965);
#504=VERTEX_POINT('',#967);
#505=VERTEX_POINT('',#971);
#506=VERTEX_POINT('',#973);
#507=VERTEX_POINT('',#1021);
#508=VERTEX_POINT('',#1023);
#509=VERTEX_POINT('',#1027);
#510=VERTEX_POINT('',#1028);
#511=CIRCLE('',#656,0.191562720281946);
#512=CIRCLE('',#660,0.191562720281946);
#513=CIRCLE('',#665,0.191562720281946);
#514=CIRCLE('',#687,0.191562720281946);
#515=EDGE_LOOP('',(#181,#182,#183,#184));
#516=EDGE_LOOP('',(#185,#186,#187,#188));
#517=EDGE_LOOP('',(#189,#190,#191,#192));
#518=EDGE_LOOP('',(#193,#194,#195,#196));
#519=EDGE_LOOP('',(#197,#198,#199,#200));
#520=EDGE_LOOP('',(#201,#202,#203,#204,#205,#206,#207,#208,#209,#210,#211,#212,#213,#214,#215,#216,#217,#218,#219,#220));
#521=EDGE_LOOP('',(#221,#222,#223,#224));
#522=EDGE_LOOP('',(#225,#226,#227,#228,#229,#230,#231,#232,#233,#234,#235,#236,#237,#238,#239,#240,#241,#242,#243,#244));
#523=EDGE_LOOP('',(#245,#246,#247,#248,#249,#250,#251,#252));
#524=EDGE_LOOP('',(#253,#254,#255,#256));
#525=EDGE_LOOP('',(#257,#258,#259,#260));
#526=EDGE_LOOP('',(#261,#262,#263,#264));
#527=EDGE_LOOP('',(#265,#266,#267,#268));
#528=EDGE_LOOP('',(#269,#270,#271,#272));
#529=EDGE_LOOP('',(#273,#274,#275,#276));
#530=EDGE_LOOP('',(#277,#278,#279,#280));
#531=EDGE_LOOP('',(#281,#282,#283,#284));
#532=EDGE_LOOP('',(#285,#286,#287,#288));
#533=EDGE_LOOP('',(#289,#290,#291,#292));
#534=EDGE_LOOP('',(#293,#294,#295,#296));
#535=EDGE_LOOP('',(#297,#298,#299,#300));
#536=EDGE_LOOP('',(#301,#302,#303,#304));
#537=EDGE_LOOP('',(#305,#306,#307,#308));
#538=EDGE_LOOP('',(#309,#310,#311,#312));
#539=EDGE_LOOP('',(#313,#314,#315,#316));
#540=EDGE_LOOP('',(#317,#318,#319,#320,#321,#322,#323,#324));
#541=EDGE_LOOP('',(#325,#326,#327,#328,#329,#330,#331,#332));
#542=EDGE_LOOP('',(#333,#334,#335,#336));
#543=EDGE_LOOP('',(#337,#338,#339,#340));
#544=EDGE_LOOP('',(#341,#342,#343,#344,#345,#346));
#545=EDGE_LOOP('',(#347,#348,#349,#350,#351,#352));
#546=EDGE_LOOP('',(#353,#354,#355,#356,#357,#358,#359,#360));
#547=FACE_BOUND('',#515,.T.);
#548=FACE_BOUND('',#516,.T.);
#549=FACE_BOUND('',#517,.T.);
#550=FACE_BOUND('',#518,.T.);
#551=FACE_BOUND('',#519,.T.);
#552=FACE_BOUND('',#520,.T.);
#553=FACE_BOUND('',#521,.T.);
#554=FACE_BOUND('',#522,.T.);
#555=FACE_BOUND('',#523,.T.);
#556=FACE_BOUND('',#524,.T.);
#557=FACE_BOUND('',#525,.T.);
#558=FACE_BOUND('',#526,.T.);
#559=FACE_BOUND('',#527,.T.);
#560=FACE_BOUND('',#528,.T.);
#561=FACE_BOUND('',#529,.T.);
#562=FACE_BOUND('',#530,.T.);
#563=FACE_BOUND('',#531,.T.);
#564=FACE_BOUND('',#532,.T.);
#565=FACE_BOUND('',#533,.T.);
#566=FACE_BOUND('',#534,.T.);
#567=FACE_BOUND('',#535,.T.);
#568=FACE_BOUND('',#536,.T.);
#569=FACE_BOUND('',#537,.T.);
#570=FACE_BOUND('',#538,.T.);
#571=FACE_BOUND('',#539,.T.);
#572=FACE_BOUND('',#540,.T.);
#573=FACE_BOUND('',#541,.T.);
#574=FACE_BOUND('',#542,.T.);
#575=FACE_BOUND('',#543,.T.);
#576=FACE_BOUND('',#544,.T.);
#577=FACE_BOUND('',#545,.T.);
#578=FACE_BOUND('',#546,.T.);
#579=PLANE('',#655);
#580=PLANE('',#657);
#581=PLANE('',#658);
#582=PLANE('',#659);
#583=PLANE('',#661);
#584=PLANE('',#662);
#585=PLANE('',#663);
#586=PLANE('',#664);
#587=PLANE('',#666);
#588=PLANE('',#667);
#589=PLANE('',#668);
#590=PLANE('',#669);
#591=PLANE('',#670);
#592=PLANE('',#671);
#593=PLANE('',#672);
#594=PLANE('',#673);
#595=PLANE('',#674);
#596=PLANE('',#675);
#597=PLANE('',#676);
#598=PLANE('',#677);
#599=PLANE('',#678);
#600=PLANE('',#679);
#601=PLANE('',#680);
#602=PLANE('',#681);
#603=PLANE('',#682);
#604=PLANE('',#683);
#605=PLANE('',#684);
#606=PLANE('',#685);
#607=PLANE('',#686);
#608=PLANE('',#688);
#609=PLANE('',#689);
#610=ADVANCED_FACE('',(#547),#579,.T.);
#611=ADVANCED_FACE('',(#548),#580,.F.);
#612=ADVANCED_FACE('',(#549),#581,.T.);
#613=ADVANCED_FACE('',(#550),#582,.T.);
#614=ADVANCED_FACE('',(#551),#583,.F.);
#615=ADVANCED_FACE('',(#552),#584,.F.);
#616=ADVANCED_FACE('',(#553),#585,.T.);
#617=ADVANCED_FACE('',(#554),#586,.F.);
#618=ADVANCED_FACE('',(#555),#587,.F.);
#619=ADVANCED_FACE('',(#556),#588,.F.);
#620=ADVANCED_FACE('',(#557),#589,.T.);
#621=ADVANCED_FACE('',(#558),#590,.F.);
#622=ADVANCED_FACE('',(#559),#591,.T.);
#623=ADVANCED_FACE('',(#560),#592,.F.);
#624=ADVANCED_FACE('',(#561),#593,.T.);
#625=ADVANCED_FACE('',(#562),#594,.F.);
#626=ADVANCED_FACE('',(#563),#595,.T.);
#627=ADVANCED_FACE('',(#564),#596,.F.);
#628=ADVANCED_FACE('',(#565),#597,.T.);
#629=ADVANCED_FACE('',(#566),#598,.F.);
#630=ADVANCED_FACE('',(#567),#599,.T.);
#631=ADVANCED_FACE('',(#568),#600,.F.);
#632=ADVANCED_FACE('',(#569),#601,.T.);
#633=ADVANCED_FACE('',(#570),#602,.F.);
#634=ADVANCED_FACE('',(#571),#603,.T.);
#635=ADVANCED_FACE('',(#572),#604,.F.);
#636=ADVANCED_FACE('',(#573),#605,.T.);
#637=ADVANCED_FACE('',(#574),#606,.F.);
#638=ADVANCED_FACE('',(#575),#607,.T.);
#639=ADVANCED_FACE('',(#576),#608,.T.);
#640=ADVANCED_FACE('',(#577),#609,.F.);
#641=ADVANCED_FACE('',(#578),#12,.F.);
#642=CLOSED_SHELL('',(#610,#611,#612,#613,#614,#615,#616,#617,#618,#619,#620,#621,#622,#623,#624,#625,#626,#627,#628,#629,#630,#631,#632,#633,#634,#635,#636,#637,#638,#639,#640,#641));
#643=STYLED_ITEM('',(#644),#651);
#644=PRESENTATION_STYLE_ASSIGNMENT((#645));
#645=SURFACE_STYLE_USAGE(.BOTH.,#646);
#646=SURFACE_SIDE_STYLE('',(#647));
#647=SURFACE_STYLE_FILL_AREA(#648);
#648=FILL_AREA_STYLE('',(#649));
#649=FILL_AREA_STYLE_COLOUR('',#650);
#650=COLOUR_RGB('',0.647058823529412,0.647058823529412,0.647058823529412);
#651=MANIFOLD_SOLID_BREP('bin_third_center',#642);
#652=SHAPE_DEFINITION_REPRESENTATION(#1048,#653);
#653=SHAPE_REPRESENTATION('bin_third_center',(#654),#1043);
#654=AXIS2_PLACEMENT_3D('',#847,#691,#692);
#655=AXIS2_PLACEMENT_3D('',#848,#693,#694);
#656=AXIS2_PLACEMENT_3D('',#849,#695,#696);
#657=AXIS2_PLACEMENT_3D('',#857,#700,#701);
#658=AXIS2_PLACEMENT_3D('',#866,#706,#707);
#659=AXIS2_PLACEMENT_3D('',#875,#712,#713);
#660=AXIS2_PLACEMENT_3D('',#876,#714,#715);
#661=AXIS2_PLACEMENT_3D('',#881,#718,#719);
#662=AXIS2_PLACEMENT_3D('',#887,#723,#724);
#663=AXIS2_PLACEMENT_3D('',#925,#744,#745);
#664=AXIS2_PLACEMENT_3D('',#931,#749,#750);
#665=AXIS2_PLACEMENT_3D('',#935,#752,#753);
#666=AXIS2_PLACEMENT_3D('',#969,#771,#772);
#667=AXIS2_PLACEMENT_3D('',#977,#778,#779);
#668=AXIS2_PLACEMENT_3D('',#979,#781,#782);
#669=AXIS2_PLACEMENT_3D('',#981,#784,#785);
#670=AXIS2_PLACEMENT_3D('',#983,#787,#788);
#671=AXIS2_PLACEMENT_3D('',#985,#790,#791);
#672=AXIS2_PLACEMENT_3D('',#987,#793,#794);
#673=AXIS2_PLACEMENT_3D('',#989,#796,#797);
#674=AXIS2_PLACEMENT_3D('',#991,#799,#800);
#675=AXIS2_PLACEMENT_3D('',#993,#802,#803);
#676=AXIS2_PLACEMENT_3D('',#995,#805,#806);
#677=AXIS2_PLACEMENT_3D('',#997,#808,#809);
#678=AXIS2_PLACEMENT_3D('',#999,#811,#812);
#679=AXIS2_PLACEMENT_3D('',#1001,#814,#815);
#680=AXIS2_PLACEMENT_3D('',#1003,#817,#818);
#681=AXIS2_PLACEMENT_3D('',#1005,#820,#821);
#682=AXIS2_PLACEMENT_3D('',#1007,#823,#824);
#683=AXIS2_PLACEMENT_3D('',#1009,#826,#827);
#684=AXIS2_PLACEMENT_3D('',#1014,#828,#829);
#685=AXIS2_PLACEMENT_3D('',#1019,#830,#831);
#686=AXIS2_PLACEMENT_3D('',#1025,#835,#836);
#687=AXIS2_PLACEMENT_3D('',#1026,#837,#838);
#688=AXIS2_PLACEMENT_3D('',#1031,#841,#842);
#689=AXIS2_PLACEMENT_3D('',#1036,#843,#844);
#690=AXIS2_PLACEMENT_3D('',#1041,#845,#846);
#691=DIRECTION('',(0.,0.,1.));
#692=DIRECTION('',(1.,0.,0.));
#693=DIRECTION('',(0.5,0.,0.866025403784439));
#694=DIRECTION('',(0.866025403784439,0.,-0.5));
#695=DIRECTION('',(0.5,0.,0.866025403784438));
#696=DIRECTION('',(0.866025403784438,0.,-0.5));
#697=DIRECTION('',(-0.858371231107697,-0.132659110035999,0.495580861344658));
#698=DIRECTION('',(0.,-1.,0.));
#699=DIRECTION('',(-0.858371231107697,-0.132659110035999,0.495580861344658));
#700=DIRECTION('',(0.,0.,-1.));
#701=DIRECTION('',(-1.,0.,0.));
#702=DIRECTION('',(0.993349528987574,-0.115137801178265,0.));
#703=DIRECTION('',(0.,-1.,0.));
#704=DIRECTION('',(0.993349528987574,-0.115137801178265,0.));
#705=DIRECTION('',(0.,-1.,0.));
#706=DIRECTION('',(0.866025403784439,0.,-0.5));
#707=DIRECTION('',(-0.5,0.,-0.866025403784439));
#708=DIRECTION('',(0.,-1.,0.));
#709=DIRECTION('',(0.499999999996153,-3.92232072260987E-06,0.866025403777777));
#710=DIRECTION('',(3.55445226721631E-17,1.,6.15649191989705E-17));
#711=DIRECTION('',(-0.5,7.10890453443263E-17,-0.866025403784439));
#712=DIRECTION('',(0.5,0.,0.866025403784439));
#713=DIRECTION('',(0.866025403784439,0.,-0.5));
#714=DIRECTION('',(0.5,0.,0.866025403784438));
#715=DIRECTION('',(0.866025403784438,0.,-0.5));
#716=DIRECTION('',(-0.858371231107697,0.132659110035998,0.495580861344658));
#717=DIRECTION('',(-0.858371231107697,0.132659110035998,0.495580861344658));
#718=DIRECTION('',(0.,0.,-1.));
#719=DIRECTION('',(-1.,0.,0.));
#720=DIRECTION('',(0.993349528987573,0.115137801178265,0.));
#721=DIRECTION('',(0.,-1.,0.));
#722=DIRECTION('',(0.993349528987573,0.115137801178265,0.));
#723=DIRECTION('',(-0.5,7.10890453443263E-17,-0.866025403784439));
#724=DIRECTION('',(-0.866025403784439,0.,0.5));
#725=DIRECTION('',(0.858371231107697,0.132659110035999,-0.495580861344659));
#726=DIRECTION('',(3.55445226721631E-17,1.,6.15649191989705E-17));
#727=DIRECTION('',(0.858371231107697,-0.132659110035998,-0.495580861344659));
#728=DIRECTION('',(3.55445226721631E-17,1.,6.15649191989705E-17));
#729=DIRECTION('',(-0.612372435695795,0.707106781186548,0.353553390593274));
#730=DIRECTION('',(-3.55445226721631E-17,-1.,-6.15649191989705E-17));
#731=DIRECTION('',(0.612372435695795,0.707106781186548,-0.353553390593274));
#732=DIRECTION('',(3.55445226721631E-17,1.,6.15649191989705E-17));
#733=DIRECTION('',(-0.612372435695795,0.707106781186548,0.353553390593274));
#734=DIRECTION('',(-3.55445226721631E-17,-1.,-6.15649191989705E-17));
#735=DIRECTION('',(0.612372435695795,0.707106781186548,-0.353553390593274));
#736=DIRECTION('',(3.55445226721631E-17,1.,6.15649191989705E-17));
#737=DIRECTION('',(-0.612372435695795,0.707106781186548,0.353553390593274));
#738=DIRECTION('',(-3.55445226721631E-17,-1.,-6.15649191989705E-17));
#739=DIRECTION('',(0.612372435695795,0.707106781186548,-0.353553390593274));
#740=DIRECTION('',(3.55445226721631E-17,1.,6.15649191989705E-17));
#741=DIRECTION('',(-0.612372435695795,0.707106781186548,0.353553390593274));
#742=DIRECTION('',(-3.55445226721631E-17,-1.,-6.15649191989705E-17));
#743=DIRECTION('',(0.612372435695795,0.707106781186548,-0.353553390593274));
#744=DIRECTION('',(0.866025403784439,0.,-0.5));
#745=DIRECTION('',(-0.5,0.,-0.866025403784439));
#746=DIRECTION('',(0.499999999996154,-3.92232072256793E-06,0.866025403777777));
#747=DIRECTION('',(0.,1.,0.));
#748=DIRECTION('',(0.499999999996154,3.92232072292497E-06,0.866025403777777));
#749=DIRECTION('',(0.5,0.,0.86602540378444));
#750=DIRECTION('',(0.86602540378444,0.,-0.5));
#751=DIRECTION('',(-0.858371231107698,0.132659110035998,0.495580861344658));
#752=DIRECTION('',(0.5,0.,0.866025403784438));
#753=DIRECTION('',(0.866025403784438,0.,-0.5));
#754=DIRECTION('',(-0.858371231107697,-0.132659110035999,0.495580861344658));
#755=DIRECTION('',(-0.612372435695795,-0.707106781186548,0.353553390593273));
#756=DIRECTION('',(3.55445226721631E-17,-1.,-2.052163973299E-17));
#757=DIRECTION('',(0.612372435695795,-0.707106781186548,-0.353553390593273));
#758=DIRECTION('',(0.,-1.,0.));
#759=DIRECTION('',(-0.612372435695795,-0.707106781186548,0.353553390593273));
#760=DIRECTION('',(3.55445226721631E-17,-1.,-2.052163973299E-17));
#761=DIRECTION('',(0.612372435695795,-0.707106781186548,-0.353553390593273));
#762=DIRECTION('',(0.,-1.,0.));
#763=DIRECTION('',(-0.612372435695795,-0.707106781186548,0.353553390593273));
#764=DIRECTION('',(3.55445226721631E-17,-1.,-2.052163973299E-17));
#765=DIRECTION('',(0.612372435695795,-0.707106781186548,-0.353553390593273));
#766=DIRECTION('',(0.,-1.,0.));
#767=DIRECTION('',(-0.612372435695795,-0.707106781186548,0.353553390593273));
#768=DIRECTION('',(3.55445226721631E-17,-1.,-2.052163973299E-17));
#769=DIRECTION('',(0.612372435695795,-0.707106781186548,-0.353553390593273));
#770=DIRECTION('',(0.,-1.,0.));
#771=DIRECTION('',(-0.5,0.,-0.866025403784439));
#772=DIRECTION('',(-0.866025403784439,0.,0.5));
#773=DIRECTION('',(0.858371231107697,0.132659110035999,-0.495580861344659));
#774=DIRECTION('',(0.,1.,0.));
#775=DIRECTION('',(0.858371231107697,-0.132659110035998,-0.495580861344659));
#776=DIRECTION('',(0.858371231107697,-0.132659110035998,-0.495580861344659));
#777=DIRECTION('',(0.858371231107697,0.132659110035999,-0.495580861344659));
#778=DIRECTION('',(-0.612372435695795,0.707106781186548,0.353553390593274));
#779=DIRECTION('',(-0.612372435695795,-0.707106781186548,0.353553390593274));
#780=DIRECTION('',(-0.5,7.10890453443263E-17,-0.866025403784439));
#781=DIRECTION('',(0.866025403784439,0.,-0.5));
#782=DIRECTION('',(0.,1.,0.));
#783=DIRECTION('',(-0.5,7.10890453443263E-17,-0.866025403784439));
#784=DIRECTION('',(-0.612372435695795,-0.707106781186548,0.353553390593274));
#785=DIRECTION('',(0.612372435695795,-0.707106781186548,-0.353553390593274));
#786=DIRECTION('',(-0.5,7.10890453443263E-17,-0.866025403784439));
#787=DIRECTION('',(0.866025403784439,0.,-0.5));
#788=DIRECTION('',(-0.5,0.,-0.866025403784439));
#789=DIRECTION('',(-0.5,7.10890453443263E-17,-0.866025403784439));
#790=DIRECTION('',(-0.612372435695795,0.707106781186548,0.353553390593274));
#791=DIRECTION('',(-0.612372435695795,-0.707106781186548,0.353553390593274));
#792=DIRECTION('',(-0.5,7.10890453443263E-17,-0.866025403784439));
#793=DIRECTION('',(0.866025403784439,0.,-0.5));
#794=DIRECTION('',(0.,1.,0.));
#795=DIRECTION('',(-0.5,7.10890453443263E-17,-0.866025403784439));
#796=DIRECTION('',(-0.612372435695795,-0.707106781186548,0.353553390593274));
#797=DIRECTION('',(0.612372435695795,-0.707106781186548,-0.353553390593274));
#798=DIRECTION('',(-0.5,7.10890453443263E-17,-0.866025403784439));
#799=DIRECTION('',(0.866025403784439,0.,-0.5));
#800=DIRECTION('',(-0.5,0.,-0.866025403784439));
#801=DIRECTION('',(-0.5,7.10890453443263E-17,-0.866025403784439));
#802=DIRECTION('',(-0.612372435695795,0.707106781186548,0.353553390593274));
#803=DIRECTION('',(-0.612372435695795,-0.707106781186548,0.353553390593274));
#804=DIRECTION('',(-0.5,7.10890453443263E-17,-0.866025403784439));
#805=DIRECTION('',(0.866025403784439,0.,-0.5));
#806=DIRECTION('',(0.,1.,0.));
#807=DIRECTION('',(-0.5,7.10890453443263E-17,-0.866025403784439));
#808=DIRECTION('',(-0.612372435695795,-0.707106781186548,0.353553390593274));
#809=DIRECTION('',(0.612372435695795,-0.707106781186548,-0.353553390593274));
#810=DIRECTION('',(-0.5,7.10890453443263E-17,-0.866025403784439));
#811=DIRECTION('',(0.866025403784439,0.,-0.5));
#812=DIRECTION('',(-0.5,0.,-0.866025403784439));
#813=DIRECTION('',(-0.5,7.10890453443263E-17,-0.866025403784439));
#814=DIRECTION('',(-0.612372435695795,0.707106781186548,0.353553390593274));
#815=DIRECTION('',(-0.612372435695795,-0.707106781186548,0.353553390593274));
#816=DIRECTION('',(-0.5,7.10890453443263E-17,-0.866025403784439));
#817=DIRECTION('',(0.866025403784439,0.,-0.5));
#818=DIRECTION('',(0.,1.,0.));
#819=DIRECTION('',(-0.5,7.10890453443263E-17,-0.866025403784439));
#820=DIRECTION('',(-0.612372435695795,-0.707106781186548,0.353553390593274));
#821=DIRECTION('',(0.612372435695795,-0.707106781186548,-0.353553390593274));
#822=DIRECTION('',(-0.5,7.10890453443263E-17,-0.866025403784439));
#823=DIRECTION('',(0.866025403784439,0.,-0.5));
#824=DIRECTION('',(-0.5,0.,-0.866025403784439));
#825=DIRECTION('',(0.499999999996153,3.92232072295997E-06,0.866025403777777));
#826=DIRECTION('',(0.114884215506659,0.991161722681828,-0.0663329218247656));
#827=DIRECTION('',(-0.993378888957995,0.114627800345116,-0.00767139886986765));
#828=DIRECTION('',(-0.11488421550666,0.991161722681828,0.0663329218247656));
#829=DIRECTION('',(-0.993378888957994,-0.114627800345117,-0.0076713988698677));
#830=DIRECTION('',(0.866025403784439,0.,-0.5));
#831=DIRECTION('',(-0.5,0.,-0.866025403784439));
#832=DIRECTION('',(0.499999999996154,3.92232072292497E-06,0.866025403777777));
#833=DIRECTION('',(0.499999999996154,-3.92232072256793E-06,0.866025403777777));
#834=DIRECTION('',(0.,1.,0.));
#835=DIRECTION('',(0.5,0.,0.86602540378444));
#836=DIRECTION('',(0.86602540378444,0.,-0.5));
#837=DIRECTION('',(0.5,0.,0.86602540378444));
#838=DIRECTION('',(0.86602540378444,0.,-0.5));
#839=DIRECTION('',(-0.858371231107698,0.132659110035998,0.495580861344658));
#840=DIRECTION('',(-0.858371231107697,-0.132659110035999,0.495580861344658));
#841=DIRECTION('',(0.114884215506659,0.991161722681828,-0.0663329218247656));
#842=DIRECTION('',(-0.993378888957995,0.114627800345116,-0.00767139886986765));
#843=DIRECTION('',(-0.11488421550666,0.991161722681828,0.0663329218247656));
#844=DIRECTION('',(-0.993378888957994,-0.114627800345117,-0.0076713988698677));
#845=DIRECTION('',(0.5,0.,0.866025403784438));
#846=DIRECTION('',(0.866025403784438,0.,-0.5));
#847=CARTESIAN_POINT('',(0.,0.,0.));
#848=CARTESIAN_POINT('',(0.240503968546522,0.599111929747018,0.0247112122887518));
#849=CARTESIAN_POINT('',(0.0708262609368151,0.,0.122674682452695));
#850=CARTESIAN_POINT('',(0.234646723507471,0.0302227926020642,0.0280928942887574));
#851=CARTESIAN_POINT('',(0.234393437701238,0.0319996986794217,0.0282391289171681));
#852=CARTESIAN_POINT('',(0.305180730624224,0.0411236456039833,-0.0126299337071228));
#853=CARTESIAN_POINT('',(0.288656733260263,0.0385699034641035,-0.00308979938095164));
#854=CARTESIAN_POINT('',(0.288656733260263,0.599111929747018,-0.00308979938095164));
#855=CARTESIAN_POINT('',(0.288656733260263,0.0403859542243462,-0.00308979938095164));
#856=CARTESIAN_POINT('',(0.30497393553742,0.0429077367048374,-0.0125105405080895));
#857=CARTESIAN_POINT('',(0.310471960169581,0.599111929747018,-0.00308979938095164));
#858=CARTESIAN_POINT('',(0.237249763956269,-0.0326113911397123,-0.00308979938095164));
#859=CARTESIAN_POINT('',(0.288656733260263,-0.0385699034641034,-0.00308979938095164));
#860=CARTESIAN_POINT('',(0.332287187078898,-0.0436270503902285,-0.00308979938095172));
#861=CARTESIAN_POINT('',(0.288656733260263,0.599111929747018,-0.00308979938095164));
#862=CARTESIAN_POINT('',(0.288656733260263,-0.0403859542243462,-0.00308979938095164));
#863=CARTESIAN_POINT('',(0.237042058452401,-0.0344033670357609,-0.00308979938095164));
#864=CARTESIAN_POINT('',(0.332287187078898,-0.0454431011504715,-0.00308979938095175));
#865=CARTESIAN_POINT('',(0.332287187078898,0.599111929747018,-0.00308979938095172));
#866=CARTESIAN_POINT('',(0.357382009957605,0.599111929747018,-0.0755323131023886));
#867=CARTESIAN_POINT('',(0.332287187078898,0.599111929747018,-0.118997821335251));
#868=CARTESIAN_POINT('',(0.332287187078898,0.0532001781069491,-0.118997821335251));
#869=CARTESIAN_POINT('',(0.332287187078898,0.0478532771011374,-0.118997821335251));
#870=CARTESIAN_POINT('',(0.357380939336731,0.0531999812554601,-0.0755341674721383));
#871=CARTESIAN_POINT('',(0.333187187078898,0.0532001710467718,-0.117438975608439));
#872=CARTESIAN_POINT('',(0.333187187078898,1.70613708826383E-19,-0.117438975608439));
#873=CARTESIAN_POINT('',(0.333187187078898,0.0478532771011374,-0.117438975608439));
#874=CARTESIAN_POINT('',(0.334387187078898,0.0478532771011374,-0.115360514639356));
#875=CARTESIAN_POINT('',(0.240503968546522,0.599111929747018,0.0247112122887518));
#876=CARTESIAN_POINT('',(0.0708262609368151,0.,0.122674682452695));
#877=CARTESIAN_POINT('',(0.234393437701238,-0.0319996986794217,0.0282391289171681));
#878=CARTESIAN_POINT('',(0.234646723507471,-0.0302227926020643,0.0280928942887574));
#879=CARTESIAN_POINT('',(0.168531269693992,-0.0218208666353798,0.0662646693455637));
#880=CARTESIAN_POINT('',(0.168738064780796,-0.0200367755345256,0.0661452761465304));
#881=CARTESIAN_POINT('',(0.310471960169581,0.599111929747018,-0.00308979938095164));
#882=CARTESIAN_POINT('',(0.374293119754132,0.0484959012665138,-0.00308979938095164));
#883=CARTESIAN_POINT('',(0.332287187078898,0.0436270503902287,-0.00308979938095172));
#884=CARTESIAN_POINT('',(0.332287187078898,0.599111929747018,-0.00308979938095172));
#885=CARTESIAN_POINT('',(0.332287187078898,0.0454431011504718,-0.00308979938095172));
#886=CARTESIAN_POINT('',(0.374085414250264,0.0502878771625623,-0.00308979938095164));
#887=CARTESIAN_POINT('',(0.329549880383004,1.70613708826383E-19,-0.115338975608439));
#888=CARTESIAN_POINT('',(0.323555947204039,0.051711687201975,-0.111878376674059));
#889=CARTESIAN_POINT('',(0.328510649898463,0.0524774240138751,-0.114738975608439));
#890=CARTESIAN_POINT('',(0.328510649898463,-1.1085183093178E-16,-0.114738975608439));
#891=CARTESIAN_POINT('',(0.328510649898463,-0.0524774240138751,-0.114738975608439));
#892=CARTESIAN_POINT('',(0.323555947204039,-0.051711687201975,-0.111878376674059));
#893=CARTESIAN_POINT('',(0.333187187078898,-0.0532001710467718,-0.117438975608439));
#894=CARTESIAN_POINT('',(0.333187187078898,1.70613708826383E-19,-0.117438975608439));
#895=CARTESIAN_POINT('',(0.333187187078898,-0.0478532771011375,-0.117438975608439));
#896=CARTESIAN_POINT('',(0.331368533730951,-0.0457532771011375,-0.116388975608439));
#897=CARTESIAN_POINT('',(0.329549880383004,-0.0436532771011374,-0.115338975608439));
#898=CARTESIAN_POINT('',(0.329549880383004,0.599111929747018,-0.115338975608439));
#899=CARTESIAN_POINT('',(0.329549880383004,-0.0394532771011375,-0.115338975608439));
#900=CARTESIAN_POINT('',(0.331368533730951,-0.0373532771011374,-0.116388975608439));
#901=CARTESIAN_POINT('',(0.333187187078898,-0.0352532771011375,-0.117438975608439));
#902=CARTESIAN_POINT('',(0.333187187078898,1.70613708826383E-19,-0.117438975608439));
#903=CARTESIAN_POINT('',(0.333187187078898,-0.0203,-0.117438975608439));
#904=CARTESIAN_POINT('',(0.331368533730951,-0.0182,-0.116388975608439));
#905=CARTESIAN_POINT('',(0.329549880383004,-0.0161,-0.115338975608439));
#906=CARTESIAN_POINT('',(0.329549880383004,0.599111929747018,-0.115338975608439));
#907=CARTESIAN_POINT('',(0.329549880383004,-0.0119,-0.115338975608439));
#908=CARTESIAN_POINT('',(0.331368533730951,-0.0098,-0.116388975608439));
#909=CARTESIAN_POINT('',(0.333187187078898,-0.0077,-0.117438975608439));
#910=CARTESIAN_POINT('',(0.333187187078898,1.70613708826383E-19,-0.117438975608439));
#911=CARTESIAN_POINT('',(0.333187187078898,0.0077,-0.117438975608439));
#912=CARTESIAN_POINT('',(0.331368533730951,0.0098,-0.116388975608439));
#913=CARTESIAN_POINT('',(0.329549880383004,0.0119,-0.115338975608439));
#914=CARTESIAN_POINT('',(0.329549880383004,0.599111929747018,-0.115338975608439));
#915=CARTESIAN_POINT('',(0.329549880383004,0.0161,-0.115338975608439));
#916=CARTESIAN_POINT('',(0.331368533730951,0.0182,-0.116388975608439));
#917=CARTESIAN_POINT('',(0.333187187078898,0.0203,-0.117438975608439));
#918=CARTESIAN_POINT('',(0.333187187078898,1.70613708826383E-19,-0.117438975608439));
#919=CARTESIAN_POINT('',(0.333187187078898,0.0352532771011374,-0.117438975608439));
#920=CARTESIAN_POINT('',(0.331368533730951,0.0373532771011374,-0.116388975608439));
#921=CARTESIAN_POINT('',(0.329549880383004,0.0394532771011375,-0.115338975608439));
#922=CARTESIAN_POINT('',(0.329549880383004,0.599111929747018,-0.115338975608439));
#923=CARTESIAN_POINT('',(0.329549880383004,0.0436532771011374,-0.115338975608439));
#924=CARTESIAN_POINT('',(0.331368533730951,0.0457532771011374,-0.116388975608439));
#925=CARTESIAN_POINT('',(0.329709649898463,-1.11022302462516E-16,-0.112662246690164));
#926=CARTESIAN_POINT('',(0.329709752815088,0.0524774146073427,-0.11266206843334));
#927=CARTESIAN_POINT('',(0.377800295655876,0.0524770373542773,-0.0293668048695265));
#928=CARTESIAN_POINT('',(0.377800295655876,-1.11022302462516E-16,-0.0293668048695264));
#929=CARTESIAN_POINT('',(0.377800295655876,-0.0524770373542772,-0.0293668048695264));
#930=CARTESIAN_POINT('',(0.329709752815088,-0.0524774146073427,-0.11266206843334));
#931=CARTESIAN_POINT('',(0.252239592981699,0.599111929747018,-0.0727823213352507));
#932=CARTESIAN_POINT('',(0.179369027895213,-0.029567062072209,-0.030710480966568));
#933=CARTESIAN_POINT('',(0.332287187078898,-0.053200178106949,-0.118997821335251));
#934=CARTESIAN_POINT('',(0.195111361186306,-0.032,-0.039799321329854));
#935=CARTESIAN_POINT('',(0.0315442286340599,0.,0.0546362066797613));
#936=CARTESIAN_POINT('',(0.195111361186306,0.032,-0.039799321329854));
#937=CARTESIAN_POINT('',(0.315811693738641,0.0506539321416666,-0.109485690820221));
#938=CARTESIAN_POINT('',(0.530965388653956,0.277267103424078,-0.23370473449672));
#939=CARTESIAN_POINT('',(0.328649880383004,0.0436532771011374,-0.116897821335251));
#940=CARTESIAN_POINT('',(0.328649880383004,0.599111929747018,-0.116897821335251));
#941=CARTESIAN_POINT('',(0.328649880383004,0.0394532771011375,-0.116897821335251));
#942=CARTESIAN_POINT('',(0.048105431362799,0.363398103424078,0.0450745918262191));
#943=CARTESIAN_POINT('',(0.332287187078898,0.0352532771011373,-0.118997821335251));
#944=CARTESIAN_POINT('',(0.332287187078898,0.599111929747018,-0.118997821335251));
#945=CARTESIAN_POINT('',(0.332287187078898,0.0203,-0.118997821335251));
#946=CARTESIAN_POINT('',(0.542896307617505,0.263490464873509,-0.240593053772005));
#947=CARTESIAN_POINT('',(0.328649880383004,0.0161,-0.116897821335251));
#948=CARTESIAN_POINT('',(0.328649880383004,0.599111929747018,-0.116897821335251));
#949=CARTESIAN_POINT('',(0.328649880383004,0.0119,-0.116897821335251));
#950=CARTESIAN_POINT('',(0.0361745123992504,0.349621464873509,0.0519629111015035));
#951=CARTESIAN_POINT('',(0.332287187078898,0.0077,-0.118997821335251));
#952=CARTESIAN_POINT('',(0.332287187078898,0.599111929747018,-0.118997821335251));
#953=CARTESIAN_POINT('',(0.332287187078898,-0.0077,-0.118997821335251));
#954=CARTESIAN_POINT('',(0.555020663270487,0.249490464873509,-0.247593053772005));
#955=CARTESIAN_POINT('',(0.328649880383004,-0.0119,-0.116897821335251));
#956=CARTESIAN_POINT('',(0.328649880383004,0.599111929747018,-0.116897821335251));
#957=CARTESIAN_POINT('',(0.328649880383004,-0.0161,-0.116897821335251));
#958=CARTESIAN_POINT('',(0.0240501567462683,0.335621464873509,0.0589629111015034));
#959=CARTESIAN_POINT('',(0.332287187078898,-0.0203,-0.118997821335251));
#960=CARTESIAN_POINT('',(0.332287187078898,0.599111929747018,-0.118997821335251));
#961=CARTESIAN_POINT('',(0.332287187078898,-0.0352532771011375,-0.118997821335251));
#962=CARTESIAN_POINT('',(0.566951582234035,0.23571382632294,-0.25448137304729));
#963=CARTESIAN_POINT('',(0.328649880383004,-0.0394532771011375,-0.116897821335251));
#964=CARTESIAN_POINT('',(0.328649880383004,0.599111929747018,-0.116897821335251));
#965=CARTESIAN_POINT('',(0.328649880383004,-0.0436532771011374,-0.116897821335251));
#966=CARTESIAN_POINT('',(0.0121192377827198,0.321844826322941,0.0658512303767877));
#967=CARTESIAN_POINT('',(0.332287187078898,-0.0478532771011374,-0.118997821335251));
#968=CARTESIAN_POINT('',(0.332287187078898,0.599111929747018,-0.118997821335251));
#969=CARTESIAN_POINT('',(0.357382009957605,0.599111929747018,-0.017578302125239));
#970=CARTESIAN_POINT('',(0.420193867616221,0.0572128062772838,-0.0538427450527411));
#971=CARTESIAN_POINT('',(0.376241449929064,0.0504200709164021,-0.0284668048695264));
#972=CARTESIAN_POINT('',(0.376241449929064,-1.11022302462516E-16,-0.0284668048695264));
#973=CARTESIAN_POINT('',(0.376241449929064,-0.0504200709164021,-0.0284668048695264));
#974=CARTESIAN_POINT('',(0.283751201772793,-0.0361259362078261,0.0249324648009122));
#975=CARTESIAN_POINT('',(0.283544406685989,-0.0379100273086803,0.0250518579999455));
#976=CARTESIAN_POINT('',(0.419987072529417,0.058996897378138,-0.0537233518537078));
#977=CARTESIAN_POINT('',(0.332568533730951,0.0457532771011374,-0.114310514639356));
#978=CARTESIAN_POINT('',(0.330749880383004,0.0436532771011374,-0.113260514639356));
#979=CARTESIAN_POINT('',(0.35374470326171,0.,-0.0734323131023887));
#980=CARTESIAN_POINT('',(0.330749880383004,0.0394532771011374,-0.113260514639356));
#981=CARTESIAN_POINT('',(0.332568533730951,0.0373532771011374,-0.114310514639356));
#982=CARTESIAN_POINT('',(0.334387187078898,0.0352532771011374,-0.115360514639356));
#983=CARTESIAN_POINT('',(0.357382009957605,0.599111929747018,-0.0755323131023886));
#984=CARTESIAN_POINT('',(0.334387187078898,0.0203,-0.115360514639356));
#985=CARTESIAN_POINT('',(0.332568533730951,0.0182,-0.114310514639356));
#986=CARTESIAN_POINT('',(0.330749880383004,0.0161,-0.113260514639356));
#987=CARTESIAN_POINT('',(0.35374470326171,0.,-0.0734323131023887));
#988=CARTESIAN_POINT('',(0.330749880383004,0.0119,-0.113260514639356));
#989=CARTESIAN_POINT('',(0.332568533730951,0.0098,-0.114310514639356));
#990=CARTESIAN_POINT('',(0.334387187078898,0.0077,-0.115360514639356));
#991=CARTESIAN_POINT('',(0.357382009957605,0.599111929747018,-0.0755323131023886));
#992=CARTESIAN_POINT('',(0.334387187078898,-0.0077,-0.115360514639356));
#993=CARTESIAN_POINT('',(0.332568533730951,-0.0098,-0.114310514639356));
#994=CARTESIAN_POINT('',(0.330749880383004,-0.0119,-0.113260514639356));
#995=CARTESIAN_POINT('',(0.35374470326171,0.,-0.0734323131023887));
#996=CARTESIAN_POINT('',(0.330749880383004,-0.0161,-0.113260514639356));
#997=CARTESIAN_POINT('',(0.332568533730951,-0.0182,-0.114310514639356));
#998=CARTESIAN_POINT('',(0.334387187078898,-0.0203,-0.115360514639356));
#999=CARTESIAN_POINT('',(0.357382009957605,0.599111929747018,-0.0755323131023886));
#1000=CARTESIAN_POINT('',(0.334387187078898,-0.0352532771011375,-0.115360514639356));
#1001=CARTESIAN_POINT('',(0.332568533730951,-0.0373532771011374,-0.114310514639356));
#1002=CARTESIAN_POINT('',(0.330749880383004,-0.0394532771011375,-0.113260514639356));
#1003=CARTESIAN_POINT('',(0.35374470326171,0.,-0.0734323131023887));
#1004=CARTESIAN_POINT('',(0.330749880383004,-0.0436532771011374,-0.113260514639356));
#1005=CARTESIAN_POINT('',(0.332568533730951,-0.0457532771011375,-0.114310514639356));
#1006=CARTESIAN_POINT('',(0.334387187078898,-0.0478532771011375,-0.115360514639356));
#1007=CARTESIAN_POINT('',(0.357382009957605,0.599111929747018,-0.0755323131023886));
#1008=CARTESIAN_POINT('',(0.357383289245868,-0.0531999812370259,-0.0755300973101193));
#1009=CARTESIAN_POINT('',(0.263699274132602,-0.0426000890534746,-0.0793985713325524));
#1010=CARTESIAN_POINT('',(0.234393437701238,-0.0319996986794217,0.028239128917168));
#1011=CARTESIAN_POINT('',(0.221299412196331,-0.0319997991196253,0.00555964550145369));
#1012=CARTESIAN_POINT('',(0.208205386691353,-0.0319998995598181,-0.0171198379142203));
#1013=CARTESIAN_POINT('',(0.195111361186307,-0.0320000000000001,-0.039799321329854));
#1014=CARTESIAN_POINT('',(0.263699274132602,0.0426000890534745,-0.0793985713325523));
#1015=CARTESIAN_POINT('',(0.234393437701238,0.0319996986794217,0.0282391289171682));
#1016=CARTESIAN_POINT('',(0.221299412196331,0.0319997991196252,0.00555964550145382));
#1017=CARTESIAN_POINT('',(0.208205386691354,0.031999899559818,-0.0171198379142203));
#1018=CARTESIAN_POINT('',(0.195111361186307,0.032,-0.0397993213298541));
#1019=CARTESIAN_POINT('',(0.328150804171651,-1.11022302462516E-16,-0.111762246690164));
#1020=CARTESIAN_POINT('',(0.328150903054234,-0.0504204481694993,-0.111762075420504));
#1021=CARTESIAN_POINT('',(0.326951804171651,-0.0504204575759999,-0.113838975608439));
#1022=CARTESIAN_POINT('',(0.328150903054234,0.0504204481694992,-0.111762075420504));
#1023=CARTESIAN_POINT('',(0.326951804171651,0.0504204575760001,-0.113838975608439));
#1024=CARTESIAN_POINT('',(0.326951804171651,0.599111929747018,-0.113838975608439));
#1025=CARTESIAN_POINT('',(0.253139592981699,0.599111929747018,-0.0712234756084387));
#1026=CARTESIAN_POINT('',(0.0324442286340595,0.,0.0561950524065727));
#1027=CARTESIAN_POINT('',(0.196264650415831,-0.0302230873915259,-0.0383867122078907));
#1028=CARTESIAN_POINT('',(0.196264650415831,0.0302230873915262,-0.0383867122078907));
#1029=CARTESIAN_POINT('',(0.180475823785965,-0.0277829640354252,-0.0292710289029488));
#1030=CARTESIAN_POINT('',(0.316918489629393,0.0488698341048831,-0.108046238756602));
#1031=CARTESIAN_POINT('',(0.263906065720515,-0.0408159979526472,-0.0795179705918369));
#1032=CARTESIAN_POINT('',(0.234646723507471,-0.0302227926020642,0.0280928942887574));
#1033=CARTESIAN_POINT('',(0.221852699143658,-0.0302228908652285,0.00593302545650292));
#1034=CARTESIAN_POINT('',(0.209058674779778,-0.0302229891283825,-0.0162268433757131));
#1035=CARTESIAN_POINT('',(0.196264650415831,-0.0302230873915262,-0.0383867122078907));
#1036=CARTESIAN_POINT('',(0.263906065720515,0.0408159979526472,-0.0795179705918369));
#1037=CARTESIAN_POINT('',(0.234646723507471,0.0302227926020641,0.0280928942887574));
#1038=CARTESIAN_POINT('',(0.221852699143658,0.0302228908652284,0.00593302545650291));
#1039=CARTESIAN_POINT('',(0.209058674779778,0.0302229891283824,-0.0162268433757131));
#1040=CARTESIAN_POINT('',(0.196264650415831,0.0302230873915261,-0.0383867122078907));
#1041=CARTESIAN_POINT('',(0.0511852447854372,0.,0.0886554445662277));
#1042=MECHANICAL_DESIGN_GEOMETRIC_PRESENTATION_REPRESENTATION('',(#643),#1043);
#1043=(
GEOMETRIC_REPRESENTATION_CONTEXT(3)
GLOBAL_UNCERTAINTY_ASSIGNED_CONTEXT((#1044))
GLOBAL_UNIT_ASSIGNED_CONTEXT((#1047,#1046,#1045))
REPRESENTATION_CONTEXT('bin_third_center','TOP_LEVEL_ASSEMBLY_PART')
);
#1044=UNCERTAINTY_MEASURE_WITH_UNIT(LENGTH_MEASURE(2.E-05),#1047,'DISTANCE_ACCURACY_VALUE','Maximum Tolerance applied to model');
#1045=(
NAMED_UNIT(*)
SI_UNIT($,.STERADIAN.)
SOLID_ANGLE_UNIT()
);
#1046=(
NAMED_UNIT(*)
PLANE_ANGLE_UNIT()
SI_UNIT($,.RADIAN.)
);
#1047=(
LENGTH_UNIT()
NAMED_UNIT(*)
SI_UNIT($,.METRE.)
);
#1048=PRODUCT_DEFINITION_SHAPE('','',#1049);
#1049=PRODUCT_DEFINITION('','',#1051,#1050);
#1050=PRODUCT_DEFINITION_CONTEXT('',#1057,'design');
#1051=PRODUCT_DEFINITION_FORMATION_WITH_SPECIFIED_SOURCE('','',#1053,.NOT_KNOWN.);
#1052=PRODUCT_RELATED_PRODUCT_CATEGORY('','',(#1053));
#1053=PRODUCT('bin_third_center','bin_third_center','bin_third_center',(#1055));
#1054=PRODUCT_CATEGORY('','');
#1055=PRODUCT_CONTEXT('',#1057,'mechanical');
#1056=APPLICATION_PROTOCOL_DEFINITION('international standard','ap242_managed_model_based_3d_engineering',2020,#1057);
#1057=APPLICATION_CONTEXT('managed model based 3d engineering');
ENDSEC;
END-ISO-10303-21;
