ISO-10303-21;
HEADER;
/*Generated by software containing ST-Developer
 * from STEP Tools, Inc. (www.steptools.com) 
 */
/*OPTION: using custom renumber hook */
/*description */
/*implementation_level */
FILE_DESCRIPTION(('STEP AP242 Edition 2','STEP AP242 Edition 2''CAx-IF Rec.Pracs.---Representation and Presentation of Product Manufa
cturing Information (PMI)---4.0---2014-10-13','STEP AP242 Edition 2''CAx-IF Rec.Pracs.---Representation and Presentation of Product Manufa
cturing Information (PMI)---4.0---2014-10-13''CAx-IF Rec.Pracs.---3D Tessellated Geometry---0.4---2014-09-14','STEP AP242 Edition 2''CAx-IF Rec.Pracs.---Representation and Presentation of Product Manufa
cturing Information (PMI)---4.0---2014-10-13''CAx-IF Rec.Pracs.---3D Tessellated Geometry---0.4---2014-09-14''2;1','STEP AP242 Edition 2''CAx-IF Rec.Pracs.---Representation and Presentation of Product Manufa
cturing Information (PMI)---4.0---2014-10-13''CAx-IF Rec.Pracs.---3D Tessellated Geometry---0.4---2014-09-14''2;1''CAx-IF Rec.Pracs.---User Defined Attributes---1.5---2016-08-15'),'2;1');
/*name */
/*time_stamp */
/*author */
/*organization */
/*preprocessor_version */
/*originating_system */
/*authorisation */
FILE_NAME('/vol/tmp/translate-18267351045330613085/0_bins - bin_third_left.step','2026-03-17T19:11:49',(''),(''),'ST-DEVELOPER v20','ONSHAPE BY PTC INC, 1.212','  ');
FILE_SCHEMA(('AP242_MANAGED_MODEL_BASED_3D_ENGINEERING_MIM_LF { 1 0 10303 442 3 1 4 }'));
ENDSEC;
DATA;
#10=SHAPE_REPRESENTATION_RELATIONSHIP('','',#711,#11);
#11=ADVANCED_BREP_SHAPE_REPRESENTATION('',(#709),#1132);
#12=CONICAL_SURFACE('',#751,0.187641533150917,0.523598775598299);
#13=B_SPLINE_CURVE_WITH_KNOTS('',3,(#1100,#1101,#1102,#1103),.UNSPECIFIED.,.F.,.F.,(4,4),(0.00119192327236456,0.0799787379317532),.UNSPECIFIED.);
#14=B_SPLINE_CURVE_WITH_KNOTS('',3,(#1121,#1122,#1123,#1124),.UNSPECIFIED.,.F.,.F.,(4,4),(0.0091238029622299,0.0881937773137985),.UNSPECIFIED.);
#15=B_SPLINE_CURVE_WITH_KNOTS('',3,(#1126,#1127,#1128,#1129),.UNSPECIFIED.,.F.,.F.,(4,4),(0.00125719538303331,0.0782389300407115),.UNSPECIFIED.);
#16=LINE('',#928,#107);
#17=LINE('',#930,#108);
#18=LINE('',#932,#109);
#19=LINE('',#934,#110);
#20=LINE('',#936,#111);
#21=LINE('',#938,#112);
#22=LINE('',#940,#113);
#23=LINE('',#942,#114);
#24=LINE('',#947,#115);
#25=LINE('',#949,#116);
#26=LINE('',#951,#117);
#27=LINE('',#953,#118);
#28=LINE('',#956,#119);
#29=LINE('',#958,#120);
#30=LINE('',#960,#121);
#31=LINE('',#962,#122);
#32=LINE('',#965,#123);
#33=LINE('',#967,#124);
#34=LINE('',#969,#125);
#35=LINE('',#970,#126);
#36=LINE('',#972,#127);
#37=LINE('',#974,#128);
#38=LINE('',#976,#129);
#39=LINE('',#981,#130);
#40=LINE('',#982,#131);
#41=LINE('',#984,#132);
#42=LINE('',#986,#133);
#43=LINE('',#988,#134);
#44=LINE('',#990,#135);
#45=LINE('',#992,#136);
#46=LINE('',#994,#137);
#47=LINE('',#996,#138);
#48=LINE('',#998,#139);
#49=LINE('',#1000,#140);
#50=LINE('',#1002,#141);
#51=LINE('',#1004,#142);
#52=LINE('',#1006,#143);
#53=LINE('',#1008,#144);
#54=LINE('',#1010,#145);
#55=LINE('',#1012,#146);
#56=LINE('',#1014,#147);
#57=LINE('',#1016,#148);
#58=LINE('',#1018,#149);
#59=LINE('',#1019,#150);
#60=LINE('',#1021,#151);
#61=LINE('',#1024,#152);
#62=LINE('',#1025,#153);
#63=LINE('',#1027,#154);
#64=LINE('',#1029,#155);
#65=LINE('',#1030,#156);
#66=LINE('',#1032,#157);
#67=LINE('',#1034,#158);
#68=LINE('',#1035,#159);
#69=LINE('',#1037,#160);
#70=LINE('',#1039,#161);
#71=LINE('',#1040,#162);
#72=LINE('',#1042,#163);
#73=LINE('',#1044,#164);
#74=LINE('',#1045,#165);
#75=LINE('',#1047,#166);
#76=LINE('',#1048,#167);
#77=LINE('',#1050,#168);
#78=LINE('',#1052,#169);
#79=LINE('',#1054,#170);
#80=LINE('',#1056,#171);
#81=LINE('',#1058,#172);
#82=LINE('',#1060,#173);
#83=LINE('',#1063,#174);
#84=LINE('',#1065,#175);
#85=LINE('',#1067,#176);
#86=LINE('',#1069,#177);
#87=LINE('',#1071,#178);
#88=LINE('',#1073,#179);
#89=LINE('',#1074,#180);
#90=LINE('',#1076,#181);
#91=LINE('',#1078,#182);
#92=LINE('',#1080,#183);
#93=LINE('',#1082,#184);
#94=LINE('',#1084,#185);
#95=LINE('',#1086,#186);
#96=LINE('',#1088,#187);
#97=LINE('',#1090,#188);
#98=LINE('',#1092,#189);
#99=LINE('',#1094,#190);
#100=LINE('',#1108,#191);
#101=LINE('',#1110,#192);
#102=LINE('',#1112,#193);
#103=LINE('',#1114,#194);
#104=LINE('',#1116,#195);
#105=LINE('',#1117,#196);
#106=LINE('',#1119,#197);
#107=VECTOR('',#758,1.);
#108=VECTOR('',#759,1.);
#109=VECTOR('',#760,1.);
#110=VECTOR('',#761,1.);
#111=VECTOR('',#764,1.);
#112=VECTOR('',#765,1.);
#113=VECTOR('',#766,1.);
#114=VECTOR('',#767,1.);
#115=VECTOR('',#772,1.);
#116=VECTOR('',#773,1.);
#117=VECTOR('',#774,1.);
#118=VECTOR('',#777,1.);
#119=VECTOR('',#778,1.);
#120=VECTOR('',#779,1.);
#121=VECTOR('',#780,1.);
#122=VECTOR('',#783,1.);
#123=VECTOR('',#784,1.);
#124=VECTOR('',#785,1.);
#125=VECTOR('',#786,1.);
#126=VECTOR('',#787,1.);
#127=VECTOR('',#788,1.);
#128=VECTOR('',#789,1.);
#129=VECTOR('',#792,1.);
#130=VECTOR('',#795,1.);
#131=VECTOR('',#796,1.);
#132=VECTOR('',#797,1.);
#133=VECTOR('',#798,1.);
#134=VECTOR('',#799,1.);
#135=VECTOR('',#800,1.);
#136=VECTOR('',#801,1.);
#137=VECTOR('',#802,1.);
#138=VECTOR('',#803,1.);
#139=VECTOR('',#804,1.);
#140=VECTOR('',#805,1.);
#141=VECTOR('',#806,1.);
#142=VECTOR('',#807,1.);
#143=VECTOR('',#808,1.);
#144=VECTOR('',#809,1.);
#145=VECTOR('',#810,1.);
#146=VECTOR('',#811,1.);
#147=VECTOR('',#812,1.);
#148=VECTOR('',#813,1.);
#149=VECTOR('',#816,1.);
#150=VECTOR('',#817,1.);
#151=VECTOR('',#820,1.);
#152=VECTOR('',#821,1.);
#153=VECTOR('',#822,1.);
#154=VECTOR('',#823,1.);
#155=VECTOR('',#824,1.);
#156=VECTOR('',#825,1.);
#157=VECTOR('',#826,1.);
#158=VECTOR('',#827,1.);
#159=VECTOR('',#828,1.);
#160=VECTOR('',#829,1.);
#161=VECTOR('',#830,1.);
#162=VECTOR('',#831,1.);
#163=VECTOR('',#832,1.);
#164=VECTOR('',#833,1.);
#165=VECTOR('',#834,1.);
#166=VECTOR('',#837,1.);
#167=VECTOR('',#838,1.);
#168=VECTOR('',#841,1.);
#169=VECTOR('',#842,1.);
#170=VECTOR('',#845,1.);
#171=VECTOR('',#846,1.);
#172=VECTOR('',#849,1.);
#173=VECTOR('',#850,1.);
#174=VECTOR('',#855,1.);
#175=VECTOR('',#856,1.);
#176=VECTOR('',#859,1.);
#177=VECTOR('',#860,1.);
#178=VECTOR('',#863,1.);
#179=VECTOR('',#864,1.);
#180=VECTOR('',#865,1.);
#181=VECTOR('',#868,1.);
#182=VECTOR('',#869,1.);
#183=VECTOR('',#872,1.);
#184=VECTOR('',#873,1.);
#185=VECTOR('',#876,1.);
#186=VECTOR('',#879,1.);
#187=VECTOR('',#882,1.);
#188=VECTOR('',#885,1.);
#189=VECTOR('',#888,1.);
#190=VECTOR('',#891,1.);
#191=VECTOR('',#906,1.);
#192=VECTOR('',#907,1.);
#193=VECTOR('',#908,1.);
#194=VECTOR('',#909,1.);
#195=VECTOR('',#912,1.);
#196=VECTOR('',#913,1.);
#197=VECTOR('',#916,1.);
#198=ORIENTED_EDGE('',*,*,#394,.F.);
#199=ORIENTED_EDGE('',*,*,#395,.F.);
#200=ORIENTED_EDGE('',*,*,#396,.F.);
#201=ORIENTED_EDGE('',*,*,#397,.F.);
#202=ORIENTED_EDGE('',*,*,#398,.T.);
#203=ORIENTED_EDGE('',*,*,#399,.F.);
#204=ORIENTED_EDGE('',*,*,#397,.T.);
#205=ORIENTED_EDGE('',*,*,#400,.F.);
#206=ORIENTED_EDGE('',*,*,#401,.F.);
#207=ORIENTED_EDGE('',*,*,#402,.T.);
#208=ORIENTED_EDGE('',*,*,#403,.F.);
#209=ORIENTED_EDGE('',*,*,#404,.F.);
#210=ORIENTED_EDGE('',*,*,#405,.F.);
#211=ORIENTED_EDGE('',*,*,#406,.T.);
#212=ORIENTED_EDGE('',*,*,#407,.F.);
#213=ORIENTED_EDGE('',*,*,#408,.T.);
#214=ORIENTED_EDGE('',*,*,#409,.F.);
#215=ORIENTED_EDGE('',*,*,#410,.T.);
#216=ORIENTED_EDGE('',*,*,#411,.T.);
#217=ORIENTED_EDGE('',*,*,#412,.T.);
#218=ORIENTED_EDGE('',*,*,#413,.T.);
#219=ORIENTED_EDGE('',*,*,#414,.T.);
#220=ORIENTED_EDGE('',*,*,#401,.T.);
#221=ORIENTED_EDGE('',*,*,#415,.F.);
#222=ORIENTED_EDGE('',*,*,#416,.F.);
#223=ORIENTED_EDGE('',*,*,#417,.F.);
#224=ORIENTED_EDGE('',*,*,#418,.T.);
#225=ORIENTED_EDGE('',*,*,#419,.T.);
#226=ORIENTED_EDGE('',*,*,#420,.F.);
#227=ORIENTED_EDGE('',*,*,#407,.T.);
#228=ORIENTED_EDGE('',*,*,#421,.T.);
#229=ORIENTED_EDGE('',*,*,#422,.T.);
#230=ORIENTED_EDGE('',*,*,#423,.T.);
#231=ORIENTED_EDGE('',*,*,#424,.T.);
#232=ORIENTED_EDGE('',*,*,#425,.T.);
#233=ORIENTED_EDGE('',*,*,#426,.T.);
#234=ORIENTED_EDGE('',*,*,#427,.T.);
#235=ORIENTED_EDGE('',*,*,#428,.T.);
#236=ORIENTED_EDGE('',*,*,#429,.T.);
#237=ORIENTED_EDGE('',*,*,#430,.T.);
#238=ORIENTED_EDGE('',*,*,#431,.T.);
#239=ORIENTED_EDGE('',*,*,#432,.T.);
#240=ORIENTED_EDGE('',*,*,#433,.T.);
#241=ORIENTED_EDGE('',*,*,#434,.T.);
#242=ORIENTED_EDGE('',*,*,#435,.T.);
#243=ORIENTED_EDGE('',*,*,#436,.T.);
#244=ORIENTED_EDGE('',*,*,#437,.T.);
#245=ORIENTED_EDGE('',*,*,#438,.F.);
#246=ORIENTED_EDGE('',*,*,#405,.T.);
#247=ORIENTED_EDGE('',*,*,#439,.T.);
#248=ORIENTED_EDGE('',*,*,#411,.F.);
#249=ORIENTED_EDGE('',*,*,#440,.F.);
#250=ORIENTED_EDGE('',*,*,#441,.T.);
#251=ORIENTED_EDGE('',*,*,#442,.T.);
#252=ORIENTED_EDGE('',*,*,#416,.T.);
#253=ORIENTED_EDGE('',*,*,#443,.T.);
#254=ORIENTED_EDGE('',*,*,#444,.T.);
#255=ORIENTED_EDGE('',*,*,#445,.T.);
#256=ORIENTED_EDGE('',*,*,#434,.F.);
#257=ORIENTED_EDGE('',*,*,#446,.F.);
#258=ORIENTED_EDGE('',*,*,#447,.T.);
#259=ORIENTED_EDGE('',*,*,#448,.T.);
#260=ORIENTED_EDGE('',*,*,#430,.F.);
#261=ORIENTED_EDGE('',*,*,#449,.F.);
#262=ORIENTED_EDGE('',*,*,#450,.T.);
#263=ORIENTED_EDGE('',*,*,#451,.T.);
#264=ORIENTED_EDGE('',*,*,#426,.F.);
#265=ORIENTED_EDGE('',*,*,#452,.F.);
#266=ORIENTED_EDGE('',*,*,#453,.T.);
#267=ORIENTED_EDGE('',*,*,#454,.T.);
#268=ORIENTED_EDGE('',*,*,#422,.F.);
#269=ORIENTED_EDGE('',*,*,#455,.F.);
#270=ORIENTED_EDGE('',*,*,#456,.F.);
#271=ORIENTED_EDGE('',*,*,#441,.F.);
#272=ORIENTED_EDGE('',*,*,#457,.T.);
#273=ORIENTED_EDGE('',*,*,#409,.T.);
#274=ORIENTED_EDGE('',*,*,#458,.F.);
#275=ORIENTED_EDGE('',*,*,#459,.T.);
#276=ORIENTED_EDGE('',*,*,#427,.F.);
#277=ORIENTED_EDGE('',*,*,#451,.F.);
#278=ORIENTED_EDGE('',*,*,#460,.F.);
#279=ORIENTED_EDGE('',*,*,#452,.T.);
#280=ORIENTED_EDGE('',*,*,#425,.F.);
#281=ORIENTED_EDGE('',*,*,#461,.F.);
#282=ORIENTED_EDGE('',*,*,#462,.F.);
#283=ORIENTED_EDGE('',*,*,#463,.T.);
#284=ORIENTED_EDGE('',*,*,#423,.F.);
#285=ORIENTED_EDGE('',*,*,#454,.F.);
#286=ORIENTED_EDGE('',*,*,#457,.F.);
#287=ORIENTED_EDGE('',*,*,#455,.T.);
#288=ORIENTED_EDGE('',*,*,#421,.F.);
#289=ORIENTED_EDGE('',*,*,#410,.F.);
#290=ORIENTED_EDGE('',*,*,#464,.F.);
#291=ORIENTED_EDGE('',*,*,#465,.T.);
#292=ORIENTED_EDGE('',*,*,#435,.F.);
#293=ORIENTED_EDGE('',*,*,#445,.F.);
#294=ORIENTED_EDGE('',*,*,#466,.F.);
#295=ORIENTED_EDGE('',*,*,#446,.T.);
#296=ORIENTED_EDGE('',*,*,#433,.F.);
#297=ORIENTED_EDGE('',*,*,#467,.F.);
#298=ORIENTED_EDGE('',*,*,#468,.F.);
#299=ORIENTED_EDGE('',*,*,#469,.T.);
#300=ORIENTED_EDGE('',*,*,#437,.F.);
#301=ORIENTED_EDGE('',*,*,#470,.F.);
#302=ORIENTED_EDGE('',*,*,#471,.F.);
#303=ORIENTED_EDGE('',*,*,#472,.T.);
#304=ORIENTED_EDGE('',*,*,#431,.F.);
#305=ORIENTED_EDGE('',*,*,#448,.F.);
#306=ORIENTED_EDGE('',*,*,#473,.F.);
#307=ORIENTED_EDGE('',*,*,#449,.T.);
#308=ORIENTED_EDGE('',*,*,#429,.F.);
#309=ORIENTED_EDGE('',*,*,#474,.F.);
#310=ORIENTED_EDGE('',*,*,#475,.F.);
#311=ORIENTED_EDGE('',*,*,#474,.T.);
#312=ORIENTED_EDGE('',*,*,#428,.F.);
#313=ORIENTED_EDGE('',*,*,#459,.F.);
#314=ORIENTED_EDGE('',*,*,#476,.F.);
#315=ORIENTED_EDGE('',*,*,#470,.T.);
#316=ORIENTED_EDGE('',*,*,#436,.F.);
#317=ORIENTED_EDGE('',*,*,#465,.F.);
#318=ORIENTED_EDGE('',*,*,#477,.F.);
#319=ORIENTED_EDGE('',*,*,#467,.T.);
#320=ORIENTED_EDGE('',*,*,#432,.F.);
#321=ORIENTED_EDGE('',*,*,#472,.F.);
#322=ORIENTED_EDGE('',*,*,#478,.F.);
#323=ORIENTED_EDGE('',*,*,#461,.T.);
#324=ORIENTED_EDGE('',*,*,#424,.F.);
#325=ORIENTED_EDGE('',*,*,#463,.F.);
#326=ORIENTED_EDGE('',*,*,#438,.T.);
#327=ORIENTED_EDGE('',*,*,#469,.F.);
#328=ORIENTED_EDGE('',*,*,#443,.F.);
#329=ORIENTED_EDGE('',*,*,#415,.T.);
#330=ORIENTED_EDGE('',*,*,#400,.T.);
#331=ORIENTED_EDGE('',*,*,#396,.T.);
#332=ORIENTED_EDGE('',*,*,#479,.F.);
#333=ORIENTED_EDGE('',*,*,#480,.F.);
#334=ORIENTED_EDGE('',*,*,#418,.F.);
#335=ORIENTED_EDGE('',*,*,#479,.T.);
#336=ORIENTED_EDGE('',*,*,#395,.T.);
#337=ORIENTED_EDGE('',*,*,#450,.F.);
#338=ORIENTED_EDGE('',*,*,#473,.T.);
#339=ORIENTED_EDGE('',*,*,#475,.T.);
#340=ORIENTED_EDGE('',*,*,#458,.T.);
#341=ORIENTED_EDGE('',*,*,#477,.T.);
#342=ORIENTED_EDGE('',*,*,#471,.T.);
#343=ORIENTED_EDGE('',*,*,#447,.F.);
#344=ORIENTED_EDGE('',*,*,#466,.T.);
#345=ORIENTED_EDGE('',*,*,#444,.F.);
#346=ORIENTED_EDGE('',*,*,#468,.T.);
#347=ORIENTED_EDGE('',*,*,#476,.T.);
#348=ORIENTED_EDGE('',*,*,#464,.T.);
#349=ORIENTED_EDGE('',*,*,#478,.T.);
#350=ORIENTED_EDGE('',*,*,#462,.T.);
#351=ORIENTED_EDGE('',*,*,#453,.F.);
#352=ORIENTED_EDGE('',*,*,#460,.T.);
#353=ORIENTED_EDGE('',*,*,#481,.F.);
#354=ORIENTED_EDGE('',*,*,#406,.F.);
#355=ORIENTED_EDGE('',*,*,#440,.T.);
#356=ORIENTED_EDGE('',*,*,#417,.T.);
#357=ORIENTED_EDGE('',*,*,#442,.F.);
#358=ORIENTED_EDGE('',*,*,#456,.T.);
#359=ORIENTED_EDGE('',*,*,#408,.F.);
#360=ORIENTED_EDGE('',*,*,#420,.T.);
#361=ORIENTED_EDGE('',*,*,#482,.F.);
#362=ORIENTED_EDGE('',*,*,#483,.F.);
#363=ORIENTED_EDGE('',*,*,#484,.T.);
#364=ORIENTED_EDGE('',*,*,#485,.F.);
#365=ORIENTED_EDGE('',*,*,#486,.T.);
#366=ORIENTED_EDGE('',*,*,#487,.F.);
#367=ORIENTED_EDGE('',*,*,#413,.F.);
#368=ORIENTED_EDGE('',*,*,#488,.F.);
#369=ORIENTED_EDGE('',*,*,#485,.T.);
#370=ORIENTED_EDGE('',*,*,#484,.F.);
#371=ORIENTED_EDGE('',*,*,#489,.T.);
#372=ORIENTED_EDGE('',*,*,#402,.F.);
#373=ORIENTED_EDGE('',*,*,#414,.F.);
#374=ORIENTED_EDGE('',*,*,#487,.T.);
#375=ORIENTED_EDGE('',*,*,#483,.T.);
#376=ORIENTED_EDGE('',*,*,#490,.T.);
#377=ORIENTED_EDGE('',*,*,#398,.F.);
#378=ORIENTED_EDGE('',*,*,#399,.T.);
#379=ORIENTED_EDGE('',*,*,#489,.F.);
#380=ORIENTED_EDGE('',*,*,#404,.T.);
#381=ORIENTED_EDGE('',*,*,#491,.T.);
#382=ORIENTED_EDGE('',*,*,#486,.F.);
#383=ORIENTED_EDGE('',*,*,#488,.T.);
#384=ORIENTED_EDGE('',*,*,#412,.F.);
#385=ORIENTED_EDGE('',*,*,#439,.F.);
#386=ORIENTED_EDGE('',*,*,#480,.T.);
#387=ORIENTED_EDGE('',*,*,#394,.T.);
#388=ORIENTED_EDGE('',*,*,#490,.F.);
#389=ORIENTED_EDGE('',*,*,#482,.T.);
#390=ORIENTED_EDGE('',*,*,#491,.F.);
#391=ORIENTED_EDGE('',*,*,#403,.T.);
#392=ORIENTED_EDGE('',*,*,#481,.T.);
#393=ORIENTED_EDGE('',*,*,#419,.F.);
#394=EDGE_CURVE('',#492,#493,#557,.T.);
#395=EDGE_CURVE('',#494,#492,#16,.T.);
#396=EDGE_CURVE('',#495,#494,#17,.T.);
#397=EDGE_CURVE('',#496,#495,#18,.T.);
#398=EDGE_CURVE('',#496,#493,#19,.T.);
#399=EDGE_CURVE('',#496,#497,#20,.T.);
#400=EDGE_CURVE('',#498,#495,#21,.T.);
#401=EDGE_CURVE('',#499,#498,#22,.T.);
#402=EDGE_CURVE('',#499,#497,#23,.T.);
#403=EDGE_CURVE('',#500,#501,#558,.T.);
#404=EDGE_CURVE('',#502,#500,#24,.T.);
#405=EDGE_CURVE('',#503,#502,#25,.T.);
#406=EDGE_CURVE('',#503,#501,#26,.T.);
#407=EDGE_CURVE('',#504,#505,#27,.T.);
#408=EDGE_CURVE('',#504,#506,#28,.T.);
#409=EDGE_CURVE('',#507,#506,#29,.T.);
#410=EDGE_CURVE('',#507,#505,#30,.T.);
#411=EDGE_CURVE('',#508,#509,#31,.T.);
#412=EDGE_CURVE('',#509,#510,#32,.T.);
#413=EDGE_CURVE('',#510,#511,#33,.T.);
#414=EDGE_CURVE('',#511,#499,#34,.T.);
#415=EDGE_CURVE('',#512,#498,#35,.T.);
#416=EDGE_CURVE('',#513,#512,#36,.T.);
#417=EDGE_CURVE('',#508,#513,#37,.T.);
#418=EDGE_CURVE('',#514,#515,#38,.T.);
#419=EDGE_CURVE('',#515,#516,#559,.T.);
#420=EDGE_CURVE('',#504,#516,#39,.T.);
#421=EDGE_CURVE('',#505,#517,#40,.T.);
#422=EDGE_CURVE('',#517,#518,#41,.T.);
#423=EDGE_CURVE('',#518,#519,#42,.T.);
#424=EDGE_CURVE('',#519,#520,#43,.T.);
#425=EDGE_CURVE('',#520,#521,#44,.T.);
#426=EDGE_CURVE('',#521,#522,#45,.T.);
#427=EDGE_CURVE('',#522,#523,#46,.T.);
#428=EDGE_CURVE('',#523,#524,#47,.T.);
#429=EDGE_CURVE('',#524,#525,#48,.T.);
#430=EDGE_CURVE('',#525,#526,#49,.T.);
#431=EDGE_CURVE('',#526,#527,#50,.T.);
#432=EDGE_CURVE('',#527,#528,#51,.T.);
#433=EDGE_CURVE('',#528,#529,#52,.T.);
#434=EDGE_CURVE('',#529,#530,#53,.T.);
#435=EDGE_CURVE('',#530,#531,#54,.T.);
#436=EDGE_CURVE('',#531,#532,#55,.T.);
#437=EDGE_CURVE('',#532,#533,#56,.T.);
#438=EDGE_CURVE('',#514,#533,#57,.T.);
#439=EDGE_CURVE('',#502,#509,#58,.T.);
#440=EDGE_CURVE('',#503,#508,#59,.T.);
#441=EDGE_CURVE('',#534,#535,#60,.T.);
#442=EDGE_CURVE('',#535,#513,#61,.T.);
#443=EDGE_CURVE('',#512,#536,#62,.T.);
#444=EDGE_CURVE('',#536,#537,#63,.T.);
#445=EDGE_CURVE('',#537,#530,#64,.T.);
#446=EDGE_CURVE('',#538,#529,#65,.T.);
#447=EDGE_CURVE('',#538,#539,#66,.T.);
#448=EDGE_CURVE('',#539,#526,#67,.T.);
#449=EDGE_CURVE('',#540,#525,#68,.T.);
#450=EDGE_CURVE('',#540,#541,#69,.T.);
#451=EDGE_CURVE('',#541,#522,#70,.T.);
#452=EDGE_CURVE('',#542,#521,#71,.T.);
#453=EDGE_CURVE('',#542,#543,#72,.T.);
#454=EDGE_CURVE('',#543,#518,#73,.T.);
#455=EDGE_CURVE('',#534,#517,#74,.T.);
#456=EDGE_CURVE('',#535,#506,#75,.T.);
#457=EDGE_CURVE('',#534,#507,#76,.T.);
#458=EDGE_CURVE('',#544,#541,#77,.T.);
#459=EDGE_CURVE('',#544,#523,#78,.T.);
#460=EDGE_CURVE('',#542,#545,#79,.T.);
#461=EDGE_CURVE('',#545,#520,#80,.T.);
#462=EDGE_CURVE('',#546,#543,#81,.T.);
#463=EDGE_CURVE('',#546,#519,#82,.T.);
#464=EDGE_CURVE('',#547,#537,#83,.T.);
#465=EDGE_CURVE('',#547,#531,#84,.T.);
#466=EDGE_CURVE('',#538,#548,#85,.T.);
#467=EDGE_CURVE('',#548,#528,#86,.T.);
#468=EDGE_CURVE('',#536,#549,#87,.T.);
#469=EDGE_CURVE('',#536,#533,#88,.T.);
#470=EDGE_CURVE('',#549,#532,#89,.T.);
#471=EDGE_CURVE('',#550,#539,#90,.T.);
#472=EDGE_CURVE('',#550,#527,#91,.T.);
#473=EDGE_CURVE('',#540,#551,#92,.T.);
#474=EDGE_CURVE('',#551,#524,#93,.T.);
#475=EDGE_CURVE('',#551,#544,#94,.T.);
#476=EDGE_CURVE('',#549,#547,#95,.T.);
#477=EDGE_CURVE('',#548,#550,#96,.T.);
#478=EDGE_CURVE('',#545,#546,#97,.T.);
#479=EDGE_CURVE('',#514,#494,#98,.T.);
#480=EDGE_CURVE('',#515,#492,#99,.T.);
#481=EDGE_CURVE('',#501,#516,#13,.T.);
#482=EDGE_CURVE('',#552,#553,#560,.T.);
#483=EDGE_CURVE('',#554,#552,#100,.T.);
#484=EDGE_CURVE('',#554,#555,#101,.T.);
#485=EDGE_CURVE('',#556,#555,#102,.T.);
#486=EDGE_CURVE('',#556,#553,#103,.T.);
#487=EDGE_CURVE('',#511,#555,#104,.T.);
#488=EDGE_CURVE('',#556,#510,#105,.T.);
#489=EDGE_CURVE('',#554,#497,#106,.T.);
#490=EDGE_CURVE('',#552,#493,#14,.T.);
#491=EDGE_CURVE('',#500,#553,#15,.T.);
#492=VERTEX_POINT('',#926);
#493=VERTEX_POINT('',#927);
#494=VERTEX_POINT('',#929);
#495=VERTEX_POINT('',#931);
#496=VERTEX_POINT('',#933);
#497=VERTEX_POINT('',#937);
#498=VERTEX_POINT('',#939);
#499=VERTEX_POINT('',#941);
#500=VERTEX_POINT('',#945);
#501=VERTEX_POINT('',#946);
#502=VERTEX_POINT('',#948);
#503=VERTEX_POINT('',#950);
#504=VERTEX_POINT('',#954);
#505=VERTEX_POINT('',#955);
#506=VERTEX_POINT('',#957);
#507=VERTEX_POINT('',#959);
#508=VERTEX_POINT('',#963);
#509=VERTEX_POINT('',#964);
#510=VERTEX_POINT('',#966);
#511=VERTEX_POINT('',#968);
#512=VERTEX_POINT('',#971);
#513=VERTEX_POINT('',#973);
#514=VERTEX_POINT('',#977);
#515=VERTEX_POINT('',#978);
#516=VERTEX_POINT('',#980);
#517=VERTEX_POINT('',#983);
#518=VERTEX_POINT('',#985);
#519=VERTEX_POINT('',#987);
#520=VERTEX_POINT('',#989);
#521=VERTEX_POINT('',#991);
#522=VERTEX_POINT('',#993);
#523=VERTEX_POINT('',#995);
#524=VERTEX_POINT('',#997);
#525=VERTEX_POINT('',#999);
#526=VERTEX_POINT('',#1001);
#527=VERTEX_POINT('',#1003);
#528=VERTEX_POINT('',#1005);
#529=VERTEX_POINT('',#1007);
#530=VERTEX_POINT('',#1009);
#531=VERTEX_POINT('',#1011);
#532=VERTEX_POINT('',#1013);
#533=VERTEX_POINT('',#1015);
#534=VERTEX_POINT('',#1022);
#535=VERTEX_POINT('',#1023);
#536=VERTEX_POINT('',#1026);
#537=VERTEX_POINT('',#1028);
#538=VERTEX_POINT('',#1031);
#539=VERTEX_POINT('',#1033);
#540=VERTEX_POINT('',#1036);
#541=VERTEX_POINT('',#1038);
#542=VERTEX_POINT('',#1041);
#543=VERTEX_POINT('',#1043);
#544=VERTEX_POINT('',#1051);
#545=VERTEX_POINT('',#1055);
#546=VERTEX_POINT('',#1059);
#547=VERTEX_POINT('',#1064);
#548=VERTEX_POINT('',#1068);
#549=VERTEX_POINT('',#1072);
#550=VERTEX_POINT('',#1077);
#551=VERTEX_POINT('',#1081);
#552=VERTEX_POINT('',#1106);
#553=VERTEX_POINT('',#1107);
#554=VERTEX_POINT('',#1109);
#555=VERTEX_POINT('',#1111);
#556=VERTEX_POINT('',#1113);
#557=ELLIPSE('',#714,0.406962057935412,0.332283128871575);
#558=ELLIPSE('',#717,0.406962057935412,0.332283128871575);
#559=ELLIPSE('',#721,0.338923582162477,0.276729946031441);
#560=ELLIPSE('',#746,0.340482427889289,0.278002738237577);
#561=EDGE_LOOP('',(#198,#199,#200,#201,#202));
#562=EDGE_LOOP('',(#203,#204,#205,#206,#207));
#563=EDGE_LOOP('',(#208,#209,#210,#211));
#564=EDGE_LOOP('',(#212,#213,#214,#215));
#565=EDGE_LOOP('',(#216,#217,#218,#219,#220,#221,#222,#223));
#566=EDGE_LOOP('',(#224,#225,#226,#227,#228,#229,#230,#231,#232,#233,#234,#235,#236,#237,#238,#239,#240,#241,#242,#243,#244,#245));
#567=EDGE_LOOP('',(#246,#247,#248,#249));
#568=EDGE_LOOP('',(#250,#251,#252,#253,#254,#255,#256,#257,#258,#259,#260,#261,#262,#263,#264,#265,#266,#267,#268,#269));
#569=EDGE_LOOP('',(#270,#271,#272,#273));
#570=EDGE_LOOP('',(#274,#275,#276,#277));
#571=EDGE_LOOP('',(#278,#279,#280,#281));
#572=EDGE_LOOP('',(#282,#283,#284,#285));
#573=EDGE_LOOP('',(#286,#287,#288,#289));
#574=EDGE_LOOP('',(#290,#291,#292,#293));
#575=EDGE_LOOP('',(#294,#295,#296,#297));
#576=EDGE_LOOP('',(#298,#299,#300,#301));
#577=EDGE_LOOP('',(#302,#303,#304,#305));
#578=EDGE_LOOP('',(#306,#307,#308,#309));
#579=EDGE_LOOP('',(#310,#311,#312,#313));
#580=EDGE_LOOP('',(#314,#315,#316,#317));
#581=EDGE_LOOP('',(#318,#319,#320,#321));
#582=EDGE_LOOP('',(#322,#323,#324,#325));
#583=EDGE_LOOP('',(#326,#327,#328,#329,#330,#331,#332));
#584=EDGE_LOOP('',(#333,#334,#335,#336));
#585=EDGE_LOOP('',(#337,#338,#339,#340));
#586=EDGE_LOOP('',(#341,#342,#343,#344));
#587=EDGE_LOOP('',(#345,#346,#347,#348));
#588=EDGE_LOOP('',(#349,#350,#351,#352));
#589=EDGE_LOOP('',(#353,#354,#355,#356,#357,#358,#359,#360));
#590=EDGE_LOOP('',(#361,#362,#363,#364,#365));
#591=EDGE_LOOP('',(#366,#367,#368,#369));
#592=EDGE_LOOP('',(#370,#371,#372,#373,#374));
#593=EDGE_LOOP('',(#375,#376,#377,#378,#379));
#594=EDGE_LOOP('',(#380,#381,#382,#383,#384,#385));
#595=EDGE_LOOP('',(#386,#387,#388,#389,#390,#391,#392,#393));
#596=FACE_BOUND('',#561,.T.);
#597=FACE_BOUND('',#562,.T.);
#598=FACE_BOUND('',#563,.T.);
#599=FACE_BOUND('',#564,.T.);
#600=FACE_BOUND('',#565,.T.);
#601=FACE_BOUND('',#566,.T.);
#602=FACE_BOUND('',#567,.T.);
#603=FACE_BOUND('',#568,.T.);
#604=FACE_BOUND('',#569,.T.);
#605=FACE_BOUND('',#570,.T.);
#606=FACE_BOUND('',#571,.T.);
#607=FACE_BOUND('',#572,.T.);
#608=FACE_BOUND('',#573,.T.);
#609=FACE_BOUND('',#574,.T.);
#610=FACE_BOUND('',#575,.T.);
#611=FACE_BOUND('',#576,.T.);
#612=FACE_BOUND('',#577,.T.);
#613=FACE_BOUND('',#578,.T.);
#614=FACE_BOUND('',#579,.T.);
#615=FACE_BOUND('',#580,.T.);
#616=FACE_BOUND('',#581,.T.);
#617=FACE_BOUND('',#582,.T.);
#618=FACE_BOUND('',#583,.T.);
#619=FACE_BOUND('',#584,.T.);
#620=FACE_BOUND('',#585,.T.);
#621=FACE_BOUND('',#586,.T.);
#622=FACE_BOUND('',#587,.T.);
#623=FACE_BOUND('',#588,.T.);
#624=FACE_BOUND('',#589,.T.);
#625=FACE_BOUND('',#590,.T.);
#626=FACE_BOUND('',#591,.T.);
#627=FACE_BOUND('',#592,.T.);
#628=FACE_BOUND('',#593,.T.);
#629=FACE_BOUND('',#594,.T.);
#630=FACE_BOUND('',#595,.T.);
#631=PLANE('',#713);
#632=PLANE('',#715);
#633=PLANE('',#716);
#634=PLANE('',#718);
#635=PLANE('',#719);
#636=PLANE('',#720);
#637=PLANE('',#722);
#638=PLANE('',#723);
#639=PLANE('',#724);
#640=PLANE('',#725);
#641=PLANE('',#726);
#642=PLANE('',#727);
#643=PLANE('',#728);
#644=PLANE('',#729);
#645=PLANE('',#730);
#646=PLANE('',#731);
#647=PLANE('',#732);
#648=PLANE('',#733);
#649=PLANE('',#734);
#650=PLANE('',#735);
#651=PLANE('',#736);
#652=PLANE('',#737);
#653=PLANE('',#738);
#654=PLANE('',#739);
#655=PLANE('',#740);
#656=PLANE('',#741);
#657=PLANE('',#742);
#658=PLANE('',#743);
#659=PLANE('',#744);
#660=PLANE('',#745);
#661=PLANE('',#747);
#662=PLANE('',#748);
#663=PLANE('',#749);
#664=PLANE('',#750);
#665=ADVANCED_FACE('',(#596),#631,.T.);
#666=ADVANCED_FACE('',(#597),#632,.F.);
#667=ADVANCED_FACE('',(#598),#633,.T.);
#668=ADVANCED_FACE('',(#599),#634,.T.);
#669=ADVANCED_FACE('',(#600),#635,.F.);
#670=ADVANCED_FACE('',(#601),#636,.F.);
#671=ADVANCED_FACE('',(#602),#637,.F.);
#672=ADVANCED_FACE('',(#603),#638,.T.);
#673=ADVANCED_FACE('',(#604),#639,.F.);
#674=ADVANCED_FACE('',(#605),#640,.F.);
#675=ADVANCED_FACE('',(#606),#641,.F.);
#676=ADVANCED_FACE('',(#607),#642,.F.);
#677=ADVANCED_FACE('',(#608),#643,.F.);
#678=ADVANCED_FACE('',(#609),#644,.F.);
#679=ADVANCED_FACE('',(#610),#645,.F.);
#680=ADVANCED_FACE('',(#611),#646,.F.);
#681=ADVANCED_FACE('',(#612),#647,.F.);
#682=ADVANCED_FACE('',(#613),#648,.F.);
#683=ADVANCED_FACE('',(#614),#649,.T.);
#684=ADVANCED_FACE('',(#615),#650,.T.);
#685=ADVANCED_FACE('',(#616),#651,.T.);
#686=ADVANCED_FACE('',(#617),#652,.T.);
#687=ADVANCED_FACE('',(#618),#653,.F.);
#688=ADVANCED_FACE('',(#619),#654,.T.);
#689=ADVANCED_FACE('',(#620),#655,.F.);
#690=ADVANCED_FACE('',(#621),#656,.F.);
#691=ADVANCED_FACE('',(#622),#657,.F.);
#692=ADVANCED_FACE('',(#623),#658,.F.);
#693=ADVANCED_FACE('',(#624),#659,.T.);
#694=ADVANCED_FACE('',(#625),#660,.T.);
#695=ADVANCED_FACE('',(#626),#661,.F.);
#696=ADVANCED_FACE('',(#627),#662,.T.);
#697=ADVANCED_FACE('',(#628),#663,.F.);
#698=ADVANCED_FACE('',(#629),#664,.F.);
#699=ADVANCED_FACE('',(#630),#12,.F.);
#700=CLOSED_SHELL('',(#665,#666,#667,#668,#669,#670,#671,#672,#673,#674,#675,#676,#677,#678,#679,#680,#681,#682,#683,#684,#685,#686,#687,#688,#689,#690,#691,#692,#693,#694,#695,#696,#697,#698,#699));
#701=STYLED_ITEM('',(#702),#709);
#702=PRESENTATION_STYLE_ASSIGNMENT((#703));
#703=SURFACE_STYLE_USAGE(.BOTH.,#704);
#704=SURFACE_SIDE_STYLE('',(#705));
#705=SURFACE_STYLE_FILL_AREA(#706);
#706=FILL_AREA_STYLE('',(#707));
#707=FILL_AREA_STYLE_COLOUR('',#708);
#708=COLOUR_RGB('',0.647058823529412,0.647058823529412,0.647058823529412);
#709=MANIFOLD_SOLID_BREP('bin_third_left',#700);
#710=SHAPE_DEFINITION_REPRESENTATION(#1137,#711);
#711=SHAPE_REPRESENTATION('bin_third_left',(#712),#1132);
#712=AXIS2_PLACEMENT_3D('',#923,#752,#753);
#713=AXIS2_PLACEMENT_3D('',#924,#754,#755);
#714=AXIS2_PLACEMENT_3D('',#925,#756,#757);
#715=AXIS2_PLACEMENT_3D('',#935,#762,#763);
#716=AXIS2_PLACEMENT_3D('',#943,#768,#769);
#717=AXIS2_PLACEMENT_3D('',#944,#770,#771);
#718=AXIS2_PLACEMENT_3D('',#952,#775,#776);
#719=AXIS2_PLACEMENT_3D('',#961,#781,#782);
#720=AXIS2_PLACEMENT_3D('',#975,#790,#791);
#721=AXIS2_PLACEMENT_3D('',#979,#793,#794);
#722=AXIS2_PLACEMENT_3D('',#1017,#814,#815);
#723=AXIS2_PLACEMENT_3D('',#1020,#818,#819);
#724=AXIS2_PLACEMENT_3D('',#1046,#835,#836);
#725=AXIS2_PLACEMENT_3D('',#1049,#839,#840);
#726=AXIS2_PLACEMENT_3D('',#1053,#843,#844);
#727=AXIS2_PLACEMENT_3D('',#1057,#847,#848);
#728=AXIS2_PLACEMENT_3D('',#1061,#851,#852);
#729=AXIS2_PLACEMENT_3D('',#1062,#853,#854);
#730=AXIS2_PLACEMENT_3D('',#1066,#857,#858);
#731=AXIS2_PLACEMENT_3D('',#1070,#861,#862);
#732=AXIS2_PLACEMENT_3D('',#1075,#866,#867);
#733=AXIS2_PLACEMENT_3D('',#1079,#870,#871);
#734=AXIS2_PLACEMENT_3D('',#1083,#874,#875);
#735=AXIS2_PLACEMENT_3D('',#1085,#877,#878);
#736=AXIS2_PLACEMENT_3D('',#1087,#880,#881);
#737=AXIS2_PLACEMENT_3D('',#1089,#883,#884);
#738=AXIS2_PLACEMENT_3D('',#1091,#886,#887);
#739=AXIS2_PLACEMENT_3D('',#1093,#889,#890);
#740=AXIS2_PLACEMENT_3D('',#1095,#892,#893);
#741=AXIS2_PLACEMENT_3D('',#1096,#894,#895);
#742=AXIS2_PLACEMENT_3D('',#1097,#896,#897);
#743=AXIS2_PLACEMENT_3D('',#1098,#898,#899);
#744=AXIS2_PLACEMENT_3D('',#1099,#900,#901);
#745=AXIS2_PLACEMENT_3D('',#1104,#902,#903);
#746=AXIS2_PLACEMENT_3D('',#1105,#904,#905);
#747=AXIS2_PLACEMENT_3D('',#1115,#910,#911);
#748=AXIS2_PLACEMENT_3D('',#1118,#914,#915);
#749=AXIS2_PLACEMENT_3D('',#1120,#917,#918);
#750=AXIS2_PLACEMENT_3D('',#1125,#919,#920);
#751=AXIS2_PLACEMENT_3D('',#1130,#921,#922);
#752=DIRECTION('',(0.,0.,1.));
#753=DIRECTION('',(1.,0.,0.));
#754=DIRECTION('',(0.5,0.,0.866025403784439));
#755=DIRECTION('',(0.866025403784439,0.,-0.5));
#756=DIRECTION('',(0.5,0.,0.866025403784439));
#757=DIRECTION('',(-0.866025403784439,0.,0.5));
#758=DIRECTION('',(-0.786919666927353,0.417544309509692,0.454328281531117));
#759=DIRECTION('',(-0.866025403784439,0.,0.5));
#760=DIRECTION('',(0.,-1.,0.));
#761=DIRECTION('',(-0.786919666927353,0.417544309509692,0.454328281531117));
#762=DIRECTION('',(0.,0.,-1.));
#763=DIRECTION('',(-1.,0.,0.));
#764=DIRECTION('',(0.883351298796863,-0.468711513528199,0.));
#765=DIRECTION('',(-1.,0.,0.));
#766=DIRECTION('',(0.,-1.,0.));
#767=DIRECTION('',(-1.,0.,0.));
#768=DIRECTION('',(0.5,0.,0.866025403784439));
#769=DIRECTION('',(0.866025403784439,0.,-0.5));
#770=DIRECTION('',(0.5,0.,0.866025403784439));
#771=DIRECTION('',(-0.866025403784439,0.,0.5));
#772=DIRECTION('',(-0.85864927349199,0.130237859993062,0.495741389190076));
#773=DIRECTION('',(0.,-1.,0.));
#774=DIRECTION('',(-0.85864927349199,0.130237859993062,0.495741389190076));
#775=DIRECTION('',(0.866025403784439,0.,-0.5));
#776=DIRECTION('',(-0.5,0.,-0.866025403784439));
#777=DIRECTION('',(0.,-1.,0.));
#778=DIRECTION('',(0.498568292051715,-0.0756216413636986,0.863545612876411));
#779=DIRECTION('',(3.55445226721631E-17,1.,6.15649191989705E-17));
#780=DIRECTION('',(-0.5,7.10890453443263E-17,-0.866025403784439));
#781=DIRECTION('',(-0.5,0.,-0.866025403784439));
#782=DIRECTION('',(-0.866025403784439,0.,0.5));
#783=DIRECTION('',(0.,-1.,0.));
#784=DIRECTION('',(0.858649273491989,-0.130237859993062,-0.495741389190076));
#785=DIRECTION('',(0.,-1.,0.));
#786=DIRECTION('',(-0.866025403784439,0.,0.5));
#787=DIRECTION('',(-0.866025403784439,0.,0.5));
#788=DIRECTION('',(0.,-1.,0.));
#789=DIRECTION('',(0.858649273491989,-0.130237859993062,-0.495741389190076));
#790=DIRECTION('',(0.5,0.,0.86602540378444));
#791=DIRECTION('',(0.86602540378444,0.,-0.5));
#792=DIRECTION('',(-0.786919666927354,0.417544309509692,0.454328281531116));
#793=DIRECTION('',(0.5,0.,0.86602540378444));
#794=DIRECTION('',(-0.86602540378444,0.,0.5));
#795=DIRECTION('',(-0.85864927349199,0.130237859993062,0.495741389190075));
#796=DIRECTION('',(-0.612372435695795,-0.707106781186548,0.353553390593273));
#797=DIRECTION('',(3.55445226721631E-17,-1.,-2.052163973299E-17));
#798=DIRECTION('',(0.612372435695795,-0.707106781186548,-0.353553390593273));
#799=DIRECTION('',(0.,-1.,0.));
#800=DIRECTION('',(-0.612372435695795,-0.707106781186548,0.353553390593273));
#801=DIRECTION('',(3.55445226721631E-17,-1.,-2.052163973299E-17));
#802=DIRECTION('',(0.612372435695795,-0.707106781186548,-0.353553390593273));
#803=DIRECTION('',(0.,-1.,0.));
#804=DIRECTION('',(-0.612372435695795,-0.707106781186548,0.353553390593273));
#805=DIRECTION('',(3.55445226721631E-17,-1.,-2.052163973299E-17));
#806=DIRECTION('',(0.612372435695795,-0.707106781186548,-0.353553390593273));
#807=DIRECTION('',(0.,-1.,0.));
#808=DIRECTION('',(-0.612372435695795,-0.707106781186548,0.353553390593273));
#809=DIRECTION('',(3.55445226721631E-17,-1.,-2.052163973299E-17));
#810=DIRECTION('',(0.612372435695795,-0.707106781186548,-0.353553390593273));
#811=DIRECTION('',(0.,-1.,0.));
#812=DIRECTION('',(-0.612372435695795,-0.707106781186548,0.353553390593273));
#813=DIRECTION('',(0.86602540378444,0.,-0.5));
#814=DIRECTION('',(0.,0.,-1.));
#815=DIRECTION('',(-1.,0.,0.));
#816=DIRECTION('',(0.988691702986182,-0.149962383437594,0.));
#817=DIRECTION('',(0.988691702986182,-0.149962383437594,0.));
#818=DIRECTION('',(0.866025403784439,0.,-0.5));
#819=DIRECTION('',(0.,1.,0.));
#820=DIRECTION('',(3.55445226721631E-17,1.,6.15649191989705E-17));
#821=DIRECTION('',(0.498568292051715,-0.0756216413636986,0.863545612876411));
#822=DIRECTION('',(-0.5,0.,-0.866025403784439));
#823=DIRECTION('',(3.55445226721631E-17,1.,6.15649191989705E-17));
#824=DIRECTION('',(-0.5,7.10890453443263E-17,-0.866025403784439));
#825=DIRECTION('',(-0.5,7.10890453443263E-17,-0.866025403784439));
#826=DIRECTION('',(3.55445226721631E-17,1.,6.15649191989705E-17));
#827=DIRECTION('',(-0.5,7.10890453443263E-17,-0.866025403784439));
#828=DIRECTION('',(-0.5,7.10890453443263E-17,-0.866025403784439));
#829=DIRECTION('',(3.55445226721631E-17,1.,6.15649191989705E-17));
#830=DIRECTION('',(-0.5,7.10890453443263E-17,-0.866025403784439));
#831=DIRECTION('',(-0.5,7.10890453443263E-17,-0.866025403784439));
#832=DIRECTION('',(3.55445226721631E-17,1.,6.15649191989705E-17));
#833=DIRECTION('',(-0.5,7.10890453443263E-17,-0.866025403784439));
#834=DIRECTION('',(-0.5,7.10890453443263E-17,-0.866025403784439));
#835=DIRECTION('',(-0.5,7.10890453443263E-17,-0.866025403784439));
#836=DIRECTION('',(-0.866025403784439,0.,0.5));
#837=DIRECTION('',(0.858649273491989,-0.130237859993062,-0.495741389190076));
#838=DIRECTION('',(0.612372435695795,0.707106781186548,-0.353553390593274));
#839=DIRECTION('',(-0.612372435695795,-0.707106781186548,0.353553390593274));
#840=DIRECTION('',(0.612372435695795,-0.707106781186548,-0.353553390593274));
#841=DIRECTION('',(-0.612372435695795,0.707106781186548,0.353553390593274));
#842=DIRECTION('',(-0.5,7.10890453443263E-17,-0.866025403784439));
#843=DIRECTION('',(-0.612372435695795,0.707106781186548,0.353553390593274));
#844=DIRECTION('',(-0.612372435695795,-0.707106781186548,0.353553390593274));
#845=DIRECTION('',(0.612372435695795,0.707106781186548,-0.353553390593274));
#846=DIRECTION('',(-0.5,7.10890453443263E-17,-0.866025403784439));
#847=DIRECTION('',(-0.612372435695795,-0.707106781186548,0.353553390593274));
#848=DIRECTION('',(0.612372435695795,-0.707106781186548,-0.353553390593274));
#849=DIRECTION('',(-0.612372435695795,0.707106781186548,0.353553390593274));
#850=DIRECTION('',(-0.5,7.10890453443263E-17,-0.866025403784439));
#851=DIRECTION('',(-0.612372435695795,0.707106781186548,0.353553390593274));
#852=DIRECTION('',(-0.612372435695795,-0.707106781186548,0.353553390593274));
#853=DIRECTION('',(-0.612372435695795,-0.707106781186548,0.353553390593274));
#854=DIRECTION('',(0.612372435695795,-0.707106781186548,-0.353553390593274));
#855=DIRECTION('',(-0.612372435695795,0.707106781186548,0.353553390593274));
#856=DIRECTION('',(-0.5,7.10890453443263E-17,-0.866025403784439));
#857=DIRECTION('',(-0.612372435695795,0.707106781186548,0.353553390593274));
#858=DIRECTION('',(-0.612372435695795,-0.707106781186548,0.353553390593274));
#859=DIRECTION('',(0.612372435695795,0.707106781186548,-0.353553390593274));
#860=DIRECTION('',(-0.5,7.10890453443263E-17,-0.866025403784439));
#861=DIRECTION('',(-0.612372435695795,0.707106781186548,0.353553390593274));
#862=DIRECTION('',(-0.612372435695795,-0.707106781186548,0.353553390593274));
#863=DIRECTION('',(0.612372435695795,0.707106781186548,-0.353553390593274));
#864=DIRECTION('',(-0.5,0.,-0.866025403784439));
#865=DIRECTION('',(-0.5,7.10890453443263E-17,-0.866025403784439));
#866=DIRECTION('',(-0.612372435695795,-0.707106781186548,0.353553390593274));
#867=DIRECTION('',(0.612372435695795,-0.707106781186548,-0.353553390593274));
#868=DIRECTION('',(-0.612372435695795,0.707106781186548,0.353553390593274));
#869=DIRECTION('',(-0.5,7.10890453443263E-17,-0.866025403784439));
#870=DIRECTION('',(-0.612372435695795,0.707106781186548,0.353553390593274));
#871=DIRECTION('',(-0.612372435695795,-0.707106781186548,0.353553390593274));
#872=DIRECTION('',(0.612372435695795,0.707106781186548,-0.353553390593274));
#873=DIRECTION('',(-0.5,7.10890453443263E-17,-0.866025403784439));
#874=DIRECTION('',(0.866025403784439,0.,-0.5));
#875=DIRECTION('',(-0.5,0.,-0.866025403784439));
#876=DIRECTION('',(3.55445226721631E-17,1.,6.15649191989705E-17));
#877=DIRECTION('',(0.866025403784439,0.,-0.5));
#878=DIRECTION('',(-0.5,0.,-0.866025403784439));
#879=DIRECTION('',(3.55445226721631E-17,1.,6.15649191989705E-17));
#880=DIRECTION('',(0.866025403784439,0.,-0.5));
#881=DIRECTION('',(-0.5,0.,-0.866025403784439));
#882=DIRECTION('',(3.55445226721631E-17,1.,6.15649191989705E-17));
#883=DIRECTION('',(0.866025403784439,0.,-0.5));
#884=DIRECTION('',(-0.5,0.,-0.866025403784439));
#885=DIRECTION('',(3.55445226721631E-17,1.,6.15649191989705E-17));
#886=DIRECTION('',(0.,1.,0.));
#887=DIRECTION('',(0.,0.,1.));
#888=DIRECTION('',(0.,0.,1.));
#889=DIRECTION('',(-0.468711513528199,-0.883351298796863,0.));
#890=DIRECTION('',(0.883351298796863,-0.468711513528199,0.));
#891=DIRECTION('',(0.441675649398431,-0.234355756764099,0.866025403784439));
#892=DIRECTION('',(-0.5,7.10890453443263E-17,-0.866025403784439));
#893=DIRECTION('',(-0.866025403784439,0.,0.5));
#894=DIRECTION('',(-0.5,7.10890453443263E-17,-0.866025403784439));
#895=DIRECTION('',(-0.866025403784439,0.,0.5));
#896=DIRECTION('',(-0.5,7.10890453443263E-17,-0.866025403784439));
#897=DIRECTION('',(-0.866025403784439,0.,0.5));
#898=DIRECTION('',(-0.5,7.10890453443263E-17,-0.866025403784439));
#899=DIRECTION('',(-0.866025403784439,0.,0.5));
#900=DIRECTION('',(0.149962383437594,0.988691702986182,0.));
#901=DIRECTION('',(-0.988691702986182,0.149962383437594,0.));
#902=DIRECTION('',(0.5,0.,0.86602540378444));
#903=DIRECTION('',(0.86602540378444,0.,-0.5));
#904=DIRECTION('',(0.5,0.,0.86602540378444));
#905=DIRECTION('',(-0.86602540378444,0.,0.5));
#906=DIRECTION('',(-0.786919666927354,0.417544309509692,0.454328281531116));
#907=DIRECTION('',(0.86602540378444,0.,-0.5));
#908=DIRECTION('',(0.,-1.,0.));
#909=DIRECTION('',(-0.85864927349199,0.130237859993062,0.495741389190075));
#910=DIRECTION('',(0.866025403784439,0.,-0.5));
#911=DIRECTION('',(0.,1.,0.));
#912=DIRECTION('',(-0.5,0.,-0.866025403784439));
#913=DIRECTION('',(0.498568292051715,-0.0756216413636986,0.863545612876411));
#914=DIRECTION('',(0.,1.,0.));
#915=DIRECTION('',(0.,0.,1.));
#916=DIRECTION('',(0.,0.,1.));
#917=DIRECTION('',(-0.468711513528199,-0.883351298796863,0.));
#918=DIRECTION('',(0.883351298796863,-0.468711513528199,0.));
#919=DIRECTION('',(0.149962383437594,0.988691702986182,0.));
#920=DIRECTION('',(-0.988691702986182,0.149962383437594,0.));
#921=DIRECTION('',(0.,0.,1.));
#922=DIRECTION('',(1.,0.,0.));
#923=CARTESIAN_POINT('',(0.,0.,0.));
#924=CARTESIAN_POINT('',(0.240503968546522,0.599111929747018,0.0247112122887518));
#925=CARTESIAN_POINT('',(-0.117479826849486,0.,0.231393252926161));
#926=CARTESIAN_POINT('',(0.213786391485266,-0.113436345496147,0.0401366125971625));
#927=CARTESIAN_POINT('',(0.214433586949501,-0.111742056897207,0.039762954121668));
#928=CARTESIAN_POINT('',(0.303016760614091,-0.160782516180466,-0.0113805650392545));
#929=CARTESIAN_POINT('',(0.28827952920828,-0.152962852534937,-0.00287202051999968));
#930=CARTESIAN_POINT('',(0.240503968546522,-0.152962852534937,0.0247112122887518));
#931=CARTESIAN_POINT('',(0.288656733260263,-0.152962852534937,-0.00308979938095164));
#932=CARTESIAN_POINT('',(0.288656733260263,0.599111929747018,-0.00308979938095164));
#933=CARTESIAN_POINT('',(0.288656733260263,-0.151125304868344,-0.00308979938095164));
#934=CARTESIAN_POINT('',(0.303686293667301,-0.159100080040624,-0.0117671201277564));
#935=CARTESIAN_POINT('',(0.310471960169581,0.599111929747018,-0.00308979938095164));
#936=CARTESIAN_POINT('',(0.248158821626593,-0.129636869313426,-0.00308979938095164));
#937=CARTESIAN_POINT('',(0.28872749700106,-0.151162852534937,-0.00308979938095164));
#938=CARTESIAN_POINT('',(0.324805171029639,-0.152962852534937,-0.00308979938095164));
#939=CARTESIAN_POINT('',(0.332287187078898,-0.152962852534937,-0.00308979938095172));
#940=CARTESIAN_POINT('',(0.332287187078898,0.599111929747018,-0.00308979938095172));
#941=CARTESIAN_POINT('',(0.332287187078898,-0.151162852534937,-0.00308979938095172));
#942=CARTESIAN_POINT('',(0.324805171029639,-0.151162852534937,-0.00308979938095164));
#943=CARTESIAN_POINT('',(0.240503968546522,0.599111929747018,0.0247112122887518));
#944=CARTESIAN_POINT('',(-0.117479826849486,0.,0.231393252926161));
#945=CARTESIAN_POINT('',(0.232413127214743,-0.0398721082738377,0.0293824617096246));
#946=CARTESIAN_POINT('',(0.232636969858112,-0.0380854724415046,0.0292532260992197));
#947=CARTESIAN_POINT('',(0.168910014080776,-0.0302401085589479,0.0660460011718996));
#948=CARTESIAN_POINT('',(0.288656733260263,-0.0484030033852627,-0.00308979938095164));
#949=CARTESIAN_POINT('',(0.288656733260263,0.599111929747018,-0.00308979938095164));
#950=CARTESIAN_POINT('',(0.288656733260263,-0.0465824156382801,-0.00308979938095164));
#951=CARTESIAN_POINT('',(0.169113607939557,-0.0284504014395904,0.0659284562027271));
#952=CARTESIAN_POINT('',(0.357382009957605,0.599111929747018,-0.0755323131023886));
#953=CARTESIAN_POINT('',(0.332287187078898,0.599111929747018,-0.118997821335251));
#954=CARTESIAN_POINT('',(0.332287187078898,-0.0532001781069491,-0.118997821335251));
#955=CARTESIAN_POINT('',(0.332287187078898,-0.0585470791127607,-0.118997821335251));
#956=CARTESIAN_POINT('',(0.332644670341454,-0.0532544003098158,-0.118378642161648));
#957=CARTESIAN_POINT('',(0.333187187078898,-0.0533366879458464,-0.117438975608439));
#958=CARTESIAN_POINT('',(0.333187187078898,1.70613708826383E-19,-0.117438975608439));
#959=CARTESIAN_POINT('',(0.333187187078898,-0.0585470791127607,-0.117438975608439));
#960=CARTESIAN_POINT('',(0.334387187078898,-0.0585470791127607,-0.115360514639356));
#961=CARTESIAN_POINT('',(0.357382009957605,0.599111929747018,-0.017578302125239));
#962=CARTESIAN_POINT('',(0.332287187078898,0.599111929747018,-0.00308979938095172));
#963=CARTESIAN_POINT('',(0.332287187078898,-0.0532001781069491,-0.00308979938095168));
#964=CARTESIAN_POINT('',(0.332287187078898,-0.0550207658539317,-0.00308979938095172));
#965=CARTESIAN_POINT('',(0.283805581820729,-0.0476671923836208,0.0249010684655977));
#966=CARTESIAN_POINT('',(0.377280680413605,-0.0618452708834337,-0.0290668048695265));
#967=CARTESIAN_POINT('',(0.377280680413605,0.599111929747018,-0.0290668048695265));
#968=CARTESIAN_POINT('',(0.377280680413605,-0.151162852534937,-0.0290668048695265));
#969=CARTESIAN_POINT('',(0.383803686824771,-0.151162852534937,-0.0328328643769385));
#970=CARTESIAN_POINT('',(0.383803686824771,-0.152962852534937,-0.0328328643769385));
#971=CARTESIAN_POINT('',(0.378839526140417,-0.152962852534937,-0.0299668048695264));
#972=CARTESIAN_POINT('',(0.378839526140417,0.599111929747018,-0.0299668048695264));
#973=CARTESIAN_POINT('',(0.378839526140417,-0.0602611251131545,-0.0299668048695265));
#974=CARTESIAN_POINT('',(0.28400917567951,-0.0458774852642634,0.0247835234964252));
#975=CARTESIAN_POINT('',(0.252239592981699,0.599111929747018,-0.0727823213352507));
#976=CARTESIAN_POINT('',(0.270583285505471,-0.143573119162716,-0.0833730571517822));
#977=CARTESIAN_POINT('',(0.28827952920828,-0.152962852534937,-0.0935899882172446));
#978=CARTESIAN_POINT('',(0.178044238294264,-0.0944713439823334,-0.0299456133338404));
#979=CARTESIAN_POINT('',(-0.0978388106981088,0.,0.12933553926676));
#980=CARTESIAN_POINT('',(0.193686616891342,-0.032177576432071,-0.03897674482763));
#981=CARTESIAN_POINT('',(0.180650173884567,-0.0302002400602376,-0.0314501509483928));
#982=CARTESIAN_POINT('',(0.577038094380431,0.224066925317129,-0.260304823550195));
#983=CARTESIAN_POINT('',(0.328649880383004,-0.0627470791127607,-0.116897821335251));
#984=CARTESIAN_POINT('',(0.328649880383004,0.599111929747018,-0.116897821335251));
#985=CARTESIAN_POINT('',(0.328649880383004,-0.0669470791127607,-0.116897821335251));
#986=CARTESIAN_POINT('',(0.0020327256363244,0.310197925317129,0.0716746808796935));
#987=CARTESIAN_POINT('',(0.332287187078898,-0.0711470791127607,-0.118997821335251));
#988=CARTESIAN_POINT('',(0.332287187078898,0.599111929747018,-0.118997821335251));
#989=CARTESIAN_POINT('',(0.332287187078898,-0.0764964593136689,-0.118997821335251));
#990=CARTESIAN_POINT('',(0.584810403998517,0.215092235216675,-0.264792168600422));
#991=CARTESIAN_POINT('',(0.328649880383004,-0.0806964593136689,-0.116897821335251));
#992=CARTESIAN_POINT('',(0.328649880383004,0.599111929747018,-0.116897821335251));
#993=CARTESIAN_POINT('',(0.328649880383004,-0.0848964593136689,-0.116897821335251));
#994=CARTESIAN_POINT('',(-0.00573958398176167,0.301223235216675,0.0761620259299206));
#995=CARTESIAN_POINT('',(0.332287187078898,-0.0890964593136689,-0.118997821335251));
#996=CARTESIAN_POINT('',(0.332287187078898,0.599111929747018,-0.118997821335251));
#997=CARTESIAN_POINT('',(0.332287187078898,-0.104496459313669,-0.118997821335251));
#998=CARTESIAN_POINT('',(0.596934759651499,0.201092235216674,-0.271792168600422));
#999=CARTESIAN_POINT('',(0.328649880383004,-0.108696459313669,-0.116897821335251));
#1000=CARTESIAN_POINT('',(0.328649880383004,0.599111929747018,-0.116897821335251));
#1001=CARTESIAN_POINT('',(0.328649880383004,-0.112896459313669,-0.116897821335251));
#1002=CARTESIAN_POINT('',(-0.0178639396347438,0.287223235216675,0.0831620259299206));
#1003=CARTESIAN_POINT('',(0.332287187078898,-0.117096459313669,-0.118997821335251));
#1004=CARTESIAN_POINT('',(0.332287187078898,0.599111929747018,-0.118997821335251));
#1005=CARTESIAN_POINT('',(0.332287187078898,-0.126629655924303,-0.118997821335251));
#1006=CARTESIAN_POINT('',(0.606518714917381,0.190025636911357,-0.27732546775308));
#1007=CARTESIAN_POINT('',(0.328649880383004,-0.130829655924303,-0.116897821335251));
#1008=CARTESIAN_POINT('',(0.328649880383004,0.599111929747018,-0.116897821335251));
#1009=CARTESIAN_POINT('',(0.328649880383004,-0.135029655924303,-0.116897821335251));
#1010=CARTESIAN_POINT('',(-0.0274478949006262,0.276156636911358,0.0886953250825791));
#1011=CARTESIAN_POINT('',(0.332287187078898,-0.139229655924303,-0.118997821335251));
#1012=CARTESIAN_POINT('',(0.332287187078898,0.599111929747018,-0.118997821335251));
#1013=CARTESIAN_POINT('',(0.332287187078898,-0.148762852534937,-0.118997821335251));
#1014=CARTESIAN_POINT('',(0.616102670183264,0.178959038606041,-0.282858766905739));
#1015=CARTESIAN_POINT('',(0.328649880383004,-0.152962852534937,-0.116897821335251));
#1016=CARTESIAN_POINT('',(0.333614041067357,-0.152962852534937,-0.119763880842663));
#1017=CARTESIAN_POINT('',(0.310471960169581,0.599111929747018,-0.00308979938095164));
#1018=CARTESIAN_POINT('',(0.213976549271744,-0.0370756924018175,-0.00308979938095164));
#1019=CARTESIAN_POINT('',(0.214246481561931,-0.0352960473364425,-0.00308979938095164));
#1020=CARTESIAN_POINT('',(0.35374470326171,0.,-0.0734323131023887));
#1021=CARTESIAN_POINT('',(0.329549880383004,1.70613708826383E-19,-0.115338975608439));
#1022=CARTESIAN_POINT('',(0.329549880383004,-0.0627470791127607,-0.115338975608439));
#1023=CARTESIAN_POINT('',(0.329549880383004,-0.0527849900002053,-0.115338975608439));
#1024=CARTESIAN_POINT('',(0.351616213097065,-0.0561319583600418,-0.0771189662109657));
#1025=CARTESIAN_POINT('',(0.319841010345285,-0.152962852534937,-0.132155231797851));
#1026=CARTESIAN_POINT('',(0.329549880383004,-0.152962852534937,-0.115338975608439));
#1027=CARTESIAN_POINT('',(0.329549880383004,1.70613708826383E-19,-0.115338975608439));
#1028=CARTESIAN_POINT('',(0.329549880383004,-0.135029655924303,-0.115338975608439));
#1029=CARTESIAN_POINT('',(0.330749880383004,-0.135029655924303,-0.113260514639356));
#1030=CARTESIAN_POINT('',(0.330749880383004,-0.130829655924303,-0.113260514639356));
#1031=CARTESIAN_POINT('',(0.329549880383004,-0.130829655924303,-0.115338975608439));
#1032=CARTESIAN_POINT('',(0.329549880383004,1.70613708826383E-19,-0.115338975608439));
#1033=CARTESIAN_POINT('',(0.329549880383004,-0.112896459313669,-0.115338975608439));
#1034=CARTESIAN_POINT('',(0.330749880383004,-0.112896459313669,-0.113260514639356));
#1035=CARTESIAN_POINT('',(0.330749880383004,-0.108696459313669,-0.113260514639356));
#1036=CARTESIAN_POINT('',(0.329549880383004,-0.108696459313669,-0.115338975608439));
#1037=CARTESIAN_POINT('',(0.329549880383004,1.70613708826383E-19,-0.115338975608439));
#1038=CARTESIAN_POINT('',(0.329549880383004,-0.0848964593136689,-0.115338975608439));
#1039=CARTESIAN_POINT('',(0.330749880383004,-0.0848964593136689,-0.113260514639356));
#1040=CARTESIAN_POINT('',(0.330749880383004,-0.0806964593136689,-0.113260514639356));
#1041=CARTESIAN_POINT('',(0.329549880383004,-0.0806964593136689,-0.115338975608439));
#1042=CARTESIAN_POINT('',(0.329549880383004,1.70613708826383E-19,-0.115338975608439));
#1043=CARTESIAN_POINT('',(0.329549880383004,-0.0669470791127607,-0.115338975608439));
#1044=CARTESIAN_POINT('',(0.330749880383004,-0.0669470791127607,-0.113260514639356));
#1045=CARTESIAN_POINT('',(0.330749880383004,-0.0627470791127607,-0.113260514639356));
#1046=CARTESIAN_POINT('',(0.329549880383004,1.70613708826383E-19,-0.115338975608439));
#1047=CARTESIAN_POINT('',(0.323647006534896,-0.0518896562690533,-0.111930949803241));
#1048=CARTESIAN_POINT('',(0.331368533730951,-0.0606470791127607,-0.116388975608439));
#1049=CARTESIAN_POINT('',(0.332568533730951,-0.0869964593136689,-0.114310514639356));
#1050=CARTESIAN_POINT('',(0.331368533730951,-0.0869964593136689,-0.116388975608439));
#1051=CARTESIAN_POINT('',(0.333187187078898,-0.0890964593136689,-0.117438975608439));
#1052=CARTESIAN_POINT('',(0.334387187078898,-0.0890964593136689,-0.115360514639356));
#1053=CARTESIAN_POINT('',(0.332568533730951,-0.0785964593136689,-0.114310514639356));
#1054=CARTESIAN_POINT('',(0.331368533730951,-0.0785964593136689,-0.116388975608439));
#1055=CARTESIAN_POINT('',(0.333187187078898,-0.0764964593136689,-0.117438975608439));
#1056=CARTESIAN_POINT('',(0.334387187078898,-0.0764964593136689,-0.115360514639356));
#1057=CARTESIAN_POINT('',(0.332568533730951,-0.0690470791127607,-0.114310514639356));
#1058=CARTESIAN_POINT('',(0.331368533730951,-0.0690470791127607,-0.116388975608439));
#1059=CARTESIAN_POINT('',(0.333187187078898,-0.0711470791127607,-0.117438975608439));
#1060=CARTESIAN_POINT('',(0.334387187078898,-0.0711470791127607,-0.115360514639356));
#1061=CARTESIAN_POINT('',(0.332568533730951,-0.0606470791127607,-0.114310514639356));
#1062=CARTESIAN_POINT('',(0.332568533730951,-0.137129655924303,-0.114310514639356));
#1063=CARTESIAN_POINT('',(0.331368533730951,-0.137129655924303,-0.116388975608439));
#1064=CARTESIAN_POINT('',(0.333187187078898,-0.139229655924303,-0.117438975608439));
#1065=CARTESIAN_POINT('',(0.334387187078898,-0.139229655924303,-0.115360514639356));
#1066=CARTESIAN_POINT('',(0.332568533730951,-0.128729655924303,-0.114310514639356));
#1067=CARTESIAN_POINT('',(0.331368533730951,-0.128729655924303,-0.116388975608439));
#1068=CARTESIAN_POINT('',(0.333187187078898,-0.126629655924303,-0.117438975608439));
#1069=CARTESIAN_POINT('',(0.334387187078898,-0.126629655924303,-0.115360514639356));
#1070=CARTESIAN_POINT('',(0.332568533730951,-0.150862852534937,-0.114310514639356));
#1071=CARTESIAN_POINT('',(0.331368533730951,-0.150862852534937,-0.116388975608439));
#1072=CARTESIAN_POINT('',(0.333187187078898,-0.148762852534937,-0.117438975608439));
#1073=CARTESIAN_POINT('',(0.319841010345285,-0.152962852534937,-0.132155231797851));
#1074=CARTESIAN_POINT('',(0.334387187078898,-0.148762852534937,-0.115360514639356));
#1075=CARTESIAN_POINT('',(0.332568533730951,-0.114996459313669,-0.114310514639356));
#1076=CARTESIAN_POINT('',(0.331368533730951,-0.114996459313669,-0.116388975608439));
#1077=CARTESIAN_POINT('',(0.333187187078898,-0.117096459313669,-0.117438975608439));
#1078=CARTESIAN_POINT('',(0.334387187078898,-0.117096459313669,-0.115360514639356));
#1079=CARTESIAN_POINT('',(0.332568533730951,-0.106596459313669,-0.114310514639356));
#1080=CARTESIAN_POINT('',(0.331368533730951,-0.106596459313669,-0.116388975608439));
#1081=CARTESIAN_POINT('',(0.333187187078898,-0.104496459313669,-0.117438975608439));
#1082=CARTESIAN_POINT('',(0.334387187078898,-0.104496459313669,-0.115360514639356));
#1083=CARTESIAN_POINT('',(0.357382009957605,0.599111929747018,-0.0755323131023886));
#1084=CARTESIAN_POINT('',(0.333187187078898,1.70613708826383E-19,-0.117438975608439));
#1085=CARTESIAN_POINT('',(0.357382009957605,0.599111929747018,-0.0755323131023886));
#1086=CARTESIAN_POINT('',(0.333187187078898,1.70613708826383E-19,-0.117438975608439));
#1087=CARTESIAN_POINT('',(0.357382009957605,0.599111929747018,-0.0755323131023886));
#1088=CARTESIAN_POINT('',(0.333187187078898,1.70613708826383E-19,-0.117438975608439));
#1089=CARTESIAN_POINT('',(0.357382009957605,0.599111929747018,-0.0755323131023886));
#1090=CARTESIAN_POINT('',(0.333187187078898,1.70613708826383E-19,-0.117438975608439));
#1091=CARTESIAN_POINT('',(0.324805171029639,-0.152962852534937,-0.135021291305263));
#1092=CARTESIAN_POINT('',(0.28827952920828,-0.152962852534937,-0.135021291305263));
#1093=CARTESIAN_POINT('',(0.247315140902241,-0.131226901651261,-0.135021291305263));
#1094=CARTESIAN_POINT('',(0.,0.,-0.379049833976958));
#1095=CARTESIAN_POINT('',(0.329549880383004,1.70613708826383E-19,-0.115338975608439));
#1096=CARTESIAN_POINT('',(0.329549880383004,1.70613708826383E-19,-0.115338975608439));
#1097=CARTESIAN_POINT('',(0.329549880383004,1.70613708826383E-19,-0.115338975608439));
#1098=CARTESIAN_POINT('',(0.329549880383004,1.70613708826383E-19,-0.115338975608439));
#1099=CARTESIAN_POINT('',(0.262401527369801,-0.0426000890534746,-0.0786493168897088));
#1100=CARTESIAN_POINT('',(0.232636969858112,-0.0380854724415047,0.0292532260992196));
#1101=CARTESIAN_POINT('',(0.219653653567224,-0.036116194202368,0.00650982379297374));
#1102=CARTESIAN_POINT('',(0.206670229606899,-0.0341468996321896,-0.0162335156340727));
#1103=CARTESIAN_POINT('',(0.193686616891343,-0.032177576432071,-0.03897674482763));
#1104=CARTESIAN_POINT('',(0.253139592981699,0.599111929747018,-0.0712234756084387));
#1105=CARTESIAN_POINT('',(-0.0982888106981088,0.,0.131673807856978));
#1106=CARTESIAN_POINT('',(0.179509437072207,-0.0932110928628904,-0.02871308527362));
#1107=CARTESIAN_POINT('',(0.194351124537194,-0.0340989551031438,-0.0372819375267582));
#1108=CARTESIAN_POINT('',(0.271995909633317,-0.142284971617633,-0.0821101751031753));
#1109=CARTESIAN_POINT('',(0.28872749700106,-0.151162852534937,-0.0917701615739115));
#1110=CARTESIAN_POINT('',(0.334514041067357,-0.151162852534937,-0.118205035115851));
#1111=CARTESIAN_POINT('',(0.327991034656192,-0.151162852534937,-0.114438975608439));
#1112=CARTESIAN_POINT('',(0.327991034656192,0.,-0.114438975608439));
#1113=CARTESIAN_POINT('',(0.327991034656192,-0.0543691357704846,-0.114438975608439));
#1114=CARTESIAN_POINT('',(0.181331314315628,-0.032124141552232,-0.0297649465905392));
#1115=CARTESIAN_POINT('',(0.352185857534899,0.,-0.0725323131023887));
#1116=CARTESIAN_POINT('',(0.318282164618473,-0.151162852534937,-0.131255231797851));
#1117=CARTESIAN_POINT('',(0.34999764103106,-0.0577070449826086,-0.0763224152649986));
#1118=CARTESIAN_POINT('',(0.324805171029639,-0.151162852534937,-0.135021291305263));
#1119=CARTESIAN_POINT('',(0.28872749700106,-0.151162852534937,-0.135021291305263));
#1120=CARTESIAN_POINT('',(0.248158821626593,-0.129636869313426,-0.135021291305263));
#1121=CARTESIAN_POINT('',(0.179509437072207,-0.0932110928628902,-0.0287130852736199));
#1122=CARTESIAN_POINT('',(0.1911508768939,-0.0993881108690953,-0.00588777575676484));
#1123=CARTESIAN_POINT('',(0.202792250943355,-0.105565093976156,0.0169375767496572));
#1124=CARTESIAN_POINT('',(0.214433586949501,-0.111742056897207,0.0397629541216679));
#1125=CARTESIAN_POINT('',(0.262131595079613,-0.0443797341188496,-0.0786493168897088));
#1126=CARTESIAN_POINT('',(0.232413127214744,-0.0398721082738377,0.0293824617096246));
#1127=CARTESIAN_POINT('',(0.219726141352314,-0.0379477767225335,0.00716079182355973));
#1128=CARTESIAN_POINT('',(0.207038875102462,-0.0360234026427385,-0.0150607142923466));
#1129=CARTESIAN_POINT('',(0.194351124537194,-0.0340989551031438,-0.0372819375267581));
#1130=CARTESIAN_POINT('',(0.,0.,-0.0540451649494494));
#1131=MECHANICAL_DESIGN_GEOMETRIC_PRESENTATION_REPRESENTATION('',(#701),#1132);
#1132=(
GEOMETRIC_REPRESENTATION_CONTEXT(3)
GLOBAL_UNCERTAINTY_ASSIGNED_CONTEXT((#1133))
GLOBAL_UNIT_ASSIGNED_CONTEXT((#1136,#1135,#1134))
REPRESENTATION_CONTEXT('bin_third_left','TOP_LEVEL_ASSEMBLY_PART')
);
#1133=UNCERTAINTY_MEASURE_WITH_UNIT(LENGTH_MEASURE(2.E-05),#1136,'DISTANCE_ACCURACY_VALUE','Maximum Tolerance applied to model');
#1134=(
NAMED_UNIT(*)
SI_UNIT($,.STERADIAN.)
SOLID_ANGLE_UNIT()
);
#1135=(
NAMED_UNIT(*)
PLANE_ANGLE_UNIT()
SI_UNIT($,.RADIAN.)
);
#1136=(
LENGTH_UNIT()
NAMED_UNIT(*)
SI_UNIT($,.METRE.)
);
#1137=PRODUCT_DEFINITION_SHAPE('','',#1138);
#1138=PRODUCT_DEFINITION('','',#1140,#1139);
#1139=PRODUCT_DEFINITION_CONTEXT('',#1146,'design');
#1140=PRODUCT_DEFINITION_FORMATION_WITH_SPECIFIED_SOURCE('','',#1142,.NOT_KNOWN.);
#1141=PRODUCT_RELATED_PRODUCT_CATEGORY('','',(#1142));
#1142=PRODUCT('bin_third_left','bin_third_left','bin_third_left',(#1144));
#1143=PRODUCT_CATEGORY('','');
#1144=PRODUCT_CONTEXT('',#1146,'mechanical');
#1145=APPLICATION_PROTOCOL_DEFINITION('international standard','ap242_managed_model_based_3d_engineering',2020,#1146);
#1146=APPLICATION_CONTEXT('managed model based 3d engineering');
ENDSEC;
END-ISO-10303-21;
