ISO-10303-21;
HEADER;
/*Generated by software containing ST-Developer
 * from STEP Tools, Inc. (www.steptools.com) 
 */
/*OPTION: using custom renumber hook */
/*description */
/*implementation_level */
FILE_DESCRIPTION(('STEP AP242 Edition 2','STEP AP242 Edition 2''CAx-IF Rec.Pracs.---Representation and Presentation of Product Manufa
cturing Information (PMI)---4.0---2014-10-13','STEP AP242 Edition 2''CAx-IF Rec.Pracs.---Representation and Presentation of Product Manufa
cturing Information (PMI)---4.0---2014-10-13''CAx-IF Rec.Pracs.---3D Tessellated Geometry---0.4---2014-09-14','STEP AP242 Edition 2''CAx-IF Rec.Pracs.---Representation and Presentation of Product Manufa
cturing Information (PMI)---4.0---2014-10-13''CAx-IF Rec.Pracs.---3D Tessellated Geometry---0.4---2014-09-14''2;1','STEP AP242 Edition 2''CAx-IF Rec.Pracs.---Representation and Presentation of Product Manufa
cturing Information (PMI)---4.0---2014-10-13''CAx-IF Rec.Pracs.---3D Tessellated Geometry---0.4---2014-09-14''2;1''CAx-IF Rec.Pracs.---User Defined Attributes---1.5---2016-08-15'),'2;1');
/*name */
/*time_stamp */
/*author */
/*organization */
/*preprocessor_version */
/*originating_system */
/*authorisation */
FILE_NAME('/vol/tmp/translate-10592741051740728410/0_bins - bin_third_right.step','2026-03-05T09:56:05',(''),(''),'ST-DEVELOPER v20','ONSHAPE BY PTC INC, 1.211','  ');
FILE_SCHEMA(('AP242_MANAGED_MODEL_BASED_3D_ENGINEERING_MIM_LF { 1 0 10303 442 3 1 4 }'));
ENDSEC;
DATA;
#10=SHAPE_REPRESENTATION_RELATIONSHIP('','',#716,#11);
#11=ADVANCED_BREP_SHAPE_REPRESENTATION('',(#714),#1142);
#12=CYLINDRICAL_SURFACE('',#760,0.188608478321005);
#13=ELLIPSE('',#731,0.804795584820465,0.188608478321005);
#14=ELLIPSE('',#751,2.51541051825832,0.188608478321005);
#15=ELLIPSE('',#753,0.804795584820465,0.188608478321005);
#16=ELLIPSE('',#759,2.51541051825832,0.188608478321005);
#17=LINE('',#945,#108);
#18=LINE('',#947,#109);
#19=LINE('',#949,#110);
#20=LINE('',#951,#111);
#21=LINE('',#954,#112);
#22=LINE('',#956,#113);
#23=LINE('',#958,#114);
#24=LINE('',#960,#115);
#25=LINE('',#962,#116);
#26=LINE('',#964,#117);
#27=LINE('',#966,#118);
#28=LINE('',#971,#119);
#29=LINE('',#973,#120);
#30=LINE('',#975,#121);
#31=LINE('',#977,#122);
#32=LINE('',#979,#123);
#33=LINE('',#980,#124);
#34=LINE('',#982,#125);
#35=LINE('',#984,#126);
#36=LINE('',#985,#127);
#37=LINE('',#987,#128);
#38=LINE('',#990,#129);
#39=LINE('',#992,#130);
#40=LINE('',#994,#131);
#41=LINE('',#996,#132);
#42=LINE('',#999,#133);
#43=LINE('',#1001,#134);
#44=LINE('',#1003,#135);
#45=LINE('',#1005,#136);
#46=LINE('',#1008,#137);
#47=LINE('',#1010,#138);
#48=LINE('',#1012,#139);
#49=LINE('',#1014,#140);
#50=LINE('',#1017,#141);
#51=LINE('',#1019,#142);
#52=LINE('',#1021,#143);
#53=LINE('',#1023,#144);
#54=LINE('',#1026,#145);
#55=LINE('',#1028,#146);
#56=LINE('',#1030,#147);
#57=LINE('',#1034,#148);
#58=LINE('',#1036,#149);
#59=LINE('',#1038,#150);
#60=LINE('',#1040,#151);
#61=LINE('',#1042,#152);
#62=LINE('',#1044,#153);
#63=LINE('',#1046,#154);
#64=LINE('',#1048,#155);
#65=LINE('',#1050,#156);
#66=LINE('',#1052,#157);
#67=LINE('',#1054,#158);
#68=LINE('',#1056,#159);
#69=LINE('',#1058,#160);
#70=LINE('',#1060,#161);
#71=LINE('',#1062,#162);
#72=LINE('',#1064,#163);
#73=LINE('',#1066,#164);
#74=LINE('',#1068,#165);
#75=LINE('',#1070,#166);
#76=LINE('',#1072,#167);
#77=LINE('',#1074,#168);
#78=LINE('',#1076,#169);
#79=LINE('',#1078,#170);
#80=LINE('',#1080,#171);
#81=LINE('',#1082,#172);
#82=LINE('',#1084,#173);
#83=LINE('',#1086,#174);
#84=LINE('',#1088,#175);
#85=LINE('',#1090,#176);
#86=LINE('',#1092,#177);
#87=LINE('',#1094,#178);
#88=LINE('',#1096,#179);
#89=LINE('',#1098,#180);
#90=LINE('',#1100,#181);
#91=LINE('',#1102,#182);
#92=LINE('',#1104,#183);
#93=LINE('',#1106,#184);
#94=LINE('',#1108,#185);
#95=LINE('',#1109,#186);
#96=LINE('',#1110,#187);
#97=LINE('',#1111,#188);
#98=LINE('',#1112,#189);
#99=LINE('',#1113,#190);
#100=LINE('',#1115,#191);
#101=LINE('',#1123,#192);
#102=LINE('',#1125,#193);
#103=LINE('',#1127,#194);
#104=LINE('',#1129,#195);
#105=LINE('',#1131,#196);
#106=LINE('',#1133,#197);
#107=LINE('',#1137,#198);
#108=VECTOR('',#767,1.);
#109=VECTOR('',#768,1.);
#110=VECTOR('',#769,1.);
#111=VECTOR('',#772,1.);
#112=VECTOR('',#773,1.);
#113=VECTOR('',#774,1.);
#114=VECTOR('',#775,1.);
#115=VECTOR('',#776,1.);
#116=VECTOR('',#777,1.);
#117=VECTOR('',#778,1.);
#118=VECTOR('',#779,1.);
#119=VECTOR('',#784,1.);
#120=VECTOR('',#785,1.);
#121=VECTOR('',#786,1.);
#122=VECTOR('',#787,1.);
#123=VECTOR('',#790,1.);
#124=VECTOR('',#791,1.);
#125=VECTOR('',#794,1.);
#126=VECTOR('',#795,1.);
#127=VECTOR('',#796,1.);
#128=VECTOR('',#799,1.);
#129=VECTOR('',#800,1.);
#130=VECTOR('',#801,1.);
#131=VECTOR('',#802,1.);
#132=VECTOR('',#805,1.);
#133=VECTOR('',#806,1.);
#134=VECTOR('',#807,1.);
#135=VECTOR('',#808,1.);
#136=VECTOR('',#811,1.);
#137=VECTOR('',#812,1.);
#138=VECTOR('',#813,1.);
#139=VECTOR('',#814,1.);
#140=VECTOR('',#817,1.);
#141=VECTOR('',#818,1.);
#142=VECTOR('',#819,1.);
#143=VECTOR('',#820,1.);
#144=VECTOR('',#823,1.);
#145=VECTOR('',#824,1.);
#146=VECTOR('',#825,1.);
#147=VECTOR('',#826,1.);
#148=VECTOR('',#831,1.);
#149=VECTOR('',#832,1.);
#150=VECTOR('',#835,1.);
#151=VECTOR('',#836,1.);
#152=VECTOR('',#839,1.);
#153=VECTOR('',#840,1.);
#154=VECTOR('',#841,1.);
#155=VECTOR('',#844,1.);
#156=VECTOR('',#845,1.);
#157=VECTOR('',#848,1.);
#158=VECTOR('',#849,1.);
#159=VECTOR('',#852,1.);
#160=VECTOR('',#853,1.);
#161=VECTOR('',#854,1.);
#162=VECTOR('',#857,1.);
#163=VECTOR('',#858,1.);
#164=VECTOR('',#861,1.);
#165=VECTOR('',#862,1.);
#166=VECTOR('',#865,1.);
#167=VECTOR('',#866,1.);
#168=VECTOR('',#867,1.);
#169=VECTOR('',#870,1.);
#170=VECTOR('',#871,1.);
#171=VECTOR('',#874,1.);
#172=VECTOR('',#875,1.);
#173=VECTOR('',#878,1.);
#174=VECTOR('',#879,1.);
#175=VECTOR('',#880,1.);
#176=VECTOR('',#883,1.);
#177=VECTOR('',#884,1.);
#178=VECTOR('',#887,1.);
#179=VECTOR('',#888,1.);
#180=VECTOR('',#891,1.);
#181=VECTOR('',#892,1.);
#182=VECTOR('',#893,1.);
#183=VECTOR('',#896,1.);
#184=VECTOR('',#897,1.);
#185=VECTOR('',#900,1.);
#186=VECTOR('',#901,1.);
#187=VECTOR('',#902,1.);
#188=VECTOR('',#903,1.);
#189=VECTOR('',#904,1.);
#190=VECTOR('',#905,1.);
#191=VECTOR('',#908,1.);
#192=VECTOR('',#919,1.);
#193=VECTOR('',#920,1.);
#194=VECTOR('',#923,1.);
#195=VECTOR('',#924,1.);
#196=VECTOR('',#927,1.);
#197=VECTOR('',#928,1.);
#198=VECTOR('',#933,1.);
#199=ORIENTED_EDGE('',*,*,#397,.F.);
#200=ORIENTED_EDGE('',*,*,#398,.F.);
#201=ORIENTED_EDGE('',*,*,#399,.F.);
#202=ORIENTED_EDGE('',*,*,#400,.T.);
#203=ORIENTED_EDGE('',*,*,#401,.F.);
#204=ORIENTED_EDGE('',*,*,#402,.T.);
#205=ORIENTED_EDGE('',*,*,#403,.T.);
#206=ORIENTED_EDGE('',*,*,#404,.F.);
#207=ORIENTED_EDGE('',*,*,#405,.T.);
#208=ORIENTED_EDGE('',*,*,#406,.T.);
#209=ORIENTED_EDGE('',*,*,#407,.F.);
#210=ORIENTED_EDGE('',*,*,#408,.T.);
#211=ORIENTED_EDGE('',*,*,#409,.F.);
#212=ORIENTED_EDGE('',*,*,#410,.T.);
#213=ORIENTED_EDGE('',*,*,#411,.F.);
#214=ORIENTED_EDGE('',*,*,#412,.T.);
#215=ORIENTED_EDGE('',*,*,#413,.F.);
#216=ORIENTED_EDGE('',*,*,#414,.F.);
#217=ORIENTED_EDGE('',*,*,#399,.T.);
#218=ORIENTED_EDGE('',*,*,#415,.T.);
#219=ORIENTED_EDGE('',*,*,#402,.F.);
#220=ORIENTED_EDGE('',*,*,#416,.F.);
#221=ORIENTED_EDGE('',*,*,#406,.F.);
#222=ORIENTED_EDGE('',*,*,#417,.T.);
#223=ORIENTED_EDGE('',*,*,#411,.T.);
#224=ORIENTED_EDGE('',*,*,#418,.T.);
#225=ORIENTED_EDGE('',*,*,#419,.F.);
#226=ORIENTED_EDGE('',*,*,#420,.F.);
#227=ORIENTED_EDGE('',*,*,#421,.F.);
#228=ORIENTED_EDGE('',*,*,#422,.F.);
#229=ORIENTED_EDGE('',*,*,#423,.F.);
#230=ORIENTED_EDGE('',*,*,#424,.T.);
#231=ORIENTED_EDGE('',*,*,#425,.F.);
#232=ORIENTED_EDGE('',*,*,#426,.F.);
#233=ORIENTED_EDGE('',*,*,#427,.F.);
#234=ORIENTED_EDGE('',*,*,#428,.T.);
#235=ORIENTED_EDGE('',*,*,#429,.F.);
#236=ORIENTED_EDGE('',*,*,#430,.F.);
#237=ORIENTED_EDGE('',*,*,#431,.F.);
#238=ORIENTED_EDGE('',*,*,#432,.T.);
#239=ORIENTED_EDGE('',*,*,#433,.F.);
#240=ORIENTED_EDGE('',*,*,#434,.F.);
#241=ORIENTED_EDGE('',*,*,#435,.F.);
#242=ORIENTED_EDGE('',*,*,#436,.T.);
#243=ORIENTED_EDGE('',*,*,#437,.F.);
#244=ORIENTED_EDGE('',*,*,#438,.F.);
#245=ORIENTED_EDGE('',*,*,#439,.F.);
#246=ORIENTED_EDGE('',*,*,#413,.T.);
#247=ORIENTED_EDGE('',*,*,#440,.F.);
#248=ORIENTED_EDGE('',*,*,#441,.F.);
#249=ORIENTED_EDGE('',*,*,#442,.T.);
#250=ORIENTED_EDGE('',*,*,#443,.F.);
#251=ORIENTED_EDGE('',*,*,#440,.T.);
#252=ORIENTED_EDGE('',*,*,#412,.F.);
#253=ORIENTED_EDGE('',*,*,#417,.F.);
#254=ORIENTED_EDGE('',*,*,#405,.F.);
#255=ORIENTED_EDGE('',*,*,#444,.F.);
#256=ORIENTED_EDGE('',*,*,#438,.T.);
#257=ORIENTED_EDGE('',*,*,#445,.F.);
#258=ORIENTED_EDGE('',*,*,#446,.F.);
#259=ORIENTED_EDGE('',*,*,#447,.F.);
#260=ORIENTED_EDGE('',*,*,#448,.T.);
#261=ORIENTED_EDGE('',*,*,#435,.T.);
#262=ORIENTED_EDGE('',*,*,#444,.T.);
#263=ORIENTED_EDGE('',*,*,#448,.F.);
#264=ORIENTED_EDGE('',*,*,#449,.T.);
#265=ORIENTED_EDGE('',*,*,#450,.F.);
#266=ORIENTED_EDGE('',*,*,#436,.F.);
#267=ORIENTED_EDGE('',*,*,#451,.F.);
#268=ORIENTED_EDGE('',*,*,#434,.T.);
#269=ORIENTED_EDGE('',*,*,#452,.F.);
#270=ORIENTED_EDGE('',*,*,#453,.F.);
#271=ORIENTED_EDGE('',*,*,#454,.F.);
#272=ORIENTED_EDGE('',*,*,#455,.T.);
#273=ORIENTED_EDGE('',*,*,#431,.T.);
#274=ORIENTED_EDGE('',*,*,#451,.T.);
#275=ORIENTED_EDGE('',*,*,#455,.F.);
#276=ORIENTED_EDGE('',*,*,#456,.T.);
#277=ORIENTED_EDGE('',*,*,#457,.F.);
#278=ORIENTED_EDGE('',*,*,#432,.F.);
#279=ORIENTED_EDGE('',*,*,#458,.F.);
#280=ORIENTED_EDGE('',*,*,#430,.T.);
#281=ORIENTED_EDGE('',*,*,#459,.F.);
#282=ORIENTED_EDGE('',*,*,#460,.F.);
#283=ORIENTED_EDGE('',*,*,#427,.T.);
#284=ORIENTED_EDGE('',*,*,#458,.T.);
#285=ORIENTED_EDGE('',*,*,#461,.F.);
#286=ORIENTED_EDGE('',*,*,#462,.T.);
#287=ORIENTED_EDGE('',*,*,#462,.F.);
#288=ORIENTED_EDGE('',*,*,#463,.T.);
#289=ORIENTED_EDGE('',*,*,#464,.F.);
#290=ORIENTED_EDGE('',*,*,#428,.F.);
#291=ORIENTED_EDGE('',*,*,#465,.F.);
#292=ORIENTED_EDGE('',*,*,#426,.T.);
#293=ORIENTED_EDGE('',*,*,#466,.F.);
#294=ORIENTED_EDGE('',*,*,#467,.F.);
#295=ORIENTED_EDGE('',*,*,#423,.T.);
#296=ORIENTED_EDGE('',*,*,#465,.T.);
#297=ORIENTED_EDGE('',*,*,#468,.F.);
#298=ORIENTED_EDGE('',*,*,#469,.T.);
#299=ORIENTED_EDGE('',*,*,#469,.F.);
#300=ORIENTED_EDGE('',*,*,#470,.T.);
#301=ORIENTED_EDGE('',*,*,#471,.F.);
#302=ORIENTED_EDGE('',*,*,#424,.F.);
#303=ORIENTED_EDGE('',*,*,#472,.F.);
#304=ORIENTED_EDGE('',*,*,#421,.T.);
#305=ORIENTED_EDGE('',*,*,#473,.F.);
#306=ORIENTED_EDGE('',*,*,#474,.F.);
#307=ORIENTED_EDGE('',*,*,#475,.F.);
#308=ORIENTED_EDGE('',*,*,#476,.T.);
#309=ORIENTED_EDGE('',*,*,#422,.T.);
#310=ORIENTED_EDGE('',*,*,#472,.T.);
#311=ORIENTED_EDGE('',*,*,#477,.F.);
#312=ORIENTED_EDGE('',*,*,#475,.T.);
#313=ORIENTED_EDGE('',*,*,#474,.T.);
#314=ORIENTED_EDGE('',*,*,#478,.F.);
#315=ORIENTED_EDGE('',*,*,#470,.F.);
#316=ORIENTED_EDGE('',*,*,#468,.T.);
#317=ORIENTED_EDGE('',*,*,#467,.T.);
#318=ORIENTED_EDGE('',*,*,#479,.F.);
#319=ORIENTED_EDGE('',*,*,#463,.F.);
#320=ORIENTED_EDGE('',*,*,#461,.T.);
#321=ORIENTED_EDGE('',*,*,#460,.T.);
#322=ORIENTED_EDGE('',*,*,#480,.F.);
#323=ORIENTED_EDGE('',*,*,#456,.F.);
#324=ORIENTED_EDGE('',*,*,#454,.T.);
#325=ORIENTED_EDGE('',*,*,#453,.T.);
#326=ORIENTED_EDGE('',*,*,#481,.F.);
#327=ORIENTED_EDGE('',*,*,#449,.F.);
#328=ORIENTED_EDGE('',*,*,#447,.T.);
#329=ORIENTED_EDGE('',*,*,#446,.T.);
#330=ORIENTED_EDGE('',*,*,#482,.F.);
#331=ORIENTED_EDGE('',*,*,#442,.F.);
#332=ORIENTED_EDGE('',*,*,#404,.T.);
#333=ORIENTED_EDGE('',*,*,#483,.T.);
#334=ORIENTED_EDGE('',*,*,#484,.T.);
#335=ORIENTED_EDGE('',*,*,#441,.T.);
#336=ORIENTED_EDGE('',*,*,#443,.T.);
#337=ORIENTED_EDGE('',*,*,#482,.T.);
#338=ORIENTED_EDGE('',*,*,#445,.T.);
#339=ORIENTED_EDGE('',*,*,#437,.T.);
#340=ORIENTED_EDGE('',*,*,#450,.T.);
#341=ORIENTED_EDGE('',*,*,#481,.T.);
#342=ORIENTED_EDGE('',*,*,#452,.T.);
#343=ORIENTED_EDGE('',*,*,#433,.T.);
#344=ORIENTED_EDGE('',*,*,#457,.T.);
#345=ORIENTED_EDGE('',*,*,#480,.T.);
#346=ORIENTED_EDGE('',*,*,#459,.T.);
#347=ORIENTED_EDGE('',*,*,#429,.T.);
#348=ORIENTED_EDGE('',*,*,#464,.T.);
#349=ORIENTED_EDGE('',*,*,#479,.T.);
#350=ORIENTED_EDGE('',*,*,#466,.T.);
#351=ORIENTED_EDGE('',*,*,#425,.T.);
#352=ORIENTED_EDGE('',*,*,#471,.T.);
#353=ORIENTED_EDGE('',*,*,#478,.T.);
#354=ORIENTED_EDGE('',*,*,#473,.T.);
#355=ORIENTED_EDGE('',*,*,#420,.T.);
#356=ORIENTED_EDGE('',*,*,#398,.T.);
#357=ORIENTED_EDGE('',*,*,#485,.T.);
#358=ORIENTED_EDGE('',*,*,#483,.F.);
#359=ORIENTED_EDGE('',*,*,#419,.T.);
#360=ORIENTED_EDGE('',*,*,#476,.F.);
#361=ORIENTED_EDGE('',*,*,#477,.T.);
#362=ORIENTED_EDGE('',*,*,#403,.F.);
#363=ORIENTED_EDGE('',*,*,#415,.F.);
#364=ORIENTED_EDGE('',*,*,#410,.F.);
#365=ORIENTED_EDGE('',*,*,#486,.T.);
#366=ORIENTED_EDGE('',*,*,#487,.T.);
#367=ORIENTED_EDGE('',*,*,#488,.T.);
#368=ORIENTED_EDGE('',*,*,#418,.F.);
#369=ORIENTED_EDGE('',*,*,#489,.F.);
#370=ORIENTED_EDGE('',*,*,#407,.T.);
#371=ORIENTED_EDGE('',*,*,#416,.T.);
#372=ORIENTED_EDGE('',*,*,#488,.F.);
#373=ORIENTED_EDGE('',*,*,#490,.T.);
#374=ORIENTED_EDGE('',*,*,#491,.T.);
#375=ORIENTED_EDGE('',*,*,#492,.T.);
#376=ORIENTED_EDGE('',*,*,#408,.F.);
#377=ORIENTED_EDGE('',*,*,#489,.T.);
#378=ORIENTED_EDGE('',*,*,#493,.F.);
#379=ORIENTED_EDGE('',*,*,#494,.F.);
#380=ORIENTED_EDGE('',*,*,#491,.F.);
#381=ORIENTED_EDGE('',*,*,#490,.F.);
#382=ORIENTED_EDGE('',*,*,#487,.F.);
#383=ORIENTED_EDGE('',*,*,#495,.F.);
#384=ORIENTED_EDGE('',*,*,#400,.F.);
#385=ORIENTED_EDGE('',*,*,#414,.T.);
#386=ORIENTED_EDGE('',*,*,#401,.T.);
#387=ORIENTED_EDGE('',*,*,#492,.F.);
#388=ORIENTED_EDGE('',*,*,#494,.T.);
#389=ORIENTED_EDGE('',*,*,#439,.T.);
#390=ORIENTED_EDGE('',*,*,#484,.F.);
#391=ORIENTED_EDGE('',*,*,#485,.F.);
#392=ORIENTED_EDGE('',*,*,#397,.T.);
#393=ORIENTED_EDGE('',*,*,#495,.T.);
#394=ORIENTED_EDGE('',*,*,#493,.T.);
#395=ORIENTED_EDGE('',*,*,#486,.F.);
#396=ORIENTED_EDGE('',*,*,#409,.T.);
#397=EDGE_CURVE('',#496,#497,#562,.T.);
#398=EDGE_CURVE('',#498,#496,#17,.T.);
#399=EDGE_CURVE('',#499,#498,#18,.T.);
#400=EDGE_CURVE('',#499,#497,#19,.T.);
#401=EDGE_CURVE('',#500,#501,#20,.T.);
#402=EDGE_CURVE('',#500,#502,#21,.T.);
#403=EDGE_CURVE('',#502,#503,#22,.T.);
#404=EDGE_CURVE('',#504,#503,#23,.T.);
#405=EDGE_CURVE('',#504,#505,#24,.T.);
#406=EDGE_CURVE('',#505,#506,#25,.T.);
#407=EDGE_CURVE('',#507,#506,#26,.T.);
#408=EDGE_CURVE('',#507,#501,#27,.T.);
#409=EDGE_CURVE('',#508,#509,#563,.T.);
#410=EDGE_CURVE('',#508,#510,#28,.T.);
#411=EDGE_CURVE('',#511,#510,#29,.T.);
#412=EDGE_CURVE('',#511,#512,#30,.T.);
#413=EDGE_CURVE('',#509,#512,#31,.T.);
#414=EDGE_CURVE('',#499,#500,#32,.T.);
#415=EDGE_CURVE('',#498,#502,#33,.T.);
#416=EDGE_CURVE('',#506,#513,#34,.T.);
#417=EDGE_CURVE('',#505,#511,#35,.T.);
#418=EDGE_CURVE('',#510,#513,#36,.T.);
#419=EDGE_CURVE('',#514,#515,#37,.T.);
#420=EDGE_CURVE('',#516,#514,#38,.T.);
#421=EDGE_CURVE('',#517,#516,#39,.T.);
#422=EDGE_CURVE('',#515,#517,#40,.T.);
#423=EDGE_CURVE('',#518,#519,#41,.T.);
#424=EDGE_CURVE('',#518,#520,#42,.T.);
#425=EDGE_CURVE('',#521,#520,#43,.T.);
#426=EDGE_CURVE('',#519,#521,#44,.T.);
#427=EDGE_CURVE('',#522,#523,#45,.T.);
#428=EDGE_CURVE('',#522,#524,#46,.T.);
#429=EDGE_CURVE('',#525,#524,#47,.T.);
#430=EDGE_CURVE('',#523,#525,#48,.T.);
#431=EDGE_CURVE('',#526,#527,#49,.T.);
#432=EDGE_CURVE('',#526,#528,#50,.T.);
#433=EDGE_CURVE('',#529,#528,#51,.T.);
#434=EDGE_CURVE('',#527,#529,#52,.T.);
#435=EDGE_CURVE('',#530,#531,#53,.T.);
#436=EDGE_CURVE('',#530,#532,#54,.T.);
#437=EDGE_CURVE('',#533,#532,#55,.T.);
#438=EDGE_CURVE('',#531,#533,#56,.T.);
#439=EDGE_CURVE('',#509,#534,#13,.T.);
#440=EDGE_CURVE('',#535,#512,#57,.T.);
#441=EDGE_CURVE('',#534,#535,#58,.T.);
#442=EDGE_CURVE('',#504,#536,#59,.T.);
#443=EDGE_CURVE('',#535,#536,#60,.T.);
#444=EDGE_CURVE('',#531,#537,#61,.T.);
#445=EDGE_CURVE('',#538,#533,#62,.T.);
#446=EDGE_CURVE('',#537,#538,#63,.T.);
#447=EDGE_CURVE('',#539,#537,#64,.T.);
#448=EDGE_CURVE('',#539,#530,#65,.T.);
#449=EDGE_CURVE('',#539,#540,#66,.T.);
#450=EDGE_CURVE('',#532,#540,#67,.T.);
#451=EDGE_CURVE('',#527,#541,#68,.T.);
#452=EDGE_CURVE('',#542,#529,#69,.T.);
#453=EDGE_CURVE('',#541,#542,#70,.T.);
#454=EDGE_CURVE('',#543,#541,#71,.T.);
#455=EDGE_CURVE('',#543,#526,#72,.T.);
#456=EDGE_CURVE('',#543,#544,#73,.T.);
#457=EDGE_CURVE('',#528,#544,#74,.T.);
#458=EDGE_CURVE('',#523,#545,#75,.T.);
#459=EDGE_CURVE('',#546,#525,#76,.T.);
#460=EDGE_CURVE('',#545,#546,#77,.T.);
#461=EDGE_CURVE('',#547,#545,#78,.T.);
#462=EDGE_CURVE('',#547,#522,#79,.T.);
#463=EDGE_CURVE('',#547,#548,#80,.T.);
#464=EDGE_CURVE('',#524,#548,#81,.T.);
#465=EDGE_CURVE('',#519,#549,#82,.T.);
#466=EDGE_CURVE('',#550,#521,#83,.T.);
#467=EDGE_CURVE('',#549,#550,#84,.T.);
#468=EDGE_CURVE('',#551,#549,#85,.T.);
#469=EDGE_CURVE('',#551,#518,#86,.T.);
#470=EDGE_CURVE('',#551,#552,#87,.T.);
#471=EDGE_CURVE('',#520,#552,#88,.T.);
#472=EDGE_CURVE('',#517,#553,#89,.T.);
#473=EDGE_CURVE('',#554,#516,#90,.T.);
#474=EDGE_CURVE('',#553,#554,#91,.T.);
#475=EDGE_CURVE('',#555,#553,#92,.T.);
#476=EDGE_CURVE('',#555,#515,#93,.T.);
#477=EDGE_CURVE('',#555,#503,#94,.T.);
#478=EDGE_CURVE('',#552,#554,#95,.T.);
#479=EDGE_CURVE('',#548,#550,#96,.T.);
#480=EDGE_CURVE('',#544,#546,#97,.T.);
#481=EDGE_CURVE('',#540,#542,#98,.T.);
#482=EDGE_CURVE('',#536,#538,#99,.T.);
#483=EDGE_CURVE('',#514,#556,#100,.T.);
#484=EDGE_CURVE('',#556,#534,#564,.T.);
#485=EDGE_CURVE('',#496,#556,#14,.T.);
#486=EDGE_CURVE('',#508,#557,#15,.T.);
#487=EDGE_CURVE('',#557,#558,#101,.T.);
#488=EDGE_CURVE('',#558,#513,#102,.T.);
#489=EDGE_CURVE('',#507,#559,#103,.T.);
#490=EDGE_CURVE('',#558,#559,#104,.T.);
#491=EDGE_CURVE('',#559,#560,#105,.T.);
#492=EDGE_CURVE('',#560,#501,#106,.T.);
#493=EDGE_CURVE('',#561,#557,#565,.T.);
#494=EDGE_CURVE('',#560,#561,#107,.T.);
#495=EDGE_CURVE('',#497,#561,#16,.T.);
#496=VERTEX_POINT('',#943);
#497=VERTEX_POINT('',#944);
#498=VERTEX_POINT('',#946);
#499=VERTEX_POINT('',#948);
#500=VERTEX_POINT('',#952);
#501=VERTEX_POINT('',#953);
#502=VERTEX_POINT('',#955);
#503=VERTEX_POINT('',#957);
#504=VERTEX_POINT('',#959);
#505=VERTEX_POINT('',#961);
#506=VERTEX_POINT('',#963);
#507=VERTEX_POINT('',#965);
#508=VERTEX_POINT('',#969);
#509=VERTEX_POINT('',#970);
#510=VERTEX_POINT('',#972);
#511=VERTEX_POINT('',#974);
#512=VERTEX_POINT('',#976);
#513=VERTEX_POINT('',#983);
#514=VERTEX_POINT('',#988);
#515=VERTEX_POINT('',#989);
#516=VERTEX_POINT('',#991);
#517=VERTEX_POINT('',#993);
#518=VERTEX_POINT('',#997);
#519=VERTEX_POINT('',#998);
#520=VERTEX_POINT('',#1000);
#521=VERTEX_POINT('',#1002);
#522=VERTEX_POINT('',#1006);
#523=VERTEX_POINT('',#1007);
#524=VERTEX_POINT('',#1009);
#525=VERTEX_POINT('',#1011);
#526=VERTEX_POINT('',#1015);
#527=VERTEX_POINT('',#1016);
#528=VERTEX_POINT('',#1018);
#529=VERTEX_POINT('',#1020);
#530=VERTEX_POINT('',#1024);
#531=VERTEX_POINT('',#1025);
#532=VERTEX_POINT('',#1027);
#533=VERTEX_POINT('',#1029);
#534=VERTEX_POINT('',#1033);
#535=VERTEX_POINT('',#1035);
#536=VERTEX_POINT('',#1039);
#537=VERTEX_POINT('',#1043);
#538=VERTEX_POINT('',#1045);
#539=VERTEX_POINT('',#1049);
#540=VERTEX_POINT('',#1053);
#541=VERTEX_POINT('',#1057);
#542=VERTEX_POINT('',#1059);
#543=VERTEX_POINT('',#1063);
#544=VERTEX_POINT('',#1067);
#545=VERTEX_POINT('',#1071);
#546=VERTEX_POINT('',#1073);
#547=VERTEX_POINT('',#1077);
#548=VERTEX_POINT('',#1081);
#549=VERTEX_POINT('',#1085);
#550=VERTEX_POINT('',#1087);
#551=VERTEX_POINT('',#1091);
#552=VERTEX_POINT('',#1095);
#553=VERTEX_POINT('',#1099);
#554=VERTEX_POINT('',#1101);
#555=VERTEX_POINT('',#1105);
#556=VERTEX_POINT('',#1116);
#557=VERTEX_POINT('',#1122);
#558=VERTEX_POINT('',#1124);
#559=VERTEX_POINT('',#1128);
#560=VERTEX_POINT('',#1132);
#561=VERTEX_POINT('',#1136);
#562=CIRCLE('',#719,0.188608478321005);
#563=CIRCLE('',#722,0.188608478321005);
#564=CIRCLE('',#749,0.188608478321005);
#565=CIRCLE('',#757,0.188608478321005);
#566=EDGE_LOOP('',(#199,#200,#201,#202));
#567=EDGE_LOOP('',(#203,#204,#205,#206,#207,#208,#209,#210));
#568=EDGE_LOOP('',(#211,#212,#213,#214,#215));
#569=EDGE_LOOP('',(#216,#217,#218,#219));
#570=EDGE_LOOP('',(#220,#221,#222,#223,#224));
#571=EDGE_LOOP('',(#225,#226,#227,#228));
#572=EDGE_LOOP('',(#229,#230,#231,#232));
#573=EDGE_LOOP('',(#233,#234,#235,#236));
#574=EDGE_LOOP('',(#237,#238,#239,#240));
#575=EDGE_LOOP('',(#241,#242,#243,#244));
#576=EDGE_LOOP('',(#245,#246,#247,#248));
#577=EDGE_LOOP('',(#249,#250,#251,#252,#253,#254));
#578=EDGE_LOOP('',(#255,#256,#257,#258));
#579=EDGE_LOOP('',(#259,#260,#261,#262));
#580=EDGE_LOOP('',(#263,#264,#265,#266));
#581=EDGE_LOOP('',(#267,#268,#269,#270));
#582=EDGE_LOOP('',(#271,#272,#273,#274));
#583=EDGE_LOOP('',(#275,#276,#277,#278));
#584=EDGE_LOOP('',(#279,#280,#281,#282));
#585=EDGE_LOOP('',(#283,#284,#285,#286));
#586=EDGE_LOOP('',(#287,#288,#289,#290));
#587=EDGE_LOOP('',(#291,#292,#293,#294));
#588=EDGE_LOOP('',(#295,#296,#297,#298));
#589=EDGE_LOOP('',(#299,#300,#301,#302));
#590=EDGE_LOOP('',(#303,#304,#305,#306));
#591=EDGE_LOOP('',(#307,#308,#309,#310));
#592=EDGE_LOOP('',(#311,#312,#313,#314,#315,#316,#317,#318,#319,#320,#321,#322,#323,#324,#325,#326,#327,#328,#329,#330,#331,#332));
#593=EDGE_LOOP('',(#333,#334,#335,#336,#337,#338,#339,#340,#341,#342,#343,#344,#345,#346,#347,#348,#349,#350,#351,#352,#353,#354,#355));
#594=EDGE_LOOP('',(#356,#357,#358,#359,#360,#361,#362,#363));
#595=EDGE_LOOP('',(#364,#365,#366,#367,#368));
#596=EDGE_LOOP('',(#369,#370,#371,#372,#373));
#597=EDGE_LOOP('',(#374,#375,#376,#377));
#598=EDGE_LOOP('',(#378,#379,#380,#381,#382));
#599=EDGE_LOOP('',(#383,#384,#385,#386,#387,#388));
#600=EDGE_LOOP('',(#389,#390,#391,#392,#393,#394,#395,#396));
#601=FACE_BOUND('',#566,.T.);
#602=FACE_BOUND('',#567,.T.);
#603=FACE_BOUND('',#568,.T.);
#604=FACE_BOUND('',#569,.T.);
#605=FACE_BOUND('',#570,.T.);
#606=FACE_BOUND('',#571,.T.);
#607=FACE_BOUND('',#572,.T.);
#608=FACE_BOUND('',#573,.T.);
#609=FACE_BOUND('',#574,.T.);
#610=FACE_BOUND('',#575,.T.);
#611=FACE_BOUND('',#576,.T.);
#612=FACE_BOUND('',#577,.T.);
#613=FACE_BOUND('',#578,.T.);
#614=FACE_BOUND('',#579,.T.);
#615=FACE_BOUND('',#580,.T.);
#616=FACE_BOUND('',#581,.T.);
#617=FACE_BOUND('',#582,.T.);
#618=FACE_BOUND('',#583,.T.);
#619=FACE_BOUND('',#584,.T.);
#620=FACE_BOUND('',#585,.T.);
#621=FACE_BOUND('',#586,.T.);
#622=FACE_BOUND('',#587,.T.);
#623=FACE_BOUND('',#588,.T.);
#624=FACE_BOUND('',#589,.T.);
#625=FACE_BOUND('',#590,.T.);
#626=FACE_BOUND('',#591,.T.);
#627=FACE_BOUND('',#592,.T.);
#628=FACE_BOUND('',#593,.T.);
#629=FACE_BOUND('',#594,.T.);
#630=FACE_BOUND('',#595,.T.);
#631=FACE_BOUND('',#596,.T.);
#632=FACE_BOUND('',#597,.T.);
#633=FACE_BOUND('',#598,.T.);
#634=FACE_BOUND('',#599,.T.);
#635=FACE_BOUND('',#600,.T.);
#636=PLANE('',#718);
#637=PLANE('',#720);
#638=PLANE('',#721);
#639=PLANE('',#723);
#640=PLANE('',#724);
#641=PLANE('',#725);
#642=PLANE('',#726);
#643=PLANE('',#727);
#644=PLANE('',#728);
#645=PLANE('',#729);
#646=PLANE('',#730);
#647=PLANE('',#732);
#648=PLANE('',#733);
#649=PLANE('',#734);
#650=PLANE('',#735);
#651=PLANE('',#736);
#652=PLANE('',#737);
#653=PLANE('',#738);
#654=PLANE('',#739);
#655=PLANE('',#740);
#656=PLANE('',#741);
#657=PLANE('',#742);
#658=PLANE('',#743);
#659=PLANE('',#744);
#660=PLANE('',#745);
#661=PLANE('',#746);
#662=PLANE('',#747);
#663=PLANE('',#748);
#664=PLANE('',#750);
#665=PLANE('',#752);
#666=PLANE('',#754);
#667=PLANE('',#755);
#668=PLANE('',#756);
#669=PLANE('',#758);
#670=ADVANCED_FACE('',(#601),#636,.T.);
#671=ADVANCED_FACE('',(#602),#637,.F.);
#672=ADVANCED_FACE('',(#603),#638,.T.);
#673=ADVANCED_FACE('',(#604),#639,.F.);
#674=ADVANCED_FACE('',(#605),#640,.F.);
#675=ADVANCED_FACE('',(#606),#641,.T.);
#676=ADVANCED_FACE('',(#607),#642,.T.);
#677=ADVANCED_FACE('',(#608),#643,.T.);
#678=ADVANCED_FACE('',(#609),#644,.T.);
#679=ADVANCED_FACE('',(#610),#645,.T.);
#680=ADVANCED_FACE('',(#611),#646,.T.);
#681=ADVANCED_FACE('',(#612),#647,.T.);
#682=ADVANCED_FACE('',(#613),#648,.F.);
#683=ADVANCED_FACE('',(#614),#649,.F.);
#684=ADVANCED_FACE('',(#615),#650,.F.);
#685=ADVANCED_FACE('',(#616),#651,.F.);
#686=ADVANCED_FACE('',(#617),#652,.F.);
#687=ADVANCED_FACE('',(#618),#653,.F.);
#688=ADVANCED_FACE('',(#619),#654,.F.);
#689=ADVANCED_FACE('',(#620),#655,.F.);
#690=ADVANCED_FACE('',(#621),#656,.F.);
#691=ADVANCED_FACE('',(#622),#657,.F.);
#692=ADVANCED_FACE('',(#623),#658,.F.);
#693=ADVANCED_FACE('',(#624),#659,.F.);
#694=ADVANCED_FACE('',(#625),#660,.F.);
#695=ADVANCED_FACE('',(#626),#661,.F.);
#696=ADVANCED_FACE('',(#627),#662,.T.);
#697=ADVANCED_FACE('',(#628),#663,.F.);
#698=ADVANCED_FACE('',(#629),#664,.F.);
#699=ADVANCED_FACE('',(#630),#665,.F.);
#700=ADVANCED_FACE('',(#631),#666,.F.);
#701=ADVANCED_FACE('',(#632),#667,.F.);
#702=ADVANCED_FACE('',(#633),#668,.T.);
#703=ADVANCED_FACE('',(#634),#669,.T.);
#704=ADVANCED_FACE('',(#635),#12,.F.);
#705=CLOSED_SHELL('',(#670,#671,#672,#673,#674,#675,#676,#677,#678,#679,#680,#681,#682,#683,#684,#685,#686,#687,#688,#689,#690,#691,#692,#693,#694,#695,#696,#697,#698,#699,#700,#701,#702,#703,#704));
#706=STYLED_ITEM('',(#707),#714);
#707=PRESENTATION_STYLE_ASSIGNMENT((#708));
#708=SURFACE_STYLE_USAGE(.BOTH.,#709);
#709=SURFACE_SIDE_STYLE('',(#710));
#710=SURFACE_STYLE_FILL_AREA(#711);
#711=FILL_AREA_STYLE('',(#712));
#712=FILL_AREA_STYLE_COLOUR('',#713);
#713=COLOUR_RGB('',0.647058823529412,0.647058823529412,0.647058823529412);
#714=MANIFOLD_SOLID_BREP('bin_third_right',#705);
#715=SHAPE_DEFINITION_REPRESENTATION(#1147,#716);
#716=SHAPE_REPRESENTATION('bin_third_right',(#717),#1142);
#717=AXIS2_PLACEMENT_3D('',#940,#761,#762);
#718=AXIS2_PLACEMENT_3D('',#941,#763,#764);
#719=AXIS2_PLACEMENT_3D('',#942,#765,#766);
#720=AXIS2_PLACEMENT_3D('',#950,#770,#771);
#721=AXIS2_PLACEMENT_3D('',#967,#780,#781);
#722=AXIS2_PLACEMENT_3D('',#968,#782,#783);
#723=AXIS2_PLACEMENT_3D('',#978,#788,#789);
#724=AXIS2_PLACEMENT_3D('',#981,#792,#793);
#725=AXIS2_PLACEMENT_3D('',#986,#797,#798);
#726=AXIS2_PLACEMENT_3D('',#995,#803,#804);
#727=AXIS2_PLACEMENT_3D('',#1004,#809,#810);
#728=AXIS2_PLACEMENT_3D('',#1013,#815,#816);
#729=AXIS2_PLACEMENT_3D('',#1022,#821,#822);
#730=AXIS2_PLACEMENT_3D('',#1031,#827,#828);
#731=AXIS2_PLACEMENT_3D('',#1032,#829,#830);
#732=AXIS2_PLACEMENT_3D('',#1037,#833,#834);
#733=AXIS2_PLACEMENT_3D('',#1041,#837,#838);
#734=AXIS2_PLACEMENT_3D('',#1047,#842,#843);
#735=AXIS2_PLACEMENT_3D('',#1051,#846,#847);
#736=AXIS2_PLACEMENT_3D('',#1055,#850,#851);
#737=AXIS2_PLACEMENT_3D('',#1061,#855,#856);
#738=AXIS2_PLACEMENT_3D('',#1065,#859,#860);
#739=AXIS2_PLACEMENT_3D('',#1069,#863,#864);
#740=AXIS2_PLACEMENT_3D('',#1075,#868,#869);
#741=AXIS2_PLACEMENT_3D('',#1079,#872,#873);
#742=AXIS2_PLACEMENT_3D('',#1083,#876,#877);
#743=AXIS2_PLACEMENT_3D('',#1089,#881,#882);
#744=AXIS2_PLACEMENT_3D('',#1093,#885,#886);
#745=AXIS2_PLACEMENT_3D('',#1097,#889,#890);
#746=AXIS2_PLACEMENT_3D('',#1103,#894,#895);
#747=AXIS2_PLACEMENT_3D('',#1107,#898,#899);
#748=AXIS2_PLACEMENT_3D('',#1114,#906,#907);
#749=AXIS2_PLACEMENT_3D('',#1117,#909,#910);
#750=AXIS2_PLACEMENT_3D('',#1118,#911,#912);
#751=AXIS2_PLACEMENT_3D('',#1119,#913,#914);
#752=AXIS2_PLACEMENT_3D('',#1120,#915,#916);
#753=AXIS2_PLACEMENT_3D('',#1121,#917,#918);
#754=AXIS2_PLACEMENT_3D('',#1126,#921,#922);
#755=AXIS2_PLACEMENT_3D('',#1130,#925,#926);
#756=AXIS2_PLACEMENT_3D('',#1134,#929,#930);
#757=AXIS2_PLACEMENT_3D('',#1135,#931,#932);
#758=AXIS2_PLACEMENT_3D('',#1138,#934,#935);
#759=AXIS2_PLACEMENT_3D('',#1139,#936,#937);
#760=AXIS2_PLACEMENT_3D('',#1140,#938,#939);
#761=DIRECTION('',(0.,0.,1.));
#762=DIRECTION('',(1.,0.,0.));
#763=DIRECTION('',(0.5,0.,0.866025403784439));
#764=DIRECTION('',(0.866025403784439,0.,-0.5));
#765=DIRECTION('',(0.5,0.,0.866025403784439));
#766=DIRECTION('',(0.866025403784439,0.,-0.5));
#767=DIRECTION('',(-0.85864927349199,-0.130237859993063,0.495741389190076));
#768=DIRECTION('',(0.,-1.,0.));
#769=DIRECTION('',(-0.85864927349199,-0.130237859993063,0.495741389190076));
#770=DIRECTION('',(-0.5,0.,-0.866025403784439));
#771=DIRECTION('',(-0.866025403784439,0.,0.5));
#772=DIRECTION('',(0.858649273491989,0.130237859993063,-0.495741389190076));
#773=DIRECTION('',(0.,-1.,0.));
#774=DIRECTION('',(0.858649273491989,0.130237859993063,-0.495741389190076));
#775=DIRECTION('',(0.,-1.,0.));
#776=DIRECTION('',(-0.866025403784439,0.,0.5));
#777=DIRECTION('',(0.,-1.,0.));
#778=DIRECTION('',(-0.866025403784439,0.,0.5));
#779=DIRECTION('',(0.,-1.,0.));
#780=DIRECTION('',(0.5,0.,0.866025403784439));
#781=DIRECTION('',(0.866025403784439,0.,-0.5));
#782=DIRECTION('',(0.5,0.,0.866025403784439));
#783=DIRECTION('',(0.866025403784439,0.,-0.5));
#784=DIRECTION('',(0.786919666927354,0.417544309509692,-0.454328281531117));
#785=DIRECTION('',(0.,-1.,0.));
#786=DIRECTION('',(-0.866025403784439,0.,0.5));
#787=DIRECTION('',(0.786919666927354,0.417544309509692,-0.454328281531117));
#788=DIRECTION('',(0.,0.,-1.));
#789=DIRECTION('',(-1.,0.,0.));
#790=DIRECTION('',(0.988691702986182,0.149962383437594,0.));
#791=DIRECTION('',(0.988691702986182,0.149962383437594,0.));
#792=DIRECTION('',(0.,0.,-1.));
#793=DIRECTION('',(-1.,0.,0.));
#794=DIRECTION('',(-1.,0.,0.));
#795=DIRECTION('',(-1.,0.,0.));
#796=DIRECTION('',(0.883351298796864,0.468711513528198,0.));
#797=DIRECTION('',(0.866025403784439,0.,-0.5));
#798=DIRECTION('',(-0.5,0.,-0.866025403784439));
#799=DIRECTION('',(0.498568292051715,0.0756216413636989,0.863545612876411));
#800=DIRECTION('',(0.,-1.,0.));
#801=DIRECTION('',(-0.5,7.10890453443263E-17,-0.866025403784439));
#802=DIRECTION('',(3.55445226721631E-17,1.,6.15649191989705E-17));
#803=DIRECTION('',(0.866025403784439,0.,-0.5));
#804=DIRECTION('',(-0.5,0.,-0.866025403784439));
#805=DIRECTION('',(3.55445226721631E-17,1.,6.15649191989705E-17));
#806=DIRECTION('',(-0.5,7.10890453443263E-17,-0.866025403784439));
#807=DIRECTION('',(0.,-1.,0.));
#808=DIRECTION('',(-0.5,7.10890453443263E-17,-0.866025403784439));
#809=DIRECTION('',(0.866025403784439,0.,-0.5));
#810=DIRECTION('',(-0.5,0.,-0.866025403784439));
#811=DIRECTION('',(3.55445226721631E-17,1.,6.15649191989705E-17));
#812=DIRECTION('',(-0.5,7.10890453443263E-17,-0.866025403784439));
#813=DIRECTION('',(0.,-1.,0.));
#814=DIRECTION('',(-0.5,7.10890453443263E-17,-0.866025403784439));
#815=DIRECTION('',(0.866025403784439,0.,-0.5));
#816=DIRECTION('',(-0.5,0.,-0.866025403784439));
#817=DIRECTION('',(3.55445226721631E-17,1.,6.15649191989705E-17));
#818=DIRECTION('',(-0.5,7.10890453443263E-17,-0.866025403784439));
#819=DIRECTION('',(0.,-1.,0.));
#820=DIRECTION('',(-0.5,7.10890453443263E-17,-0.866025403784439));
#821=DIRECTION('',(0.866025403784439,0.,-0.5));
#822=DIRECTION('',(-0.5,0.,-0.866025403784439));
#823=DIRECTION('',(3.55445226721631E-17,1.,6.15649191989705E-17));
#824=DIRECTION('',(-0.5,7.10890453443263E-17,-0.866025403784439));
#825=DIRECTION('',(0.,-1.,0.));
#826=DIRECTION('',(-0.5,7.10890453443263E-17,-0.866025403784439));
#827=DIRECTION('',(-0.468711513528198,0.883351298796864,0.));
#828=DIRECTION('',(-0.883351298796864,-0.468711513528198,0.));
#829=DIRECTION('',(-0.468711513528198,0.883351298796864,0.));
#830=DIRECTION('',(0.40133147757066,0.212948896475116,0.890834335104447));
#831=DIRECTION('',(0.,0.,1.));
#832=DIRECTION('',(0.786919666927354,0.417544309509692,-0.454328281531117));
#833=DIRECTION('',(0.,1.,0.));
#834=DIRECTION('',(0.,0.,1.));
#835=DIRECTION('',(-0.5,0.,-0.866025403784439));
#836=DIRECTION('',(0.86602540378444,0.,-0.5));
#837=DIRECTION('',(-0.612372435695795,-0.707106781186548,0.353553390593274));
#838=DIRECTION('',(0.612372435695795,-0.707106781186548,-0.353553390593274));
#839=DIRECTION('',(-0.612372435695795,0.707106781186548,0.353553390593274));
#840=DIRECTION('',(0.612372435695795,-0.707106781186548,-0.353553390593273));
#841=DIRECTION('',(-0.5,7.10890453443263E-17,-0.866025403784439));
#842=DIRECTION('',(-0.5,7.10890453443263E-17,-0.866025403784439));
#843=DIRECTION('',(-0.866025403784439,0.,0.5));
#844=DIRECTION('',(3.55445226721631E-17,1.,6.15649191989705E-17));
#845=DIRECTION('',(0.612372435695795,0.707106781186548,-0.353553390593274));
#846=DIRECTION('',(-0.612372435695795,0.707106781186548,0.353553390593274));
#847=DIRECTION('',(-0.612372435695795,-0.707106781186548,0.353553390593274));
#848=DIRECTION('',(-0.5,7.10890453443263E-17,-0.866025403784439));
#849=DIRECTION('',(-0.612372435695795,-0.707106781186548,0.353553390593273));
#850=DIRECTION('',(-0.612372435695795,-0.707106781186548,0.353553390593274));
#851=DIRECTION('',(0.612372435695795,-0.707106781186548,-0.353553390593274));
#852=DIRECTION('',(-0.612372435695795,0.707106781186548,0.353553390593274));
#853=DIRECTION('',(0.612372435695795,-0.707106781186548,-0.353553390593273));
#854=DIRECTION('',(-0.5,7.10890453443263E-17,-0.866025403784439));
#855=DIRECTION('',(-0.5,7.10890453443263E-17,-0.866025403784439));
#856=DIRECTION('',(-0.866025403784439,0.,0.5));
#857=DIRECTION('',(3.55445226721631E-17,1.,6.15649191989705E-17));
#858=DIRECTION('',(0.612372435695795,0.707106781186548,-0.353553390593274));
#859=DIRECTION('',(-0.612372435695795,0.707106781186548,0.353553390593274));
#860=DIRECTION('',(-0.612372435695795,-0.707106781186548,0.353553390593274));
#861=DIRECTION('',(-0.5,7.10890453443263E-17,-0.866025403784439));
#862=DIRECTION('',(-0.612372435695795,-0.707106781186548,0.353553390593273));
#863=DIRECTION('',(-0.612372435695795,-0.707106781186548,0.353553390593274));
#864=DIRECTION('',(0.612372435695795,-0.707106781186548,-0.353553390593274));
#865=DIRECTION('',(-0.612372435695795,0.707106781186548,0.353553390593274));
#866=DIRECTION('',(0.612372435695795,-0.707106781186548,-0.353553390593273));
#867=DIRECTION('',(-0.5,7.10890453443263E-17,-0.866025403784439));
#868=DIRECTION('',(-0.5,7.10890453443263E-17,-0.866025403784439));
#869=DIRECTION('',(-0.866025403784439,0.,0.5));
#870=DIRECTION('',(3.55445226721631E-17,1.,6.15649191989705E-17));
#871=DIRECTION('',(0.612372435695795,0.707106781186548,-0.353553390593274));
#872=DIRECTION('',(-0.612372435695795,0.707106781186548,0.353553390593274));
#873=DIRECTION('',(-0.612372435695795,-0.707106781186548,0.353553390593274));
#874=DIRECTION('',(-0.5,7.10890453443263E-17,-0.866025403784439));
#875=DIRECTION('',(-0.612372435695795,-0.707106781186548,0.353553390593273));
#876=DIRECTION('',(-0.612372435695795,-0.707106781186548,0.353553390593274));
#877=DIRECTION('',(0.612372435695795,-0.707106781186548,-0.353553390593274));
#878=DIRECTION('',(-0.612372435695795,0.707106781186548,0.353553390593274));
#879=DIRECTION('',(0.612372435695795,-0.707106781186548,-0.353553390593273));
#880=DIRECTION('',(-0.5,7.10890453443263E-17,-0.866025403784439));
#881=DIRECTION('',(-0.5,7.10890453443263E-17,-0.866025403784439));
#882=DIRECTION('',(-0.866025403784439,0.,0.5));
#883=DIRECTION('',(3.55445226721631E-17,1.,6.15649191989705E-17));
#884=DIRECTION('',(0.612372435695795,0.707106781186548,-0.353553390593274));
#885=DIRECTION('',(-0.612372435695795,0.707106781186548,0.353553390593274));
#886=DIRECTION('',(-0.612372435695795,-0.707106781186548,0.353553390593274));
#887=DIRECTION('',(-0.5,7.10890453443263E-17,-0.866025403784439));
#888=DIRECTION('',(-0.612372435695795,-0.707106781186548,0.353553390593273));
#889=DIRECTION('',(-0.612372435695795,-0.707106781186548,0.353553390593274));
#890=DIRECTION('',(0.612372435695795,-0.707106781186548,-0.353553390593274));
#891=DIRECTION('',(-0.612372435695795,0.707106781186548,0.353553390593274));
#892=DIRECTION('',(0.612372435695795,-0.707106781186548,-0.353553390593273));
#893=DIRECTION('',(-0.5,7.10890453443263E-17,-0.866025403784439));
#894=DIRECTION('',(-0.5,7.10890453443263E-17,-0.866025403784439));
#895=DIRECTION('',(-0.866025403784439,0.,0.5));
#896=DIRECTION('',(3.55445226721631E-17,1.,6.15649191989705E-17));
#897=DIRECTION('',(0.858649273491989,0.130237859993063,-0.495741389190076));
#898=DIRECTION('',(0.866025403784439,0.,-0.5));
#899=DIRECTION('',(0.,1.,0.));
#900=DIRECTION('',(0.498568292051715,0.0756216413636989,0.863545612876411));
#901=DIRECTION('',(3.55445226721631E-17,-1.,-2.052163973299E-17));
#902=DIRECTION('',(3.55445226721631E-17,-1.,-2.052163973299E-17));
#903=DIRECTION('',(3.55445226721631E-17,-1.,-2.052163973299E-17));
#904=DIRECTION('',(3.55445226721631E-17,-1.,-2.052163973299E-17));
#905=DIRECTION('',(3.55445226721631E-17,-1.,-2.052163973299E-17));
#906=DIRECTION('',(0.5,0.,0.86602540378444));
#907=DIRECTION('',(0.86602540378444,0.,-0.5));
#908=DIRECTION('',(-0.85864927349199,-0.130237859993063,0.495741389190075));
#909=DIRECTION('',(0.5,0.,0.866025403784439));
#910=DIRECTION('',(0.866025403784439,0.,-0.5));
#911=DIRECTION('',(-0.149962383437594,0.988691702986182,0.));
#912=DIRECTION('',(-0.988691702986182,-0.149962383437594,0.));
#913=DIRECTION('',(-0.149962383437594,0.988691702986182,0.));
#914=DIRECTION('',(0.490135398319072,0.0743425602916077,0.868470192375014));
#915=DIRECTION('',(-0.468711513528198,0.883351298796864,0.));
#916=DIRECTION('',(-0.883351298796864,-0.468711513528198,0.));
#917=DIRECTION('',(-0.468711513528198,0.883351298796864,0.));
#918=DIRECTION('',(0.40133147757066,0.212948896475116,0.890834335104447));
#919=DIRECTION('',(0.786919666927354,0.417544309509692,-0.454328281531117));
#920=DIRECTION('',(0.,0.,1.));
#921=DIRECTION('',(0.,1.,0.));
#922=DIRECTION('',(0.,0.,1.));
#923=DIRECTION('',(-0.5,0.,-0.866025403784439));
#924=DIRECTION('',(0.86602540378444,0.,-0.5));
#925=DIRECTION('',(0.866025403784439,0.,-0.5));
#926=DIRECTION('',(0.,1.,0.));
#927=DIRECTION('',(0.,-1.,0.));
#928=DIRECTION('',(0.498568292051715,0.0756216413636989,0.863545612876411));
#929=DIRECTION('',(0.5,0.,0.86602540378444));
#930=DIRECTION('',(0.86602540378444,0.,-0.5));
#931=DIRECTION('',(0.5,0.,0.86602540378444));
#932=DIRECTION('',(0.86602540378444,0.,-0.5));
#933=DIRECTION('',(-0.85864927349199,-0.130237859993063,0.495741389190075));
#934=DIRECTION('',(-0.149962383437594,0.988691702986182,0.));
#935=DIRECTION('',(-0.988691702986182,-0.149962383437594,0.));
#936=DIRECTION('',(-0.149962383437594,0.988691702986182,0.));
#937=DIRECTION('',(0.490135398319072,0.0743425602916077,0.868470192375014));
#938=DIRECTION('',(0.5,0.,0.866025403784439));
#939=DIRECTION('',(0.866025403784439,0.,-0.5));
#940=CARTESIAN_POINT('',(0.,0.,0.));
#941=CARTESIAN_POINT('',(0.240503968546522,0.599111929747018,0.0247112122887518));
#942=CARTESIAN_POINT('',(0.0708262609368149,0.,0.122674682452695));
#943=CARTESIAN_POINT('',(0.230849462098606,0.0378143475567512,0.0302852441853495));
#944=CARTESIAN_POINT('',(0.230546033329834,0.0394877681929661,0.0304604288666795));
#945=CARTESIAN_POINT('',(0.303109357192497,0.0487745549323178,-0.0114340256987229));
#946=CARTESIAN_POINT('',(0.288656733260263,0.0465824156382803,-0.00308979938095164));
#947=CARTESIAN_POINT('',(0.288656733260263,0.599111929747018,-0.00308979938095164));
#948=CARTESIAN_POINT('',(0.288656733260263,0.0483018596215414,-0.00308979938095164));
#949=CARTESIAN_POINT('',(0.302917074103648,0.0504648338783774,-0.0113230110056156));
#950=CARTESIAN_POINT('',(0.357382009957605,0.599111929747018,-0.017578302125239));
#951=CARTESIAN_POINT('',(0.417812641843601,0.0678919177030503,-0.0524679437119176));
#952=CARTESIAN_POINT('',(0.332287187078898,0.0549196220902104,-0.00308979938095172));
#953=CARTESIAN_POINT('',(0.377367282953984,0.0617572627850849,-0.0291168048695265));
#954=CARTESIAN_POINT('',(0.332287187078898,0.599111929747018,-0.00308979938095172));
#955=CARTESIAN_POINT('',(0.332287187078898,0.053200178106949,-0.00308979938095164));
#956=CARTESIAN_POINT('',(0.418004924932449,0.0662016387569905,-0.0525789584050249));
#957=CARTESIAN_POINT('',(0.378839526140417,0.0602611251131544,-0.0299668048695264));
#958=CARTESIAN_POINT('',(0.378839526140417,0.599111929747018,-0.0299668048695264));
#959=CARTESIAN_POINT('',(0.378839526140417,0.153062852534937,-0.0299668048695264));
#960=CARTESIAN_POINT('',(0.425940920282458,0.153062852534937,-0.0571608074566403));
#961=CARTESIAN_POINT('',(0.332287187078898,0.153062852534937,-0.00308979938095172));
#962=CARTESIAN_POINT('',(0.332287187078898,0.599111929747018,-0.00308979938095172));
#963=CARTESIAN_POINT('',(0.332287187078898,0.151362852534937,-0.00308979938095172));
#964=CARTESIAN_POINT('',(0.425940920282458,0.151362852534937,-0.0571608074566403));
#965=CARTESIAN_POINT('',(0.377367282953984,0.151362852534937,-0.0291168048695265));
#966=CARTESIAN_POINT('',(0.377367282953984,0.599111929747018,-0.0291168048695265));
#967=CARTESIAN_POINT('',(0.240503968546522,0.599111929747018,0.0247112122887518));
#968=CARTESIAN_POINT('',(0.0708262609368149,0.,0.122674682452695));
#969=CARTESIAN_POINT('',(0.205323999704646,0.107021660345085,0.0450223767696914));
#970=CARTESIAN_POINT('',(0.204445026908708,0.108479761252641,0.0455298519500368));
#971=CARTESIAN_POINT('',(0.303649097386567,0.159193548715059,-0.011745644845062));
#972=CARTESIAN_POINT('',(0.288656733260263,0.151238510113116,-0.00308979938095164));
#973=CARTESIAN_POINT('',(0.288656733260263,0.599111929747018,-0.00308979938095164));
#974=CARTESIAN_POINT('',(0.288656733260263,0.153062852534937,-0.00308979938095164));
#975=CARTESIAN_POINT('',(0.240503968546522,0.153062852534937,0.0247112122887518));
#976=CARTESIAN_POINT('',(0.288467992959074,0.153062852534937,-0.00298083011725294));
#977=CARTESIAN_POINT('',(0.303016760614091,0.160782516180466,-0.0113805650392546));
#978=CARTESIAN_POINT('',(0.310471960169581,0.599111929747018,-0.00308979938095164));
#979=CARTESIAN_POINT('',(0.391648080377354,0.0639233398468521,-0.00308979938095164));
#980=CARTESIAN_POINT('',(0.391903016429198,0.0622425639517756,-0.00308979938095164));
#981=CARTESIAN_POINT('',(0.310471960169581,0.599111929747018,-0.00308979938095164));
#982=CARTESIAN_POINT('',(0.380988148973222,0.151362852534937,-0.00308979938095164));
#983=CARTESIAN_POINT('',(0.288891073652255,0.151362852534937,-0.00308979938095164));
#984=CARTESIAN_POINT('',(0.380988148973222,0.153062852534937,-0.00308979938095164));
#985=CARTESIAN_POINT('',(0.491115495547357,0.258664347407834,-0.00308979938095164));
#986=CARTESIAN_POINT('',(0.357382009957605,0.599111929747018,-0.0755323131023886));
#987=CARTESIAN_POINT('',(0.37782076840286,0.0601066023857885,-0.040131345031579));
#988=CARTESIAN_POINT('',(0.332287187078898,0.0532001781069491,-0.118997821335251));
#989=CARTESIAN_POINT('',(0.332787187078898,0.0532760169063365,-0.118131795931466));
#990=CARTESIAN_POINT('',(0.332287187078898,0.599111929747018,-0.118997821335251));
#991=CARTESIAN_POINT('',(0.332287187078898,0.0585470791127607,-0.118997821335251));
#992=CARTESIAN_POINT('',(0.334387187078898,0.0585470791127607,-0.115360514639356));
#993=CARTESIAN_POINT('',(0.332787187078898,0.0585470791127607,-0.118131795931466));
#994=CARTESIAN_POINT('',(0.332787187078898,0.599111929747018,-0.118131795931466));
#995=CARTESIAN_POINT('',(0.357382009957605,0.599111929747018,-0.0755323131023886));
#996=CARTESIAN_POINT('',(0.332787187078898,0.599111929747018,-0.118131795931466));
#997=CARTESIAN_POINT('',(0.332787187078898,0.0711470791127607,-0.118131795931466));
#998=CARTESIAN_POINT('',(0.332787187078898,0.0764964593136688,-0.118131795931466));
#999=CARTESIAN_POINT('',(0.334387187078898,0.0711470791127607,-0.115360514639356));
#1000=CARTESIAN_POINT('',(0.332287187078898,0.0711470791127607,-0.118997821335251));
#1001=CARTESIAN_POINT('',(0.332287187078898,0.599111929747018,-0.118997821335251));
#1002=CARTESIAN_POINT('',(0.332287187078898,0.0764964593136688,-0.118997821335251));
#1003=CARTESIAN_POINT('',(0.334387187078898,0.0764964593136688,-0.115360514639356));
#1004=CARTESIAN_POINT('',(0.357382009957605,0.599111929747018,-0.0755323131023886));
#1005=CARTESIAN_POINT('',(0.332787187078898,0.599111929747018,-0.118131795931466));
#1006=CARTESIAN_POINT('',(0.332787187078898,0.0890964593136688,-0.118131795931466));
#1007=CARTESIAN_POINT('',(0.332787187078898,0.104496459313669,-0.118131795931466));
#1008=CARTESIAN_POINT('',(0.334387187078898,0.0890964593136688,-0.115360514639356));
#1009=CARTESIAN_POINT('',(0.332287187078898,0.0890964593136689,-0.118997821335251));
#1010=CARTESIAN_POINT('',(0.332287187078898,0.599111929747018,-0.118997821335251));
#1011=CARTESIAN_POINT('',(0.332287187078898,0.104496459313669,-0.118997821335251));
#1012=CARTESIAN_POINT('',(0.334387187078898,0.104496459313669,-0.115360514639356));
#1013=CARTESIAN_POINT('',(0.357382009957605,0.599111929747018,-0.0755323131023886));
#1014=CARTESIAN_POINT('',(0.332787187078898,0.599111929747018,-0.118131795931466));
#1015=CARTESIAN_POINT('',(0.332787187078898,0.117096459313669,-0.118131795931466));
#1016=CARTESIAN_POINT('',(0.332787187078898,0.126629655924303,-0.118131795931467));
#1017=CARTESIAN_POINT('',(0.334387187078898,0.117096459313669,-0.115360514639356));
#1018=CARTESIAN_POINT('',(0.332287187078898,0.117096459313669,-0.118997821335251));
#1019=CARTESIAN_POINT('',(0.332287187078898,0.599111929747018,-0.118997821335251));
#1020=CARTESIAN_POINT('',(0.332287187078898,0.126629655924303,-0.118997821335251));
#1021=CARTESIAN_POINT('',(0.334387187078898,0.126629655924303,-0.115360514639356));
#1022=CARTESIAN_POINT('',(0.357382009957605,0.599111929747018,-0.0755323131023886));
#1023=CARTESIAN_POINT('',(0.332787187078898,0.599111929747018,-0.118131795931466));
#1024=CARTESIAN_POINT('',(0.332787187078898,0.139229655924303,-0.118131795931467));
#1025=CARTESIAN_POINT('',(0.332787187078898,0.148762852534937,-0.118131795931466));
#1026=CARTESIAN_POINT('',(0.334387187078898,0.139229655924303,-0.115360514639356));
#1027=CARTESIAN_POINT('',(0.332287187078898,0.139229655924303,-0.118997821335251));
#1028=CARTESIAN_POINT('',(0.332287187078898,0.599111929747018,-0.118997821335251));
#1029=CARTESIAN_POINT('',(0.332287187078898,0.148762852534937,-0.118997821335251));
#1030=CARTESIAN_POINT('',(0.334387187078898,0.148762852534937,-0.115360514639356));
#1031=CARTESIAN_POINT('',(0.247315140902242,0.131226901651261,-0.135021291305263));
#1032=CARTESIAN_POINT('',(-6.24500451351651E-17,0.,6.93889390390723E-17));
#1033=CARTESIAN_POINT('',(0.173981110873004,0.0923154241281709,-0.0275997656234246));
#1034=CARTESIAN_POINT('',(0.288467992959074,0.153062852534937,-0.135021291305263));
#1035=CARTESIAN_POINT('',(0.288467992959074,0.153062852534937,-0.0936987978144978));
#1036=CARTESIAN_POINT('',(0.270583285505471,0.143573119162716,-0.0833730571517823));
#1037=CARTESIAN_POINT('',(0.380988148973222,0.153062852534937,-0.135021291305263));
#1038=CARTESIAN_POINT('',(0.333886754831181,0.153062852534937,-0.107827288718149));
#1039=CARTESIAN_POINT('',(0.328649880383004,0.153062852534937,-0.116897821335251));
#1040=CARTESIAN_POINT('',(0.375751274525045,0.153062852534937,-0.144091823922365));
#1041=CARTESIAN_POINT('',(0.332568533730951,0.150862852534937,-0.114310514639356));
#1042=CARTESIAN_POINT('',(0.395384738448298,0.0764814262674684,-0.154272509065201));
#1043=CARTESIAN_POINT('',(0.329149880383004,0.152962852534937,-0.116031795931466));
#1044=CARTESIAN_POINT('',(0.0972565193120272,0.420152891140978,0.0166971979677693));
#1045=CARTESIAN_POINT('',(0.328649880383004,0.152962852534937,-0.116897821335251));
#1046=CARTESIAN_POINT('',(0.330749880383004,0.152962852534937,-0.113260514639356));
#1047=CARTESIAN_POINT('',(0.329149880383004,2.27484945101844E-19,-0.116031795931466));
#1048=CARTESIAN_POINT('',(0.329149880383004,3.49684495772014E-18,-0.116031795931466));
#1049=CARTESIAN_POINT('',(0.329149880383004,0.135029655924303,-0.116031795931467));
#1050=CARTESIAN_POINT('',(0.270680324235645,0.0675148279621514,-0.0822743819503909));
#1051=CARTESIAN_POINT('',(0.332568533730951,0.137129655924303,-0.114310514639356));
#1052=CARTESIAN_POINT('',(0.330749880383004,0.135029655924303,-0.113260514639356));
#1053=CARTESIAN_POINT('',(0.328649880383004,0.135029655924303,-0.116897821335251));
#1054=CARTESIAN_POINT('',(0.49139825597061,0.32295529283566,-0.210860639790929));
#1055=CARTESIAN_POINT('',(0.332568533730951,0.128729655924303,-0.114310514639356));
#1056=CARTESIAN_POINT('',(0.385800783182416,0.0654148279621515,-0.148739209912542));
#1057=CARTESIAN_POINT('',(0.329149880383004,0.130829655924303,-0.116031795931467));
#1058=CARTESIAN_POINT('',(0.0876725640461449,0.409086292835661,0.0222304971204278));
#1059=CARTESIAN_POINT('',(0.328649880383004,0.130829655924303,-0.116897821335251));
#1060=CARTESIAN_POINT('',(0.330749880383004,0.130829655924303,-0.113260514639356));
#1061=CARTESIAN_POINT('',(0.329149880383004,2.27484945101844E-19,-0.116031795931466));
#1062=CARTESIAN_POINT('',(0.329149880383004,3.49684495772014E-18,-0.116031795931466));
#1063=CARTESIAN_POINT('',(0.329149880383004,0.112896459313669,-0.116031795931466));
#1064=CARTESIAN_POINT('',(0.280264279501527,0.0564482296568344,-0.0878076811030493));
#1065=CARTESIAN_POINT('',(0.332568533730951,0.114996459313669,-0.114310514639356));
#1066=CARTESIAN_POINT('',(0.330749880383004,0.112896459313669,-0.113260514639356));
#1067=CARTESIAN_POINT('',(0.328649880383004,0.112896459313669,-0.116897821335251));
#1068=CARTESIAN_POINT('',(0.500982211236493,0.311888694530344,-0.216393938943588));
#1069=CARTESIAN_POINT('',(0.332568533730951,0.106596459313669,-0.114310514639356));
#1070=CARTESIAN_POINT('',(0.376216827916533,0.0543482296568344,-0.143205910759884));
#1071=CARTESIAN_POINT('',(0.329149880383004,0.108696459313669,-0.116031795931466));
#1072=CARTESIAN_POINT('',(0.0780886087802625,0.398019694530344,0.0277637962730863));
#1073=CARTESIAN_POINT('',(0.328649880383004,0.108696459313669,-0.116897821335251));
#1074=CARTESIAN_POINT('',(0.330749880383004,0.108696459313669,-0.113260514639356));
#1075=CARTESIAN_POINT('',(0.329149880383004,2.27484945101844E-19,-0.116031795931466));
#1076=CARTESIAN_POINT('',(0.329149880383004,3.49684495772014E-18,-0.116031795931466));
#1077=CARTESIAN_POINT('',(0.329149880383004,0.0848964593136689,-0.116031795931466));
#1078=CARTESIAN_POINT('',(0.292388635154509,0.0424482296568344,-0.0948076811030493));
#1079=CARTESIAN_POINT('',(0.332568533730951,0.0869964593136688,-0.114310514639356));
#1080=CARTESIAN_POINT('',(0.330749880383004,0.0848964593136689,-0.113260514639356));
#1081=CARTESIAN_POINT('',(0.328649880383004,0.0848964593136689,-0.116897821335251));
#1082=CARTESIAN_POINT('',(0.513106566889475,0.297888694530344,-0.223393938943588));
#1083=CARTESIAN_POINT('',(0.332568533730951,0.0785964593136689,-0.114310514639356));
#1084=CARTESIAN_POINT('',(0.364092472263551,0.0403482296568344,-0.136205910759884));
#1085=CARTESIAN_POINT('',(0.329149880383004,0.0806964593136688,-0.116031795931466));
#1086=CARTESIAN_POINT('',(0.0659642531272804,0.384019694530344,0.0347637962730863));
#1087=CARTESIAN_POINT('',(0.328649880383004,0.0806964593136689,-0.116897821335251));
#1088=CARTESIAN_POINT('',(0.330749880383004,0.0806964593136688,-0.113260514639356));
#1089=CARTESIAN_POINT('',(0.329149880383004,2.27484945101844E-19,-0.116031795931466));
#1090=CARTESIAN_POINT('',(0.329149880383004,3.49684495772014E-18,-0.116031795931466));
#1091=CARTESIAN_POINT('',(0.329149880383004,0.0669470791127607,-0.116031795931466));
#1092=CARTESIAN_POINT('',(0.300160944772595,0.0334735395563803,-0.0992950261532764));
#1093=CARTESIAN_POINT('',(0.332568533730951,0.0690470791127607,-0.114310514639356));
#1094=CARTESIAN_POINT('',(0.330749880383004,0.0669470791127607,-0.113260514639356));
#1095=CARTESIAN_POINT('',(0.328649880383004,0.0669470791127607,-0.116897821335251));
#1096=CARTESIAN_POINT('',(0.520878876507561,0.28891400442989,-0.227881283993815));
#1097=CARTESIAN_POINT('',(0.332568533730951,0.0606470791127607,-0.114310514639356));
#1098=CARTESIAN_POINT('',(0.356320162645465,0.0313735395563804,-0.131718565709657));
#1099=CARTESIAN_POINT('',(0.329149880383004,0.0627470791127607,-0.116031795931466));
#1100=CARTESIAN_POINT('',(0.0581919435091944,0.37504500442989,0.0392511413233133));
#1101=CARTESIAN_POINT('',(0.328649880383004,0.0627470791127607,-0.116897821335251));
#1102=CARTESIAN_POINT('',(0.330749880383004,0.0627470791127607,-0.113260514639356));
#1103=CARTESIAN_POINT('',(0.329149880383004,2.27484945101844E-19,-0.116031795931466));
#1104=CARTESIAN_POINT('',(0.329149880383004,3.49684495772014E-18,-0.116031795931466));
#1105=CARTESIAN_POINT('',(0.329149880383004,0.0527243189606954,-0.116031795931466));
#1106=CARTESIAN_POINT('',(0.323253791294966,0.051830014325659,-0.112627687309322));
#1107=CARTESIAN_POINT('',(0.35374470326171,0.,-0.0734323131023887));
#1108=CARTESIAN_POINT('',(0.351616213097065,0.0561319583600418,-0.0771189662109657));
#1109=CARTESIAN_POINT('',(0.328649880383004,0.599111929747018,-0.116897821335251));
#1110=CARTESIAN_POINT('',(0.328649880383004,0.599111929747018,-0.116897821335251));
#1111=CARTESIAN_POINT('',(0.328649880383004,0.599111929747018,-0.116897821335251));
#1112=CARTESIAN_POINT('',(0.328649880383004,0.599111929747018,-0.116897821335251));
#1113=CARTESIAN_POINT('',(0.328649880383004,0.599111929747018,-0.116897821335251));
#1114=CARTESIAN_POINT('',(0.252239592981699,0.599111929747018,-0.0727823213352507));
#1115=CARTESIAN_POINT('',(0.314645923137507,0.0505243935529648,-0.108812632849843));
#1116=CARTESIAN_POINT('',(0.192515867660703,0.032,-0.0383008124441669));
#1117=CARTESIAN_POINT('',(0.0315442286340598,0.,0.0546362066797608));
#1118=CARTESIAN_POINT('',(0.262401527369801,0.0426000890534745,-0.0786493168897088));
#1119=CARTESIAN_POINT('',(-0.0184579363714515,0.,-0.0319700835982274));
#1120=CARTESIAN_POINT('',(0.24811195047524,0.129725204443306,-0.135021291305263));
#1121=CARTESIAN_POINT('',(0.00362696445667256,0.,0.00628208671620352));
#1122=CARTESIAN_POINT('',(0.175396717018162,0.0911420641041861,-0.0264540752971533));
#1123=CARTESIAN_POINT('',(0.271917430515104,0.142356535370138,-0.0821803352169869));
#1124=CARTESIAN_POINT('',(0.288891073652255,0.151362852534937,-0.09198007265135));
#1125=CARTESIAN_POINT('',(0.288891073652255,0.151362852534937,-0.135021291305263));
#1126=CARTESIAN_POINT('',(0.380988148973222,0.151362852534937,-0.135021291305263));
#1127=CARTESIAN_POINT('',(0.332414511644747,0.151362852534937,-0.106977288718149));
#1128=CARTESIAN_POINT('',(0.32802763719657,0.151362852534937,-0.114575578148817));
#1129=CARTESIAN_POINT('',(0.376601274525044,0.151362852534937,-0.142619580735931));
#1130=CARTESIAN_POINT('',(0.352272460075277,0.,-0.0725823131023887));
#1131=CARTESIAN_POINT('',(0.32802763719657,0.,-0.114575578148817));
#1132=CARTESIAN_POINT('',(0.32802763719657,0.054273543792197,-0.114575578148817));
#1133=CARTESIAN_POINT('',(0.350087561701393,0.0576195401702438,-0.0763666680953302));
#1134=CARTESIAN_POINT('',(0.253089592981698,0.599111929747018,-0.0713100781488172));
#1135=CARTESIAN_POINT('',(0.0323942286340596,0.,0.0561084498661942));
#1136=CARTESIAN_POINT('',(0.193088713648862,0.0338063318872132,-0.0366685543143902));
#1137=CARTESIAN_POINT('',(0.315289222433508,0.0523414116287374,-0.107221050956314));
#1138=CARTESIAN_POINT('',(0.262146591317957,0.0442808649485511,-0.0786493168897088));
#1139=CARTESIAN_POINT('',(-0.029794112557978,0.,-0.0516049167168438));
#1140=CARTESIAN_POINT('',(0.0511852447854373,0.,0.0886554445662276));
#1141=MECHANICAL_DESIGN_GEOMETRIC_PRESENTATION_REPRESENTATION('',(#706),#1142);
#1142=(
GEOMETRIC_REPRESENTATION_CONTEXT(3)
GLOBAL_UNCERTAINTY_ASSIGNED_CONTEXT((#1143))
GLOBAL_UNIT_ASSIGNED_CONTEXT((#1146,#1145,#1144))
REPRESENTATION_CONTEXT('bin_third_right','TOP_LEVEL_ASSEMBLY_PART')
);
#1143=UNCERTAINTY_MEASURE_WITH_UNIT(LENGTH_MEASURE(1.E-08),#1146,'DISTANCE_ACCURACY_VALUE','Maximum Tolerance applied to model');
#1144=(
NAMED_UNIT(*)
SI_UNIT($,.STERADIAN.)
SOLID_ANGLE_UNIT()
);
#1145=(
NAMED_UNIT(*)
PLANE_ANGLE_UNIT()
SI_UNIT($,.RADIAN.)
);
#1146=(
LENGTH_UNIT()
NAMED_UNIT(*)
SI_UNIT($,.METRE.)
);
#1147=PRODUCT_DEFINITION_SHAPE('','',#1148);
#1148=PRODUCT_DEFINITION('','',#1150,#1149);
#1149=PRODUCT_DEFINITION_CONTEXT('',#1156,'design');
#1150=PRODUCT_DEFINITION_FORMATION_WITH_SPECIFIED_SOURCE('','',#1152,.NOT_KNOWN.);
#1151=PRODUCT_RELATED_PRODUCT_CATEGORY('','',(#1152));
#1152=PRODUCT('bin_third_right','bin_third_right','bin_third_right',(#1154));
#1153=PRODUCT_CATEGORY('','');
#1154=PRODUCT_CONTEXT('',#1156,'mechanical');
#1155=APPLICATION_PROTOCOL_DEFINITION('international standard','ap242_managed_model_based_3d_engineering',2020,#1156);
#1156=APPLICATION_CONTEXT('managed model based 3d engineering');
ENDSEC;
END-ISO-10303-21;
