ISO-10303-21;
HEADER;
/*Generated by software containing ST-Developer
 * from STEP Tools, Inc. (www.steptools.com) 
 */
/*OPTION: using custom renumber hook */
/*description */
/*implementation_level */
FILE_DESCRIPTION(('STEP AP242 Edition 2','STEP AP242 Edition 2''CAx-IF Rec.Pracs.---Representation and Presentation of Product Manufa
cturing Information (PMI)---4.0---2014-10-13','STEP AP242 Edition 2''CAx-IF Rec.Pracs.---Representation and Presentation of Product Manufa
cturing Information (PMI)---4.0---2014-10-13''CAx-IF Rec.Pracs.---3D Tessellated Geometry---0.4---2014-09-14','STEP AP242 Edition 2''CAx-IF Rec.Pracs.---Representation and Presentation of Product Manufa
cturing Information (PMI)---4.0---2014-10-13''CAx-IF Rec.Pracs.---3D Tessellated Geometry---0.4---2014-09-14''2;1','STEP AP242 Edition 2''CAx-IF Rec.Pracs.---Representation and Presentation of Product Manufa
cturing Information (PMI)---4.0---2014-10-13''CAx-IF Rec.Pracs.---3D Tessellated Geometry---0.4---2014-09-14''2;1''CAx-IF Rec.Pracs.---User Defined Attributes---1.5---2016-08-15'),'2;1');
/*name */
/*time_stamp */
/*author */
/*organization */
/*preprocessor_version */
/*originating_system */
/*authorisation */
FILE_NAME('/vol/tmp/translate-10592741051740728410/0_bins - bin_third_center.step','2026-03-05T09:56:05',(''),(''),'ST-DEVELOPER v20','ONSHAPE BY PTC INC, 1.211','  ');
FILE_SCHEMA(('AP242_MANAGED_MODEL_BASED_3D_ENGINEERING_MIM_LF { 1 0 10303 442 3 1 4 }'));
ENDSEC;
DATA;
#10=SHAPE_REPRESENTATION_RELATIONSHIP('','',#653,#11);
#11=ADVANCED_BREP_SHAPE_REPRESENTATION('',(#651),#1043);
#12=CYLINDRICAL_SURFACE('',#694,0.188608478321005);
#13=ELLIPSE('',#659,2.51541051825832,0.188608478321005);
#14=ELLIPSE('',#677,2.51541051825833,0.188608478321005);
#15=ELLIPSE('',#688,2.51541051825832,0.188608478321005);
#16=ELLIPSE('',#690,2.51541051825833,0.188608478321005);
#17=LINE('',#864,#99);
#18=LINE('',#866,#100);
#19=LINE('',#868,#101);
#20=LINE('',#870,#102);
#21=LINE('',#873,#103);
#22=LINE('',#875,#104);
#23=LINE('',#877,#105);
#24=LINE('',#881,#106);
#25=LINE('',#883,#107);
#26=LINE('',#885,#108);
#27=LINE('',#887,#109);
#28=LINE('',#889,#110);
#29=LINE('',#891,#111);
#30=LINE('',#893,#112);
#31=LINE('',#896,#113);
#32=LINE('',#898,#114);
#33=LINE('',#900,#115);
#34=LINE('',#902,#116);
#35=LINE('',#905,#117);
#36=LINE('',#907,#118);
#37=LINE('',#909,#119);
#38=LINE('',#911,#120);
#39=LINE('',#914,#121);
#40=LINE('',#916,#122);
#41=LINE('',#918,#123);
#42=LINE('',#920,#124);
#43=LINE('',#923,#125);
#44=LINE('',#925,#126);
#45=LINE('',#927,#127);
#46=LINE('',#929,#128);
#47=LINE('',#931,#129);
#48=LINE('',#933,#130);
#49=LINE('',#935,#131);
#50=LINE('',#937,#132);
#51=LINE('',#939,#133);
#52=LINE('',#941,#134);
#53=LINE('',#943,#135);
#54=LINE('',#945,#136);
#55=LINE('',#947,#137);
#56=LINE('',#949,#138);
#57=LINE('',#951,#139);
#58=LINE('',#953,#140);
#59=LINE('',#955,#141);
#60=LINE('',#957,#142);
#61=LINE('',#959,#143);
#62=LINE('',#961,#144);
#63=LINE('',#963,#145);
#64=LINE('',#965,#146);
#65=LINE('',#967,#147);
#66=LINE('',#969,#148);
#67=LINE('',#971,#149);
#68=LINE('',#973,#150);
#69=LINE('',#975,#151);
#70=LINE('',#977,#152);
#71=LINE('',#979,#153);
#72=LINE('',#981,#154);
#73=LINE('',#984,#155);
#74=LINE('',#986,#156);
#75=LINE('',#988,#157);
#76=LINE('',#990,#158);
#77=LINE('',#994,#159);
#78=LINE('',#995,#160);
#79=LINE('',#997,#161);
#80=LINE('',#999,#162);
#81=LINE('',#1001,#163);
#82=LINE('',#1003,#164);
#83=LINE('',#1005,#165);
#84=LINE('',#1006,#166);
#85=LINE('',#1010,#167);
#86=LINE('',#1012,#168);
#87=LINE('',#1015,#169);
#88=LINE('',#1016,#170);
#89=LINE('',#1017,#171);
#90=LINE('',#1018,#172);
#91=LINE('',#1019,#173);
#92=LINE('',#1021,#174);
#93=LINE('',#1023,#175);
#94=LINE('',#1028,#176);
#95=LINE('',#1030,#177);
#96=LINE('',#1034,#178);
#97=LINE('',#1036,#179);
#98=LINE('',#1039,#180);
#99=VECTOR('',#701,1.);
#100=VECTOR('',#702,1.);
#101=VECTOR('',#703,1.);
#102=VECTOR('',#706,1.);
#103=VECTOR('',#707,1.);
#104=VECTOR('',#708,1.);
#105=VECTOR('',#709,1.);
#106=VECTOR('',#714,1.);
#107=VECTOR('',#715,1.);
#108=VECTOR('',#716,1.);
#109=VECTOR('',#717,1.);
#110=VECTOR('',#718,1.);
#111=VECTOR('',#719,1.);
#112=VECTOR('',#722,1.);
#113=VECTOR('',#723,1.);
#114=VECTOR('',#724,1.);
#115=VECTOR('',#725,1.);
#116=VECTOR('',#728,1.);
#117=VECTOR('',#729,1.);
#118=VECTOR('',#730,1.);
#119=VECTOR('',#731,1.);
#120=VECTOR('',#734,1.);
#121=VECTOR('',#735,1.);
#122=VECTOR('',#736,1.);
#123=VECTOR('',#737,1.);
#124=VECTOR('',#740,1.);
#125=VECTOR('',#741,1.);
#126=VECTOR('',#742,1.);
#127=VECTOR('',#743,1.);
#128=VECTOR('',#746,1.);
#129=VECTOR('',#747,1.);
#130=VECTOR('',#748,1.);
#131=VECTOR('',#751,1.);
#132=VECTOR('',#752,1.);
#133=VECTOR('',#755,1.);
#134=VECTOR('',#756,1.);
#135=VECTOR('',#757,1.);
#136=VECTOR('',#760,1.);
#137=VECTOR('',#761,1.);
#138=VECTOR('',#764,1.);
#139=VECTOR('',#765,1.);
#140=VECTOR('',#768,1.);
#141=VECTOR('',#769,1.);
#142=VECTOR('',#770,1.);
#143=VECTOR('',#773,1.);
#144=VECTOR('',#774,1.);
#145=VECTOR('',#777,1.);
#146=VECTOR('',#778,1.);
#147=VECTOR('',#781,1.);
#148=VECTOR('',#782,1.);
#149=VECTOR('',#783,1.);
#150=VECTOR('',#786,1.);
#151=VECTOR('',#787,1.);
#152=VECTOR('',#790,1.);
#153=VECTOR('',#791,1.);
#154=VECTOR('',#794,1.);
#155=VECTOR('',#795,1.);
#156=VECTOR('',#796,1.);
#157=VECTOR('',#797,1.);
#158=VECTOR('',#800,1.);
#159=VECTOR('',#803,1.);
#160=VECTOR('',#804,1.);
#161=VECTOR('',#805,1.);
#162=VECTOR('',#808,1.);
#163=VECTOR('',#809,1.);
#164=VECTOR('',#810,1.);
#165=VECTOR('',#811,1.);
#166=VECTOR('',#812,1.);
#167=VECTOR('',#817,1.);
#168=VECTOR('',#820,1.);
#169=VECTOR('',#825,1.);
#170=VECTOR('',#826,1.);
#171=VECTOR('',#827,1.);
#172=VECTOR('',#828,1.);
#173=VECTOR('',#829,1.);
#174=VECTOR('',#832,1.);
#175=VECTOR('',#835,1.);
#176=VECTOR('',#842,1.);
#177=VECTOR('',#843,1.);
#178=VECTOR('',#848,1.);
#179=VECTOR('',#849,1.);
#180=VECTOR('',#854,1.);
#181=ORIENTED_EDGE('',*,*,#361,.F.);
#182=ORIENTED_EDGE('',*,*,#362,.F.);
#183=ORIENTED_EDGE('',*,*,#363,.F.);
#184=ORIENTED_EDGE('',*,*,#364,.T.);
#185=ORIENTED_EDGE('',*,*,#365,.F.);
#186=ORIENTED_EDGE('',*,*,#366,.T.);
#187=ORIENTED_EDGE('',*,*,#367,.T.);
#188=ORIENTED_EDGE('',*,*,#368,.F.);
#189=ORIENTED_EDGE('',*,*,#369,.F.);
#190=ORIENTED_EDGE('',*,*,#364,.F.);
#191=ORIENTED_EDGE('',*,*,#370,.T.);
#192=ORIENTED_EDGE('',*,*,#371,.T.);
#193=ORIENTED_EDGE('',*,*,#372,.F.);
#194=ORIENTED_EDGE('',*,*,#373,.T.);
#195=ORIENTED_EDGE('',*,*,#374,.F.);
#196=ORIENTED_EDGE('',*,*,#375,.T.);
#197=ORIENTED_EDGE('',*,*,#376,.T.);
#198=ORIENTED_EDGE('',*,*,#377,.T.);
#199=ORIENTED_EDGE('',*,*,#378,.F.);
#200=ORIENTED_EDGE('',*,*,#379,.T.);
#201=ORIENTED_EDGE('',*,*,#380,.T.);
#202=ORIENTED_EDGE('',*,*,#381,.T.);
#203=ORIENTED_EDGE('',*,*,#382,.F.);
#204=ORIENTED_EDGE('',*,*,#383,.T.);
#205=ORIENTED_EDGE('',*,*,#384,.F.);
#206=ORIENTED_EDGE('',*,*,#385,.T.);
#207=ORIENTED_EDGE('',*,*,#386,.T.);
#208=ORIENTED_EDGE('',*,*,#387,.T.);
#209=ORIENTED_EDGE('',*,*,#388,.F.);
#210=ORIENTED_EDGE('',*,*,#389,.T.);
#211=ORIENTED_EDGE('',*,*,#390,.T.);
#212=ORIENTED_EDGE('',*,*,#391,.T.);
#213=ORIENTED_EDGE('',*,*,#392,.F.);
#214=ORIENTED_EDGE('',*,*,#393,.F.);
#215=ORIENTED_EDGE('',*,*,#394,.F.);
#216=ORIENTED_EDGE('',*,*,#390,.F.);
#217=ORIENTED_EDGE('',*,*,#391,.F.);
#218=ORIENTED_EDGE('',*,*,#394,.T.);
#219=ORIENTED_EDGE('',*,*,#395,.F.);
#220=ORIENTED_EDGE('',*,*,#396,.F.);
#221=ORIENTED_EDGE('',*,*,#385,.F.);
#222=ORIENTED_EDGE('',*,*,#397,.T.);
#223=ORIENTED_EDGE('',*,*,#398,.F.);
#224=ORIENTED_EDGE('',*,*,#399,.F.);
#225=ORIENTED_EDGE('',*,*,#386,.F.);
#226=ORIENTED_EDGE('',*,*,#399,.T.);
#227=ORIENTED_EDGE('',*,*,#400,.F.);
#228=ORIENTED_EDGE('',*,*,#401,.F.);
#229=ORIENTED_EDGE('',*,*,#387,.F.);
#230=ORIENTED_EDGE('',*,*,#401,.T.);
#231=ORIENTED_EDGE('',*,*,#402,.F.);
#232=ORIENTED_EDGE('',*,*,#403,.F.);
#233=ORIENTED_EDGE('',*,*,#383,.F.);
#234=ORIENTED_EDGE('',*,*,#404,.T.);
#235=ORIENTED_EDGE('',*,*,#405,.F.);
#236=ORIENTED_EDGE('',*,*,#406,.F.);
#237=ORIENTED_EDGE('',*,*,#380,.F.);
#238=ORIENTED_EDGE('',*,*,#406,.T.);
#239=ORIENTED_EDGE('',*,*,#407,.F.);
#240=ORIENTED_EDGE('',*,*,#408,.F.);
#241=ORIENTED_EDGE('',*,*,#381,.F.);
#242=ORIENTED_EDGE('',*,*,#408,.T.);
#243=ORIENTED_EDGE('',*,*,#409,.F.);
#244=ORIENTED_EDGE('',*,*,#410,.F.);
#245=ORIENTED_EDGE('',*,*,#379,.F.);
#246=ORIENTED_EDGE('',*,*,#411,.T.);
#247=ORIENTED_EDGE('',*,*,#412,.F.);
#248=ORIENTED_EDGE('',*,*,#413,.F.);
#249=ORIENTED_EDGE('',*,*,#376,.F.);
#250=ORIENTED_EDGE('',*,*,#413,.T.);
#251=ORIENTED_EDGE('',*,*,#414,.F.);
#252=ORIENTED_EDGE('',*,*,#415,.F.);
#253=ORIENTED_EDGE('',*,*,#377,.F.);
#254=ORIENTED_EDGE('',*,*,#415,.T.);
#255=ORIENTED_EDGE('',*,*,#416,.F.);
#256=ORIENTED_EDGE('',*,*,#417,.F.);
#257=ORIENTED_EDGE('',*,*,#418,.F.);
#258=ORIENTED_EDGE('',*,*,#419,.T.);
#259=ORIENTED_EDGE('',*,*,#420,.F.);
#260=ORIENTED_EDGE('',*,*,#421,.F.);
#261=ORIENTED_EDGE('',*,*,#422,.T.);
#262=ORIENTED_EDGE('',*,*,#423,.T.);
#263=ORIENTED_EDGE('',*,*,#424,.F.);
#264=ORIENTED_EDGE('',*,*,#392,.T.);
#265=ORIENTED_EDGE('',*,*,#389,.F.);
#266=ORIENTED_EDGE('',*,*,#425,.T.);
#267=ORIENTED_EDGE('',*,*,#426,.F.);
#268=ORIENTED_EDGE('',*,*,#367,.F.);
#269=ORIENTED_EDGE('',*,*,#427,.T.);
#270=ORIENTED_EDGE('',*,*,#428,.T.);
#271=ORIENTED_EDGE('',*,*,#429,.T.);
#272=ORIENTED_EDGE('',*,*,#430,.F.);
#273=ORIENTED_EDGE('',*,*,#368,.T.);
#274=ORIENTED_EDGE('',*,*,#426,.T.);
#275=ORIENTED_EDGE('',*,*,#431,.F.);
#276=ORIENTED_EDGE('',*,*,#371,.F.);
#277=ORIENTED_EDGE('',*,*,#432,.F.);
#278=ORIENTED_EDGE('',*,*,#422,.F.);
#279=ORIENTED_EDGE('',*,*,#366,.F.);
#280=ORIENTED_EDGE('',*,*,#433,.T.);
#281=ORIENTED_EDGE('',*,*,#363,.T.);
#282=ORIENTED_EDGE('',*,*,#434,.T.);
#283=ORIENTED_EDGE('',*,*,#427,.F.);
#284=ORIENTED_EDGE('',*,*,#370,.F.);
#285=ORIENTED_EDGE('',*,*,#424,.T.);
#286=ORIENTED_EDGE('',*,*,#435,.T.);
#287=ORIENTED_EDGE('',*,*,#375,.F.);
#288=ORIENTED_EDGE('',*,*,#436,.T.);
#289=ORIENTED_EDGE('',*,*,#420,.T.);
#290=ORIENTED_EDGE('',*,*,#437,.T.);
#291=ORIENTED_EDGE('',*,*,#416,.T.);
#292=ORIENTED_EDGE('',*,*,#414,.T.);
#293=ORIENTED_EDGE('',*,*,#412,.T.);
#294=ORIENTED_EDGE('',*,*,#438,.T.);
#295=ORIENTED_EDGE('',*,*,#409,.T.);
#296=ORIENTED_EDGE('',*,*,#407,.T.);
#297=ORIENTED_EDGE('',*,*,#405,.T.);
#298=ORIENTED_EDGE('',*,*,#439,.T.);
#299=ORIENTED_EDGE('',*,*,#402,.T.);
#300=ORIENTED_EDGE('',*,*,#400,.T.);
#301=ORIENTED_EDGE('',*,*,#398,.T.);
#302=ORIENTED_EDGE('',*,*,#440,.T.);
#303=ORIENTED_EDGE('',*,*,#395,.T.);
#304=ORIENTED_EDGE('',*,*,#393,.T.);
#305=ORIENTED_EDGE('',*,*,#441,.T.);
#306=ORIENTED_EDGE('',*,*,#372,.T.);
#307=ORIENTED_EDGE('',*,*,#431,.T.);
#308=ORIENTED_EDGE('',*,*,#425,.F.);
#309=ORIENTED_EDGE('',*,*,#388,.T.);
#310=ORIENTED_EDGE('',*,*,#396,.T.);
#311=ORIENTED_EDGE('',*,*,#440,.F.);
#312=ORIENTED_EDGE('',*,*,#397,.F.);
#313=ORIENTED_EDGE('',*,*,#384,.T.);
#314=ORIENTED_EDGE('',*,*,#403,.T.);
#315=ORIENTED_EDGE('',*,*,#439,.F.);
#316=ORIENTED_EDGE('',*,*,#404,.F.);
#317=ORIENTED_EDGE('',*,*,#382,.T.);
#318=ORIENTED_EDGE('',*,*,#410,.T.);
#319=ORIENTED_EDGE('',*,*,#438,.F.);
#320=ORIENTED_EDGE('',*,*,#411,.F.);
#321=ORIENTED_EDGE('',*,*,#378,.T.);
#322=ORIENTED_EDGE('',*,*,#417,.T.);
#323=ORIENTED_EDGE('',*,*,#437,.F.);
#324=ORIENTED_EDGE('',*,*,#419,.F.);
#325=ORIENTED_EDGE('',*,*,#373,.F.);
#326=ORIENTED_EDGE('',*,*,#441,.F.);
#327=ORIENTED_EDGE('',*,*,#418,.T.);
#328=ORIENTED_EDGE('',*,*,#442,.T.);
#329=ORIENTED_EDGE('',*,*,#436,.F.);
#330=ORIENTED_EDGE('',*,*,#374,.T.);
#331=ORIENTED_EDGE('',*,*,#442,.F.);
#332=ORIENTED_EDGE('',*,*,#421,.T.);
#333=ORIENTED_EDGE('',*,*,#362,.T.);
#334=ORIENTED_EDGE('',*,*,#443,.T.);
#335=ORIENTED_EDGE('',*,*,#444,.F.);
#336=ORIENTED_EDGE('',*,*,#445,.T.);
#337=ORIENTED_EDGE('',*,*,#428,.F.);
#338=ORIENTED_EDGE('',*,*,#434,.F.);
#339=ORIENTED_EDGE('',*,*,#446,.F.);
#340=ORIENTED_EDGE('',*,*,#433,.F.);
#341=ORIENTED_EDGE('',*,*,#365,.T.);
#342=ORIENTED_EDGE('',*,*,#430,.T.);
#343=ORIENTED_EDGE('',*,*,#447,.F.);
#344=ORIENTED_EDGE('',*,*,#448,.T.);
#345=ORIENTED_EDGE('',*,*,#449,.F.);
#346=ORIENTED_EDGE('',*,*,#448,.F.);
#347=ORIENTED_EDGE('',*,*,#450,.F.);
#348=ORIENTED_EDGE('',*,*,#444,.T.);
#349=ORIENTED_EDGE('',*,*,#450,.T.);
#350=ORIENTED_EDGE('',*,*,#447,.T.);
#351=ORIENTED_EDGE('',*,*,#429,.F.);
#352=ORIENTED_EDGE('',*,*,#445,.F.);
#353=ORIENTED_EDGE('',*,*,#369,.T.);
#354=ORIENTED_EDGE('',*,*,#435,.F.);
#355=ORIENTED_EDGE('',*,*,#423,.F.);
#356=ORIENTED_EDGE('',*,*,#432,.T.);
#357=ORIENTED_EDGE('',*,*,#446,.T.);
#358=ORIENTED_EDGE('',*,*,#449,.T.);
#359=ORIENTED_EDGE('',*,*,#443,.F.);
#360=ORIENTED_EDGE('',*,*,#361,.T.);
#361=EDGE_CURVE('',#451,#452,#511,.T.);
#362=EDGE_CURVE('',#453,#451,#17,.T.);
#363=EDGE_CURVE('',#454,#453,#18,.T.);
#364=EDGE_CURVE('',#454,#452,#19,.T.);
#365=EDGE_CURVE('',#455,#456,#20,.T.);
#366=EDGE_CURVE('',#455,#457,#21,.T.);
#367=EDGE_CURVE('',#457,#458,#22,.T.);
#368=EDGE_CURVE('',#456,#458,#23,.T.);
#369=EDGE_CURVE('',#452,#459,#13,.T.);
#370=EDGE_CURVE('',#454,#460,#24,.T.);
#371=EDGE_CURVE('',#460,#461,#25,.T.);
#372=EDGE_CURVE('',#462,#461,#26,.T.);
#373=EDGE_CURVE('',#462,#463,#27,.T.);
#374=EDGE_CURVE('',#464,#463,#28,.T.);
#375=EDGE_CURVE('',#464,#459,#29,.T.);
#376=EDGE_CURVE('',#465,#466,#30,.T.);
#377=EDGE_CURVE('',#466,#467,#31,.T.);
#378=EDGE_CURVE('',#468,#467,#32,.T.);
#379=EDGE_CURVE('',#468,#465,#33,.T.);
#380=EDGE_CURVE('',#469,#470,#34,.T.);
#381=EDGE_CURVE('',#470,#471,#35,.T.);
#382=EDGE_CURVE('',#472,#471,#36,.T.);
#383=EDGE_CURVE('',#472,#469,#37,.T.);
#384=EDGE_CURVE('',#473,#474,#38,.T.);
#385=EDGE_CURVE('',#473,#475,#39,.T.);
#386=EDGE_CURVE('',#475,#476,#40,.T.);
#387=EDGE_CURVE('',#476,#474,#41,.T.);
#388=EDGE_CURVE('',#477,#478,#42,.T.);
#389=EDGE_CURVE('',#477,#479,#43,.T.);
#390=EDGE_CURVE('',#479,#480,#44,.T.);
#391=EDGE_CURVE('',#480,#478,#45,.T.);
#392=EDGE_CURVE('',#481,#479,#46,.T.);
#393=EDGE_CURVE('',#482,#481,#47,.T.);
#394=EDGE_CURVE('',#480,#482,#48,.T.);
#395=EDGE_CURVE('',#483,#482,#49,.T.);
#396=EDGE_CURVE('',#478,#483,#50,.T.);
#397=EDGE_CURVE('',#473,#484,#51,.T.);
#398=EDGE_CURVE('',#485,#484,#52,.T.);
#399=EDGE_CURVE('',#475,#485,#53,.T.);
#400=EDGE_CURVE('',#486,#485,#54,.T.);
#401=EDGE_CURVE('',#476,#486,#55,.T.);
#402=EDGE_CURVE('',#487,#486,#56,.T.);
#403=EDGE_CURVE('',#474,#487,#57,.T.);
#404=EDGE_CURVE('',#472,#488,#58,.T.);
#405=EDGE_CURVE('',#489,#488,#59,.T.);
#406=EDGE_CURVE('',#469,#489,#60,.T.);
#407=EDGE_CURVE('',#490,#489,#61,.T.);
#408=EDGE_CURVE('',#470,#490,#62,.T.);
#409=EDGE_CURVE('',#491,#490,#63,.T.);
#410=EDGE_CURVE('',#471,#491,#64,.T.);
#411=EDGE_CURVE('',#468,#492,#65,.T.);
#412=EDGE_CURVE('',#493,#492,#66,.T.);
#413=EDGE_CURVE('',#465,#493,#67,.T.);
#414=EDGE_CURVE('',#494,#493,#68,.T.);
#415=EDGE_CURVE('',#466,#494,#69,.T.);
#416=EDGE_CURVE('',#495,#494,#70,.T.);
#417=EDGE_CURVE('',#467,#495,#71,.T.);
#418=EDGE_CURVE('',#496,#497,#72,.T.);
#419=EDGE_CURVE('',#496,#498,#73,.T.);
#420=EDGE_CURVE('',#499,#498,#74,.T.);
#421=EDGE_CURVE('',#497,#499,#75,.T.);
#422=EDGE_CURVE('',#457,#500,#76,.T.);
#423=EDGE_CURVE('',#500,#501,#14,.T.);
#424=EDGE_CURVE('',#481,#501,#77,.T.);
#425=EDGE_CURVE('',#477,#502,#78,.T.);
#426=EDGE_CURVE('',#458,#502,#79,.T.);
#427=EDGE_CURVE('',#460,#503,#80,.T.);
#428=EDGE_CURVE('',#503,#504,#81,.T.);
#429=EDGE_CURVE('',#504,#505,#82,.T.);
#430=EDGE_CURVE('',#456,#505,#83,.T.);
#431=EDGE_CURVE('',#461,#502,#84,.T.);
#432=EDGE_CURVE('',#500,#506,#512,.T.);
#433=EDGE_CURVE('',#455,#506,#85,.T.);
#434=EDGE_CURVE('',#453,#503,#86,.T.);
#435=EDGE_CURVE('',#501,#459,#513,.T.);
#436=EDGE_CURVE('',#464,#499,#87,.T.);
#437=EDGE_CURVE('',#498,#495,#88,.T.);
#438=EDGE_CURVE('',#492,#491,#89,.T.);
#439=EDGE_CURVE('',#488,#487,#90,.T.);
#440=EDGE_CURVE('',#484,#483,#91,.T.);
#441=EDGE_CURVE('',#496,#462,#92,.T.);
#442=EDGE_CURVE('',#497,#463,#93,.T.);
#443=EDGE_CURVE('',#451,#507,#15,.T.);
#444=EDGE_CURVE('',#508,#507,#94,.T.);
#445=EDGE_CURVE('',#508,#504,#95,.T.);
#446=EDGE_CURVE('',#506,#509,#16,.T.);
#447=EDGE_CURVE('',#510,#505,#96,.T.);
#448=EDGE_CURVE('',#510,#509,#97,.T.);
#449=EDGE_CURVE('',#509,#507,#514,.T.);
#450=EDGE_CURVE('',#508,#510,#98,.T.);
#451=VERTEX_POINT('',#862);
#452=VERTEX_POINT('',#863);
#453=VERTEX_POINT('',#865);
#454=VERTEX_POINT('',#867);
#455=VERTEX_POINT('',#871);
#456=VERTEX_POINT('',#872);
#457=VERTEX_POINT('',#874);
#458=VERTEX_POINT('',#876);
#459=VERTEX_POINT('',#880);
#460=VERTEX_POINT('',#882);
#461=VERTEX_POINT('',#884);
#462=VERTEX_POINT('',#886);
#463=VERTEX_POINT('',#888);
#464=VERTEX_POINT('',#890);
#465=VERTEX_POINT('',#894);
#466=VERTEX_POINT('',#895);
#467=VERTEX_POINT('',#897);
#468=VERTEX_POINT('',#899);
#469=VERTEX_POINT('',#903);
#470=VERTEX_POINT('',#904);
#471=VERTEX_POINT('',#906);
#472=VERTEX_POINT('',#908);
#473=VERTEX_POINT('',#912);
#474=VERTEX_POINT('',#913);
#475=VERTEX_POINT('',#915);
#476=VERTEX_POINT('',#917);
#477=VERTEX_POINT('',#921);
#478=VERTEX_POINT('',#922);
#479=VERTEX_POINT('',#924);
#480=VERTEX_POINT('',#926);
#481=VERTEX_POINT('',#930);
#482=VERTEX_POINT('',#932);
#483=VERTEX_POINT('',#936);
#484=VERTEX_POINT('',#940);
#485=VERTEX_POINT('',#942);
#486=VERTEX_POINT('',#946);
#487=VERTEX_POINT('',#950);
#488=VERTEX_POINT('',#954);
#489=VERTEX_POINT('',#956);
#490=VERTEX_POINT('',#960);
#491=VERTEX_POINT('',#964);
#492=VERTEX_POINT('',#968);
#493=VERTEX_POINT('',#970);
#494=VERTEX_POINT('',#974);
#495=VERTEX_POINT('',#978);
#496=VERTEX_POINT('',#982);
#497=VERTEX_POINT('',#983);
#498=VERTEX_POINT('',#985);
#499=VERTEX_POINT('',#987);
#500=VERTEX_POINT('',#991);
#501=VERTEX_POINT('',#993);
#502=VERTEX_POINT('',#996);
#503=VERTEX_POINT('',#1000);
#504=VERTEX_POINT('',#1002);
#505=VERTEX_POINT('',#1004);
#506=VERTEX_POINT('',#1009);
#507=VERTEX_POINT('',#1027);
#508=VERTEX_POINT('',#1029);
#509=VERTEX_POINT('',#1033);
#510=VERTEX_POINT('',#1035);
#511=CIRCLE('',#656,0.188608478321005);
#512=CIRCLE('',#680,0.188608478321005);
#513=CIRCLE('',#683,0.188608478321005);
#514=CIRCLE('',#692,0.188608478321005);
#515=EDGE_LOOP('',(#181,#182,#183,#184));
#516=EDGE_LOOP('',(#185,#186,#187,#188));
#517=EDGE_LOOP('',(#189,#190,#191,#192,#193,#194,#195,#196));
#518=EDGE_LOOP('',(#197,#198,#199,#200));
#519=EDGE_LOOP('',(#201,#202,#203,#204));
#520=EDGE_LOOP('',(#205,#206,#207,#208));
#521=EDGE_LOOP('',(#209,#210,#211,#212));
#522=EDGE_LOOP('',(#213,#214,#215,#216));
#523=EDGE_LOOP('',(#217,#218,#219,#220));
#524=EDGE_LOOP('',(#221,#222,#223,#224));
#525=EDGE_LOOP('',(#225,#226,#227,#228));
#526=EDGE_LOOP('',(#229,#230,#231,#232));
#527=EDGE_LOOP('',(#233,#234,#235,#236));
#528=EDGE_LOOP('',(#237,#238,#239,#240));
#529=EDGE_LOOP('',(#241,#242,#243,#244));
#530=EDGE_LOOP('',(#245,#246,#247,#248));
#531=EDGE_LOOP('',(#249,#250,#251,#252));
#532=EDGE_LOOP('',(#253,#254,#255,#256));
#533=EDGE_LOOP('',(#257,#258,#259,#260));
#534=EDGE_LOOP('',(#261,#262,#263,#264,#265,#266,#267,#268));
#535=EDGE_LOOP('',(#269,#270,#271,#272,#273,#274,#275,#276));
#536=EDGE_LOOP('',(#277,#278,#279,#280));
#537=EDGE_LOOP('',(#281,#282,#283,#284));
#538=EDGE_LOOP('',(#285,#286,#287,#288,#289,#290,#291,#292,#293,#294,#295,#296,#297,#298,#299,#300,#301,#302,#303,#304));
#539=EDGE_LOOP('',(#305,#306,#307,#308,#309,#310,#311,#312,#313,#314,#315,#316,#317,#318,#319,#320,#321,#322,#323,#324));
#540=EDGE_LOOP('',(#325,#326,#327,#328));
#541=EDGE_LOOP('',(#329,#330,#331,#332));
#542=EDGE_LOOP('',(#333,#334,#335,#336,#337,#338));
#543=EDGE_LOOP('',(#339,#340,#341,#342,#343,#344));
#544=EDGE_LOOP('',(#345,#346,#347,#348));
#545=EDGE_LOOP('',(#349,#350,#351,#352));
#546=EDGE_LOOP('',(#353,#354,#355,#356,#357,#358,#359,#360));
#547=FACE_BOUND('',#515,.T.);
#548=FACE_BOUND('',#516,.T.);
#549=FACE_BOUND('',#517,.T.);
#550=FACE_BOUND('',#518,.T.);
#551=FACE_BOUND('',#519,.T.);
#552=FACE_BOUND('',#520,.T.);
#553=FACE_BOUND('',#521,.T.);
#554=FACE_BOUND('',#522,.T.);
#555=FACE_BOUND('',#523,.T.);
#556=FACE_BOUND('',#524,.T.);
#557=FACE_BOUND('',#525,.T.);
#558=FACE_BOUND('',#526,.T.);
#559=FACE_BOUND('',#527,.T.);
#560=FACE_BOUND('',#528,.T.);
#561=FACE_BOUND('',#529,.T.);
#562=FACE_BOUND('',#530,.T.);
#563=FACE_BOUND('',#531,.T.);
#564=FACE_BOUND('',#532,.T.);
#565=FACE_BOUND('',#533,.T.);
#566=FACE_BOUND('',#534,.T.);
#567=FACE_BOUND('',#535,.T.);
#568=FACE_BOUND('',#536,.T.);
#569=FACE_BOUND('',#537,.T.);
#570=FACE_BOUND('',#538,.T.);
#571=FACE_BOUND('',#539,.T.);
#572=FACE_BOUND('',#540,.T.);
#573=FACE_BOUND('',#541,.T.);
#574=FACE_BOUND('',#542,.T.);
#575=FACE_BOUND('',#543,.T.);
#576=FACE_BOUND('',#544,.T.);
#577=FACE_BOUND('',#545,.T.);
#578=FACE_BOUND('',#546,.T.);
#579=PLANE('',#655);
#580=PLANE('',#657);
#581=PLANE('',#658);
#582=PLANE('',#660);
#583=PLANE('',#661);
#584=PLANE('',#662);
#585=PLANE('',#663);
#586=PLANE('',#664);
#587=PLANE('',#665);
#588=PLANE('',#666);
#589=PLANE('',#667);
#590=PLANE('',#668);
#591=PLANE('',#669);
#592=PLANE('',#670);
#593=PLANE('',#671);
#594=PLANE('',#672);
#595=PLANE('',#673);
#596=PLANE('',#674);
#597=PLANE('',#675);
#598=PLANE('',#676);
#599=PLANE('',#678);
#600=PLANE('',#679);
#601=PLANE('',#681);
#602=PLANE('',#682);
#603=PLANE('',#684);
#604=PLANE('',#685);
#605=PLANE('',#686);
#606=PLANE('',#687);
#607=PLANE('',#689);
#608=PLANE('',#691);
#609=PLANE('',#693);
#610=ADVANCED_FACE('',(#547),#579,.T.);
#611=ADVANCED_FACE('',(#548),#580,.F.);
#612=ADVANCED_FACE('',(#549),#581,.T.);
#613=ADVANCED_FACE('',(#550),#582,.F.);
#614=ADVANCED_FACE('',(#551),#583,.F.);
#615=ADVANCED_FACE('',(#552),#584,.F.);
#616=ADVANCED_FACE('',(#553),#585,.F.);
#617=ADVANCED_FACE('',(#554),#586,.T.);
#618=ADVANCED_FACE('',(#555),#587,.F.);
#619=ADVANCED_FACE('',(#556),#588,.F.);
#620=ADVANCED_FACE('',(#557),#589,.T.);
#621=ADVANCED_FACE('',(#558),#590,.F.);
#622=ADVANCED_FACE('',(#559),#591,.F.);
#623=ADVANCED_FACE('',(#560),#592,.T.);
#624=ADVANCED_FACE('',(#561),#593,.F.);
#625=ADVANCED_FACE('',(#562),#594,.F.);
#626=ADVANCED_FACE('',(#563),#595,.T.);
#627=ADVANCED_FACE('',(#564),#596,.F.);
#628=ADVANCED_FACE('',(#565),#597,.F.);
#629=ADVANCED_FACE('',(#566),#598,.F.);
#630=ADVANCED_FACE('',(#567),#599,.F.);
#631=ADVANCED_FACE('',(#568),#600,.T.);
#632=ADVANCED_FACE('',(#569),#601,.F.);
#633=ADVANCED_FACE('',(#570),#602,.F.);
#634=ADVANCED_FACE('',(#571),#603,.T.);
#635=ADVANCED_FACE('',(#572),#604,.F.);
#636=ADVANCED_FACE('',(#573),#605,.T.);
#637=ADVANCED_FACE('',(#574),#606,.F.);
#638=ADVANCED_FACE('',(#575),#607,.T.);
#639=ADVANCED_FACE('',(#576),#608,.T.);
#640=ADVANCED_FACE('',(#577),#609,.F.);
#641=ADVANCED_FACE('',(#578),#12,.F.);
#642=CLOSED_SHELL('',(#610,#611,#612,#613,#614,#615,#616,#617,#618,#619,#620,#621,#622,#623,#624,#625,#626,#627,#628,#629,#630,#631,#632,#633,#634,#635,#636,#637,#638,#639,#640,#641));
#643=STYLED_ITEM('',(#644),#651);
#644=PRESENTATION_STYLE_ASSIGNMENT((#645));
#645=SURFACE_STYLE_USAGE(.BOTH.,#646);
#646=SURFACE_SIDE_STYLE('',(#647));
#647=SURFACE_STYLE_FILL_AREA(#648);
#648=FILL_AREA_STYLE('',(#649));
#649=FILL_AREA_STYLE_COLOUR('',#650);
#650=COLOUR_RGB('',0.647058823529412,0.647058823529412,0.647058823529412);
#651=MANIFOLD_SOLID_BREP('bin_third_center',#642);
#652=SHAPE_DEFINITION_REPRESENTATION(#1048,#653);
#653=SHAPE_REPRESENTATION('bin_third_center',(#654),#1043);
#654=AXIS2_PLACEMENT_3D('',#859,#695,#696);
#655=AXIS2_PLACEMENT_3D('',#860,#697,#698);
#656=AXIS2_PLACEMENT_3D('',#861,#699,#700);
#657=AXIS2_PLACEMENT_3D('',#869,#704,#705);
#658=AXIS2_PLACEMENT_3D('',#878,#710,#711);
#659=AXIS2_PLACEMENT_3D('',#879,#712,#713);
#660=AXIS2_PLACEMENT_3D('',#892,#720,#721);
#661=AXIS2_PLACEMENT_3D('',#901,#726,#727);
#662=AXIS2_PLACEMENT_3D('',#910,#732,#733);
#663=AXIS2_PLACEMENT_3D('',#919,#738,#739);
#664=AXIS2_PLACEMENT_3D('',#928,#744,#745);
#665=AXIS2_PLACEMENT_3D('',#934,#749,#750);
#666=AXIS2_PLACEMENT_3D('',#938,#753,#754);
#667=AXIS2_PLACEMENT_3D('',#944,#758,#759);
#668=AXIS2_PLACEMENT_3D('',#948,#762,#763);
#669=AXIS2_PLACEMENT_3D('',#952,#766,#767);
#670=AXIS2_PLACEMENT_3D('',#958,#771,#772);
#671=AXIS2_PLACEMENT_3D('',#962,#775,#776);
#672=AXIS2_PLACEMENT_3D('',#966,#779,#780);
#673=AXIS2_PLACEMENT_3D('',#972,#784,#785);
#674=AXIS2_PLACEMENT_3D('',#976,#788,#789);
#675=AXIS2_PLACEMENT_3D('',#980,#792,#793);
#676=AXIS2_PLACEMENT_3D('',#989,#798,#799);
#677=AXIS2_PLACEMENT_3D('',#992,#801,#802);
#678=AXIS2_PLACEMENT_3D('',#998,#806,#807);
#679=AXIS2_PLACEMENT_3D('',#1007,#813,#814);
#680=AXIS2_PLACEMENT_3D('',#1008,#815,#816);
#681=AXIS2_PLACEMENT_3D('',#1011,#818,#819);
#682=AXIS2_PLACEMENT_3D('',#1013,#821,#822);
#683=AXIS2_PLACEMENT_3D('',#1014,#823,#824);
#684=AXIS2_PLACEMENT_3D('',#1020,#830,#831);
#685=AXIS2_PLACEMENT_3D('',#1022,#833,#834);
#686=AXIS2_PLACEMENT_3D('',#1024,#836,#837);
#687=AXIS2_PLACEMENT_3D('',#1025,#838,#839);
#688=AXIS2_PLACEMENT_3D('',#1026,#840,#841);
#689=AXIS2_PLACEMENT_3D('',#1031,#844,#845);
#690=AXIS2_PLACEMENT_3D('',#1032,#846,#847);
#691=AXIS2_PLACEMENT_3D('',#1037,#850,#851);
#692=AXIS2_PLACEMENT_3D('',#1038,#852,#853);
#693=AXIS2_PLACEMENT_3D('',#1040,#855,#856);
#694=AXIS2_PLACEMENT_3D('',#1041,#857,#858);
#695=DIRECTION('',(0.,0.,1.));
#696=DIRECTION('',(1.,0.,0.));
#697=DIRECTION('',(0.5,0.,0.866025403784439));
#698=DIRECTION('',(0.866025403784439,0.,-0.5));
#699=DIRECTION('',(0.5,0.,0.866025403784439));
#700=DIRECTION('',(0.866025403784439,0.,-0.5));
#701=DIRECTION('',(-0.85864927349199,-0.130237859993063,0.495741389190076));
#702=DIRECTION('',(0.,-1.,0.));
#703=DIRECTION('',(-0.85864927349199,-0.130237859993063,0.495741389190076));
#704=DIRECTION('',(0.,0.,-1.));
#705=DIRECTION('',(-1.,0.,0.));
#706=DIRECTION('',(0.988691702986182,-0.149962383437594,0.));
#707=DIRECTION('',(0.,-1.,0.));
#708=DIRECTION('',(0.988691702986182,-0.149962383437594,0.));
#709=DIRECTION('',(0.,-1.,0.));
#710=DIRECTION('',(-0.149962383437594,0.988691702986182,0.));
#711=DIRECTION('',(-0.988691702986182,-0.149962383437594,0.));
#712=DIRECTION('',(-0.149962383437594,0.988691702986182,0.));
#713=DIRECTION('',(0.490135398319072,0.0743425602916077,0.868470192375014));
#714=DIRECTION('',(0.988691702986182,0.149962383437594,0.));
#715=DIRECTION('',(0.858649273491989,0.130237859993063,-0.495741389190076));
#716=DIRECTION('',(0.498568292051715,0.0756216413636989,0.863545612876411));
#717=DIRECTION('',(0.858649273491989,0.130237859993063,-0.495741389190076));
#718=DIRECTION('',(0.498568292051715,0.0756216413636989,0.863545612876411));
#719=DIRECTION('',(-0.85864927349199,-0.130237859993063,0.495741389190075));
#720=DIRECTION('',(-0.5,7.10890453443263E-17,-0.866025403784439));
#721=DIRECTION('',(-0.866025403784439,0.,0.5));
#722=DIRECTION('',(3.55445226721631E-17,1.,6.15649191989705E-17));
#723=DIRECTION('',(-0.612372435695795,0.707106781186548,0.353553390593274));
#724=DIRECTION('',(3.55445226721631E-17,1.,6.15649191989705E-17));
#725=DIRECTION('',(0.612372435695795,0.707106781186548,-0.353553390593274));
#726=DIRECTION('',(-0.5,7.10890453443263E-17,-0.866025403784439));
#727=DIRECTION('',(-0.866025403784439,0.,0.5));
#728=DIRECTION('',(3.55445226721631E-17,1.,6.15649191989705E-17));
#729=DIRECTION('',(-0.612372435695795,0.707106781186548,0.353553390593274));
#730=DIRECTION('',(3.55445226721631E-17,1.,6.15649191989705E-17));
#731=DIRECTION('',(0.612372435695795,0.707106781186548,-0.353553390593274));
#732=DIRECTION('',(-0.5,7.10890453443263E-17,-0.866025403784439));
#733=DIRECTION('',(-0.866025403784439,0.,0.5));
#734=DIRECTION('',(3.55445226721631E-17,1.,6.15649191989705E-17));
#735=DIRECTION('',(0.612372435695795,0.707106781186548,-0.353553390593274));
#736=DIRECTION('',(3.55445226721631E-17,1.,6.15649191989705E-17));
#737=DIRECTION('',(-0.612372435695795,0.707106781186548,0.353553390593274));
#738=DIRECTION('',(-0.5,7.10890453443263E-17,-0.866025403784439));
#739=DIRECTION('',(-0.866025403784439,0.,0.5));
#740=DIRECTION('',(3.55445226721631E-17,1.,6.15649191989705E-17));
#741=DIRECTION('',(0.858649273491989,-0.130237859993062,-0.495741389190076));
#742=DIRECTION('',(3.55445226721631E-17,1.,6.15649191989705E-17));
#743=DIRECTION('',(-0.612372435695795,0.707106781186548,0.353553390593274));
#744=DIRECTION('',(0.866025403784439,0.,-0.5));
#745=DIRECTION('',(-0.5,0.,-0.866025403784439));
#746=DIRECTION('',(0.498568292051715,-0.0756216413636986,0.863545612876411));
#747=DIRECTION('',(0.,-1.,0.));
#748=DIRECTION('',(-0.5,7.10890453443263E-17,-0.866025403784439));
#749=DIRECTION('',(-0.612372435695795,-0.707106781186548,0.353553390593274));
#750=DIRECTION('',(0.612372435695795,-0.707106781186548,-0.353553390593274));
#751=DIRECTION('',(0.612372435695795,-0.707106781186548,-0.353553390593273));
#752=DIRECTION('',(-0.5,7.10890453443263E-17,-0.866025403784439));
#753=DIRECTION('',(-0.612372435695795,0.707106781186548,0.353553390593274));
#754=DIRECTION('',(-0.612372435695795,-0.707106781186548,0.353553390593274));
#755=DIRECTION('',(-0.5,7.10890453443263E-17,-0.866025403784439));
#756=DIRECTION('',(-0.612372435695795,-0.707106781186548,0.353553390593273));
#757=DIRECTION('',(-0.5,7.10890453443263E-17,-0.866025403784439));
#758=DIRECTION('',(0.866025403784439,0.,-0.5));
#759=DIRECTION('',(-0.5,0.,-0.866025403784439));
#760=DIRECTION('',(0.,-1.,0.));
#761=DIRECTION('',(-0.5,7.10890453443263E-17,-0.866025403784439));
#762=DIRECTION('',(-0.612372435695795,-0.707106781186548,0.353553390593274));
#763=DIRECTION('',(0.612372435695795,-0.707106781186548,-0.353553390593274));
#764=DIRECTION('',(0.612372435695795,-0.707106781186548,-0.353553390593273));
#765=DIRECTION('',(-0.5,7.10890453443263E-17,-0.866025403784439));
#766=DIRECTION('',(-0.612372435695795,0.707106781186548,0.353553390593274));
#767=DIRECTION('',(-0.612372435695795,-0.707106781186548,0.353553390593274));
#768=DIRECTION('',(-0.5,7.10890453443263E-17,-0.866025403784439));
#769=DIRECTION('',(-0.612372435695795,-0.707106781186548,0.353553390593273));
#770=DIRECTION('',(-0.5,7.10890453443263E-17,-0.866025403784439));
#771=DIRECTION('',(0.866025403784439,0.,-0.5));
#772=DIRECTION('',(-0.5,0.,-0.866025403784439));
#773=DIRECTION('',(0.,-1.,0.));
#774=DIRECTION('',(-0.5,7.10890453443263E-17,-0.866025403784439));
#775=DIRECTION('',(-0.612372435695795,-0.707106781186548,0.353553390593274));
#776=DIRECTION('',(0.612372435695795,-0.707106781186548,-0.353553390593274));
#777=DIRECTION('',(0.612372435695795,-0.707106781186548,-0.353553390593273));
#778=DIRECTION('',(-0.5,7.10890453443263E-17,-0.866025403784439));
#779=DIRECTION('',(-0.612372435695795,0.707106781186548,0.353553390593274));
#780=DIRECTION('',(-0.612372435695795,-0.707106781186548,0.353553390593274));
#781=DIRECTION('',(-0.5,7.10890453443263E-17,-0.866025403784439));
#782=DIRECTION('',(-0.612372435695795,-0.707106781186548,0.353553390593273));
#783=DIRECTION('',(-0.5,7.10890453443263E-17,-0.866025403784439));
#784=DIRECTION('',(0.866025403784439,0.,-0.5));
#785=DIRECTION('',(-0.5,0.,-0.866025403784439));
#786=DIRECTION('',(0.,-1.,0.));
#787=DIRECTION('',(-0.5,7.10890453443263E-17,-0.866025403784439));
#788=DIRECTION('',(-0.612372435695795,-0.707106781186548,0.353553390593274));
#789=DIRECTION('',(0.612372435695795,-0.707106781186548,-0.353553390593274));
#790=DIRECTION('',(0.612372435695795,-0.707106781186548,-0.353553390593273));
#791=DIRECTION('',(-0.5,7.10890453443263E-17,-0.866025403784439));
#792=DIRECTION('',(-0.612372435695795,0.707106781186548,0.353553390593274));
#793=DIRECTION('',(-0.612372435695795,-0.707106781186548,0.353553390593274));
#794=DIRECTION('',(0.612372435695795,0.707106781186548,-0.353553390593274));
#795=DIRECTION('',(-0.5,7.10890453443263E-17,-0.866025403784439));
#796=DIRECTION('',(-0.612372435695795,-0.707106781186548,0.353553390593273));
#797=DIRECTION('',(-0.5,7.10890453443263E-17,-0.866025403784439));
#798=DIRECTION('',(0.149962383437594,0.988691702986182,0.));
#799=DIRECTION('',(-0.988691702986182,0.149962383437594,0.));
#800=DIRECTION('',(-0.85864927349199,0.130237859993062,0.495741389190076));
#801=DIRECTION('',(0.149962383437594,0.988691702986182,0.));
#802=DIRECTION('',(0.490135398319072,-0.0743425602916075,0.868470192375014));
#803=DIRECTION('',(-0.85864927349199,0.130237859993062,0.495741389190075));
#804=DIRECTION('',(0.498568292051715,-0.0756216413636986,0.863545612876411));
#805=DIRECTION('',(0.858649273491989,-0.130237859993062,-0.495741389190076));
#806=DIRECTION('',(-0.5,0.,-0.866025403784439));
#807=DIRECTION('',(-0.866025403784439,0.,0.5));
#808=DIRECTION('',(0.,-1.,0.));
#809=DIRECTION('',(0.858649273491989,0.130237859993063,-0.495741389190076));
#810=DIRECTION('',(0.,-1.,0.));
#811=DIRECTION('',(0.858649273491989,-0.130237859993062,-0.495741389190076));
#812=DIRECTION('',(0.,-1.,0.));
#813=DIRECTION('',(0.5,0.,0.866025403784439));
#814=DIRECTION('',(0.866025403784439,0.,-0.5));
#815=DIRECTION('',(0.5,0.,0.866025403784439));
#816=DIRECTION('',(0.866025403784439,0.,-0.5));
#817=DIRECTION('',(-0.85864927349199,0.130237859993062,0.495741389190076));
#818=DIRECTION('',(0.,0.,-1.));
#819=DIRECTION('',(-1.,0.,0.));
#820=DIRECTION('',(0.988691702986182,0.149962383437594,0.));
#821=DIRECTION('',(0.5,0.,0.86602540378444));
#822=DIRECTION('',(0.86602540378444,0.,-0.5));
#823=DIRECTION('',(0.5,0.,0.866025403784439));
#824=DIRECTION('',(0.866025403784439,0.,-0.5));
#825=DIRECTION('',(0.,-1.,0.));
#826=DIRECTION('',(3.55445226721631E-17,-1.,-2.052163973299E-17));
#827=DIRECTION('',(3.55445226721631E-17,-1.,-2.052163973299E-17));
#828=DIRECTION('',(3.55445226721631E-17,-1.,-2.052163973299E-17));
#829=DIRECTION('',(3.55445226721631E-17,-1.,-2.052163973299E-17));
#830=DIRECTION('',(0.866025403784439,0.,-0.5));
#831=DIRECTION('',(0.,1.,0.));
#832=DIRECTION('',(3.55445226721631E-17,1.,6.15649191989705E-17));
#833=DIRECTION('',(-0.5,7.10890453443263E-17,-0.866025403784439));
#834=DIRECTION('',(-0.866025403784439,0.,0.5));
#835=DIRECTION('',(3.55445226721631E-17,1.,6.15649191989705E-17));
#836=DIRECTION('',(0.866025403784439,0.,-0.5));
#837=DIRECTION('',(-0.5,0.,-0.866025403784439));
#838=DIRECTION('',(-0.149962383437594,0.988691702986182,0.));
#839=DIRECTION('',(-0.988691702986182,-0.149962383437594,0.));
#840=DIRECTION('',(-0.149962383437594,0.988691702986182,0.));
#841=DIRECTION('',(0.490135398319072,0.0743425602916077,0.868470192375014));
#842=DIRECTION('',(-0.85864927349199,-0.130237859993063,0.495741389190075));
#843=DIRECTION('',(0.498568292051715,0.0756216413636989,0.863545612876411));
#844=DIRECTION('',(0.149962383437594,0.988691702986182,0.));
#845=DIRECTION('',(-0.988691702986182,0.149962383437594,0.));
#846=DIRECTION('',(0.149962383437594,0.988691702986182,0.));
#847=DIRECTION('',(0.490135398319072,-0.0743425602916075,0.868470192375014));
#848=DIRECTION('',(0.498568292051715,-0.0756216413636986,0.863545612876411));
#849=DIRECTION('',(-0.85864927349199,0.130237859993062,0.495741389190075));
#850=DIRECTION('',(0.5,0.,0.86602540378444));
#851=DIRECTION('',(0.86602540378444,0.,-0.5));
#852=DIRECTION('',(0.5,0.,0.86602540378444));
#853=DIRECTION('',(0.86602540378444,0.,-0.5));
#854=DIRECTION('',(0.,-1.,0.));
#855=DIRECTION('',(0.866025403784439,0.,-0.5));
#856=DIRECTION('',(0.,1.,0.));
#857=DIRECTION('',(0.5,0.,0.866025403784439));
#858=DIRECTION('',(0.866025403784439,0.,-0.5));
#859=CARTESIAN_POINT('',(0.,0.,0.));
#860=CARTESIAN_POINT('',(0.240503968546522,0.599111929747018,0.0247112122887518));
#861=CARTESIAN_POINT('',(0.0708262609368149,0.,0.122674682452695));
#862=CARTESIAN_POINT('',(0.231139558106826,0.036138904639431,0.030117757176912));
#863=CARTESIAN_POINT('',(0.230849462098606,0.0378143475567513,0.0302852441853495));
#864=CARTESIAN_POINT('',(0.303301640281345,0.0470842759862579,-0.0115450403918302));
#865=CARTESIAN_POINT('',(0.288656733260263,0.0448629716550189,-0.00308979938095164));
#866=CARTESIAN_POINT('',(0.288656733260263,0.599111929747018,-0.00308979938095164));
#867=CARTESIAN_POINT('',(0.288656733260263,0.0465824156382802,-0.00308979938095162));
#868=CARTESIAN_POINT('',(0.303109357192497,0.0487745549323178,-0.0114340256987229));
#869=CARTESIAN_POINT('',(0.310471960169581,0.599111929747018,-0.00308979938095164));
#870=CARTESIAN_POINT('',(0.214501417613775,-0.0336152714413659,-0.00308979938095164));
#871=CARTESIAN_POINT('',(0.288656733260263,-0.0448629716550189,-0.00308979938095164));
#872=CARTESIAN_POINT('',(0.332287187078898,-0.0514807341236877,-0.00308979938095172));
#873=CARTESIAN_POINT('',(0.288656733260263,0.599111929747018,-0.00308979938095164));
#874=CARTESIAN_POINT('',(0.288656733260263,-0.0465824156382802,-0.00308979938095164));
#875=CARTESIAN_POINT('',(0.214246481561931,-0.0352960473364425,-0.00308979938095164));
#876=CARTESIAN_POINT('',(0.332287187078898,-0.0532001781069491,-0.00308979938095175));
#877=CARTESIAN_POINT('',(0.332287187078898,0.599111929747018,-0.00308979938095172));
#878=CARTESIAN_POINT('',(0.262401527369801,0.0426000890534745,-0.0786493168897088));
#879=CARTESIAN_POINT('',(-0.0184579363714515,0.,-0.0319700835982274));
#880=CARTESIAN_POINT('',(0.192515867660703,0.032,-0.0383008124441669));
#881=CARTESIAN_POINT('',(0.391903016429198,0.0622425639517756,-0.00308979938095164));
#882=CARTESIAN_POINT('',(0.332287187078898,0.053200178106949,-0.00308979938095164));
#883=CARTESIAN_POINT('',(0.418004924932449,0.0662016387569905,-0.0525789584050249));
#884=CARTESIAN_POINT('',(0.378839526140417,0.0602611251131544,-0.0299668048695264));
#885=CARTESIAN_POINT('',(0.351616213097065,0.0561319583600418,-0.0771189662109657));
#886=CARTESIAN_POINT('',(0.329149880383004,0.0527243189606954,-0.116031795931466));
#887=CARTESIAN_POINT('',(0.323253791294966,0.051830014325659,-0.112627687309322));
#888=CARTESIAN_POINT('',(0.332787187078898,0.0532760169063365,-0.118131795931466));
#889=CARTESIAN_POINT('',(0.37782076840286,0.0601066023857885,-0.040131345031579));
#890=CARTESIAN_POINT('',(0.332287187078898,0.0532001781069491,-0.118997821335251));
#891=CARTESIAN_POINT('',(0.314645923137507,0.0505243935529648,-0.108812632849843));
#892=CARTESIAN_POINT('',(0.329149880383004,2.27484945101844E-19,-0.116031795931466));
#893=CARTESIAN_POINT('',(0.332787187078898,0.599111929747018,-0.118131795931466));
#894=CARTESIAN_POINT('',(0.332787187078898,0.0203,-0.118131795931466));
#895=CARTESIAN_POINT('',(0.332787187078898,0.0352532771011374,-0.118131795931466));
#896=CARTESIAN_POINT('',(0.34623365049907,0.0197266385505687,-0.125895115206751));
#897=CARTESIAN_POINT('',(0.329149880383004,0.0394532771011374,-0.116031795931466));
#898=CARTESIAN_POINT('',(0.329149880383004,3.49684495772014E-18,-0.116031795931466));
#899=CARTESIAN_POINT('',(0.329149880383004,0.0161,-0.116031795931466));
#900=CARTESIAN_POINT('',(0.322178375882539,0.00805,-0.112006795931466));
#901=CARTESIAN_POINT('',(0.329149880383004,2.27484945101844E-19,-0.116031795931466));
#902=CARTESIAN_POINT('',(0.332787187078898,0.599111929747018,-0.118131795931466));
#903=CARTESIAN_POINT('',(0.332787187078898,-0.0077,-0.118131795931466));
#904=CARTESIAN_POINT('',(0.332787187078898,0.0077,-0.118131795931466));
#905=CARTESIAN_POINT('',(0.334302731535521,0.00595,-0.119006795931466));
#906=CARTESIAN_POINT('',(0.329149880383004,0.0119,-0.116031795931466));
#907=CARTESIAN_POINT('',(0.329149880383004,3.49684495772014E-18,-0.116031795931466));
#908=CARTESIAN_POINT('',(0.329149880383004,-0.0119,-0.116031795931466));
#909=CARTESIAN_POINT('',(0.334302731535521,-0.00595,-0.119006795931466));
#910=CARTESIAN_POINT('',(0.329149880383004,2.27484945101844E-19,-0.116031795931466));
#911=CARTESIAN_POINT('',(0.329149880383004,3.49684495772014E-18,-0.116031795931466));
#912=CARTESIAN_POINT('',(0.329149880383004,-0.0394532771011375,-0.116031795931466));
#913=CARTESIAN_POINT('',(0.329149880383004,-0.0161,-0.116031795931466));
#914=CARTESIAN_POINT('',(0.34623365049907,-0.0197266385505688,-0.125895115206751));
#915=CARTESIAN_POINT('',(0.332787187078898,-0.0352532771011375,-0.118131795931466));
#916=CARTESIAN_POINT('',(0.332787187078898,0.599111929747018,-0.118131795931466));
#917=CARTESIAN_POINT('',(0.332787187078898,-0.0203,-0.118131795931466));
#918=CARTESIAN_POINT('',(0.322178375882539,-0.00805,-0.112006795931466));
#919=CARTESIAN_POINT('',(0.329149880383004,2.27484945101844E-19,-0.116031795931466));
#920=CARTESIAN_POINT('',(0.329149880383004,3.49684495772014E-18,-0.116031795931466));
#921=CARTESIAN_POINT('',(0.329149880383004,-0.0527243189606954,-0.116031795931466));
#922=CARTESIAN_POINT('',(0.329149880383004,-0.0436532771011374,-0.116031795931466));
#923=CARTESIAN_POINT('',(0.323253791294966,-0.051830014325659,-0.112627687309322));
#924=CARTESIAN_POINT('',(0.332787187078898,-0.0532760169063365,-0.118131795931466));
#925=CARTESIAN_POINT('',(0.332787187078898,0.599111929747018,-0.118131795931466));
#926=CARTESIAN_POINT('',(0.332787187078898,-0.0478532771011375,-0.118131795931466));
#927=CARTESIAN_POINT('',(0.31024745691899,-0.0218266385505687,-0.105118476656182));
#928=CARTESIAN_POINT('',(0.357382009957605,0.599111929747018,-0.0755323131023886));
#929=CARTESIAN_POINT('',(0.332644670341454,-0.0532544003098158,-0.118378642161648));
#930=CARTESIAN_POINT('',(0.332287187078898,-0.053200178106949,-0.118997821335251));
#931=CARTESIAN_POINT('',(0.332287187078898,0.599111929747018,-0.118997821335251));
#932=CARTESIAN_POINT('',(0.332287187078898,-0.0478532771011374,-0.118997821335251));
#933=CARTESIAN_POINT('',(0.334387187078898,-0.0478532771011375,-0.115360514639356));
#934=CARTESIAN_POINT('',(0.332568533730951,-0.0457532771011375,-0.114310514639356));
#935=CARTESIAN_POINT('',(0.0121192377827198,0.321844826322941,0.0658512303767877));
#936=CARTESIAN_POINT('',(0.328649880383004,-0.0436532771011374,-0.116897821335251));
#937=CARTESIAN_POINT('',(0.330749880383004,-0.0436532771011374,-0.113260514639356));
#938=CARTESIAN_POINT('',(0.332568533730951,-0.0373532771011374,-0.114310514639356));
#939=CARTESIAN_POINT('',(0.330749880383004,-0.0394532771011375,-0.113260514639356));
#940=CARTESIAN_POINT('',(0.328649880383004,-0.0394532771011375,-0.116897821335251));
#941=CARTESIAN_POINT('',(0.566951582234035,0.23571382632294,-0.25448137304729));
#942=CARTESIAN_POINT('',(0.332287187078898,-0.0352532771011375,-0.118997821335251));
#943=CARTESIAN_POINT('',(0.334387187078898,-0.0352532771011375,-0.115360514639356));
#944=CARTESIAN_POINT('',(0.357382009957605,0.599111929747018,-0.0755323131023886));
#945=CARTESIAN_POINT('',(0.332287187078898,0.599111929747018,-0.118997821335251));
#946=CARTESIAN_POINT('',(0.332287187078898,-0.0203,-0.118997821335251));
#947=CARTESIAN_POINT('',(0.334387187078898,-0.0203,-0.115360514639356));
#948=CARTESIAN_POINT('',(0.332568533730951,-0.0182,-0.114310514639356));
#949=CARTESIAN_POINT('',(0.0240501567462683,0.335621464873509,0.0589629111015034));
#950=CARTESIAN_POINT('',(0.328649880383004,-0.0161,-0.116897821335251));
#951=CARTESIAN_POINT('',(0.330749880383004,-0.0161,-0.113260514639356));
#952=CARTESIAN_POINT('',(0.332568533730951,-0.0098,-0.114310514639356));
#953=CARTESIAN_POINT('',(0.330749880383004,-0.0119,-0.113260514639356));
#954=CARTESIAN_POINT('',(0.328649880383004,-0.0119,-0.116897821335251));
#955=CARTESIAN_POINT('',(0.555020663270487,0.249490464873509,-0.247593053772005));
#956=CARTESIAN_POINT('',(0.332287187078898,-0.0077,-0.118997821335251));
#957=CARTESIAN_POINT('',(0.334387187078898,-0.0077,-0.115360514639356));
#958=CARTESIAN_POINT('',(0.357382009957605,0.599111929747018,-0.0755323131023886));
#959=CARTESIAN_POINT('',(0.332287187078898,0.599111929747018,-0.118997821335251));
#960=CARTESIAN_POINT('',(0.332287187078898,0.0077,-0.118997821335251));
#961=CARTESIAN_POINT('',(0.334387187078898,0.0077,-0.115360514639356));
#962=CARTESIAN_POINT('',(0.332568533730951,0.0098,-0.114310514639356));
#963=CARTESIAN_POINT('',(0.0361745123992504,0.349621464873509,0.0519629111015035));
#964=CARTESIAN_POINT('',(0.328649880383004,0.0119,-0.116897821335251));
#965=CARTESIAN_POINT('',(0.330749880383004,0.0119,-0.113260514639356));
#966=CARTESIAN_POINT('',(0.332568533730951,0.0182,-0.114310514639356));
#967=CARTESIAN_POINT('',(0.330749880383004,0.0161,-0.113260514639356));
#968=CARTESIAN_POINT('',(0.328649880383004,0.0161,-0.116897821335251));
#969=CARTESIAN_POINT('',(0.542896307617505,0.263490464873509,-0.240593053772005));
#970=CARTESIAN_POINT('',(0.332287187078898,0.0203,-0.118997821335251));
#971=CARTESIAN_POINT('',(0.334387187078898,0.0203,-0.115360514639356));
#972=CARTESIAN_POINT('',(0.357382009957605,0.599111929747018,-0.0755323131023886));
#973=CARTESIAN_POINT('',(0.332287187078898,0.599111929747018,-0.118997821335251));
#974=CARTESIAN_POINT('',(0.332287187078898,0.0352532771011373,-0.118997821335251));
#975=CARTESIAN_POINT('',(0.334387187078898,0.0352532771011374,-0.115360514639356));
#976=CARTESIAN_POINT('',(0.332568533730951,0.0373532771011374,-0.114310514639356));
#977=CARTESIAN_POINT('',(0.048105431362799,0.363398103424078,0.0450745918262191));
#978=CARTESIAN_POINT('',(0.328649880383004,0.0394532771011375,-0.116897821335251));
#979=CARTESIAN_POINT('',(0.330749880383004,0.0394532771011374,-0.113260514639356));
#980=CARTESIAN_POINT('',(0.332568533730951,0.0457532771011374,-0.114310514639356));
#981=CARTESIAN_POINT('',(0.31024745691899,0.0218266385505687,-0.105118476656182));
#982=CARTESIAN_POINT('',(0.329149880383004,0.0436532771011374,-0.116031795931466));
#983=CARTESIAN_POINT('',(0.332787187078898,0.0478532771011374,-0.118131795931466));
#984=CARTESIAN_POINT('',(0.330749880383004,0.0436532771011374,-0.113260514639356));
#985=CARTESIAN_POINT('',(0.328649880383004,0.0436532771011374,-0.116897821335251));
#986=CARTESIAN_POINT('',(0.530965388653956,0.277267103424078,-0.23370473449672));
#987=CARTESIAN_POINT('',(0.332287187078898,0.0478532771011374,-0.118997821335251));
#988=CARTESIAN_POINT('',(0.334387187078898,0.0478532771011374,-0.115360514639356));
#989=CARTESIAN_POINT('',(0.262401527369801,-0.0426000890534746,-0.0786493168897088));
#990=CARTESIAN_POINT('',(0.169113607939557,-0.0284504014395904,0.0659284562027271));
#991=CARTESIAN_POINT('',(0.230849462098606,-0.0378143475567512,0.0302852441853495));
#992=CARTESIAN_POINT('',(-0.0184579363714528,0.,-0.0319700835982296));
#993=CARTESIAN_POINT('',(0.192515867660703,-0.032,-0.0383008124441669));
#994=CARTESIAN_POINT('',(0.180650173884567,-0.0302002400602376,-0.0314501509483928));
#995=CARTESIAN_POINT('',(0.351616213097065,-0.0561319583600418,-0.0771189662109657));
#996=CARTESIAN_POINT('',(0.378839526140417,-0.0602611251131544,-0.0299668048695264));
#997=CARTESIAN_POINT('',(0.28400917567951,-0.0458774852642634,0.0247835234964252));
#998=CARTESIAN_POINT('',(0.357382009957605,0.599111929747018,-0.017578302125239));
#999=CARTESIAN_POINT('',(0.332287187078898,0.599111929747018,-0.00308979938095172));
#1000=CARTESIAN_POINT('',(0.332287187078898,0.0514807341236878,-0.00308979938095172));
#1001=CARTESIAN_POINT('',(0.418197208021298,0.0645113598109307,-0.0526899730981322));
#1002=CARTESIAN_POINT('',(0.377367282953984,0.0583183748185622,-0.0291168048695265));
#1003=CARTESIAN_POINT('',(0.377367282953984,0.599111929747018,-0.0291168048695265));
#1004=CARTESIAN_POINT('',(0.377367282953984,-0.0583183748185622,-0.0291168048695265));
#1005=CARTESIAN_POINT('',(0.284201458768358,-0.0441872063182035,0.0246725088033179));
#1006=CARTESIAN_POINT('',(0.378839526140417,0.599111929747018,-0.0299668048695264));
#1007=CARTESIAN_POINT('',(0.240503968546522,0.599111929747018,0.0247112122887518));
#1008=CARTESIAN_POINT('',(0.0708262609368149,0.,0.122674682452695));
#1009=CARTESIAN_POINT('',(0.231139558106826,-0.0361389046394311,0.030117757176912));
#1010=CARTESIAN_POINT('',(0.169305891028406,-0.0267601224935306,0.0658174415096198));
#1011=CARTESIAN_POINT('',(0.310471960169581,0.599111929747018,-0.00308979938095164));
#1012=CARTESIAN_POINT('',(0.392157952481042,0.0605617880566991,-0.00308979938095164));
#1013=CARTESIAN_POINT('',(0.252239592981699,0.599111929747018,-0.0727823213352507));
#1014=CARTESIAN_POINT('',(0.0315442286340598,0.,0.0546362066797608));
#1015=CARTESIAN_POINT('',(0.332287187078898,0.599111929747018,-0.118997821335251));
#1016=CARTESIAN_POINT('',(0.328649880383004,0.599111929747018,-0.116897821335251));
#1017=CARTESIAN_POINT('',(0.328649880383004,0.599111929747018,-0.116897821335251));
#1018=CARTESIAN_POINT('',(0.328649880383004,0.599111929747018,-0.116897821335251));
#1019=CARTESIAN_POINT('',(0.328649880383004,0.599111929747018,-0.116897821335251));
#1020=CARTESIAN_POINT('',(0.35374470326171,0.,-0.0734323131023887));
#1021=CARTESIAN_POINT('',(0.329149880383004,3.49684495772014E-18,-0.116031795931466));
#1022=CARTESIAN_POINT('',(0.329149880383004,2.27484945101844E-19,-0.116031795931466));
#1023=CARTESIAN_POINT('',(0.332787187078898,0.599111929747018,-0.118131795931466));
#1024=CARTESIAN_POINT('',(0.357382009957605,0.599111929747018,-0.0755323131023886));
#1025=CARTESIAN_POINT('',(0.262656463421645,0.040919313158398,-0.0786493168897088));
#1026=CARTESIAN_POINT('',(-0.00712176018492505,0.,-0.0123352504796111));
#1027=CARTESIAN_POINT('',(0.193592088721365,0.0304437946429708,-0.0369591780480028));
#1028=CARTESIAN_POINT('',(0.315673788611205,0.0489608537366177,-0.107443080342529));
#1029=CARTESIAN_POINT('',(0.32802763719657,0.0508346558256743,-0.114575578148817));
#1030=CARTESIAN_POINT('',(0.350217216555757,0.0542003179407005,-0.0761420993001243));
#1031=CARTESIAN_POINT('',(0.262656463421645,-0.0409193131583981,-0.0786493168897088));
#1032=CARTESIAN_POINT('',(-0.00712176018492622,0.,-0.0123352504796132));
#1033=CARTESIAN_POINT('',(0.193592088721365,-0.0304437946429708,-0.0369591780480027));
#1034=CARTESIAN_POINT('',(0.350217216555757,-0.0542003179407005,-0.0761420993001243));
#1035=CARTESIAN_POINT('',(0.32802763719657,-0.0508346558256743,-0.114575578148817));
#1036=CARTESIAN_POINT('',(0.181678039358266,-0.0286367002438906,-0.0300805984410791));
#1037=CARTESIAN_POINT('',(0.253089592981698,0.599111929747018,-0.0713100781488172));
#1038=CARTESIAN_POINT('',(0.0323942286340596,0.,0.0561084498661942));
#1039=CARTESIAN_POINT('',(0.32802763719657,0.,-0.114575578148817));
#1040=CARTESIAN_POINT('',(0.352272460075277,0.,-0.0725823131023887));
#1041=CARTESIAN_POINT('',(0.0511852447854373,0.,0.0886554445662276));
#1042=MECHANICAL_DESIGN_GEOMETRIC_PRESENTATION_REPRESENTATION('',(#643),#1043);
#1043=(
GEOMETRIC_REPRESENTATION_CONTEXT(3)
GLOBAL_UNCERTAINTY_ASSIGNED_CONTEXT((#1044))
GLOBAL_UNIT_ASSIGNED_CONTEXT((#1047,#1046,#1045))
REPRESENTATION_CONTEXT('bin_third_center','TOP_LEVEL_ASSEMBLY_PART')
);
#1044=UNCERTAINTY_MEASURE_WITH_UNIT(LENGTH_MEASURE(1.E-08),#1047,'DISTANCE_ACCURACY_VALUE','Maximum Tolerance applied to model');
#1045=(
NAMED_UNIT(*)
SI_UNIT($,.STERADIAN.)
SOLID_ANGLE_UNIT()
);
#1046=(
NAMED_UNIT(*)
PLANE_ANGLE_UNIT()
SI_UNIT($,.RADIAN.)
);
#1047=(
LENGTH_UNIT()
NAMED_UNIT(*)
SI_UNIT($,.METRE.)
);
#1048=PRODUCT_DEFINITION_SHAPE('','',#1049);
#1049=PRODUCT_DEFINITION('','',#1051,#1050);
#1050=PRODUCT_DEFINITION_CONTEXT('',#1057,'design');
#1051=PRODUCT_DEFINITION_FORMATION_WITH_SPECIFIED_SOURCE('','',#1053,.NOT_KNOWN.);
#1052=PRODUCT_RELATED_PRODUCT_CATEGORY('','',(#1053));
#1053=PRODUCT('bin_third_center','bin_third_center','bin_third_center',(#1055));
#1054=PRODUCT_CATEGORY('','');
#1055=PRODUCT_CONTEXT('',#1057,'mechanical');
#1056=APPLICATION_PROTOCOL_DEFINITION('international standard','ap242_managed_model_based_3d_engineering',2020,#1057);
#1057=APPLICATION_CONTEXT('managed model based 3d engineering');
ENDSEC;
END-ISO-10303-21;
